<svg width="161" height="36" xmlns="http://www.w3.org/2000/svg">
  <g fill="#EB212E" fill-rule="nonzero">
    <path d="M79.798 31.305l-2.903-5.676H66.658l-2.846 5.676H60.49L73.68 6.222l13.508 25.075h-7.382l-.008.008zm-11.786-8.35h7.521c-1.796-3.412-3.814-7.431-3.814-7.431s-2.945 5.93-3.707 7.423v.008zm58.096-6.865c3.79 1.419 8.137 2.665 8.137 7.808 0 4.438-4.56 7.636-10.524 7.636a26.378 26.378 0 0 1-8.44-1.419l-.172-6.709a8.268 8.268 0 0 0 7.8 6.004c3.798 0 5.2-2.059 5.2-3.798 0-3.338-4.429-3.625-8.013-5.438-3.708-1.845-5.028-3.871-5.028-6.463 0-5.323 6.053-7.136 9.76-7.136 2.343.018 4.665.437 6.866 1.239l.213 5.897a7.964 7.964 0 0 0-7.382-4.921c-2.813 0-4.216 1.558-4.216 3.092 0 2.165 2.001 2.846 5.84 4.191l-.041.017zM96.309 9.224v19.907c.296.044.595.069.894.074 4.389 0 6.75-1.739 6.75-4.921 0-4.052-3.28-5.086-5.544-5.742a4.921 4.921 0 0 0 4.01-5.15c0-2.027-1.705-4.192-5.068-4.192-.346 0-.691.024-1.034.074l-.008-.05zm2.24-2.05c2.895 0 9.842.992 9.842 5.741 0 4.544-6.094 5.644-6.094 5.644s8.694.352 8.694 6.036c0 2.838-2.46 6.75-11.294 6.75H90.28V7.15h8.202l.065.025zm54.963 24.13l-2.904-5.675h-10.22l-2.846 5.676h-3.322l13.165-25.083 13.509 25.075h-7.382v.008zm-11.795-8.35h7.513c-1.788-3.411-3.806-7.43-3.806-7.43s-2.944 5.93-3.707 7.423v.008zM20.824 16.64c-6.972.778-14.182 4.683-14.182 8.644 0 4.635 6.75 9.113 21.498 10.606C13.483 36.94.95 31.026.95 25.022c0-5.077 8.473-9.597 20.81-10.548l-.936 2.165z"/>
    <path d="M14.27 26.26a4.216 4.216 0 1 1 8.432 0 4.216 4.216 0 0 1-8.432 0M36.556 14.843L27.944-.061l-3.445 8.137 9.908 17.143c2.19 3.781 5.118 5.446 8.448 5.446 6.652 0 10.409-3.076 10.598-5.676.32-4.544-6.89-8.563-16.897-10.146m9.416 13.074c-1.788-.27-3.06-2.075-5.15-5.741l-3.282-5.684c7.85 1.492 13.444 4.642 13.132 8.317-.131 1.542-2.149 3.018-4.7 3.108"/>
  </g>
</svg>
