<svg width="174" height="29" xmlns="http://www.w3.org/2000/svg">
  <g fill-rule="nonzero" fill="none">
    <path d="M53.664 23.553v-10.92H51.63v-2.554h2.035V9.014c0-2.824 1.669-4.171 4.4-4.171.828 0 1.577.123 2.366.37v2.65c-.565-.16-1.137-.334-1.73-.334-1.271 0-1.758.427-1.758 1.722v.828h3.04v2.554h-3.04v10.92h-3.278zM61.802 23.553V10.079h3.252v.905a4.342 4.342 0 0 1 2.947-1.116c.476 0 .931.106 1.387.23v3.016c-.575-.145-1.052-.27-1.653-.27-1.288 0-2.03.412-2.655.918v9.79h-3.278zM71.609 23.553h3.278V10.079H71.61v13.474zm1.653-14.854A1.802 1.802 0 0 1 71.431 6.9c0-.972.777-1.799 1.831-1.799 1.026 0 1.831.824 1.831 1.8 0 .974-.805 1.798-1.83 1.798zM84.016 23.763c-4.15 0-6.49-2.626-6.49-6.724 0-3.918 2.062-7.17 6.384-7.17 1.344 0 2.237.186 3.476.707v2.782c-1.152-.532-1.93-.803-3.212-.803-2.28 0-3.29 1.522-3.29 4.484 0 2.737 1.272 4.012 3.449 4.012 1.415 0 2.064-.205 3.29-.904v2.848c-1.2.558-2.265.768-3.607.768M94.139 21.157c.838 0 1.538-.316 1.967-.696v-2.573c-.214-.008-.483-.019-.698-.019-2.19 0-3.079.595-3.079 1.75 0 .976.613 1.538 1.81 1.538M99 23.763c-1.069 0-1.87-.452-2.326-1.22-.719.67-1.915 1.22-3.303 1.22-2.563 0-4.348-1.47-4.348-3.934 0-2.931 2.514-4.25 6.119-4.25.31 0 .66.014.963.032v-.518c0-1.704-.632-2.486-2.338-2.486-1.344 0-2.344.361-3.555.902v-2.83c1.309-.536 2.614-.81 4.031-.81 3.094 0 5.14 1.578 5.14 4.777v5.656c0 .654.24.776.648.776.107 0 .217-.013.325-.03l.337-.057.118-.02v2.402c-.661.274-1.05.39-1.811.39M102.848 23.553V10.079h3.226v.75a6.075 6.075 0 0 1 3.263-.96c3.37 0 4.534 2.144 4.534 4.855v8.829h-3.279v-8.407c0-1.703-.463-2.538-2.153-2.538-.901 0-1.73.375-2.313.751v10.194h-3.278zM139.119 21.157c.838 0 1.538-.316 1.968-.696v-2.573c-.215-.008-.482-.019-.7-.019-2.188 0-3.078.595-3.078 1.75 0 .976.615 1.538 1.81 1.538m4.863 2.606c-1.068 0-1.87-.452-2.326-1.22-.72.67-1.915 1.22-3.304 1.22-2.563 0-4.348-1.47-4.348-3.934 0-2.931 2.515-4.25 6.119-4.25.31 0 .662.014.964.032v-.518c0-1.704-.631-2.486-2.338-2.486-1.345 0-2.345.361-3.555.902v-2.83a10.403 10.403 0 0 1 4.03-.81c3.095 0 5.141 1.578 5.141 4.777v5.656c0 .654.24.776.647.776.108 0 .217-.013.325-.03l.338-.057.117-.02v2.402c-.66.274-1.048.39-1.81.39M147.83 23.553V10.079h3.225v.75a6.071 6.071 0 0 1 3.263-.96c3.369 0 4.533 2.144 4.533 4.855v8.829h-3.278v-8.407c0-1.703-.464-2.538-2.154-2.538-.9 0-1.73.375-2.312.751v10.194h-3.278zM171.998 23.658c-1.37 0-2.383-.417-3.494-1.91l-3.124-4.097v5.902h-3.28v-18.5h3.28v10.103l4.122-5.077h3.729l-5.096 6.1 3.233 4.122c.391.512.655.672 1.106.672.095 0 .623-.069.623-.069v2.57c-.375.113-.704.184-1.099.184M125.104 12.558c2.07 0 2.97-.924 2.97-2.572 0-1.41-.866-2.396-2.94-2.396h-1.7v4.968h1.67zm.089 8.248c2.133 0 3.207-.986 3.207-2.81 0-1.893-.997-2.927-3.146-2.927h-1.82v5.737h1.759zm.445 2.746h-5.587V4.843h5.409c3.886 0 5.996 1.904 5.996 4.817 0 1.86-.999 3.207-2.264 3.866l-.381.199.402.154c1.64.628 2.838 2.036 2.838 4.206 0 3.323-2.462 5.467-6.413 5.467zM39.236 23.553h-3.464l6.266-18.71h3.77l6.057 18.71h-3.702l-1.11-3.816h-6.658l-1.16 3.816zm6.993-6.659l-2.431-8.36-2.54 8.36h4.97zM4.964 26.98c-.994-.475-1.692-.949-2.141-1.302-.444-.35-.645-.585-.645-.585-.81-.873-1.197-1.537-1.55-2.671 0 0-.104-.292-.186-.85-.084-.566-.146-1.405-.061-2.498.168-2.19.927-5.407 3.295-9.49 2.902-5.005 5.878-7.274 7.74-8.28C7.374 5.48 6.146 15.026 7.28 18.897c.41 1.234 1.019 1.722 1.111 1.791.139.153 1.855 1.944 6.474 1.944 4.798 0 6.464-1.932 6.482-1.954.423-.455.625-.804.81-1.395.008-.023.607-1.723-.627-4.723 3.774 5.515 5.402 13.263-4.135 14.224-.788.063-1.632.095-2.53.095-4.736 0-7.912-.952-9.902-1.9z" fill="#002B60"/>
    <path d="M14.056 8.106c-.029.006-2.54.476-4.939 4.613-.47.81-.815 1.553-1.066 2.226.088-6.273 3.195-15.09 8.367-14.408 0 0 .3.056.827.264.532.21 1.294.576 2.205 1.196 1.82 1.24 4.238 3.503 6.605 7.586 2.368 4.085 3.128 7.3 3.298 9.488.084 1.094.022 1.933-.061 2.497a4.99 4.99 0 0 1-.187.85c-.353 1.134-.738 1.799-1.548 2.672 0 0-.073.085-.223.225a7.686 7.686 0 0 1-.72.584c-.583.42-1.457.95-2.68 1.446 1.947-2.042 2.154-4.97 1.292-7.942-1.446-4.987-6.002-10.463-9.309-11.268-.106-.026-.432-.068-.432-.068-.509-.096-.888-.082-1.43.04z" fill="#89BC47"/>
  </g>
</svg>
