<svg width="87" height="77" xmlns="http://www.w3.org/2000/svg">
  <defs>
    <radialGradient cx="16.268%" cy="14.891%" fx="16.268%" fy="14.891%" r="83.931%" gradientTransform="matrix(.99763 0 0 1 0 0)" id="a">
      <stop stop-color="#7FD3F3" offset="0%"/>
      <stop stop-color="#017CC2" offset="100%"/>
    </radialGradient>
  </defs>
  <g fill-rule="nonzero" fill="none">
    <path fill="#FFF" d="M10.326.317h75.44v75.724h-75.44z"/>
    <path d="M5.48 74.474h-.664c-.084-.268-.1-.766-.1-.886 0-.243-.038-.493-.492-.493h-.976v1.379h-.585V71.11h1.561c.535 0 1.13.189 1.13.936 0 .424-.178.628-.364.757.153.087.285.231.303.613l.024.582c.006.168.024.201.162.28v.195zm-.724-2.382c0-.423-.292-.459-.502-.459H3.248v.937h.931c.31 0 .577-.072.577-.478zm2.762.736a3.59 3.59 0 0 0-3.606-3.585 3.587 3.587 0 0 0-3.603 3.585 3.584 3.584 0 0 0 3.603 3.582c1.99 0 3.606-1.591 3.606-3.582zm-.546 0c0 1.69-1.297 3.06-3.06 3.06-1.76 0-3.057-1.37-3.057-3.06s1.291-3.06 3.057-3.06c1.769 0 3.06 1.37 3.06 3.06z" fill="#1790CD"/>
    <path d="M85.767 41.556h-3.93c-1.175 0-2.054.273-2.66.711v-.711H73.38c-.919 0-2.027.222-2.54.711v-.711H60.485v.711c-.829-.585-2.216-.711-2.87-.711h-6.838v.711c-.654-.63-2.09-.711-2.97-.711h-7.665l-1.754 1.897-1.63-1.897H25.327v12.376h11.218l1.798-1.927 1.703 1.921 6.906.006v-2.918h.687c.913 0 1.994-.021 2.937-.426v3.344h5.72v-3.24h.28c.348-.002.375.028.375.358v2.882h17.316c1.09 0 2.264-.282 2.897-.783v.783h5.49c1.137 0 2.263-.165 3.113-.567v22.676H10.326V38.667h3.62l.818-1.985h1.825l.82 1.985h7.128v-1.51l.64 1.513h3.69l.642-1.537v1.534h17.707l-.003-3.24h.345c.256 0 .316.03.316.424v2.816h9.16l-.002-.769c.73.397 1.876.77 3.402.77h3.852l.832-1.986h1.825l.82 1.985h7.405v-1.88l1.138 1.88h5.948V26.29h-5.882v1.46l-.844-1.46h-6.044v1.46l-.742-1.46h-8.164c-1.375 0-2.586.183-3.546.712v-.712h-5.627v.712c-.64-.54-1.472-.712-2.402-.712H28.42l-1.394 3.192-1.408-3.192h-6.477v1.46l-.732-1.46H12.88l-2.555 5.87V.317h75.44v41.239zm-5.393-4.636h-3.02l-4.015-6.657.003 6.657h-4.315l-.817-1.988h-4.413l-.814 1.988h-2.468c-1.042 0-2.345-.24-3.084-.988-.745-.76-1.123-1.772-1.123-3.387 0-1.318.234-2.523 1.138-3.468.682-.706 1.766-1.04 3.228-1.04H62.7v1.904l-1.985-.003c-.784 0-1.225.118-1.64.532-.372.37-.621 1.078-.621 2.012 0 .945.186 1.624.603 2.08.313.346.901.454 1.472.454h.952l2.987-6.978h3.159l3.594 8.398v-8.398h3.24l3.73 6.182-.004-6.182h2.186v8.882zm-27.273 0h2.171v-8.885h-2.17v8.885zm-2.312-8.453c-.684-.39-1.48-.43-2.555-.43h-4.885v8.883h2.12v-3.234h2.275c.772 0 1.238.069 1.54.39.394.417.35 1.192.35 1.72v1.124h2.134v-1.763c0-.772-.054-1.18-.351-1.61-.18-.258-.58-.576-1.045-.753.558-.22 1.51-.949 1.51-2.357 0-.994-.411-1.577-1.093-1.97zm-8.909 6.597l-4.963.006v-1.76l4.843.003v-1.825h-4.843v-1.6h4.963v-1.85h-7.083v8.882h7.083v-1.856zm-8.665-7.026h-3.531L27.13 34.06l-2.765-6.023h-3.471l.003 8.401-3.597-8.401h-3.159l-3.798 8.882h2.312l.813-1.988h4.414l.817 1.988h4.315v-6.964l3.083 6.964h1.865l3.075-6.955v6.955h2.177v-8.882zm34.233 5.044L66 29.554l-1.445 3.528h2.892zM49.093 31.68c-.286.171-.63.183-1.04.183h-2.585v-1.976h2.616c.375 0 .756.012 1.009.154.264.147.435.42.435.795 0 .382-.165.688-.435.844zm-34.864 1.402l1.444-3.528 1.448 3.528h-2.892zm72 16.304c0 1.89-1.186 2.796-3.333 2.796h-4.095v-1.904h4.08c.394 0 .676-.054.853-.216a.784.784 0 0 0 .25-.58.746.746 0 0 0-.259-.588c-.159-.135-.375-.19-.739-.198-1.981-.054-4.473.063-4.473-2.754 0-1.273.807-2.642 3.038-2.642h4.228v1.907h-3.87c-.382 0-.637.012-.844.15-.225.147-.316.357-.316.643 0 .33.193.561.466.657.216.075.46.093.814.1l1.138.03c1.177.026 1.945.221 2.423.714.42.441.64.96.64 1.885zm-8.927-1.885c-.477-.49-1.252-.688-2.429-.715l-1.135-.03c-.354-.006-.594-.024-.813-.099a.672.672 0 0 1-.463-.657c0-.286.09-.496.312-.643.208-.138.466-.15.85-.15h3.889V43.3h-4.25c-2.23 0-3.038 1.366-3.038 2.642 0 2.82 2.492 2.7 4.471 2.754.363.009.583.063.739.198.15.126.261.324.261.589 0 .249-.111.447-.252.58-.177.161-.457.215-.853.215h-4.117v1.904h4.132c2.147 0 3.333-.907 3.333-2.796 0-.924-.216-1.444-.637-1.885zm-8.089 2.834l-4.963-.003V48.58h4.846V46.75l-4.846.003v-1.6h4.963V43.3H62.13v8.882h7.083v-1.847zm-9.35-6.602c-.687-.394-1.48-.433-2.552-.433h-4.888v8.882h2.116v-3.228l2.282-.003c.772 0 1.235.07 1.54.387.394.42.346 1.192.346 1.721v1.123h2.138v-1.76c-.003-.771-.054-1.18-.354-1.609-.177-.261-.577-.58-1.04-.757.553-.219 1.505-.946 1.505-2.357 0-.99-.411-1.573-1.093-1.966zM47.86 43.3h-6.78l-2.706 2.916-2.6-2.916h-8.54v8.882h8.408l2.711-2.928 2.61 2.928h4.128v-2.973h2.636c1.853 0 3.69-.513 3.69-2.972 0-2.456-1.885-2.937-3.557-2.937zm10.31 3.648c-.288.165-.633.178-1.041.178l-2.589.003v-1.976h2.619c.375 0 .756.012 1.012.15.264.15.432.423.432.799 0 .38-.165.687-.432.846zm-10.334.439H45.09v-2.234h2.769c.76 0 1.282.315 1.282 1.084 0 .762-.499 1.15-1.306 1.15zm-8.114.375l3.25-3.498v7.107l-3.25-3.609zm-5.155 2.57h-5.21V48.58h4.645V46.75l-4.645.003v-1.6h5.303l2.327 2.582-2.42 2.597z" fill="url(#a)"/>
  </g>
</svg>
