<svg width="154" height="32" xmlns="http://www.w3.org/2000/svg">
  <g fill-rule="nonzero" fill="none">
    <path d="M31.887 19.783C29.76 28.32 21.112 33.515 12.574 31.386 4.04 29.258-1.156 20.611.974 12.074 3.1 3.536 11.748-1.66 20.284.47c8.537 2.128 13.732 10.776 11.603 19.314z" fill="#F7931A"/>
    <path d="M23.456 13.658c.318-2.12-1.297-3.26-3.504-4.021l.716-2.873-1.749-.435-.697 2.796a73.14 73.14 0 0 0-1.4-.33l.701-2.814-1.747-.436-.717 2.871c-.38-.086-.754-.172-1.116-.262l.002-.01-2.411-.601-.465 1.867s1.297.298 1.27.316c.708.177.836.645.814 1.017l-.816 3.272c.05.013.112.03.182.058l-.185-.045-1.143 4.584c-.087.215-.306.537-.801.415.017.025-1.271-.317-1.271-.317L8.25 20.71l2.275.567c.424.106.838.217 1.247.322l-.724 2.905 1.747.436.716-2.874c.477.13.94.249 1.394.361l-.715 2.861 1.749.436.723-2.9c2.982.564 5.224.337 6.168-2.36.76-2.171-.038-3.424-1.607-4.24 1.142-.264 2.003-1.015 2.232-2.567zm-3.994 5.601c-.54 2.172-4.196.998-5.382.704l.96-3.85c1.186.296 4.986.882 4.422 3.146zm.54-5.633c-.493 1.975-3.535.972-4.522.726l.87-3.491c.987.246 4.166.705 3.652 2.765z" fill="#FFF"/>
    <path d="M47.196 9.634c1.292 0 2.408.231 3.347.686a6.739 6.739 0 0 1 2.344 1.856c.616.781 1.074 1.695 1.37 2.742.293 1.05.44 2.18.44 3.388 0 1.857-.34 3.61-1.026 5.264-.687 1.656-1.619 3.092-2.804 4.317a13.186 13.186 0 0 1-4.195 2.9c-1.61.714-3.36 1.07-5.24 1.07-.243 0-.67-.006-1.273-.019a18.622 18.622 0 0 1-2.075-.18c-.781-.109-1.608-.27-2.481-.486a12.433 12.433 0 0 1-2.482-.887L40.1.965l6.25-.968L43.851 10.4a9.716 9.716 0 0 1 1.611-.563 7.159 7.159 0 0 1 1.734-.204zM41.953 26.9c.941 0 1.828-.232 2.661-.687a7.005 7.005 0 0 0 2.161-1.835 9.258 9.258 0 0 0 1.431-2.602 8.866 8.866 0 0 0 .525-3.027c0-1.29-.216-2.297-.646-3.025-.43-.724-1.225-1.089-2.38-1.089-.378 0-.865.072-1.47.201a3.671 3.671 0 0 0-1.636.85l-2.66 11.049c.16.028.302.055.423.08.119.028.25.047.38.06.138.016.296.024.487.024h.724zM61.18 31.296h-5.97l5.04-21.212h6.011l-5.082 21.212zM64.083 7.5a3.704 3.704 0 0 1-2.259-.745c-.676-.494-1.01-1.254-1.01-2.28 0-.563.114-1.092.341-1.59.23-.499.532-.928.91-1.292.376-.362.813-.65 1.31-.868A4 4 0 0 1 64.97.403c.832 0 1.584.248 2.257.745.67.5 1.007 1.26 1.007 2.279 0 .566-.114 1.097-.343 1.594a4.198 4.198 0 0 1-.906 1.292c-.374.362-.815.65-1.31.865-.5.218-1.028.321-1.592.321zM71.492 4.798l6.253-.968-1.536 6.253h6.696l-1.209 4.919h-6.655l-1.773 7.42a8.392 8.392 0 0 0-.282 1.733c-.03.539.039 1.002.2 1.392.16.391.449.692.867.905.416.217 1.012.326 1.794.326a9.55 9.55 0 0 0 1.878-.183c.603-.12 1.214-.286 1.833-.503l.445 4.6c-.807.295-1.68.55-2.621.764-.943.217-2.06.321-3.349.321-1.854 0-3.292-.275-4.316-.823-1.023-.553-1.746-1.307-2.18-2.262-.426-.952-.617-2.049-.563-3.285.055-1.239.242-2.541.564-3.913l3.954-16.696zM82.642 22.826c0-1.828.296-3.55.887-5.164a12.702 12.702 0 0 1 2.543-4.237c1.1-1.206 2.439-2.161 4.015-2.862 1.568-.698 3.325-1.05 5.26-1.05 1.212 0 2.294.115 3.246.345.957.232 1.822.53 2.604.906l-2.059 4.681a19.277 19.277 0 0 0-1.673-.584c-.578-.178-1.283-.264-2.117-.264-1.992 0-3.568.687-4.74 2.056-1.168 1.37-1.756 3.214-1.756 5.527 0 1.371.296 2.48.89 3.328.59.848 1.681 1.27 3.265 1.27.782 0 1.537-.082 2.26-.241a11.128 11.128 0 0 0 1.936-.605l.446 4.799c-.755.292-1.587.557-2.5.788-.916.224-2.006.34-3.269.34-1.668 0-3.08-.244-4.234-.725-1.156-.488-2.11-1.135-2.862-1.956a7.374 7.374 0 0 1-1.635-2.886 11.838 11.838 0 0 1-.507-3.466zM109.16 31.859c-1.425 0-2.662-.217-3.712-.647-1.047-.43-1.914-1.033-2.6-1.815-.686-.777-1.2-1.7-1.552-2.761-.352-1.062-.521-2.238-.521-3.526 0-1.616.259-3.232.783-4.843a13.71 13.71 0 0 1 2.322-4.354 12.395 12.395 0 0 1 3.748-3.17c1.475-.818 3.173-1.23 5.079-1.23 1.399 0 2.63.218 3.694.648 1.06.429 1.932 1.037 2.621 1.815.683.782 1.201 1.7 1.55 2.763.35 1.06.524 2.239.524 3.528 0 1.611-.256 3.226-.764 4.842a13.981 13.981 0 0 1-2.259 4.355c-.994 1.29-2.237 2.344-3.73 3.164-1.49.82-3.22 1.231-5.183 1.231zm2.984-17.261c-.885 0-1.668.257-2.337.764a6.59 6.59 0 0 0-1.693 1.937 9.563 9.563 0 0 0-1.031 2.562 11.04 11.04 0 0 0-.341 2.64c0 1.346.217 2.395.644 3.15.433.75 1.21 1.127 2.34 1.127.888 0 1.666-.255 2.34-.768a6.62 6.62 0 0 0 1.692-1.935 9.589 9.589 0 0 0 1.032-2.561c.226-.926.34-1.809.34-2.641 0-1.343-.216-2.394-.646-3.147-.43-.75-1.211-1.128-2.34-1.128zM127.6 31.296h-5.974l5.041-21.212h6.014l-5.08 21.212zM130.5 7.5a3.697 3.697 0 0 1-2.256-.745c-.672-.494-1.01-1.254-1.01-2.28 0-.563.116-1.092.344-1.59.227-.499.53-.928.908-1.292.375-.362.816-.65 1.31-.868a3.972 3.972 0 0 1 1.591-.321c.835 0 1.589.248 2.26.745.672.5 1.011 1.26 1.011 2.279 0 .566-.12 1.097-.346 1.594a4.186 4.186 0 0 1-.905 1.292c-.378.362-.814.65-1.31.865-.5.218-1.03.321-1.596.321zM136.983 11.048c.453-.132.959-.292 1.51-.465.551-.173 1.168-.335 1.858-.48.681-.15 1.45-.271 2.297-.366.846-.096 1.81-.142 2.881-.142 3.148 0 5.319.916 6.517 2.744 1.197 1.829 1.404 4.33.627 7.502l-2.746 11.453h-6.008l2.661-11.212c.162-.7.29-1.377.384-2.039.095-.655.09-1.233-.021-1.733a2.076 2.076 0 0 0-.744-1.211c-.394-.308-.99-.463-1.797-.463-.778 0-1.57.083-2.378.245l-3.913 16.413H132.1l4.883-20.246z" fill="#4D4D4D"/>
  </g>
</svg>
