<svg width="114" height="40" xmlns="http://www.w3.org/2000/svg">
  <path d="M113.615 9.52h-5.89l-3.409 14.382-.478 1.974c-.329.09-.658.179-.987.239-.598.12-1.226.18-1.883.18-.748 0-1.345-.12-1.794-.33-.419-.209-.748-.508-.927-.927-.18-.388-.24-.867-.21-1.405s.15-1.136.3-1.734l1.793-7.475 1.166-4.963h-6.01l-2.72 11.481a21.27 21.27 0 0 0-.569 3.947c-.06 1.255.15 2.332.569 3.319.418.957 1.166 1.704 2.182 2.272 1.017.568 2.482.837 4.336.837 1.286 0 2.422-.12 3.379-.329.03 0 .09-.03.12-.03-.27 1.196-.808 2.153-1.645 2.9-.867.748-2.123 1.137-3.798 1.137-.717 0-1.375-.03-1.973-.12L94 39.75c.777.09 1.645.15 2.601.15 1.794 0 3.349-.21 4.694-.599 1.346-.418 2.482-1.016 3.469-1.853.956-.838 1.764-1.884 2.421-3.11.658-1.255 1.166-2.721 1.555-4.455l4.066-17.103.808-3.259zM88.948 21.81a13.566 13.566 0 0 0-.33 4.515c.15 1.525.748 3.827 1.317 4.993h-5.681c-.688-1.166-.658-1.734-.807-2.093a10.77 10.77 0 0 1-2.452 1.495c-.897.39-1.884.598-3.02.598-1.316 0-2.452-.239-3.379-.687a6.378 6.378 0 0 1-2.302-1.854c-.598-.778-1.016-1.675-1.286-2.721-.27-1.047-.389-2.153-.389-3.349 0-1.824.33-3.528.958-5.142.657-1.615 1.554-3.02 2.69-4.216 1.137-1.196 3.918-3.857 8.462-3.857h9.12l-2.901 12.318zm-4.156-7.325c-2.75 0-3.26 0-4.395.568-.807.418-1.465 1.046-2.033 1.764a8.47 8.47 0 0 0-1.376 2.512 9.059 9.059 0 0 0-.508 2.96c0 1.255.21 2.272.628 3.02.418.747 1.196 1.105 2.332 1.105.598 0 1.166-.119 1.645-.358.478-.24 1.016-.628 1.554-1.196.06-.658.15-1.346.27-2.063.119-.718.269-1.405.388-2.003l1.495-6.31zM69.005 18.16c0 1.944-.33 3.708-.957 5.322a12.24 12.24 0 0 1-2.661 4.157c-1.137 1.166-2.482 2.063-4.067 2.72-1.584.658-3.288.987-5.142.987-.897 0-1.794-.09-2.721-.24l-1.794 7.207h-5.89L52.618 9.55h7.864c1.496 0 2.78.24 3.827.687a7.464 7.464 0 0 1 2.661 1.854c.688.778 1.196 1.705 1.525 2.751.36 1.017.509 2.123.509 3.32zm-14.442 8.163c.448.12 1.017.15 1.675.15 1.046 0 1.973-.18 2.84-.57a6.496 6.496 0 0 0 2.182-1.613c.599-.688 1.047-1.525 1.406-2.482a9.84 9.84 0 0 0 .508-3.2c0-1.136-.24-2.122-.747-2.9-.509-.807-1.375-1.226-2.631-1.226h-2.333l-2.9 11.84zm-12.378 0c-.748 0-1.345-.12-1.794-.329-.42-.21-.748-.508-.927-.927-.18-.389-.24-.867-.21-1.405.03-.539.15-1.137.3-1.735l1.793-7.474h6.698L49.27 9.49h-6.728l1.555-6.279-6.28.986-3.976 16.804a21.273 21.273 0 0 0-.568 3.947c-.06 1.256.15 2.333.568 3.319.418.957 1.166 1.704 2.183 2.272 1.016.568 2.481.837 4.335.837 1.286 0 2.422-.12 3.379-.329.09-.03.239-.06.328-.09l1.227-5.112c-.42.15-.838.24-1.227.298-.597.12-1.225.18-1.882.18zM27.205 9.52l-5.203 21.827h5.89L33.066 9.52h-5.86zm6.488-2.511l.897-3.798H28.7l-.897 3.798h5.89zM14.17 9.549c1.255 0 2.362.24 3.288.688a6.562 6.562 0 0 1 2.303 1.824 8.127 8.127 0 0 1 1.345 2.692c.299 1.016.448 2.122.448 3.318 0 1.824-.328 3.529-1.016 5.173-.688 1.615-1.585 3.05-2.75 4.245a12.872 12.872 0 0 1-4.127 2.841c-1.585.688-3.289 1.046-5.143 1.046-.239 0-.657 0-1.255-.03-.598 0-1.286-.06-2.033-.179a26.59 26.59 0 0 1-2.422-.478 12.238 12.238 0 0 1-2.422-.867L7.232 1.058l6.13-.957-2.423 10.196c.538-.24 1.017-.419 1.555-.538.508-.15 1.076-.21 1.675-.21zM9.026 26.474c.927 0 1.794-.21 2.601-.687a7.154 7.154 0 0 0 2.123-1.794 8.788 8.788 0 0 0 1.405-2.542 9.057 9.057 0 0 0 .508-2.96c0-1.256-.209-2.242-.628-2.96-.418-.718-1.285-1.046-2.421-1.046-.36 0-.748.03-1.346.18-.598.118-1.106.418-1.585.836L7.112 26.354c.777.12 1.017.149 1.226.149.15-.03.389-.03.688-.03z" fill="#002855" fill-rule="nonzero"/>
</svg>
