<svg width="156" height="26" xmlns="http://www.w3.org/2000/svg">
  <g fill="none" fill-rule="evenodd">
    <path d="M106.73 16.188h3.446V4.179h-3.445v12.009zm5.66-11.997l-.002 1.056 4.6-.006v10.97h3.396V5.242h4.598v-1.05l-1.445-.003-11.147.003zM89.67 16.211L82.013 3.864l-7.36 12.349h1.76l4.767-8.137 1.965 3.327-3.099.002c-.18 0-.34.092-.433.232l-.457.815h4.617L86 16.211h3.67zm37.536 0h10.377v-1.05h-6.955v-4.842h6.493V9.275h-6.493V5.24h6.955V4.188l-10.377.002v12.022zM99.588 4.192h-7.882v12.02h3.422V5.243h2.834c1.558 0 2.833 1.147 2.833 2.543 0 1.396-1.275 2.544-2.833 2.544H96.165a.53.53 0 0 0-.528.53v.529h3.951c2.714 0 4.658-1.686 4.658-3.64 0-1.957-1.944-3.558-4.658-3.558zM74.23 13.22l-1.11-.46c-.509.702-1.248 1.295-2.11 1.735a6.347 6.347 0 0 1-1.862.654 7.352 7.352 0 0 1-1.518.164c-.33 0-.632-.025-.913-.07-2.931-.284-4.672-2.025-4.672-4.98 0-3.349 2.228-5.33 5.685-5.33 1.628 0 3.104.416 4.288 1.57 0 0 .214.236.54.335a.93.93 0 0 0 .553.005c.183-.055.379-.174.577-.39 0 0-.077-.084-.176-.186a5.463 5.463 0 0 0-.23-.23l-.141-.13C71.448 4.4 69.27 3.986 67.05 3.986c-4.807 0-8.672 2.576-8.672 6.207 0 3.793 3.865 6.225 8.538 6.225 2.721 0 5.609-.742 7.312-3.197zm80.011-.46c-.51.702-1.248 1.295-2.11 1.735a6.347 6.347 0 0 1-1.862.654 7.359 7.359 0 0 1-1.518.164c-.33 0-.632-.025-.912-.07-2.932-.284-4.673-2.025-4.673-4.98 0-3.349 2.227-5.33 5.686-5.33 1.627 0 3.102.416 4.287 1.57 0 0 .214.236.54.335a.93.93 0 0 0 .553.005c.183-.055.378-.174.578-.39 0 0-.078-.084-.176-.186a6.069 6.069 0 0 0-.23-.23l-.142-.13c-1.693-1.507-3.869-1.922-6.088-1.922-4.807 0-8.672 2.576-8.672 6.207 0 3.793 3.865 6.225 8.537 6.225 2.722 0 5.608-.742 7.313-3.197l-1.11-.46zm-83.169 7.308l3.736 5.828h-1.728l-.909-1.52h-3.012l-.898 1.52h-.776l3.587-5.828zm.858 3.95l-1.272-2.08-1.272 2.08h2.544zm9.927-.197l-4.215-3.63h-1.794v5.705h.776v-4.434l5.116 4.434h.895v-5.704h-.778v3.629zm8.478-3.63h-1.005l-3.227 2.847s1.516 1.726 2.1 2.323c.465.475.93.53 1.53.535h.869l-2.999-3.259 2.732-2.445zm-5.944 5.705h1.62V20.19h-1.62v5.705zm-17.4-1.657c0 .927-.96 1.657-2.247 1.657h-4.165v-5.703h4.049c1.105 0 1.915.55 1.915 1.34 0 .493-.349.946-.877 1.218.781.263 1.325.821 1.325 1.488zm-4.789-1.651h1.793c.672 0 1.147-.482 1.147-1.054 0-.57-.475-.954-1.147-.954H62.2v2.008zm3.157 1.65c0-.614-.465-1.137-1.161-1.22H62.2v2.425h1.804c.783 0 1.353-.535 1.353-1.204z" fill="#333334"/>
    <path d="M17.876.328v7.443c0 2.655 2.163 4.813 4.805 4.813h9.222c3.302 0 6.005 2.717 6.005 6.038v7.032c6.398-1.064 11.296-6.304 11.296-12.563 0-7.02-6.16-12.763-13.689-12.763H17.876z" fill="#EB382C"/>
    <path d="M.172 13.188c0 7.02 6.16 12.763 13.688 12.763H33.02v-7.495c0-2.658-2.162-4.831-4.804-4.831h-9.194c-3.303 0-6.004-2.675-6.004-5.995V.45C5.879.86.172 6.431.172 13.188" fill="#004670"/>
  </g>
</svg>
