<svg width="143" height="23" xmlns="http://www.w3.org/2000/svg">
  <g fill="#1E75BB" fill-rule="nonzero">
    <path d="M134.669.703l-2.78 8.463h-14.857l2.78-8.463h-7.914l-7.205 21.939h7.895l2.78-8.463h14.856l-2.78 8.463h7.915l7.204-21.94zM103.293 10.83a3.676 3.676 0 0 0-1.38-1.238 4.617 4.617 0 0 0-1.948-.426H82.613l.974-3.044h22.77l1.807-5.42H82.917c-.771 0-1.522.143-2.232.427a6.934 6.934 0 0 0-2.192 1.258c-.569.548-1.259 1.117-1.685 1.807a9.099 9.099 0 0 0-1.238 2.212l-.69 2.07c-.182.73-.264 1.481-.284 2.232.122.69.284 1.38.568 1.806a3.91 3.91 0 0 0 1.38 1.259 4.592 4.592 0 0 0 1.949.548h17.352l-.974 2.922H72.08l-1.786 5.419H95.54c.771 0 1.522-.142 2.233-.426a7.29 7.29 0 0 0 2.192-1.238c.568-.548 1.258-1.117 1.684-1.807.528-.67.934-1.42 1.238-2.212l.69-2.07c.223-.73.325-1.481.284-2.232-.142-.73-.284-1.4-.568-1.847zM72.222 4.052c-.122-.69-.284-1.238-.67-1.685a2.961 2.961 0 0 0-1.258-1.238 4.33 4.33 0 0 0-1.949-.426H48.517c-.77 0-1.522.142-2.232.426a7.031 7.031 0 0 0-2.212 1.258c-.568.548-1.238 1.117-1.685 1.807a8.472 8.472 0 0 0-1.238 2.212l-5.276 16.236h7.915l5.418-16.5h14.978l-1.644 4.85H51.988l-1.664 5.135h10.533l-2.09 6.535h7.792l5.399-16.398c.223-.73.304-1.462.264-2.212zM37.68 4.194a4.075 4.075 0 0 0-.548-1.807 2.576 2.576 0 0 0-1.38-1.238 4.077 4.077 0 0 0-1.948-.426H8.557L6.751 6.142h22.872l-3.613 11.08H3.138l-1.806 5.42h25.369a6.9 6.9 0 0 0 2.212-.427c.71-.406 1.522-.811 2.212-1.38a10.863 10.863 0 0 0 1.806-1.806c.446-.67.812-1.36 1.116-2.09l3.349-10.533c.304-.69.406-1.461.284-2.212z"/>
    <path d="M15.762 9.166H2.306L.5 14.179h13.597z"/>
  </g>
</svg>
