<svg width="165" height="43" xmlns="http://www.w3.org/2000/svg">
  <g fill-rule="nonzero" fill="none">
    <path d="M32.321 42.766c11.6.056 22.19-9.46 22.19-21.038C54.51 9.068 43.92.318 32.32.322h-9.983C10.598.318.936 9.072.936 21.728c0 11.58 9.662 21.094 21.402 21.038h9.983z" fill="#0079BE"/>
    <path d="M22.385 2.076c-10.727.004-19.42 8.699-19.422 19.43.002 10.73 8.695 19.424 19.422 19.428 10.73-.004 19.424-8.698 19.426-19.428-.002-10.731-8.696-19.426-19.426-19.43zm-12.311 19.43a12.334 12.334 0 0 1 7.903-11.493v22.983a12.329 12.329 0 0 1-7.903-11.49zM26.79 33.001V10.013c4.62 1.772 7.9 6.247 7.909 11.493-.009 5.248-3.289 9.72-7.909 11.495z" fill="#FFF"/>
    <path d="M61.313 9.454c0-2.008-1.047-1.876-2.05-1.898v-.58c.87.043 1.761.043 2.633.043.937 0 2.21-.043 3.862-.043 5.779 0 8.926 3.86 8.926 7.813 0 2.21-1.294 7.768-9.195 7.768-1.137 0-2.188-.044-3.236-.044-1.004 0-1.987.022-2.99.044v-.58c1.338-.134 1.986-.179 2.05-1.697V9.454zm2.188 10.47c0 1.719 1.229 1.919 2.322 1.919 4.822 0 6.405-3.639 6.405-6.965 0-4.173-2.679-7.186-6.985-7.186-.917 0-1.338.065-1.742.089v12.143zM75.467 21.978h.423c.624 0 1.071 0 1.071-.739v-6.048c0-.981-.334-1.117-1.16-1.561v-.358c1.048-.315 2.3-.736 2.387-.804a.793.793 0 0 1 .403-.112c.11 0 .156.134.156.314v8.57c0 .738.491.738 1.116.738h.379v.58c-.76 0-1.541-.044-2.343-.044-.803 0-1.607.021-2.432.044v-.58zm2.387-13.06c-.58 0-1.093-.535-1.093-1.115 0-.56.536-1.074 1.093-1.074.579 0 1.094.47 1.094 1.074 0 .603-.492 1.116-1.094 1.116zM82.362 15.324c0-.825-.246-1.048-1.293-1.472v-.423c.96-.313 1.873-.603 2.945-1.073.066 0 .132.045.132.223v1.452c1.274-.915 2.368-1.675 3.865-1.675 1.895 0 2.565 1.384 2.565 3.125v5.758c0 .739.49.739 1.116.739h.402v.58c-.783 0-1.564-.044-2.365-.044-.805 0-1.61.021-2.412.044v-.58h.401c.627 0 1.07 0 1.07-.739v-5.78c0-1.274-.777-1.898-2.05-1.898-.714 0-1.853.58-2.592 1.072v6.606c0 .739.493.739 1.12.739h.4v.58c-.78 0-1.563-.045-2.366-.045-.803 0-1.608.022-2.41.045v-.58h.402c.625 0 1.07 0 1.07-.739v-5.915zM93.791 16.397c-.046.201-.046.535 0 1.295.131 2.12 1.497 3.86 3.28 3.86 1.228 0 2.19-.669 3.014-1.494l.312.313c-1.028 1.36-2.3 2.521-4.128 2.521-3.55 0-4.264-3.438-4.264-4.865 0-4.376 2.945-5.672 4.507-5.672 1.809 0 3.752 1.138 3.773 3.505 0 .135 0 .267-.021.403l-.202.134H93.79zm3.951-.715c.557 0 .623-.29.623-.558 0-1.138-.692-2.054-1.942-2.054-1.36 0-2.298 1.003-2.566 2.612h3.885zM100.799 21.978h.603c.623 0 1.069 0 1.069-.739v-6.271c0-.692-.824-.826-1.16-1.005v-.333c1.63-.693 2.523-1.275 2.726-1.275.132 0 .197.068.197.292v2.008h.048c.556-.87 1.495-2.3 2.855-2.3.559 0 1.272.38 1.272 1.184 0 .603-.423 1.14-1.048 1.14-.694 0-.694-.537-1.474-.537-.38 0-1.629.513-1.629 1.853v5.244c0 .739.446.739 1.071.739h1.25v.58c-1.229-.023-2.163-.045-3.124-.045-.915 0-1.853.022-2.656.045v-.58zM109.392 19.454c.29 1.474 1.182 2.724 2.812 2.724 1.314 0 1.806-.803 1.806-1.585 0-2.634-4.864-1.786-4.864-5.38 0-1.25 1.005-2.857 3.46-2.857.713 0 1.672.202 2.542.649l.158 2.275h-.514c-.223-1.405-1.003-2.21-2.433-2.21-.893 0-1.74.514-1.74 1.474 0 2.614 5.177 1.808 5.177 5.312 0 1.473-1.183 3.037-3.84 3.037-.892 0-1.94-.313-2.721-.758l-.246-2.568.403-.113zM135.95 11.016h-.557c-.424-2.61-2.277-3.66-4.776-3.66-2.568 0-6.296 1.718-6.296 7.074 0 4.513 3.216 7.748 6.652 7.748 2.21 0 4.04-1.517 4.487-3.862l.512.133-.512 3.26c-.937.581-3.46 1.183-4.934 1.183-5.221 0-8.523-3.37-8.523-8.393 0-4.577 4.083-7.86 8.457-7.86 1.808 0 3.548.584 5.267 1.187l.223 3.19zM136.755 21.978h.423c.625 0 1.073 0 1.073-.739V8.808c0-1.452-.335-1.497-1.184-1.742v-.357c.893-.29 1.83-.692 2.3-.96.243-.134.423-.247.488-.247.137 0 .182.135.182.314V21.24c0 .739.49.739 1.115.739h.377v.58c-.756 0-1.537-.045-2.341-.045-.803 0-1.606.022-2.433.045v-.58zM151.085 21.329c0 .403.244.425.623.425.269 0 .603-.022.894-.022v.47c-.96.088-2.791.557-3.215.69l-.112-.067v-1.806c-1.338 1.093-2.366 1.873-3.952 1.873-1.205 0-2.455-.78-2.455-2.654V14.52c0-.58-.088-1.138-1.336-1.25v-.424c.804-.022 2.586-.156 2.878-.156.247 0 .247.156.247.647v5.758c0 .671 0 2.59 1.94 2.59.76 0 1.763-.58 2.7-1.359V14.32c0-.444-1.07-.69-1.873-.914v-.401c2.006-.135 3.259-.313 3.48-.313.181 0 .181.156.181.403v8.235zM155.526 13.963c.892-.759 2.097-1.607 3.326-1.607 2.59 0 4.15 2.256 4.15 4.688 0 2.924-2.142 5.848-5.335 5.848-1.651 0-2.52-.536-3.102-.78l-.669.512-.467-.245c.198-1.317.312-2.612.312-3.973V8.807c0-1.451-.337-1.496-1.184-1.741v-.357c.895-.29 1.83-.692 2.299-.961.246-.133.423-.246.492-.246.133 0 .178.135.178.314v8.147zm0 6.071c0 .85.803 2.279 2.298 2.279 2.389 0 3.392-2.345 3.392-4.333 0-2.41-1.828-4.418-3.57-4.418-.827 0-1.518.536-2.12 1.05v5.422zM59.237 35.536h.17c.437 0 .899-.059.899-.691v-6.363c0-.634-.462-.693-.898-.693h-.171v-.365c.474 0 1.203.048 1.8.048.606 0 1.334-.048 1.905-.048v.365h-.171c-.436 0-.898.06-.898.693v6.363c0 .632.462.691.898.691h.17v.367c-.582 0-1.312-.048-1.918-.048-.595 0-1.312.048-1.786.048v-.367z" fill="#211E1F"/>
    <path d="M62.942 35.954c-.587 0-1.315-.049-1.92-.049-.593 0-1.307.05-1.785.05h-.052v-.471h.222c.44-.01.842-.045.846-.639v-6.363c-.004-.594-.405-.634-.845-.642h-.223v-.47h.052c.478 0 1.205.048 1.8.048.604 0 1.33-.048 1.905-.048h.054v.47h-.224c-.44.008-.844.048-.847.642v6.363c.003.594.406.629.847.64h.224v.469h-.054zm-.052-.104v-.259h-.118c-.434 0-.95-.075-.953-.746v-6.363c.003-.672.52-.747.953-.747h.118v-.258c-.561 0-1.264.047-1.854.047-.577 0-1.275-.044-1.745-.047v.258h.116c.433 0 .951.075.951.747v6.363c0 .671-.518.746-.95.746h-.117v.26c.47-.006 1.156-.05 1.732-.05.59 0 1.294.046 1.867.05zM71.285 33.508l.024-.023V28.93c0-.998-.693-1.142-1.056-1.142h-.268v-.365c.571 0 1.13.048 1.7.048.498 0 .998-.048 1.495-.048v.365h-.182c-.511 0-1.082.096-1.082 1.542v5.527c0 .425.012.85.072 1.226h-.462l-6.253-6.972v5.005c0 1.056.205 1.42 1.141 1.42h.205v.366c-.52 0-1.042-.048-1.565-.048-.545 0-1.104.048-1.652.048v-.367h.17c.839 0 1.093-.569 1.093-1.54V28.88c0-.68-.56-1.091-1.104-1.091h-.158v-.365c.461 0 .934.048 1.395.048.365 0 .717-.048 1.081-.048l5.406 6.084z" fill="#211E1F"/>
    <path d="M71.988 36.137l-.501-.019-6.163-6.87v4.869c.014 1.056.175 1.355 1.09 1.367h.26v.47h-.054c-.526 0-1.049-.049-1.567-.049-.544 0-1.101.05-1.652.05h-.053v-.471h.224c.803-.004 1.032-.52 1.041-1.488v-5.115c-.002-.647-.532-1.04-1.053-1.041h-.212V27.372h.053c.464 0 .94.046 1.396.046.36 0 .713-.046 1.122-.029l5.338 6.01v-4.467c-.007-.967-.651-1.083-1.005-1.092h-.322V27.372h.054c.574 0 1.133.046 1.7.046.495 0 .992-.046 1.494-.046h.053V27.84H72.998c-.502.014-1.016.058-1.03 1.49v5.528c0 .424.012.848.071 1.216l.012.063h-.063zm-.462-.107h.402a8.111 8.111 0 0 1-.064-1.172V29.33c0-1.458.61-1.596 1.134-1.596h.128v-.258c-.479.003-.959.047-1.441.047-.556 0-1.097-.044-1.647-.047v.258h.214c.373 0 1.11.166 1.11 1.196l-.017 4.59-.024.025-.041.038-5.401-6.107c-.36 0-.712.047-1.082.047-.446 0-.901-.044-1.342-.047l-.002.258h.108c.57 0 1.155.435 1.155 1.146v5.115c0 .97-.27 1.592-1.144 1.596l-.117-.004v.262c.527-.005 1.067-.049 1.599-.049.507 0 1.011.044 1.513.05v-.26h-.153c-.956-.003-1.194-.419-1.194-1.475v-5.14l6.306 7.054zm-.241-2.516l.046-.042-.046.042zm-.026-.028v-.005l-.012-.01.012.015zM74.998 28.03c-.912 0-.947.22-1.129 1.105h-.364c.048-.34.108-.679.145-1.032.049-.34.073-.68.073-1.031h.292c.097.365.4.352.73.352h6.265c.328 0 .631-.012.657-.377l.29.049c-.048.328-.097.656-.134.984-.022.328-.022.656-.022.983l-.365.135c-.025-.449-.086-1.168-.899-1.168h-1.991v6.463c0 .936.425 1.043 1.006 1.043h.231v.367c-.473 0-1.324-.048-1.979-.048-.728 0-1.58.048-2.054.048v-.367h.232c.67 0 1.008-.06 1.008-1.018V28.03h-1.992z" fill="#211E1F"/>
    <path d="M79.785 35.954c-.478 0-1.328-.049-1.98-.049-.728 0-1.578.05-2.054.05h-.05v-.471h.281c.67-.016.94-.024.954-.966v-6.435h-1.938v-.107h2.044v6.542c0 .974-.393 1.073-1.06 1.074h-.178v.256c.479-.003 1.296-.046 2-.046.634 0 1.446.043 1.926.046v-.256h-.178c-.587-.001-1.06-.145-1.06-1.1v-6.516h2.045c.816.004.922.697.949 1.147l.262-.096c0-.317.001-.635.023-.955.036-.312.08-.622.126-.932l-.186-.031c-.056.354-.397.371-.703.368h-6.326c-.286 0-.598-.014-.707-.353h-.2a7.18 7.18 0 0 1-.072.985c-.035.334-.09.655-.136.976h.26c.16-.847.265-1.121 1.17-1.109v.107c-.897.016-.878.168-1.076 1.066l-.01.041H73.444l.007-.063c.049-.34.11-.679.146-1.033.05-.337.074-.673.074-1.022v-.053h.385l.009.038c.083.306.308.308.617.313h6.326c.339-.005.585-.01.606-.328l.005-.057.054.012.343.054-.007.053a24.18 24.18 0 0 0-.133.98c-.024.323-.024.651-.024.979v.038l-.034.013-.43.157-.003-.071c-.032-.457-.08-1.117-.848-1.117H78.6v6.41c.01.916.374.98.953.991h.285v.47h-.052zM82.345 35.536h.17c.437 0 .9-.059.9-.691v-6.363c0-.634-.463-.693-.9-.693h-.17v-.365c.74 0 2.004.048 3.022.048 1.023 0 2.283-.048 3.108-.048-.02.521-.009 1.325.027 1.858l-.366.097c-.058-.789-.204-1.42-1.48-1.42H84.97v3.181h1.443c.728 0 .888-.411.96-1.07h.363a27.103 27.103 0 0 0 0 2.807l-.364.073c-.071-.728-.108-1.202-.947-1.202H84.97v2.83c0 .79.701.79 1.48.79 1.457 0 2.1-.099 2.464-1.481l.34.083c-.159.645-.303 1.288-.411 1.933-.778 0-2.175-.048-3.267-.048-1.095 0-2.539.048-3.231.048v-.367z" fill="#211E1F"/>
    <path d="M88.842 35.954c-.78 0-2.177-.05-3.267-.05-1.094 0-2.537.05-3.23.05h-.052v-.47h.221c.441-.007.84-.045.846-.639v-6.363c-.006-.593-.405-.633-.845-.642h-.222V27.372h.051c.742 0 2.005.046 3.023.046 1.021 0 2.281-.046 3.108-.046h.055l-.003.054a18.742 18.742 0 0 0 .025 1.853l.002.043-.04.012-.428.111-.002-.062c-.072-.788-.177-1.36-1.428-1.372H85.02l-.002 3.075h1.395c.7-.007.824-.365.907-1.02l.004-.047H87.79v.054c-.024.474-.04.947-.04 1.42 0 .46.016.92.04 1.383v.043l-.044.01-.422.084-.004-.057c-.083-.741-.09-1.147-.896-1.156l-1.404-.001v2.778c.001.738.638.734 1.43.738 1.461-.009 2.047-.08 2.414-1.444l.012-.048.05.009.39.1-.012.05a27.72 27.72 0 0 0-.411 1.929l-.01.043h-.041zm-.045-.106c.105-.612.244-1.227.393-1.839l-.24-.06c-.364 1.36-1.068 1.48-2.501 1.471-.765 0-1.531 0-1.534-.843v-2.882h1.509c.848-.009.935.503.994 1.194l.263-.054a26.444 26.444 0 0 1 0-2.71l-.263-.001c-.067.632-.265 1.077-1.005 1.068h-1.498v-3.287h1.741c1.264-.009 1.473.643 1.527 1.407l.262-.07a20.514 20.514 0 0 1-.035-1.189c0-.208.005-.404.011-.576-.825.003-2.054.047-3.054.047-.998 0-2.227-.044-2.97-.047v.258h.118c.432 0 .95.075.951.747v6.363c-.002.67-.519.744-.951.747h-.118v.256c.708-.001 2.111-.046 3.178-.046 1.071 0 2.439.045 3.222.046zM90.893 28.71c0-.885-.485-.921-.863-.921h-.218v-.366c.389 0 1.141.049 1.882.049.729 0 1.312-.049 1.955-.049 1.53 0 2.891.414 2.891 2.14 0 1.09-.728 1.76-1.688 2.137l2.076 3.108c.34.514.582.658 1.178.728v.367c-.4 0-.79-.048-1.19-.048-.376 0-.766.048-1.14.048-.936-1.227-1.739-2.54-2.528-3.937h-.8v2.6c0 .937.436.97.994.97h.22v.367c-.695 0-1.396-.048-2.089-.048-.584 0-1.155.048-1.76.048v-.367h.217c.451 0 .863-.204.863-.654V28.71zm1.556 2.819h.593c1.215 0 1.87-.462 1.87-1.895 0-1.08-.692-1.773-1.774-1.773-.365 0-.52.038-.69.049v3.619z" fill="#211E1F"/>
    <path d="M98.106 35.954c-.406 0-.793-.049-1.192-.049-.37 0-.758.05-1.182.029-.931-1.222-1.73-2.527-2.514-3.914H92.5v2.545c.013.913.38.906.942.92h.272v.469h-.054c-.694 0-1.399-.049-2.089-.049-.58 0-1.15.05-1.759.05h-.053v-.471h.271c.438-.002.807-.193.809-.602v-6.171c-.01-.862-.432-.857-.809-.87h-.271v-.471h.053c.393 0 1.143.048 1.882.048.725 0 1.309-.048 1.956-.048 1.53.004 2.94.426 2.944 2.19 0 1.097-.725 1.782-1.663 2.164l2.04 3.055c.34.504.552.63 1.143.705l.044.007V35.954h-.052zm-5.659-4.04h.83l.015.026c.791 1.396 1.589 2.706 2.483 3.91.37 0 .76-.05 1.139-.05.388 0 .762.043 1.14.049v-.266c-.57-.071-.837-.241-1.169-.746l-2.113-3.162.06-.024c.95-.374 1.653-1.024 1.654-2.092 0-1.685-1.31-2.075-2.836-2.082-.641 0-1.224.048-1.956.048-.713 0-1.433-.045-1.83-.048v.258h.166c.377 0 .915.063.915.976v6.17c0 .489-.458.71-.915.712h-.167v.256c.585-.002 1.138-.048 1.708-.048.68 0 1.364.046 2.037.048v-.256h-.166c-.555-.001-1.048-.07-1.048-1.029v-2.65h.053zm0-.334h-.053V27.86l.046-.004c.166-.013.33-.047.698-.047 1.106 0 1.825.719 1.827 1.826-.003 1.45-.699 1.943-1.923 1.944h-.595zm.595-.104c1.202-.01 1.807-.428 1.82-1.84-.007-1.06-.667-1.72-1.724-1.724-.329 0-.483.03-.638.044v3.52h.542zM106.352 33.508l.022-.023V28.93c0-.998-.692-1.142-1.055-1.142h-.267v-.365c.57 0 1.128.048 1.7.048.498 0 .995-.048 1.495-.048v.365h-.182c-.51 0-1.082.096-1.082 1.542v5.527c0 .425.012.85.072 1.226h-.46l-6.254-6.972v5.005c0 1.056.206 1.42 1.14 1.42h.207v.366c-.521 0-1.044-.048-1.565-.048-.549 0-1.107.048-1.653.048v-.367h.169c.839 0 1.094-.569 1.094-1.54V28.88c0-.68-.559-1.091-1.104-1.091h-.159v-.365c.46 0 .936.048 1.396.048.363 0 .716-.048 1.081-.048l5.405 6.084z" fill="#211E1F"/>
    <path d="M107.055 36.136l-.5-.017-6.163-6.87v4.867c.014 1.057.174 1.356 1.09 1.368h.257v.47h-.053c-.525 0-1.046-.05-1.566-.05-.543 0-1.104.05-1.65.05h-.055v-.47h.223c.802-.003 1.032-.52 1.04-1.491V28.88c-.001-.647-.531-1.04-1.05-1.04h-.213v-.47h.055c.463 0 .938.048 1.396.048.357 0 .71-.048 1.117-.031l5.338 6.011V28.93c-.003-.965-.65-1.085-1.003-1.09h-.32v-.47h.052c.575 0 1.134.048 1.702.048.495 0 .992-.048 1.493-.048h.053v.47H108.065c-.502.013-1.018.058-1.03 1.49v5.528c0 .424.01.845.072 1.219l.007.059h-.059zm-.461-.106h.4a8.33 8.33 0 0 1-.066-1.172V29.33c.001-1.458.616-1.593 1.136-1.597h.127v-.257c-.476.003-.957.047-1.44.047-.557 0-1.099-.044-1.648-.047v.257h.215c.374.004 1.11.167 1.11 1.196l-.017 4.591-.023.025-.037.039-5.405-6.108c-.36 0-.713.047-1.08.047-.45 0-.903-.044-1.346-.047v.257h.108c.57.004 1.156.434 1.156 1.146v5.113c0 .975-.275 1.595-1.146 1.599l-.118-.001v.257c.525-.003 1.067-.046 1.6-.046.51 0 1.014.043 1.516.046v-.256h-.154c-.956-.001-1.195-.42-1.197-1.476v-5.14l6.309 7.054zm-.243-2.516l.044-.041-.044.041zm-.028-.027v-.005l-.011-.01.01.015zM110.2 34.165c-.123.412-.27.73-.27.947 0 .365.512.424.911.424h.136v.367a27.539 27.539 0 0 0-1.472-.048c-.437 0-.872.022-1.31.048v-.367h.073c.474 0 .876-.279 1.055-.79l1.945-5.573c.157-.45.377-1.057.45-1.507a6.189 6.189 0 0 0 1.104-.522c.038-.012.059-.025.097-.025.036 0 .06 0 .087.038.035.096.07.206.11.303l2.233 6.353c.146.425.29.874.448 1.239.146.34.402.484.804.484h.071v.367a34.545 34.545 0 0 0-1.675-.048c-.595 0-1.204.022-1.823.048v-.367h.135c.278 0 .753-.047.753-.35 0-.158-.11-.486-.245-.876l-.473-1.409h-2.756l-.388 1.264zm1.772-5.381h-.024l-1.13 3.438h2.27l-1.116-3.438z" fill="#211E1F"/>
    <path d="M116.669 35.954c-.547-.024-1.093-.05-1.672-.05-.595 0-1.2.026-1.821.05l-.055.003v-.474h.187c.281 0 .699-.065.699-.298.003-.138-.106-.471-.24-.858l-.463-1.373h-2.678l-.378 1.227c-.123.414-.268.735-.267.933.004.296.458.368.86.368h.187v.475l-.055-.003c-.485-.024-.982-.05-1.466-.05-.435 0-.873.026-1.308.05l-.057.003v-.474h.126c.452-.002.83-.259 1.004-.753l1.945-5.574c.16-.451.378-1.057.483-1.54.38-.13.868-.374 1.103-.522.033-.011.067-.028.117-.028a.15.15 0 0 1 .134.071c.034.1.072.208.11.307l2.236 6.352c.143.426.288.875.446 1.234.141.324.364.45.755.453h.124v.474l-.056-.003zm-3.442-.109c.601-.02 1.19-.044 1.77-.044.564 0 1.092.023 1.62.044v-.253h-.016c-.416.002-.704-.16-.853-.519-.158-.369-.306-.82-.448-1.245l-2.236-6.351c-.037-.097-.073-.207-.105-.293-.01-.012-.007-.012-.017-.012h-.023c-.025 0-.039.008-.07.016-.234.153-.722.39-1.082.486-.074.46-.293 1.066-.45 1.516l-1.945 5.575c-.185.527-.61.828-1.104.827h-.02v.253c.416-.02.837-.044 1.26-.044.468 0 .948.023 1.411.044v-.253h-.078c-.395-.005-.947-.05-.962-.478 0-.243.15-.554.268-.964l.053.016-.053-.018.4-1.298h2.832l.487 1.443c.137.39.247.714.247.892-.017.373-.53.4-.805.407h-.081v.253zm-2.483-3.571l1.163-3.543h.066v.053l-.013.002.013-.002v-.053h.036l1.153 3.543h-2.418zm.146-.105h2.126l-1.057-3.255-1.069 3.255zm1.03-3.368l.033-.011-.033.01zM117.206 28.03c-.911 0-.947.22-1.13 1.105h-.365c.048-.34.11-.679.148-1.032.048-.34.07-.68.07-1.031h.294c.096.365.401.352.727.352h6.268c.326 0 .63-.012.655-.377l.29.049c-.046.328-.094.656-.131.984-.026.328-.026.656-.026.983l-.364.135c-.023-.449-.084-1.168-.898-1.168h-1.992v6.463c0 .936.427 1.043 1.008 1.043h.23v.367c-.473 0-1.322-.048-1.979-.048-.727 0-1.579.048-2.052.048v-.367h.23c.67 0 1.01-.06 1.01-1.018V28.03h-1.993z" fill="#211E1F"/>
    <path d="M121.99 35.954c-.476 0-1.327-.049-1.979-.049-.726 0-1.576.05-2.052.05h-.054v-.471H118.19c.67-.016.938-.024.955-.966l-.002-6.435h-1.936v-.107h2.043v6.542c0 .974-.393 1.07-1.06 1.073h-.179v.26c.481-.006 1.296-.05 2.001-.05.634 0 1.446.044 1.926.05v-.26h-.179c-.584-.003-1.057-.143-1.059-1.098v-6.517h2.045c.815.004.922.697.945 1.147l.265-.096c0-.317.001-.635.025-.953.033-.312.079-.624.124-.934l-.184-.031c-.056.354-.398.373-.7.368h-6.33c-.287.003-.597-.014-.707-.355h-.199a7.197 7.197 0 0 1-.074.987c-.032.335-.092.656-.137.976h.26c.161-.847.266-1.121 1.174-1.109v.107c-.9.016-.88.168-1.079 1.066l-.009.04H115.65l.007-.06c.05-.343.111-.681.147-1.032.05-.34.073-.677.073-1.025v-.053h.384l.01.038c.085.306.307.308.617.313l.062.002h6.268c.335-.007.58-.012.601-.329l.004-.058.057.012.344.054-.009.053c-.05.325-.096.653-.133.98-.024.323-.024.652-.024.979v.038l-.035.013-.43.157-.003-.071c-.03-.456-.079-1.117-.846-1.117h-1.94v6.41c.013.916.376.98.954.991h.285v.47h-.053zM124.612 35.536h.17c.438 0 .897-.059.897-.691v-6.363c0-.634-.459-.693-.897-.693h-.17v-.365c.474 0 1.201.048 1.795.048.61 0 1.338-.048 1.91-.048v.365h-.17c-.438 0-.901.06-.901.693v6.363c0 .632.463.691.9.691h.17v.367c-.583 0-1.313-.048-1.918-.048-.596 0-1.312.048-1.786.048v-.367z" fill="#211E1F"/>
    <path d="M128.317 35.954c-.587 0-1.314-.05-1.92-.05-.593 0-1.31.05-1.785.05h-.053v-.47h.223c.439-.007.842-.044.843-.639v-6.363c-.001-.593-.404-.634-.843-.642h-.223V27.372h.053c.474 0 1.204.046 1.795.046.606 0 1.334-.046 1.91-.046h.051V27.84h-.221c-.444.008-.843.049-.849.642v6.363c.006.595.405.632.848.64h.222v.469h-.051zm-.055-.106v-.257h-.116c-.435 0-.95-.077-.95-.746v-6.363c0-.672.515-.747.95-.747h.116v-.258c-.56.003-1.262.047-1.855.047-.575 0-1.271-.044-1.742-.047v.258h.117c.432 0 .95.075.951.747v6.363c-.002.67-.519.746-.95.746h-.118v.257c.468-.005 1.156-.046 1.732-.046.59 0 1.292.043 1.865.046zM133.16 27.242c2.588 0 4.651 1.605 4.651 4.191 0 2.795-2.003 4.652-4.588 4.652-2.577 0-4.543-1.75-4.543-4.361 0-2.526 1.954-4.482 4.48-4.482zm.183 8.308c2.356 0 2.766-2.079 2.766-3.85 0-1.775-.956-3.924-2.973-3.924-2.126 0-2.756 1.895-2.756 3.52 0 2.175.995 4.254 2.963 4.254z" fill="#211E1F"/>
    <path d="M128.626 31.724c.005-2.555 1.982-4.532 4.533-4.535v.104c-2.496 0-4.428 1.931-4.43 4.43.005 2.583 1.943 4.306 4.493 4.307 2.56-.001 4.535-1.832 4.54-4.6-.003-2.553-2.035-4.133-4.603-4.137v-.104c2.609.002 4.7 1.623 4.705 4.242-.002 2.823-2.032 4.7-4.642 4.705-2.597-.005-4.591-1.772-4.596-4.412zm1.7-.427c.004-1.634.643-3.576 2.81-3.576 2.062.005 3.024 2.195 3.028 3.98-.004 1.77-.42 3.9-2.82 3.9v-.103c2.309-.004 2.709-2.027 2.714-3.798 0-1.76-.948-3.868-2.922-3.871-2.083.003-2.7 1.85-2.704 3.468.002 2.163.988 4.195 2.911 4.2V35.6c-2.016-.002-3.013-2.116-3.016-4.303zM145.995 33.508l.025-.023V28.93c0-.998-.694-1.142-1.059-1.142h-.263v-.365c.57 0 1.128.048 1.697.048.5 0 .997-.048 1.496-.048v.365h-.184c-.508 0-1.08.096-1.08 1.542v5.527c0 .425.012.85.073 1.226h-.46l-6.256-6.972v5.005c0 1.056.206 1.42 1.14 1.42h.208v.366c-.523 0-1.044-.048-1.566-.048-.547 0-1.107.048-1.653.048v-.367h.17c.84 0 1.092-.569 1.092-1.54V28.88c0-.68-.556-1.091-1.104-1.091h-.158v-.365c.461 0 .935.048 1.396.048.365 0 .716-.048 1.081-.048l5.405 6.084z" fill="#211E1F"/>
    <path d="M146.701 36.136l-.503-.018-6.162-6.87v4.869c.014 1.056.175 1.355 1.087 1.365h.262v.472h-.053c-.526 0-1.047-.049-1.566-.049-.545 0-1.102.05-1.654.05h-.05v-.473H138.283c.8-.002 1.03-.517 1.04-1.486V28.88c-.001-.647-.53-1.04-1.053-1.04h-.21V27.372h.05c.467 0 .94.046 1.398.046.36 0 .71-.046 1.122-.028l5.336 6.008v-4.466c-.004-.967-.65-1.083-1.006-1.092h-.319V27.372h.055c.571 0 1.131.046 1.696.046.499 0 .994-.046 1.498-.046h.052V27.84h-.236c-.5.014-1.016.06-1.026 1.49v5.528c0 .424.009.848.068 1.219l.01.059h-.058zm-.461-.106h.397a8.365 8.365 0 0 1-.062-1.172V29.33c0-1.46.612-1.593 1.133-1.597h.13v-.257c-.478.003-.958.047-1.444.047-.553 0-1.096-.044-1.646-.047v.257h.213c.377.004 1.11.17 1.11 1.197l-.014 4.59-.023.025-.038.039-5.405-6.108c-.358 0-.713.047-1.082.047-.447 0-.902-.044-1.345-.047v.257h.107c.57.004 1.158.434 1.158 1.146v5.116c0 .971-.272 1.593-1.145 1.596l-.12-.001v.257c.528-.003 1.068-.046 1.602-.046.506 0 1.01.043 1.514.046v-.256h-.157c-.953-.001-1.192-.42-1.192-1.476v-5.14l6.309 7.054zm-.245-2.516l.046-.041-.046.041zm-.026-.027v-.005l-.012-.01.012.015zM149.843 34.165c-.12.412-.267.73-.267.947 0 .365.512.424.91.424h.136v.367a27.562 27.562 0 0 0-1.47-.048c-.44 0-.875.022-1.31.048v-.367h.069c.475 0 .878-.279 1.057-.79l1.946-5.573c.156-.45.376-1.057.447-1.507a6.267 6.267 0 0 0 1.107-.522c.035-.012.06-.025.096-.025.037 0 .06 0 .084.038.037.096.075.206.111.303l2.233 6.353c.146.425.29.874.45 1.239.147.34.403.484.802.484h.074v.367a34.601 34.601 0 0 0-1.678-.048c-.593 0-1.201.022-1.821.048v-.367h.135c.277 0 .753-.047.753-.35 0-.158-.11-.486-.246-.876l-.471-1.409h-2.757l-.39 1.264zm1.775-5.381h-.025l-1.13 3.438h2.272l-1.117-3.438z" fill="#211E1F"/>
    <path d="M156.313 35.954c-.547-.022-1.092-.049-1.673-.049-.592 0-1.2.027-1.82.05l-.053.002v-.473h.184c.283 0 .701-.066.702-.299.003-.138-.107-.469-.242-.858l-.462-1.373h-2.68l-.376 1.226c-.121.416-.266.736-.263.932 0 .298.454.372.856.372h.185v.473l-.054-.003c-.486-.022-.983-.049-1.466-.049-.435 0-.872.027-1.31.05l-.053.002v-.473h.123c.453-.002.832-.262 1.009-.754l1.943-5.575c.155-.45.374-1.056.482-1.538.381-.132.869-.375 1.105-.523.032-.011.065-.025.114-.025a.136.136 0 0 1 .133.07c.037.096.072.206.112.304l2.234 6.353c.145.426.29.875.448 1.236.142.322.364.449.75.452h.127v.473l-.055-.003zm-3.442-.107c.6-.023 1.192-.046 1.77-.046.564 0 1.094.023 1.623.044l-.002-.253h-.02c-.411 0-.698-.161-.849-.519-.16-.369-.305-.82-.45-1.243l-2.235-6.353c-.036-.097-.073-.207-.102-.29-.01-.015-.01-.015-.019-.015h-.023c-.025 0-.039.009-.068.017-.237.149-.723.391-1.083.485-.075.46-.296 1.065-.452 1.516l-1.945 5.575c-.184.527-.608.828-1.105.827h-.018v.253c.418-.02.835-.044 1.258-.044.47 0 .95.023 1.417.044v-.253h-.082c-.395-.005-.95-.048-.963-.48.002-.241.153-.55.27-.962l.05.016-.05-.018.4-1.298h2.832l.487 1.443c.134.391.244.714.244.892-.018.373-.527.4-.805.407h-.08v.255zm-2.481-3.574l1.165-3.542h.063v.053l-.013.002.013-.002v-.053h.038l1.148 3.542h-2.414zm.146-.104h2.124l-1.057-3.254-1.067 3.254zm1.031-3.368l.03-.011-.03.01zM159.378 34.712c0 .486.337.63.726.68a8.816 8.816 0 0 0 1.605-.024c.509-.062.947-.353 1.164-.656.194-.268.303-.608.376-.875h.352c-.133.692-.303 1.374-.45 2.066-1.065 0-2.137-.048-3.204-.048-1.07 0-2.137.048-3.206.048v-.367h.167c.44 0 .915-.059.915-.812v-6.242c0-.634-.475-.693-.915-.693h-.167v-.365c.642 0 1.274.048 1.917.048.622 0 1.228-.048 1.848-.048v.365h-.306c-.46 0-.822.013-.822.655v6.268z" fill="#211E1F"/>
    <path d="M163.152 35.954c-1.07 0-2.14-.049-3.205-.049-1.07 0-2.138.05-3.208.05h-.052v-.471h.222c.44-.01.856-.04.86-.76v-6.245c-.005-.59-.418-.63-.86-.639h-.222V27.372h.052c.646 0 1.278.046 1.92.046.616 0 1.223-.046 1.847-.046h.05V27.84h-.355c-.47.013-.764-.008-.773.604v6.268c.003.452.3.574.679.627a8.623 8.623 0 0 0 1.593-.024c.495-.057.921-.343 1.13-.632.187-.26.295-.593.367-.859l.011-.04H163.666l-.011.064c-.138.695-.304 1.374-.452 2.065l-.01.041h-.041zm-.044-.106c.14-.659.3-1.303.43-1.96h-.25c-.075.265-.183.59-.374.856-.226.315-.676.611-1.202.676a9.144 9.144 0 0 1-1.615.024c-.395-.044-.778-.213-.776-.732v-6.268c0-.675.427-.71.88-.71h.25v-.257c-.598.003-1.187.048-1.792.048-.63 0-1.244-.045-1.867-.048v.258h.116c.434 0 .964.075.964.744v6.245c0 .785-.528.867-.964.867h-.116v.257c1.05-.001 2.1-.046 3.155-.046 1.056 0 2.11.045 3.16.046zM163.454 27.079c.732 0 1.278.562 1.278 1.283 0 .718-.546 1.275-1.278 1.275s-1.28-.557-1.28-1.275c0-.72.548-1.283 1.28-1.283zm0 2.32c.572 0 1.011-.489 1.011-1.037 0-.552-.433-1.044-1.011-1.044-.575 0-1.015.493-1.015 1.044 0 .548.44 1.037 1.015 1.037zm-.637-.363v-.063c.158-.022.186-.017.186-.115v-.946c0-.133-.014-.179-.18-.172v-.065h.654c.226 0 .432.107.432.34 0 .19-.126.33-.302.385l.21.293c.098.133.209.258.282.301v.042h-.25c-.119 0-.223-.252-.46-.59h-.14v.425c0 .085.029.08.186.102v.063h-.618zm.431-.674h.151c.165 0 .243-.125.243-.327 0-.203-.12-.275-.251-.275h-.143v.602z" fill="#211E1F"/>
    <path d="M32.321 42.766c11.6.056 22.19-9.46 22.19-21.038C54.51 9.068 43.92.318 32.32.322h-9.983C10.598.318.936 9.072.936 21.728c0 11.58 9.662 21.094 21.402 21.038h9.983z" fill="#0079BE"/>
    <path d="M22.385 2.076c-10.727.004-19.42 8.699-19.422 19.43.002 10.73 8.695 19.424 19.422 19.428 10.73-.004 19.424-8.698 19.426-19.428-.002-10.731-8.696-19.426-19.426-19.43zm-12.311 19.43a12.334 12.334 0 0 1 7.903-11.493v22.983a12.329 12.329 0 0 1-7.903-11.49zM26.79 33.001V10.013c4.62 1.772 7.9 6.247 7.909 11.493-.009 5.248-3.289 9.72-7.909 11.495z" fill="#FFF"/>
    <path d="M61.313 9.454c0-2.008-1.047-1.876-2.05-1.898v-.58c.87.043 1.761.043 2.633.043.937 0 2.21-.043 3.862-.043 5.779 0 8.926 3.86 8.926 7.813 0 2.21-1.294 7.768-9.195 7.768-1.137 0-2.188-.044-3.236-.044-1.004 0-1.987.022-2.99.044v-.58c1.338-.134 1.986-.179 2.05-1.697V9.454zm2.188 10.47c0 1.719 1.229 1.919 2.322 1.919 4.822 0 6.405-3.639 6.405-6.965 0-4.173-2.679-7.186-6.985-7.186-.917 0-1.338.065-1.742.089v12.143zM75.467 21.978h.423c.624 0 1.071 0 1.071-.739v-6.048c0-.981-.334-1.117-1.16-1.561v-.358c1.048-.315 2.3-.736 2.387-.804a.793.793 0 0 1 .403-.112c.11 0 .156.134.156.314v8.57c0 .738.491.738 1.116.738h.379v.58c-.76 0-1.541-.044-2.343-.044-.803 0-1.607.021-2.432.044v-.58zm2.387-13.06c-.58 0-1.093-.535-1.093-1.115 0-.56.536-1.074 1.093-1.074.579 0 1.094.47 1.094 1.074 0 .603-.492 1.116-1.094 1.116zM82.362 15.324c0-.825-.246-1.048-1.293-1.472v-.423c.96-.313 1.873-.603 2.945-1.073.066 0 .132.045.132.223v1.452c1.274-.915 2.368-1.675 3.865-1.675 1.895 0 2.565 1.384 2.565 3.125v5.758c0 .739.49.739 1.116.739h.402v.58c-.783 0-1.564-.044-2.365-.044-.805 0-1.61.021-2.412.044v-.58h.401c.627 0 1.07 0 1.07-.739v-5.78c0-1.274-.777-1.898-2.05-1.898-.714 0-1.853.58-2.592 1.072v6.606c0 .739.493.739 1.12.739h.4v.58c-.78 0-1.563-.045-2.366-.045-.803 0-1.608.022-2.41.045v-.58h.402c.625 0 1.07 0 1.07-.739v-5.915zM93.791 16.397c-.046.201-.046.535 0 1.295.131 2.12 1.497 3.86 3.28 3.86 1.228 0 2.19-.669 3.014-1.494l.312.313c-1.028 1.36-2.3 2.521-4.128 2.521-3.55 0-4.264-3.438-4.264-4.865 0-4.376 2.945-5.672 4.507-5.672 1.809 0 3.752 1.138 3.773 3.505 0 .135 0 .267-.021.403l-.202.134H93.79zm3.951-.715c.557 0 .623-.29.623-.558 0-1.138-.692-2.054-1.942-2.054-1.36 0-2.298 1.003-2.566 2.612h3.885zM100.799 21.978h.603c.623 0 1.069 0 1.069-.739v-6.271c0-.692-.824-.826-1.16-1.005v-.333c1.63-.693 2.523-1.275 2.726-1.275.132 0 .197.068.197.292v2.008h.048c.556-.87 1.495-2.3 2.855-2.3.559 0 1.272.38 1.272 1.184 0 .603-.423 1.14-1.048 1.14-.694 0-.694-.537-1.474-.537-.38 0-1.629.513-1.629 1.853v5.244c0 .739.446.739 1.071.739h1.25v.58c-1.229-.023-2.163-.045-3.124-.045-.915 0-1.853.022-2.656.045v-.58zM109.392 19.454c.29 1.474 1.182 2.724 2.812 2.724 1.314 0 1.806-.803 1.806-1.585 0-2.634-4.864-1.786-4.864-5.38 0-1.25 1.005-2.857 3.46-2.857.713 0 1.672.202 2.542.649l.158 2.275h-.514c-.223-1.405-1.003-2.21-2.433-2.21-.893 0-1.74.514-1.74 1.474 0 2.614 5.177 1.808 5.177 5.312 0 1.473-1.183 3.037-3.84 3.037-.892 0-1.94-.313-2.721-.758l-.246-2.568.403-.113zM135.95 11.016h-.557c-.424-2.61-2.277-3.66-4.776-3.66-2.568 0-6.296 1.718-6.296 7.074 0 4.513 3.216 7.748 6.652 7.748 2.21 0 4.04-1.517 4.487-3.862l.512.133-.512 3.26c-.937.581-3.46 1.183-4.934 1.183-5.221 0-8.523-3.37-8.523-8.393 0-4.577 4.083-7.86 8.457-7.86 1.808 0 3.548.584 5.267 1.187l.223 3.19zM136.755 21.978h.423c.625 0 1.073 0 1.073-.739V8.808c0-1.452-.335-1.497-1.184-1.742v-.357c.893-.29 1.83-.692 2.3-.96.243-.134.423-.247.488-.247.137 0 .182.135.182.314V21.24c0 .739.49.739 1.115.739h.377v.58c-.756 0-1.537-.045-2.341-.045-.803 0-1.606.022-2.433.045v-.58zM151.085 21.329c0 .403.244.425.623.425.269 0 .603-.022.894-.022v.47c-.96.088-2.791.557-3.215.69l-.112-.067v-1.806c-1.338 1.093-2.366 1.873-3.952 1.873-1.205 0-2.455-.78-2.455-2.654V14.52c0-.58-.088-1.138-1.336-1.25v-.424c.804-.022 2.586-.156 2.878-.156.247 0 .247.156.247.647v5.758c0 .671 0 2.59 1.94 2.59.76 0 1.763-.58 2.7-1.359V14.32c0-.444-1.07-.69-1.873-.914v-.401c2.006-.135 3.259-.313 3.48-.313.181 0 .181.156.181.403v8.235zM155.526 13.963c.892-.759 2.097-1.607 3.326-1.607 2.59 0 4.15 2.256 4.15 4.688 0 2.924-2.142 5.848-5.335 5.848-1.651 0-2.52-.536-3.102-.78l-.669.512-.467-.245c.198-1.317.312-2.612.312-3.973V8.807c0-1.451-.337-1.496-1.184-1.741v-.357c.895-.29 1.83-.692 2.299-.961.246-.133.423-.246.492-.246.133 0 .178.135.178.314v8.147zm0 6.071c0 .85.803 2.279 2.298 2.279 2.389 0 3.392-2.345 3.392-4.333 0-2.41-1.828-4.418-3.57-4.418-.827 0-1.518.536-2.12 1.05v5.422zM59.237 35.536h.17c.437 0 .899-.059.899-.691v-6.363c0-.634-.462-.693-.898-.693h-.171v-.365c.474 0 1.203.048 1.8.048.606 0 1.334-.048 1.905-.048v.365h-.171c-.436 0-.898.06-.898.693v6.363c0 .632.462.691.898.691h.17v.367c-.582 0-1.312-.048-1.918-.048-.595 0-1.312.048-1.786.048v-.367z" fill="#211E1F"/>
    <path d="M62.942 35.954c-.587 0-1.315-.049-1.92-.049-.593 0-1.307.05-1.785.05h-.052v-.471h.222c.44-.01.842-.045.846-.639v-6.363c-.004-.594-.405-.634-.845-.642h-.223v-.47h.052c.478 0 1.205.048 1.8.048.604 0 1.33-.048 1.905-.048h.054v.47h-.224c-.44.008-.844.048-.847.642v6.363c.003.594.406.629.847.64h.224v.469h-.054zm-.052-.104v-.259h-.118c-.434 0-.95-.075-.953-.746v-6.363c.003-.672.52-.747.953-.747h.118v-.258c-.561 0-1.264.047-1.854.047-.577 0-1.275-.044-1.745-.047v.258h.116c.433 0 .951.075.951.747v6.363c0 .671-.518.746-.95.746h-.117v.26c.47-.006 1.156-.05 1.732-.05.59 0 1.294.046 1.867.05zM71.285 33.508l.024-.023V28.93c0-.998-.693-1.142-1.056-1.142h-.268v-.365c.571 0 1.13.048 1.7.048.498 0 .998-.048 1.495-.048v.365h-.182c-.511 0-1.082.096-1.082 1.542v5.527c0 .425.012.85.072 1.226h-.462l-6.253-6.972v5.005c0 1.056.205 1.42 1.141 1.42h.205v.366c-.52 0-1.042-.048-1.565-.048-.545 0-1.104.048-1.652.048v-.367h.17c.839 0 1.093-.569 1.093-1.54V28.88c0-.68-.56-1.091-1.104-1.091h-.158v-.365c.461 0 .934.048 1.395.048.365 0 .717-.048 1.081-.048l5.406 6.084z" fill="#211E1F"/>
    <path d="M71.988 36.137l-.501-.019-6.163-6.87v4.869c.014 1.056.175 1.355 1.09 1.367h.26v.47h-.054c-.526 0-1.049-.049-1.567-.049-.544 0-1.101.05-1.652.05h-.053v-.471h.224c.803-.004 1.032-.52 1.041-1.488v-5.115c-.002-.647-.532-1.04-1.053-1.041h-.212V27.372h.053c.464 0 .94.046 1.396.046.36 0 .713-.046 1.122-.029l5.338 6.01v-4.467c-.007-.967-.651-1.083-1.005-1.092h-.322V27.372h.054c.574 0 1.133.046 1.7.046.495 0 .992-.046 1.494-.046h.053V27.84H72.998c-.502.014-1.016.058-1.03 1.49v5.528c0 .424.012.848.071 1.216l.012.063h-.063zm-.462-.107h.402a8.111 8.111 0 0 1-.064-1.172V29.33c0-1.458.61-1.596 1.134-1.596h.128v-.258c-.479.003-.959.047-1.441.047-.556 0-1.097-.044-1.647-.047v.258h.214c.373 0 1.11.166 1.11 1.196l-.017 4.59-.024.025-.041.038-5.401-6.107c-.36 0-.712.047-1.082.047-.446 0-.901-.044-1.342-.047l-.002.258h.108c.57 0 1.155.435 1.155 1.146v5.115c0 .97-.27 1.592-1.144 1.596l-.117-.004v.262c.527-.005 1.067-.049 1.599-.049.507 0 1.011.044 1.513.05v-.26h-.153c-.956-.003-1.194-.419-1.194-1.475v-5.14l6.306 7.054zm-.241-2.516l.046-.042-.046.042zm-.026-.028v-.005l-.012-.01.012.015zM74.998 28.03c-.912 0-.947.22-1.129 1.105h-.364c.048-.34.108-.679.145-1.032.049-.34.073-.68.073-1.031h.292c.097.365.4.352.73.352h6.265c.328 0 .631-.012.657-.377l.29.049c-.048.328-.097.656-.134.984-.022.328-.022.656-.022.983l-.365.135c-.025-.449-.086-1.168-.899-1.168h-1.991v6.463c0 .936.425 1.043 1.006 1.043h.231v.367c-.473 0-1.324-.048-1.979-.048-.728 0-1.58.048-2.054.048v-.367h.232c.67 0 1.008-.06 1.008-1.018V28.03h-1.992z" fill="#211E1F"/>
    <path d="M79.785 35.954c-.478 0-1.328-.049-1.98-.049-.728 0-1.578.05-2.054.05h-.05v-.471h.281c.67-.016.94-.024.954-.966v-6.435h-1.938v-.107h2.044v6.542c0 .974-.393 1.073-1.06 1.074h-.178v.256c.479-.003 1.296-.046 2-.046.634 0 1.446.043 1.926.046v-.256h-.178c-.587-.001-1.06-.145-1.06-1.1v-6.516h2.045c.816.004.922.697.949 1.147l.262-.096c0-.317.001-.635.023-.955.036-.312.08-.622.126-.932l-.186-.031c-.056.354-.397.371-.703.368h-6.326c-.286 0-.598-.014-.707-.353h-.2a7.18 7.18 0 0 1-.072.985c-.035.334-.09.655-.136.976h.26c.16-.847.265-1.121 1.17-1.109v.107c-.897.016-.878.168-1.076 1.066l-.01.041H73.444l.007-.063c.049-.34.11-.679.146-1.033.05-.337.074-.673.074-1.022v-.053h.385l.009.038c.083.306.308.308.617.313h6.326c.339-.005.585-.01.606-.328l.005-.057.054.012.343.054-.007.053a24.18 24.18 0 0 0-.133.98c-.024.323-.024.651-.024.979v.038l-.034.013-.43.157-.003-.071c-.032-.457-.08-1.117-.848-1.117H78.6v6.41c.01.916.374.98.953.991h.285v.47h-.052zM82.345 35.536h.17c.437 0 .9-.059.9-.691v-6.363c0-.634-.463-.693-.9-.693h-.17v-.365c.74 0 2.004.048 3.022.048 1.023 0 2.283-.048 3.108-.048-.02.521-.009 1.325.027 1.858l-.366.097c-.058-.789-.204-1.42-1.48-1.42H84.97v3.181h1.443c.728 0 .888-.411.96-1.07h.363a27.103 27.103 0 0 0 0 2.807l-.364.073c-.071-.728-.108-1.202-.947-1.202H84.97v2.83c0 .79.701.79 1.48.79 1.457 0 2.1-.099 2.464-1.481l.34.083c-.159.645-.303 1.288-.411 1.933-.778 0-2.175-.048-3.267-.048-1.095 0-2.539.048-3.231.048v-.367z" fill="#211E1F"/>
    <path d="M88.842 35.954c-.78 0-2.177-.05-3.267-.05-1.094 0-2.537.05-3.23.05h-.052v-.47h.221c.441-.007.84-.045.846-.639v-6.363c-.006-.593-.405-.633-.845-.642h-.222V27.372h.051c.742 0 2.005.046 3.023.046 1.021 0 2.281-.046 3.108-.046h.055l-.003.054a18.742 18.742 0 0 0 .025 1.853l.002.043-.04.012-.428.111-.002-.062c-.072-.788-.177-1.36-1.428-1.372H85.02l-.002 3.075h1.395c.7-.007.824-.365.907-1.02l.004-.047H87.79v.054c-.024.474-.04.947-.04 1.42 0 .46.016.92.04 1.383v.043l-.044.01-.422.084-.004-.057c-.083-.741-.09-1.147-.896-1.156l-1.404-.001v2.778c.001.738.638.734 1.43.738 1.461-.009 2.047-.08 2.414-1.444l.012-.048.05.009.39.1-.012.05a27.72 27.72 0 0 0-.411 1.929l-.01.043h-.041zm-.045-.106c.105-.612.244-1.227.393-1.839l-.24-.06c-.364 1.36-1.068 1.48-2.501 1.471-.765 0-1.531 0-1.534-.843v-2.882h1.509c.848-.009.935.503.994 1.194l.263-.054a26.444 26.444 0 0 1 0-2.71l-.263-.001c-.067.632-.265 1.077-1.005 1.068h-1.498v-3.287h1.741c1.264-.009 1.473.643 1.527 1.407l.262-.07a20.514 20.514 0 0 1-.035-1.189c0-.208.005-.404.011-.576-.825.003-2.054.047-3.054.047-.998 0-2.227-.044-2.97-.047v.258h.118c.432 0 .95.075.951.747v6.363c-.002.67-.519.744-.951.747h-.118v.256c.708-.001 2.111-.046 3.178-.046 1.071 0 2.439.045 3.222.046zM90.893 28.71c0-.885-.485-.921-.863-.921h-.218v-.366c.389 0 1.141.049 1.882.049.729 0 1.312-.049 1.955-.049 1.53 0 2.891.414 2.891 2.14 0 1.09-.728 1.76-1.688 2.137l2.076 3.108c.34.514.582.658 1.178.728v.367c-.4 0-.79-.048-1.19-.048-.376 0-.766.048-1.14.048-.936-1.227-1.739-2.54-2.528-3.937h-.8v2.6c0 .937.436.97.994.97h.22v.367c-.695 0-1.396-.048-2.089-.048-.584 0-1.155.048-1.76.048v-.367h.217c.451 0 .863-.204.863-.654V28.71zm1.556 2.819h.593c1.215 0 1.87-.462 1.87-1.895 0-1.08-.692-1.773-1.774-1.773-.365 0-.52.038-.69.049v3.619z" fill="#211E1F"/>
    <path d="M98.106 35.954c-.406 0-.793-.049-1.192-.049-.37 0-.758.05-1.182.029-.931-1.222-1.73-2.527-2.514-3.914H92.5v2.545c.013.913.38.906.942.92h.272v.469h-.054c-.694 0-1.399-.049-2.089-.049-.58 0-1.15.05-1.759.05h-.053v-.471h.271c.438-.002.807-.193.809-.602v-6.171c-.01-.862-.432-.857-.809-.87h-.271v-.471h.053c.393 0 1.143.048 1.882.048.725 0 1.309-.048 1.956-.048 1.53.004 2.94.426 2.944 2.19 0 1.097-.725 1.782-1.663 2.164l2.04 3.055c.34.504.552.63 1.143.705l.044.007V35.954h-.052zm-5.659-4.04h.83l.015.026c.791 1.396 1.589 2.706 2.483 3.91.37 0 .76-.05 1.139-.05.388 0 .762.043 1.14.049v-.266c-.57-.071-.837-.241-1.169-.746l-2.113-3.162.06-.024c.95-.374 1.653-1.024 1.654-2.092 0-1.685-1.31-2.075-2.836-2.082-.641 0-1.224.048-1.956.048-.713 0-1.433-.045-1.83-.048v.258h.166c.377 0 .915.063.915.976v6.17c0 .489-.458.71-.915.712h-.167v.256c.585-.002 1.138-.048 1.708-.048.68 0 1.364.046 2.037.048v-.256h-.166c-.555-.001-1.048-.07-1.048-1.029v-2.65h.053zm0-.334h-.053V27.86l.046-.004c.166-.013.33-.047.698-.047 1.106 0 1.825.719 1.827 1.826-.003 1.45-.699 1.943-1.923 1.944h-.595zm.595-.104c1.202-.01 1.807-.428 1.82-1.84-.007-1.06-.667-1.72-1.724-1.724-.329 0-.483.03-.638.044v3.52h.542zM106.352 33.508l.022-.023V28.93c0-.998-.692-1.142-1.055-1.142h-.267v-.365c.57 0 1.128.048 1.7.048.498 0 .995-.048 1.495-.048v.365h-.182c-.51 0-1.082.096-1.082 1.542v5.527c0 .425.012.85.072 1.226h-.46l-6.254-6.972v5.005c0 1.056.206 1.42 1.14 1.42h.207v.366c-.521 0-1.044-.048-1.565-.048-.549 0-1.107.048-1.653.048v-.367h.169c.839 0 1.094-.569 1.094-1.54V28.88c0-.68-.559-1.091-1.104-1.091h-.159v-.365c.46 0 .936.048 1.396.048.363 0 .716-.048 1.081-.048l5.405 6.084z" fill="#211E1F"/>
    <path d="M107.055 36.136l-.5-.017-6.163-6.87v4.867c.014 1.057.174 1.356 1.09 1.368h.257v.47h-.053c-.525 0-1.046-.05-1.566-.05-.543 0-1.104.05-1.65.05h-.055v-.47h.223c.802-.003 1.032-.52 1.04-1.491V28.88c-.001-.647-.531-1.04-1.05-1.04h-.213v-.47h.055c.463 0 .938.048 1.396.048.357 0 .71-.048 1.117-.031l5.338 6.011V28.93c-.003-.965-.65-1.085-1.003-1.09h-.32v-.47h.052c.575 0 1.134.048 1.702.048.495 0 .992-.048 1.493-.048h.053v.47H108.065c-.502.013-1.018.058-1.03 1.49v5.528c0 .424.01.845.072 1.219l.007.059h-.059zm-.461-.106h.4a8.33 8.33 0 0 1-.066-1.172V29.33c.001-1.458.616-1.593 1.136-1.597h.127v-.257c-.476.003-.957.047-1.44.047-.557 0-1.099-.044-1.648-.047v.257h.215c.374.004 1.11.167 1.11 1.196l-.017 4.591-.023.025-.037.039-5.405-6.108c-.36 0-.713.047-1.08.047-.45 0-.903-.044-1.346-.047v.257h.108c.57.004 1.156.434 1.156 1.146v5.113c0 .975-.275 1.595-1.146 1.599l-.118-.001v.257c.525-.003 1.067-.046 1.6-.046.51 0 1.014.043 1.516.046v-.256h-.154c-.956-.001-1.195-.42-1.197-1.476v-5.14l6.309 7.054zm-.243-2.516l.044-.041-.044.041zm-.028-.027v-.005l-.011-.01.01.015zM110.2 34.165c-.123.412-.27.73-.27.947 0 .365.512.424.911.424h.136v.367a27.539 27.539 0 0 0-1.472-.048c-.437 0-.872.022-1.31.048v-.367h.073c.474 0 .876-.279 1.055-.79l1.945-5.573c.157-.45.377-1.057.45-1.507a6.189 6.189 0 0 0 1.104-.522c.038-.012.059-.025.097-.025.036 0 .06 0 .087.038.035.096.07.206.11.303l2.233 6.353c.146.425.29.874.448 1.239.146.34.402.484.804.484h.071v.367a34.545 34.545 0 0 0-1.675-.048c-.595 0-1.204.022-1.823.048v-.367h.135c.278 0 .753-.047.753-.35 0-.158-.11-.486-.245-.876l-.473-1.409h-2.756l-.388 1.264zm1.772-5.381h-.024l-1.13 3.438h2.27l-1.116-3.438z" fill="#211E1F"/>
    <path d="M116.669 35.954c-.547-.024-1.093-.05-1.672-.05-.595 0-1.2.026-1.821.05l-.055.003v-.474h.187c.281 0 .699-.065.699-.298.003-.138-.106-.471-.24-.858l-.463-1.373h-2.678l-.378 1.227c-.123.414-.268.735-.267.933.004.296.458.368.86.368h.187v.475l-.055-.003c-.485-.024-.982-.05-1.466-.05-.435 0-.873.026-1.308.05l-.057.003v-.474h.126c.452-.002.83-.259 1.004-.753l1.945-5.574c.16-.451.378-1.057.483-1.54.38-.13.868-.374 1.103-.522.033-.011.067-.028.117-.028a.15.15 0 0 1 .134.071c.034.1.072.208.11.307l2.236 6.352c.143.426.288.875.446 1.234.141.324.364.45.755.453h.124v.474l-.056-.003zm-3.442-.109c.601-.02 1.19-.044 1.77-.044.564 0 1.092.023 1.62.044v-.253h-.016c-.416.002-.704-.16-.853-.519-.158-.369-.306-.82-.448-1.245l-2.236-6.351c-.037-.097-.073-.207-.105-.293-.01-.012-.007-.012-.017-.012h-.023c-.025 0-.039.008-.07.016-.234.153-.722.39-1.082.486-.074.46-.293 1.066-.45 1.516l-1.945 5.575c-.185.527-.61.828-1.104.827h-.02v.253c.416-.02.837-.044 1.26-.044.468 0 .948.023 1.411.044v-.253h-.078c-.395-.005-.947-.05-.962-.478 0-.243.15-.554.268-.964l.053.016-.053-.018.4-1.298h2.832l.487 1.443c.137.39.247.714.247.892-.017.373-.53.4-.805.407h-.081v.253zm-2.483-3.571l1.163-3.543h.066v.053l-.013.002.013-.002v-.053h.036l1.153 3.543h-2.418zm.146-.105h2.126l-1.057-3.255-1.069 3.255zm1.03-3.368l.033-.011-.033.01zM117.206 28.03c-.911 0-.947.22-1.13 1.105h-.365c.048-.34.11-.679.148-1.032.048-.34.07-.68.07-1.031h.294c.096.365.401.352.727.352h6.268c.326 0 .63-.012.655-.377l.29.049c-.046.328-.094.656-.131.984-.026.328-.026.656-.026.983l-.364.135c-.023-.449-.084-1.168-.898-1.168h-1.992v6.463c0 .936.427 1.043 1.008 1.043h.23v.367c-.473 0-1.322-.048-1.979-.048-.727 0-1.579.048-2.052.048v-.367h.23c.67 0 1.01-.06 1.01-1.018V28.03h-1.993z" fill="#211E1F"/>
    <path d="M121.99 35.954c-.476 0-1.327-.049-1.979-.049-.726 0-1.576.05-2.052.05h-.054v-.471H118.19c.67-.016.938-.024.955-.966l-.002-6.435h-1.936v-.107h2.043v6.542c0 .974-.393 1.07-1.06 1.073h-.179v.26c.481-.006 1.296-.05 2.001-.05.634 0 1.446.044 1.926.05v-.26h-.179c-.584-.003-1.057-.143-1.059-1.098v-6.517h2.045c.815.004.922.697.945 1.147l.265-.096c0-.317.001-.635.025-.953.033-.312.079-.624.124-.934l-.184-.031c-.056.354-.398.373-.7.368h-6.33c-.287.003-.597-.014-.707-.355h-.199a7.197 7.197 0 0 1-.074.987c-.032.335-.092.656-.137.976h.26c.161-.847.266-1.121 1.174-1.109v.107c-.9.016-.88.168-1.079 1.066l-.009.04H115.65l.007-.06c.05-.343.111-.681.147-1.032.05-.34.073-.677.073-1.025v-.053h.384l.01.038c.085.306.307.308.617.313l.062.002h6.268c.335-.007.58-.012.601-.329l.004-.058.057.012.344.054-.009.053c-.05.325-.096.653-.133.98-.024.323-.024.652-.024.979v.038l-.035.013-.43.157-.003-.071c-.03-.456-.079-1.117-.846-1.117h-1.94v6.41c.013.916.376.98.954.991h.285v.47h-.053zM124.612 35.536h.17c.438 0 .897-.059.897-.691v-6.363c0-.634-.459-.693-.897-.693h-.17v-.365c.474 0 1.201.048 1.795.048.61 0 1.338-.048 1.91-.048v.365h-.17c-.438 0-.901.06-.901.693v6.363c0 .632.463.691.9.691h.17v.367c-.583 0-1.313-.048-1.918-.048-.596 0-1.312.048-1.786.048v-.367z" fill="#211E1F"/>
    <path d="M128.317 35.954c-.587 0-1.314-.05-1.92-.05-.593 0-1.31.05-1.785.05h-.053v-.47h.223c.439-.007.842-.044.843-.639v-6.363c-.001-.593-.404-.634-.843-.642h-.223V27.372h.053c.474 0 1.204.046 1.795.046.606 0 1.334-.046 1.91-.046h.051V27.84h-.221c-.444.008-.843.049-.849.642v6.363c.006.595.405.632.848.64h.222v.469h-.051zm-.055-.106v-.257h-.116c-.435 0-.95-.077-.95-.746v-6.363c0-.672.515-.747.95-.747h.116v-.258c-.56.003-1.262.047-1.855.047-.575 0-1.271-.044-1.742-.047v.258h.117c.432 0 .95.075.951.747v6.363c-.002.67-.519.746-.95.746h-.118v.257c.468-.005 1.156-.046 1.732-.046.59 0 1.292.043 1.865.046zM133.16 27.242c2.588 0 4.651 1.605 4.651 4.191 0 2.795-2.003 4.652-4.588 4.652-2.577 0-4.543-1.75-4.543-4.361 0-2.526 1.954-4.482 4.48-4.482zm.183 8.308c2.356 0 2.766-2.079 2.766-3.85 0-1.775-.956-3.924-2.973-3.924-2.126 0-2.756 1.895-2.756 3.52 0 2.175.995 4.254 2.963 4.254z" fill="#211E1F"/>
    <path d="M128.626 31.724c.005-2.555 1.982-4.532 4.533-4.535v.104c-2.496 0-4.428 1.931-4.43 4.43.005 2.583 1.943 4.306 4.493 4.307 2.56-.001 4.535-1.832 4.54-4.6-.003-2.553-2.035-4.133-4.603-4.137v-.104c2.609.002 4.7 1.623 4.705 4.242-.002 2.823-2.032 4.7-4.642 4.705-2.597-.005-4.591-1.772-4.596-4.412zm1.7-.427c.004-1.634.643-3.576 2.81-3.576 2.062.005 3.024 2.195 3.028 3.98-.004 1.77-.42 3.9-2.82 3.9v-.103c2.309-.004 2.709-2.027 2.714-3.798 0-1.76-.948-3.868-2.922-3.871-2.083.003-2.7 1.85-2.704 3.468.002 2.163.988 4.195 2.911 4.2V35.6c-2.016-.002-3.013-2.116-3.016-4.303zM145.995 33.508l.025-.023V28.93c0-.998-.694-1.142-1.059-1.142h-.263v-.365c.57 0 1.128.048 1.697.048.5 0 .997-.048 1.496-.048v.365h-.184c-.508 0-1.08.096-1.08 1.542v5.527c0 .425.012.85.073 1.226h-.46l-6.256-6.972v5.005c0 1.056.206 1.42 1.14 1.42h.208v.366c-.523 0-1.044-.048-1.566-.048-.547 0-1.107.048-1.653.048v-.367h.17c.84 0 1.092-.569 1.092-1.54V28.88c0-.68-.556-1.091-1.104-1.091h-.158v-.365c.461 0 .935.048 1.396.048.365 0 .716-.048 1.081-.048l5.405 6.084z" fill="#211E1F"/>
    <path d="M146.701 36.136l-.503-.018-6.162-6.87v4.869c.014 1.056.175 1.355 1.087 1.365h.262v.472h-.053c-.526 0-1.047-.049-1.566-.049-.545 0-1.102.05-1.654.05h-.05v-.473H138.283c.8-.002 1.03-.517 1.04-1.486V28.88c-.001-.647-.53-1.04-1.053-1.04h-.21V27.372h.05c.467 0 .94.046 1.398.046.36 0 .71-.046 1.122-.028l5.336 6.008v-4.466c-.004-.967-.65-1.083-1.006-1.092h-.319V27.372h.055c.571 0 1.131.046 1.696.046.499 0 .994-.046 1.498-.046h.052V27.84h-.236c-.5.014-1.016.06-1.026 1.49v5.528c0 .424.009.848.068 1.219l.01.059h-.058zm-.461-.106h.397a8.365 8.365 0 0 1-.062-1.172V29.33c0-1.46.612-1.593 1.133-1.597h.13v-.257c-.478.003-.958.047-1.444.047-.553 0-1.096-.044-1.646-.047v.257h.213c.377.004 1.11.17 1.11 1.197l-.014 4.59-.023.025-.038.039-5.405-6.108c-.358 0-.713.047-1.082.047-.447 0-.902-.044-1.345-.047v.257h.107c.57.004 1.158.434 1.158 1.146v5.116c0 .971-.272 1.593-1.145 1.596l-.12-.001v.257c.528-.003 1.068-.046 1.602-.046.506 0 1.01.043 1.514.046v-.256h-.157c-.953-.001-1.192-.42-1.192-1.476v-5.14l6.309 7.054zm-.245-2.516l.046-.041-.046.041zm-.026-.027v-.005l-.012-.01.012.015zM149.843 34.165c-.12.412-.267.73-.267.947 0 .365.512.424.91.424h.136v.367a27.562 27.562 0 0 0-1.47-.048c-.44 0-.875.022-1.31.048v-.367h.069c.475 0 .878-.279 1.057-.79l1.946-5.573c.156-.45.376-1.057.447-1.507a6.267 6.267 0 0 0 1.107-.522c.035-.012.06-.025.096-.025.037 0 .06 0 .084.038.037.096.075.206.111.303l2.233 6.353c.146.425.29.874.45 1.239.147.34.403.484.802.484h.074v.367a34.601 34.601 0 0 0-1.678-.048c-.593 0-1.201.022-1.821.048v-.367h.135c.277 0 .753-.047.753-.35 0-.158-.11-.486-.246-.876l-.471-1.409h-2.757l-.39 1.264zm1.775-5.381h-.025l-1.13 3.438h2.272l-1.117-3.438z" fill="#211E1F"/>
    <path d="M156.313 35.954c-.547-.022-1.092-.049-1.673-.049-.592 0-1.2.027-1.82.05l-.053.002v-.473h.184c.283 0 .701-.066.702-.299.003-.138-.107-.469-.242-.858l-.462-1.373h-2.68l-.376 1.226c-.121.416-.266.736-.263.932 0 .298.454.372.856.372h.185v.473l-.054-.003c-.486-.022-.983-.049-1.466-.049-.435 0-.872.027-1.31.05l-.053.002v-.473h.123c.453-.002.832-.262 1.009-.754l1.943-5.575c.155-.45.374-1.056.482-1.538.381-.132.869-.375 1.105-.523.032-.011.065-.025.114-.025a.136.136 0 0 1 .133.07c.037.096.072.206.112.304l2.234 6.353c.145.426.29.875.448 1.236.142.322.364.449.75.452h.127v.473l-.055-.003zm-3.442-.107c.6-.023 1.192-.046 1.77-.046.564 0 1.094.023 1.623.044l-.002-.253h-.02c-.411 0-.698-.161-.849-.519-.16-.369-.305-.82-.45-1.243l-2.235-6.353c-.036-.097-.073-.207-.102-.29-.01-.015-.01-.015-.019-.015h-.023c-.025 0-.039.009-.068.017-.237.149-.723.391-1.083.485-.075.46-.296 1.065-.452 1.516l-1.945 5.575c-.184.527-.608.828-1.105.827h-.018v.253c.418-.02.835-.044 1.258-.044.47 0 .95.023 1.417.044v-.253h-.082c-.395-.005-.95-.048-.963-.48.002-.241.153-.55.27-.962l.05.016-.05-.018.4-1.298h2.832l.487 1.443c.134.391.244.714.244.892-.018.373-.527.4-.805.407h-.08v.255zm-2.481-3.574l1.165-3.542h.063v.053l-.013.002.013-.002v-.053h.038l1.148 3.542h-2.414zm.146-.104h2.124l-1.057-3.254-1.067 3.254zm1.031-3.368l.03-.011-.03.01zM159.378 34.712c0 .486.337.63.726.68a8.816 8.816 0 0 0 1.605-.024c.509-.062.947-.353 1.164-.656.194-.268.303-.608.376-.875h.352c-.133.692-.303 1.374-.45 2.066-1.065 0-2.137-.048-3.204-.048-1.07 0-2.137.048-3.206.048v-.367h.167c.44 0 .915-.059.915-.812v-6.242c0-.634-.475-.693-.915-.693h-.167v-.365c.642 0 1.274.048 1.917.048.622 0 1.228-.048 1.848-.048v.365h-.306c-.46 0-.822.013-.822.655v6.268z" fill="#211E1F"/>
    <path d="M163.152 35.954c-1.07 0-2.14-.049-3.205-.049-1.07 0-2.138.05-3.208.05h-.052v-.471h.222c.44-.01.856-.04.86-.76v-6.245c-.005-.59-.418-.63-.86-.639h-.222V27.372h.052c.646 0 1.278.046 1.92.046.616 0 1.223-.046 1.847-.046h.05V27.84h-.355c-.47.013-.764-.008-.773.604v6.268c.003.452.3.574.679.627a8.623 8.623 0 0 0 1.593-.024c.495-.057.921-.343 1.13-.632.187-.26.295-.593.367-.859l.011-.04H163.666l-.011.064c-.138.695-.304 1.374-.452 2.065l-.01.041h-.041zm-.044-.106c.14-.659.3-1.303.43-1.96h-.25c-.075.265-.183.59-.374.856-.226.315-.676.611-1.202.676a9.144 9.144 0 0 1-1.615.024c-.395-.044-.778-.213-.776-.732v-6.268c0-.675.427-.71.88-.71h.25v-.257c-.598.003-1.187.048-1.792.048-.63 0-1.244-.045-1.867-.048v.258h.116c.434 0 .964.075.964.744v6.245c0 .785-.528.867-.964.867h-.116v.257c1.05-.001 2.1-.046 3.155-.046 1.056 0 2.11.045 3.16.046zM163.454 27.079c.732 0 1.278.562 1.278 1.283 0 .718-.546 1.275-1.278 1.275s-1.28-.557-1.28-1.275c0-.72.548-1.283 1.28-1.283zm0 2.32c.572 0 1.011-.489 1.011-1.037 0-.552-.433-1.044-1.011-1.044-.575 0-1.015.493-1.015 1.044 0 .548.44 1.037 1.015 1.037zm-.637-.363v-.063c.158-.022.186-.017.186-.115v-.946c0-.133-.014-.179-.18-.172v-.065h.654c.226 0 .432.107.432.34 0 .19-.126.33-.302.385l.21.293c.098.133.209.258.282.301v.042h-.25c-.119 0-.223-.252-.46-.59h-.14v.425c0 .085.029.08.186.102v.063h-.618zm.431-.674h.151c.165 0 .243-.125.243-.327 0-.203-.12-.275-.251-.275h-.143v.602z" fill="#211E1F"/>
  </g>
</svg>
