<svg width="146" height="38" xmlns="http://www.w3.org/2000/svg">
  <g fill="none" fill-rule="evenodd">
    <path fill="#004990" d="M.5.828h144.551v36.489H.5z"/>
    <g fill="#FFF">
      <path d="M47.434 18.807c0 1.274-.363 2.25-1.088 2.927-.725.677-1.772 1.016-3.14 1.016h-2.191v-7.737h2.429c1.263 0 2.243.333 2.942 1 .698.667 1.048 1.598 1.048 2.794zm-1.704.043c0-1.662-.734-2.493-2.202-2.493h-.873v5.038h.704c1.58 0 2.37-.849 2.37-2.545zm3.653-3.546c0-.526.293-.789.879-.789.585 0 .878.263.878.789 0 .25-.073.445-.22.585-.146.14-.366.209-.658.209-.586 0-.879-.265-.879-.794zm1.683 7.446h-1.614v-5.917h1.614v5.917zm6.363-1.757c0 .607-.21 1.069-.632 1.386-.422.318-1.053.476-1.892.476-.43 0-.798-.029-1.101-.087a4.163 4.163 0 0 1-.852-.256v-1.334c.3.141.638.26 1.013.355.376.095.707.142.993.142.585 0 .878-.169.878-.508a.424.424 0 0 0-.116-.31 1.688 1.688 0 0 0-.403-.27c-.19-.1-.444-.217-.762-.351-.455-.19-.789-.367-1.002-.53a1.49 1.49 0 0 1-.466-.557 1.843 1.843 0 0 1-.146-.776c0-.525.204-.932.612-1.22.407-.287.985-.43 1.733-.43a4.92 4.92 0 0 1 2.08.465l-.487 1.164a8.956 8.956 0 0 0-.831-.312 2.609 2.609 0 0 0-.789-.122c-.476 0-.714.129-.714.386 0 .145.077.27.23.376.154.106.49.263 1.008.471.462.187.801.362 1.016.524.215.162.374.35.476.561.103.212.154.464.154.757zm4.204 1.862c-1.842 0-2.763-1.01-2.763-3.032 0-1.005.251-1.773.752-2.304.5-.531 1.219-.797 2.154-.797.684 0 1.298.134 1.841.402l-.476 1.25a8.146 8.146 0 0 0-.71-.252 2.285 2.285 0 0 0-.655-.098c-.84 0-1.26.596-1.26 1.789 0 1.157.42 1.735 1.26 1.735.31 0 .598-.041.862-.124.265-.083.53-.213.794-.389v1.381c-.261.166-.525.28-.791.344a4.449 4.449 0 0 1-1.008.095zm4.998-3.074c0 .586.096 1.028.288 1.328.192.3.505.45.94.45.43 0 .74-.15.928-.447.189-.298.283-.742.283-1.331 0-.586-.095-1.025-.286-1.318-.19-.293-.502-.439-.936-.439-.43 0-.741.146-.932.437-.19.29-.285.73-.285 1.32zm4.09 0c0 .963-.254 1.716-.762 2.26-.508.543-1.215.814-2.122.814-.568 0-1.069-.124-1.503-.373a2.483 2.483 0 0 1-1-1.071c-.233-.466-.35-1.01-.35-1.63 0-.967.253-1.718.757-2.254.505-.537 1.214-.805 2.128-.805.568 0 1.069.124 1.503.37.434.248.767.602 1 1.064.233.462.35 1.004.35 1.625zm3.066 2.969l-2.254-5.917h1.688l1.143 3.371c.127.427.207.831.238 1.212h.032c.018-.339.097-.743.238-1.212l1.138-3.37h1.688l-2.254 5.916h-1.657zm7.75-4.88c-.342 0-.61.109-.805.326-.194.217-.305.525-.333.923h2.265c-.007-.398-.111-.706-.312-.923-.201-.217-.473-.325-.815-.325zm.227 4.985c-.952 0-1.697-.262-2.233-.788s-.804-1.27-.804-2.233c0-.992.248-1.758.743-2.3.496-.541 1.181-.812 2.056-.812.836 0 1.487.238 1.953.715.466.476.698 1.134.698 1.973v.784h-3.815c.018.458.153.816.407 1.074.254.257.61.386 1.07.386.356 0 .693-.037 1.01-.11.318-.075.65-.193.995-.355v1.248a3.79 3.79 0 0 1-.905.315 5.705 5.705 0 0 1-1.175.103zm7.57-6.133c.219 0 .4.016.545.048l-.122 1.513a1.849 1.849 0 0 0-.476-.053c-.515 0-.916.133-1.204.397-.287.265-.431.635-.431 1.112v3.01h-1.614v-5.916h1.222l.238.995h.08c.183-.331.43-.599.743-.802a1.833 1.833 0 0 1 1.019-.304zm1.314.111h1.768l1.116 3.329c.096.29.161.631.196 1.027h.032c.039-.364.115-.706.228-1.027l1.095-3.329h1.73l-2.503 6.673c-.229.618-.556 1.08-.981 1.387-.425.307-.922.46-1.49.46-.279 0-.552-.03-.82-.09v-1.28c.194.046.406.068.635.068.286 0 .535-.087.749-.261.213-.175.38-.439.5-.792l.095-.29-2.35-5.875zm14.314 5.917l-1.863-6.07h-.047c.067 1.235.1 2.058.1 2.471v3.599h-1.466v-7.737h2.233l1.831 5.916h.032l1.942-5.916h2.233v7.737h-1.529v-3.662c0-.173.003-.373.008-.598.005-.226.03-.826.072-1.8h-.048l-1.995 6.06h-1.503zm7.289-7.446c0-.526.293-.789.878-.789.586 0 .879.263.879.789 0 .25-.073.445-.22.585-.146.14-.366.209-.659.209-.585 0-.878-.265-.878-.794zm1.683 7.446h-1.614v-5.917h1.614v5.917zm3.85 0h-1.615v-8.235h1.614v8.235zm4.685-4.88c-.343 0-.61.109-.805.326-.194.217-.305.525-.333.923h2.265c-.007-.398-.111-.706-.312-.923-.202-.217-.473-.325-.815-.325zm.227 4.985c-.952 0-1.697-.262-2.233-.788s-.804-1.27-.804-2.233c0-.992.247-1.758.743-2.3.496-.541 1.181-.812 2.056-.812.836 0 1.487.238 1.953.715.465.476.698 1.134.698 1.973v.784h-3.815c.017.458.153.816.407 1.074.254.257.61.386 1.07.386.356 0 .692-.037 1.01-.11.318-.075.65-.193.995-.355v1.248a3.79 3.79 0 0 1-.905.315 5.705 5.705 0 0 1-1.175.103zm8.395-1.862c0 .607-.21 1.069-.632 1.386-.422.318-1.052.476-1.892.476-.43 0-.797-.029-1.1-.087a4.163 4.163 0 0 1-.853-.256v-1.334c.3.141.638.26 1.014.355.375.095.706.142.992.142.586 0 .878-.169.878-.508a.424.424 0 0 0-.116-.31 1.688 1.688 0 0 0-.402-.27c-.19-.1-.445-.217-.762-.351-.455-.19-.79-.367-1.003-.53a1.49 1.49 0 0 1-.466-.557 1.843 1.843 0 0 1-.145-.776c0-.525.203-.932.61-1.22.408-.287.986-.43 1.734-.43a4.92 4.92 0 0 1 2.08.465l-.487 1.164a8.956 8.956 0 0 0-.83-.312 2.609 2.609 0 0 0-.79-.122c-.476 0-.714.129-.714.386 0 .145.077.27.23.376.154.106.49.263 1.008.471.463.187.801.362 1.017.524.215.162.373.35.476.561.102.212.153.464.153.757z"/>
      <path d="M20.39 24.3c.05.2.231.341.438.341h8.43a.452.452 0 1 0 0-.903H21.18L17.654 9.63a.452.452 0 0 0-.438-.342h-3.613a.452.452 0 1 0 0 .903h3.26l3.527 14.108z" fill-rule="nonzero"/>
      <path d="M30.702 19.56l-10.526 1.17a.452.452 0 0 0 .1.898l10.838-1.204a.452.452 0 0 0 .388-.34l1.806-7.225a.452.452 0 0 0-.438-.56H18.42a.452.452 0 0 0 0 .902h13.872l-1.59 6.36zM20.828 28.254a2.258 2.258 0 1 1 0-4.516 2.258 2.258 0 0 1 0 4.516zm0-.903a1.355 1.355 0 1 0 0-2.71 1.355 1.355 0 0 0 0 2.71zM29.258 28.254a2.258 2.258 0 1 1 0-4.516 2.258 2.258 0 0 1 0 4.516zm0-.903a1.355 1.355 0 1 0 0-2.71 1.355 1.355 0 0 0 0 2.71z" fill-rule="nonzero"/>
    </g>
  </g>
</svg>
