<svg width="207" height="33" xmlns="http://www.w3.org/2000/svg">
  <g fill-rule="nonzero" fill="none">
    <path d="M13.72 5.7a2.47 2.47 0 0 0-.42-.18c-.16 0-.92-.16-.92-.16a4.11 4.11 0 0 0-.26-.5 2.14 2.14 0 0 0-.73-.7 1.4 1.4 0 0 0-.88-.19 1.24 1.24 0 0 0-.48.19c-.14.08-.24.18-.38.1a3.32 3.32 0 0 1-.73-1.39c-.3-.84-.85-2.65-.85-2.65s-.18.08-.26.46a17.69 17.69 0 0 0 0 2.53 9.49 9.49 0 0 1 0 1.39c0 .163-.027.325-.08.48a1.51 1.51 0 0 1-.26.26 1.15 1.15 0 0 0-.3-.38 8.78 8.78 0 0 0-1.54-1c-.72-.4-1.73-.94-2.33-1.34C2.7 2.22 0 .01 0 .01S.52 1.68.8 2.3a22.68 22.68 0 0 0 1.61 2.91c.5.7 1.42 2 1.82 2.51a2 2 0 0 1 .43 1.78 4.57 4.57 0 0 1-.81 1.77 27.53 27.53 0 0 1-1.72 2.3c-.52.54-2.11 2.27-2.11 2.27l2.35-1.89s.64-.58.94-.92c.3-.34.7-.44.54.24a6.9 6.9 0 0 1-.26.92 7.86 7.86 0 0 0 .94-.78 5.63 5.63 0 0 0 1.07-1.3 6.51 6.51 0 0 1 .46-.84s.86-.26 1.36-.44a5 5 0 0 0 1.91-1.42 11.48 11.48 0 0 0 1-2 2.5 2.5 0 0 1 1.17-1.19 5.16 5.16 0 0 1 1.42-.36l.78-.06.02-.1z" fill="#1B75BB"/>
    <path d="M14.92 27.48V11.64h9.17a8.26 8.26 0 0 1 3.1.57 7.06 7.06 0 0 1 2.44 1.59 7.38 7.38 0 0 1 1.6 2.45 8.41 8.41 0 0 1 .58 3.15 8.83 8.83 0 0 1-.58 3.2 7.88 7.88 0 0 1-1.6 2.56 7.51 7.51 0 0 1-5.54 2.32h-9.17zm9.17-2.77a4.91 4.91 0 0 0 2-.39 4.68 4.68 0 0 0 1.57-1.08 4.84 4.84 0 0 0 1-1.64 5.85 5.85 0 0 0 .37-2.07 5.76 5.76 0 0 0-.37-2.06 4.85 4.85 0 0 0-1-1.62 4.63 4.63 0 0 0-1.57-1.06 4.91 4.91 0 0 0-2-.38H17.7v10.3h6.39zM38.61 23.08V20.4h6.37a3 3 0 0 0 2.27-.83 3 3 0 0 0 .82-2.18 2.92 2.92 0 0 0-.82-2.18 3.11 3.11 0 0 0-2.27-.8h-8.39v13.07h-2.75V11.64h11.14a7 7 0 0 1 2.45.4c.68.247 1.3.636 1.82 1.14a4.76 4.76 0 0 1 1.13 1.77 7.28 7.28 0 0 1 0 4.7 5 5 0 0 1-2.95 3 6.73 6.73 0 0 1-2.45.42l-6.37.01zM60 27.48a7.41 7.41 0 0 1-3.08-.62 7.53 7.53 0 0 1-4-4.26 8.62 8.62 0 0 1-.58-3.2 8.34 8.34 0 0 1 .58-3.18 7.06 7.06 0 0 1 1.61-2.46 7.58 7.58 0 0 1 2.39-1.57 8.28 8.28 0 0 1 3.06-.55h3.86a8.41 8.41 0 0 1 3.15.57 6.92 6.92 0 0 1 2.45 1.59 7.06 7.06 0 0 1 1.59 2.45 8.41 8.41 0 0 1 .57 3.15 8.62 8.62 0 0 1-.58 3.2 7.54 7.54 0 0 1-7.18 4.88H60zm3.86-2.77a5.07 5.07 0 0 0 2-.39 4.72 4.72 0 0 0 2.61-2.72 5.64 5.64 0 0 0 .37-2.07 5.55 5.55 0 0 0-.37-2.06 4.83 4.83 0 0 0-1-1.62 4.78 4.78 0 0 0-1.55-1.06 5.07 5.07 0 0 0-2-.38H60a4.91 4.91 0 0 0-2 .38 4.69 4.69 0 0 0-1.56 1.06 4.92 4.92 0 0 0-1 1.61 5.49 5.49 0 0 0-.37 2.07 5.64 5.64 0 0 0 .37 2.07 5 5 0 0 0 1 1.64A4.74 4.74 0 0 0 58 24.32a4.91 4.91 0 0 0 2 .39h3.86zM138.5 12.06l-5.31 13.68h2.63l1.35-3.56h5.34l1.35 3.56h2.79l-5.2-13.68h-2.95zm-.69 8.18l2.11-6.13 2 6.13h-4.11zm14.84-3.64a15.51 15.51 0 0 0-.85 1.89 18.1 18.1 0 0 0-.85-1.89l-2.52-4.51h-3.11l5.07 8.13v5.52h2.63v-5.52l5.15-8.13h-2.95l-2.57 4.51zm-21.66-3.84c-.86-.46-1.57-.67-4.12-.67h-4.14v13.65h2.52v-5.13h2.31a5.91 5.91 0 0 0 4-1.14 3.89 3.89 0 0 0 1.65-3.26 3.84 3.84 0 0 0-2.2-3.45h-.02zm-3.46 5.92h-2.26v-4.6h1.86c1.72 0 3.26.29 3.26 2.29 0 1.75-1.17 2.31-2.86 2.31zm56.85-4.57h4.06v11.63h2.48V14.11h4.12l.34-2h-11v2zm-19 6.16h2.84v3.4a4.86 4.86 0 0 1-2.12.45 5.57 5.57 0 0 1-2.63-.67c-1.22-.68-1.83-2.12-1.83-4.37a8.63 8.63 0 0 1 .58-3.3c.53-1.27 1.78-1.94 3.59-1.94a5.72 5.72 0 0 1 3.42 1.09l1.27-1.54a7.7 7.7 0 0 0-4.72-1.48c-4.43 0-6.93 2.78-6.93 7 0 4.22 2.6 7 7.11 7a9.91 9.91 0 0 0 4.81-1.14v-6.5h-5.76l.37 2zm34.33-.67h5v-2h-5v-3.49h6l.35-2h-8.92v13.63h9.16v-2.1h-6.59V19.6zm-22.17-7.54l-5.32 13.68h2.63l1.36-3.56h5.33l1.38 3.56h2.78l-5.2-13.68h-2.96zm-.69 8.18l2.07-6.13 2.07 6.13h-4.14zM110.92 17.06l-4.9 4-4.91 4-4.89-4v8l4 3.25.11.09a1.25 1.25 0 0 0 1.51 0l12.49-10.17a3.42 3.42 0 0 0 1.48-3.3v-5.85l-4.89 3.98z" fill="#002F66"/>
    <path fill="#1B75BB" d="M101.08 9.07l-4.83-3.91v7.97l4.86 3.93 4.9-3.99z"/>
    <path fill="#002F66" d="M82.17 5.28h1v27.37h-1z"/>
  </g>
</svg>
