<svg width="184" height="56" xmlns="http://www.w3.org/2000/svg">
  <g fill="none" fill-rule="evenodd">
    <path fill="#003D7D" d="M67.73 10.17l1.645-4.52L61.787.765l-1.4 4.05zM67.983 16.277l-1.636 4.326 23.163-9.569L73.357.82l-1.385 3.863 8.427 5.94zM50.369.664l-1.361 3.934 7.509 5.28 1.451-4.411z"/>
    <path d="M142.792 42.895c-.655.267-1.316.464-1.91.529-2.435.198-3.753-.33-3.885-1.512 0-.464.132-.858.396-1.185 1.118-1.252 4.542-1.781 10.142-1.645-1.647 1.843-3.228 3.157-4.743 3.813zm-92.908-3.751c-1.384 1.84-2.765 3.095-4.344 3.75a6.229 6.229 0 0 1-1.911.53 9.205 9.205 0 0 1-2.831-.262c-1.778-.594-2.108-1.318-1.12-2.108.396-.327 1.053-.724 1.976-1.054 1.975-.725 4.74-.987 8.23-.856zm22.124 2.567c.066.988-.524 1.583-1.842 1.91-.593.135-1.383.198-2.371.135-1.713-.202-2.767-.861-3.292-1.978h-7.246l1.518-3.685.983-2.305c.728 2.305 2.836 3.617 6.324 4.015 3.294.197 5.268.858 5.926 1.908zm43.852-13.303l.399-.917h7.572c1.383.13 1.973 1.119 1.842 2.962-.223 1.152-1.58 2.372-2.27 2.372h-9.384l1.84-4.417zM13.142 22.023h-.395L2.145 47.77l27.592.065h.065l.13-.266.72-1.71c1.715 1.976 4.68 2.898 8.763 2.566 1.644-.128 3.556-.721 5.662-1.84.263-.133.528-.263.792-.397.525-.33 1.05-.656 1.644-1.051l-.524 2.633h8.625c-.066-.462-.135-.857-.066-1.252 0-.726.26-1.381.724-2.041 1.842 2.634 4.544 3.948 8.1 3.884l7.243-.001c1.513-.194 2.895-.588 4.146-1.184 2.108-.988 3.819-2.567 5.07-4.742.068-.064.068-.132.068-.132.328-1.115.328-2.04.064-2.765-.132-.655-.46-1.12-.987-1.514-2.565-1.644-5.267-2.436-8.1-2.436-2.962-.33-4.081-.988-3.292-2.038.13-.2.392-.394.658-.596 3.028-1.12 5.136-.66 6.387 1.514h7.113L82.345 47.9c-.264.46-.593.66-1.053.66l-.592-.001h-3.685l-2.438 5.796h9.15c.594 0 1.254-.13 1.978-.462 2.04-.852 4.346-3.028 6.913-6.454l10.077-12.311 2.498-2.962-6.255 15.605h8.958l3.426-8.296.324-.924h12.842c.989.068 2.04-.197 3.29-.856 1.122-.527 2.372-1.38 3.822-2.501.327-.263.723-.594 1.119-.922h7.638c.13-.132.313-.267.526-.527.988-.99 2.65-1.404 4.655-1.39 1.977-.015 3.313.73 3.576 2.379l-.131 1.054c-.462 0-.99 0-1.515-.066-4.017-.068-7.905.129-11.657.594-2.3.455-4.08 1.118-5.397 2.038-1.647 1.25-2.504 2.897-2.567 4.94-.068 1.183.394 2.369 1.512 3.62 1.645 1.189 3.688 1.714 6.257 1.579 2.964.066 6.058-.854 9.15-2.83-.326.79-.46 1.514-.261 2.238l8.757-.001a5.612 5.612 0 0 1 0-2.565c1.189-2.636 2.238-4.81 2.963-6.52 1.054-2.435 1.58-4.081 1.71-4.807l-.26 13.96c-.2.458-.465.66-.79.592l-.86-.001h-3.816l-2.372 6.125h8.233c.79-.065 1.712-.328 2.632-.791 1.517-.724 3.097-1.91 4.873-3.555l17.714-21.861h-8.56l-9.88 13.894.266-1.71 1.777-12.38h-8.887v3.29c-.267-.922-.795-1.645-1.645-2.24-2.174-1.576-6.19-2.105-12.184-1.576-3.688.066-6.783.989-9.352 2.698-.131.065-.194.132-.328.197.066-.001.066 0 .066-.065.395-.99.593-2.237.526-3.687-.526-2.9-2.24-4.545-5.134-4.875h-20.282l-2.832 6.194h-7.702l-9.55 14.022.197-1.78 1.646-12.177h-8.427v2.696c-.33-.657-.855-1.251-1.58-1.711-1.184-.724-2.898-1.186-5.135-1.446h-.132c-3.228-.267-6.518-.066-9.681.46-1.577.59-2.83 1.187-3.817 1.84-1.054.73-1.711 1.516-1.912 2.37-.062-.392-.13-.721-.261-.984-.593-1.713-1.978-2.832-4.281-3.225-3.296-.461-6.912-.593-10.93-.201-3.092.136-5.596.856-7.441 2.173-1.382.987-2.371 2.238-2.963 3.886h7.9c.2-.266.33-.46.595-.59v-.071c.79-.654 1.778-1.05 2.96-1.184 2.702-.265 4.479.33 5.269 1.648.199.595.199 1.25 0 1.908h-1.446l-7.966.265c-3.822.132-6.72.924-8.826 2.372-1.317.917-2.305 2.104-2.9 3.553l-.195.067H13.67l1.315-3.423.329-.925H32.24l.062-.133.925-2.568.327-.722.855-2.238H17.492l1.775-3.622.46-.923h17.384l.065-.063 2.239-5.468H13.142z" fill="#FFF"/>
    <path d="M12.768 22.019L2.166 47.767l27.592.065h.065l.13-.265.72-1.71c1.715 1.975 4.682 2.898 8.763 2.566 1.646-.13 3.558-.722 5.663-1.841.263-.133.528-.262.792-.396.525-.33 1.05-.656 1.644-1.051l-.523 2.632h8.624c-.066-.462-.134-.857-.066-1.251 0-.726.26-1.381.724-2.042 1.842 2.634 4.545 3.949 8.102 3.884h7.242c1.513-.195 2.895-.588 4.146-1.185 2.108-.988 3.82-2.567 5.07-4.741.068-.064.068-.133.068-.133.329-1.115.329-2.04.065-2.765-.132-.656-.46-1.12-.988-1.515-2.03-1.512-5.218-2.235-8.1-2.436-2.962-.328-4.081-.988-3.292-2.037.13-.201.392-.394.658-.596 2.497-1.18 5.136-.66 6.387 1.514h7.114l-.397 13.433c-.264.46-.593.659-1.053.659h-4.278L74.6 54.35h9.15c.595 0 1.255-.128 1.978-.462 2.04-.851 4.347-3.028 6.914-6.453l10.078-12.313 2.497-2.962-6.255 15.606h8.959l3.425-8.296.325-.923h12.843c.989.068 2.04-.198 3.29-.857 1.12-.527 2.37-1.38 3.82-2.501.328-.263.724-.595 1.12-.922h7.639c.13-.132.46-.527.526-.527.988-.99 2.568-1.385 4.675-1.316 2.108-.134 3.293.656 3.556 2.305l-.131 1.053c-.462 0-.99 0-1.516-.066-4.016-.067-7.904.13-11.656.594-2.301.456-4.081 1.119-5.396 2.039-1.65 1.25-2.505 2.897-2.57 4.94-.066 1.184.395 2.369 1.514 3.62 1.644 1.19 3.688 1.715 6.257 1.58 2.964.066 6.058-.854 9.15-2.831-.326.79-.46 1.514-.261 2.238h8.758a5.63 5.63 0 0 1-.001-2.566c1.19-2.635 2.238-4.81 2.964-6.52 1.054-2.435 1.579-4.081 1.71-4.807l-.26 13.96c-.2.459-.463.66-.791.592h-4.675l-2.373 6.124h8.234c.79-.065 1.712-.327 2.632-.791 1.517-.723 3.097-1.91 4.873-3.554l17.714-21.862h-8.56l-9.88 13.895.266-1.711 1.777-12.38h-8.888v3.29c-.266-.922-.792-1.646-1.645-2.24-2.173-1.576-6.504-2.361-12.184-1.576-3.675.385-6.783.989-9.352 2.698-.132.065-.194.13-.328.196 0 0 .79-2.13.592-3.751-.526-2.9-2.24-4.545-5.135-4.875h-20.282l-2.833 6.194h-7.701l-9.55 14.023.196-1.78 1.646-12.178h-8.357l-.07 2.696c-.33-.657-.855-1.251-1.58-1.711-1.185-.724-2.898-1.186-5.135-1.446h-.133c-3.228-.267-6.687-.284-9.682.46-1.406.356-2.83 1.187-3.816 1.84-1.054.73-1.711 1.516-1.912 2.37-.062-.393-.13-.721-.261-.984-.593-1.713-1.978-2.832-4.282-3.225-3.295-.461-6.912-.594-10.93-.201-3.092.136-5.597.855-7.441 2.173-1.383.987-2.371 2.238-2.964 3.886h7.9a8.51 8.51 0 0 1 .596-.661c.79-.655 1.778-1.05 2.96-1.184 2.702-.265 4.48.33 5.27 1.649.199.593.199 1.25 0 1.907h-1.446l-7.967.266c-3.823.13-6.72.923-8.827 2.37-1.317.918-2.305 2.105-2.898 3.555l-.197.066H13.69l1.315-3.423.329-.924h16.927l.062-.132.925-2.57.326-.722.856-2.24H17.546l1.684-4.543h17.902l.066-.062 2.239-5.47h-26.67zm37.138 17.12c-3.49-.13-6.255.133-8.23.858-.923.329-1.58.727-1.976 1.054-.99.79-.658 1.513 1.12 2.107a9.178 9.178 0 0 0 2.83.263 6.27 6.27 0 0 0 1.913-.53c1.578-.655 2.96-1.91 4.343-3.751zm22.13 2.43c-.275-.832-2.637-1.572-5.931-1.77-3.488-.398-5.596-1.71-6.324-4.015l-.983 2.305-1.52 3.685h7.248c.525 1.117 1.579 1.777 3.292 1.978.988.064 1.778 0 2.37-.134 1.319-.328 1.913-1.06 1.848-2.048zm68.873 1.852c-2.436.197-3.754-.33-3.886-1.513 0-.463.132-.857.396-1.184 1.118-1.253 4.542-1.781 10.142-1.646-1.647 1.842-3.228 3.158-4.743 3.814-.655.266-1.316.464-1.91.529zm-25.023-15.017l-1.843 4.416h9.087c1.077 0 2.39-1.486 2.568-2.371.13-1.844-.46-2.832-1.842-2.962h-7.572l-.398.917z" fill="#8CC63F"/>
    <path d="M12.768 22.019L2.166 47.767l27.592.065h.065l.13-.265.72-1.71c1.715 1.975 4.682 2.898 8.763 2.566 1.646-.13 3.558-.722 5.663-1.841.263-.133.528-.262.792-.396.525-.33 1.05-.656 1.644-1.051l-.523 2.632h8.624c-.066-.462-.134-.857-.066-1.251 0-.726.26-1.381.724-2.042 1.842 2.634 4.545 3.949 8.102 3.884h7.242c1.513-.195 2.895-.588 4.146-1.185 2.108-.988 3.82-2.567 5.07-4.741.068-.064.068-.133.068-.133.329-1.115.329-2.04.065-2.765-.132-.656-.46-1.12-.988-1.515-2.03-1.512-5.218-2.235-8.1-2.436-2.962-.328-4.081-.988-3.292-2.037.13-.201.392-.394.658-.596 2.497-1.18 5.136-.66 6.387 1.514h7.114l-.397 13.433c-.264.46-.593.659-1.053.659h-4.278L74.6 54.35h9.15c.595 0 1.255-.128 1.978-.462 2.04-.851 4.347-3.028 6.914-6.453l10.078-12.313 2.497-2.962-6.255 15.606h8.959l3.425-8.296.325-.923h12.843c.989.068 2.04-.198 3.29-.857 1.12-.527 2.37-1.38 3.82-2.501.328-.263.724-.595 1.12-.922h7.639c.13-.132.46-.527.526-.527.988-.99 2.568-1.385 4.675-1.316 2.108-.134 3.293.656 3.556 2.305l-.131 1.053c-.462 0-.99 0-1.516-.066-4.016-.067-7.904.13-11.656.594-2.301.456-4.081 1.119-5.396 2.039-1.65 1.25-2.505 2.897-2.57 4.94-.066 1.184.395 2.369 1.514 3.62 1.644 1.19 3.688 1.715 6.257 1.58 2.964.066 6.058-.854 9.15-2.831-.326.79-.46 1.514-.261 2.238h8.758a5.63 5.63 0 0 1-.001-2.566c1.19-2.635 2.238-4.81 2.964-6.52 1.054-2.435 1.579-4.081 1.71-4.807l-.26 13.96c-.2.459-.463.66-.791.592h-4.675l-2.373 6.124h8.234c.79-.065 1.712-.327 2.632-.791 1.517-.723 3.097-1.91 4.873-3.554l17.714-21.862h-8.56l-9.88 13.895.266-1.711 1.777-12.38h-8.888v3.29c-.266-.922-.792-1.646-1.645-2.24-2.173-1.576-6.504-2.361-12.184-1.576-3.675.385-6.783.989-9.352 2.698-.132.065-.194.13-.328.196 0 0 .79-2.13.592-3.751-.526-2.9-2.24-4.545-5.135-4.875h-20.282l-2.833 6.194h-7.701l-9.55 14.023.196-1.78 1.646-12.178h-8.357l-.07 2.696c-.33-.657-.855-1.251-1.58-1.711-1.185-.724-2.898-1.186-5.135-1.446h-.133c-3.228-.267-6.687-.284-9.682.46-1.406.356-2.83 1.187-3.816 1.84-1.054.73-1.711 1.516-1.912 2.37-.062-.393-.13-.721-.261-.984-.593-1.713-1.978-2.832-4.282-3.225-3.295-.461-6.912-.594-10.93-.201-3.092.136-5.597.855-7.441 2.173-1.383.987-2.371 2.238-2.964 3.886h7.9a8.51 8.51 0 0 1 .596-.661c.79-.655 1.778-1.05 2.96-1.184 2.702-.265 4.48.33 5.27 1.649.199.593.199 1.25 0 1.907h-1.446l-7.967.266c-3.823.13-6.72.923-8.827 2.37-1.317.918-2.305 2.105-2.898 3.555l-.197.066H13.69l1.315-3.423.329-.924h16.927l.062-.132.925-2.57.326-.722.856-2.24H17.546l1.684-4.543h17.902l.066-.062 2.239-5.47h-26.67z" stroke="#003D7D" stroke-width=".312"/>
    <path d="M49.906 39.14c-3.49-.131-6.255.132-8.231.857-.922.329-1.579.726-1.975 1.054-.989.789-.658 1.513 1.12 2.107a9.174 9.174 0 0 0 2.831.263 6.23 6.23 0 0 0 1.911-.53c1.579-.656 2.962-1.909 4.344-3.751zM72.036 41.57c-.276-.833-2.638-1.573-5.932-1.77-3.488-.399-5.596-1.71-6.323-4.016l-.983 2.305-1.52 3.685h7.248c.525 1.117 1.578 1.777 3.29 1.978.989.064 1.779 0 2.373-.134 1.318-.328 1.912-1.06 1.847-2.048zM140.909 43.42c-2.436.198-3.754-.328-3.886-1.512 0-.463.132-.857.396-1.185 1.118-1.252 4.542-1.78 10.142-1.645-1.647 1.842-3.228 3.157-4.743 3.813-.655.267-1.316.464-1.909.53zM115.886 28.403l-1.843 4.417h9.087c1.077 0 2.39-1.487 2.568-2.37.131-1.845-.459-2.834-1.842-2.964h-7.571l-.399.917z" stroke="#003D7D" stroke-width=".312"/>
    <path fill="#003D7D" d="M65.749 15.956l1.78-4.798-11.083 5.052-1.562 4.254zM76.357 10.271l-4.895-3.459-2.623 6.906zM45.104 16.162l-1.673 4.44 11.025-4.446 1.583-4.998zM59.805 6.812l-2.538 6.981 7.365-3.422zM45.9 13.624l7.472-3.388-5.088-3.487zM12.747 22.023h.395l.049-.22-.483.008-1.607 1.136L.5 48.692l27.654.066 1.778-.725-.196-.197-27.591-.065zM115.86 28.408h6.324c1.383.136 1.974 1.123 1.842 2.967-.048.523-.566 1.381-1.052 1.381 1.042 0 2.435-1.449 2.698-2.302.132-1.844-.458-2.833-1.842-2.963h-7.57l-.4.917M70.428 42.7c.159.29.059.674-.262.921 1.318-.328 1.908-.922 1.842-1.91-.658-1.05-2.632-1.71-5.926-1.908-3.488-.399-5.596-1.71-6.324-4.015l-.983 2.304c1.054 1.445 4.112 2.563 5.862 2.615 3.292.131 5.135.871 5.791 1.992M48.305 40.132c-.922 1.12-1.846 2.107-2.765 2.763 1.58-.656 2.96-1.909 4.344-3.75-3.49-.132-6.255.13-8.229.855-.924.33-1.581.728-1.976 1.055.131-.069.197-.13.332-.13 1.969-.726 4.735-.989 8.294-.793M147.535 39.082c-5.6-.135-9.024.393-10.143 1.645 1.779-.595 4.542-.857 8.496-.727-1.057 1.188-2.107 2.174-3.096 2.895 1.515-.656 3.096-1.971 4.743-3.813M109.672 22.023h.33l-.439-.205-1.536 1.13-2.37 5.27h1.182zM111.646 38.551l-.325.923h11.586c1.25.13 2.896-.462 4.872-1.779-1.25.658-2.302.924-3.291.856h-12.842M107.896 47.968v-.197h-8.958l6.255-15.605-2.498 2.962-5.4 13.564h8.953zM99.138 28.217h.133l-.333-.136-1.447 1.054-7.706 11.325-.196 1.78zM83.004 28.282h.265v-.2h-.412l-.903 1.186h-.53c.725.46 1.25 1.053 1.58 1.711v-2.697M85.704 53.892c-.723.334-1.384.464-1.978.464l-9.15-.002 2.438-5.795h.326l-.47-.202-1.44 1.189-2.501 5.732h9.15c1.123.063 2.306-.464 3.625-1.386M74.051 35.459h7.044l-.132 4.079c.264.725.264 1.65-.065 2.765L80.7 48.56h.592c.46 0 .788-.198 1.052-.66l.397-13.431h-7.113c-1.25-2.173-3.359-2.634-6.387-1.514-.265.2-.527.395-.658.595 2.503-.66 4.345-.07 5.468 1.909M71.615 48.361h-7.243c-3.556.065-6.258-1.249-8.1-3.884-.464.66-.724 1.316-.724 2.042 1.708 1.907 4.149 2.834 7.175 2.766h7.245c2.237-.264 4.211-.987 5.793-2.108-1.251.593-2.633.99-4.146 1.184M60.486 31.507c.131.262.2.591.262.985.2-.855.857-1.64 1.911-2.37-.858.462-1.582.856-2.173 1.385M43.366 33.55c-.265.13-.395.325-.595.591h-7.9c.592-1.649 1.581-2.899 2.963-3.886-1.91.922-3.358 2.238-4.281 4.083l-.326.722h7.897l1.74-.688.502-.822M46.327 32.295c-1.184.132-2.171.53-2.962 1.184.393-.13.856-.197 1.318-.197 2.699-.262 4.476.268 5.266 1.581.133.33.2.66.2.988h1.446c.199-.658.199-1.314 0-1.908-.79-1.318-2.568-1.912-5.268-1.648M47.515 45.138c-.595.395-1.121.723-1.646 1.051l-.464 2.503h8.625l1.82-.716-.236-.205h-8.625l.526-2.633M37.176 27.491l-.162.063H19.267l-.46.923H35.53l1.647-.706zM30.655 45.86l-.723 1.71c1.777 1.452 4.412 2.046 7.902 1.784 2.042-.135 4.478-1.056 7.243-2.768-2.105 1.12-4.018 1.712-5.662 1.84-4.084.332-7.048-.59-8.76-2.566M29.207 42.108h1.054l.197-.066c.593-1.45 1.58-2.637 2.898-3.554-1.842.854-3.226 2.037-4.15 3.62"/>
    <path fill="#003D7D" d="M32.378 37.957l-.077-.33-.062.133H15.314l-.329.924H30.59zM173.083 29.466l-7.967 11.194-.266 1.711 9.88-13.894h.26l-.457-.196zM156.36 29.267v.065c.851.593 1.378 1.317 1.644 2.24l.001-3.291h.395l-.265-.114-.349-.086-1.166 1.186h-.26M147.467 35.653v.067c.526.067 1.054.067 1.516.067l.131-1.055c-.263-1.647-1.496-2.392-3.575-2.377-2.104-.007-3.668.4-4.656 1.39.791-.33 2.04-.465 3.037-.472 2.135.014 3.284.735 3.547 2.38M144.505 47.9c-.198-.724-.065-1.447.262-2.237-3.093 1.974-6.187 2.896-9.15 2.83-2.57.135-4.613-.39-6.258-1.58-1.118-1.25-1.58-2.436-1.512-3.62.064-2.043.92-3.689 2.567-4.94-2.766 1.251-4.147 3.225-4.214 5.861-.066 1.183.45 2.63 1.516 3.622 1.435 1.238 3.687 1.78 6.253 1.581 3.028.13 6.06-.858 9.151-2.767-.328.723-.458 1.453-.26 2.171h8.625l-.92.725-2.37 6.125h7.637c.66 0 1.446-.2 2.238-.462.79-.263 1.712-.723 2.632-1.317-.919.462-1.842.726-2.632.791h-8.233l2.372-6.124h1.248l-.195-.456.066-.07-.066-.133h-8.757M156.225 38.814l-.2 9.745h.86c.327.07.59-.133.79-.59l.26-13.96c-.13.723-.657 2.373-1.71 4.805"/>
    <path d="M134.496 30.65c.134-.066.197-.132.329-.197-.132.065-.195.131-.263.131 0 .065 0 .065-.066.065" fill="#14387E"/>
    <path d="M138.776 35.193l1.843-.79.402-.516-.138-.143c-.135.132-.395.396-.526.528h-7.638c-.396.327-.792.66-1.119.921h7.176" fill="#003D7D"/>
    <path d="M115.886 28.404l-1.843 4.417h9.087c1.077 0 2.39-1.487 2.568-2.37.131-1.845-.459-2.834-1.842-2.964h-7.571l-.399.917zM72.037 41.57c-.276-.833-2.638-1.573-5.932-1.77-3.488-.399-5.596-1.71-6.323-4.016l-.983 2.305-1.52 3.685h7.248c.525 1.117 1.578 1.777 3.29 1.978.989.064 1.779 0 2.373-.134 1.318-.328 1.912-1.06 1.847-2.048zM49.907 39.14c-3.49-.131-6.255.132-8.231.857-.922.329-1.579.726-1.975 1.054-.989.789-.658 1.513 1.12 2.107a9.174 9.174 0 0 0 2.831.263 6.23 6.23 0 0 0 1.911-.53c1.579-.656 2.962-1.909 4.344-3.751zM140.91 43.42c-2.436.198-3.754-.328-3.886-1.512 0-.463.132-.857.396-1.185 1.118-1.252 4.542-1.78 10.142-1.645-1.647 1.842-3.228 3.157-4.743 3.813-.655.267-1.316.464-1.91.53z" stroke="#003D7D" stroke-width=".312"/>
  </g>
</svg>
