<svg width="138" height="61" xmlns="http://www.w3.org/2000/svg">
  <g fill="none" fill-rule="evenodd">
    <path d="M88.112 29.914c1.34-.619 2.162-1.989 2.162-3.636v-.449c0-2.797-1.982-4.467-5.303-4.467h-4.676l-.116-.003a1.46 1.46 0 0 0-1.04.429 1.44 1.44 0 0 0-.427 1.082l-.001.046.001 15.906a3.562 3.562 0 0 0 .007.123.274.274 0 0 0 .2.231.428.428 0 0 0 .127.017h6.044c3.44 0 5.662-1.904 5.662-4.853v-.406c0-1.957-1.007-3.478-2.64-4.02zm-6.231-5.787h2.275c2.045 0 2.998.683 2.998 2.151v.315c0 1.392-.979 2.158-2.759 2.158h-2.514v-4.624zm2.492 12.228h-2.492v-5.008h2.826c1.887 0 2.855.83 2.876 2.47 0 1.873-.841 2.538-3.21 2.538zm43.547 2.751a.286.286 0 0 1-.206.087h-2.663c-.29 0-.472-.097-.575-.31l-3.33-5.896-1.217 1.323v4.575a.288.288 0 0 1-.274.308h-.005l-2.508-.002a.282.282 0 0 1-.23-.086.315.315 0 0 1-.085-.217l.002-16.462a.285.285 0 0 1 .083-.216.283.283 0 0 1 .221-.085h1.225c1.238.003 1.57.958 1.57 1.523l.001 7.248 4.259-4.842.04-.04c.139-.14.24-.222.511-.222h2.566a.288.288 0 0 1 .235.473l.003.005-4.136 4.645 4.555 7.839-.002.002a.286.286 0 0 1-.04.35zm9.938-3.667c0 2.366-1.926 4.014-4.682 4.014-2.498 0-4.193-1.175-4.87-3.015-.033-.09-.121-.374-.121-.374a.294.294 0 0 1 .065-.317c.018-.02.042-.03.064-.046l1.724-.714a.742.742 0 0 1 .754.18c.073.073.13.165.17.27.087.3.221.555.405.777l.078.092c.407.423 1.004.646 1.73.646 1.091 0 1.825-.558 1.825-1.392 0-.954-1.145-1.388-2.473-1.89-1.807-.684-4.058-1.537-4.058-4.157 0-2.374 1.872-3.968 4.659-3.968 2.246 0 3.963 1.354 4.526 3.386a.288.288 0 0 1-.175.393s-1.692.454-1.697.458a.742.742 0 0 1-.708-.197 1.107 1.107 0 0 1-.134-.188c-.003-.007-.029-.053-.037-.076a2.056 2.056 0 0 0-.463-.717l-.053-.05c-.337-.312-.795-.462-1.4-.462-.628 0-1.678.163-1.678 1.275 0 .82 1.069 1.214 2.309 1.67 1.889.695 4.24 1.56 4.24 4.402zm-22.538.356a.288.288 0 0 1 .06.322v.001l-.129.29c-.828 1.967-2.603 3.045-4.997 3.045-3.41 0-5.447-1.99-5.447-5.327V30.85c0-3.665 2.76-5.305 5.496-5.305 2.653 0 4.455 1.438 5.057 3.929l.048.189a.288.288 0 0 1-.07.28.308.308 0 0 1-.14.074l-1.808.485a.742.742 0 0 1-.847-.364l-.074-.174a3.027 3.027 0 0 0-.267-.754l-.032-.066c-.374-.667-1.002-1.003-1.867-1.003-1.567 0-2.395 1.015-2.395 2.925v3.01c0 1.845.821 2.784 2.443 2.784.786 0 1.397-.253 1.816-.752.015-.02.03-.044.045-.063l.043-.061a.945.945 0 0 0 .06-.078c.034-.057.066-.111.097-.167l.027-.048c.071-.138.134-.282.185-.435a.76.76 0 0 1 .64-.43h.04c.12 0 .236.023.343.08l1.598.833s.054.032.075.056zm-12.13-1.73c0 3.282-2.148 5.402-5.471 5.402-3.499 0-5.382-1.914-5.444-5.533V26.1a.282.282 0 0 1 .273-.305h.005c.008-.002 2.458.002 2.458.002a.279.279 0 0 1 .228.083.311.311 0 0 1 .087.214l.002.594v7.683l.003.179a2.4 2.4 0 0 0 2.401 2.291 2.393 2.393 0 0 0 2.401-2.315l.005-.114V26.1a.288.288 0 0 1 .082-.223.285.285 0 0 1 .19-.082h.006c.008-.002 2.458.002 2.458.002a.284.284 0 0 1 .23.083.31.31 0 0 1 .085.214v7.97zm-27.925-.424a1.464 1.464 0 0 0 1.404-1.428l.001-.956c0-3.737-1.885-5.712-5.45-5.712-3.323 0-5.47 2.122-5.47 5.399v3.202c0 3.376 2.021 5.307 5.545 5.307 2.348 0 4.08-.92 5.013-2.664.106-.2.226-.42.257-.478.06-.135.032-.257-.048-.337a.602.602 0 0 0-.09-.063l-1.632-.826a.758.758 0 0 0-.806.159.684.684 0 0 0-.118.156c-.498.968-1.364 1.46-2.576 1.46-1.654 0-2.494-.897-2.494-2.661v-.558h6.464zm-6.464-2.769c0-.82.236-2.73 2.42-2.73 2.148 0 2.47 1.623 2.47 2.588v.29h-4.89v-.148z" fill="#F27A21"/>
    <path d="M59.454 10.26a5.7 5.7 0 1 1 8.061-8.062 5.7 5.7 0 0 1-8.06 8.062" fill="#7DBF42"/>
    <path d="M60.009 30.536c0 16.57-13.43 30.005-30.004 30.005C13.432 60.541-.003 47.106 0 30.536 0 13.968 13.432.53 30.005.53S60.01 13.968 60.01 30.536" fill="#F27A21"/>
    <path d="M43.224 28.529c2.228-.667 3.686-2.752 3.686-5.328v-.657c0-3.762-2.643-6.26-7.479-6.26h-6.779c-.025 0-.045-.002-.07 0a1.9 1.9 0 0 0-1.464.551c-.392.39-.572.91-.55 1.421a1.293 1.293 0 0 0-.005.053v22.983c0 .007.005.01.005.015a.416.416 0 0 0 .432.437l.014.002h8.591c5.185 0 7.999-2.89 7.999-6.82v-.588c0-3.165-1.877-5.324-4.38-5.81zm-8.521-8.695h3.546c3.095 0 4.594 1.041 4.594 3.367v.456c0 2.12-1.463 3.376-4.247 3.376h-3.893v-7.2zM38.56 38.09h-3.857v-7.754h4.344c2.751 0 4.387 1.184 4.42 3.825 0 3.06-1.669 3.929-4.907 3.929zM20.124 22.369c-4.555 0-7.72 2.853-7.72 7.621v4.657c0 4.559 2.679 7.479 7.83 7.479 3.278 0 5.752-1.265 7.081-3.75.051-.094.276-.523.276-.525.002-.002.002-.005.002-.008a.428.428 0 0 0-.092-.463.501.501 0 0 0-.131-.087h-.002l-.002-.002c-.005-.001-.007-.001-.008-.003l-2.12-1.06a.841.841 0 0 0-.92.179.764.764 0 0 0-.127.168c-.614 1.19-1.788 2.251-3.958 2.251-2.748 0-3.862-1.638-3.862-4.107v-1.043h9.625c.458-.02.91-.201 1.26-.552a1.89 1.89 0 0 0 .556-1.44h.002v-1.245c0-5.566-2.922-8.07-7.69-8.07zm3.829 7.968H16.37v-.456c0-2.328 1.114-4.21 3.753-4.21 2.893 0 3.829 1.915 3.829 4.004v.662z" fill="#FFF"/>
  </g>
</svg>
