<svg width="123" height="42" xmlns="http://www.w3.org/2000/svg">
  <g fill="none" fill-rule="evenodd">
    <path d="M51.85 11.002c2.216 3.032 1.703 13.37 1.714 18.065l4.587-.086c.004-5.466-1.362-15.121 4.05-16.034 3.479-.59 3.112 3.253 3.098 6.182-.015 3.322-.006 6.65-.004 9.971h4.56c.02-9.814 2.405-21.452-7.325-19.725-2.624.464-3.751 1.885-5.367 3.479l-1.461-3.26c-1.625.152-2.759.557-3.853 1.408M38.578 21.721c5.495-.26 11.72-2.285 11.006-8.105-.712-5.787-9.423-5.493-12.843-2.226-3.25 3.103-4.5 10.34-1.525 14.867 3.141 4.783 9.09 2.851 14.257 1.474l-1.14-2.891c-4.183.36-9.059 3.506-9.755-3.119m-.082-2.98c-.108-3.888 2.737-8.777 5.834-5.855 3.304 3.117-2.587 5.657-5.834 5.856M5.603 21.702c5.462-.162 11.702-2.39 10.966-8.084-.69-5.329-8.844-5.65-12.568-2.444-3.196 2.75-4.863 9.661-2.113 14.597 2.944 5.285 8.992 3.389 14.582 1.945l-1.06-2.973c-4.424.851-9.283 3.148-9.807-3.041m-.137-2.947c0-2.075.23-3.844 1.369-5.183 4.157-4.898 9.831 4.425-1.369 5.183M71.695 12.851l3.409.089c1.598 9.86-4.56 18.45 10.18 15.552l-.49-3.055c-2.093.142-2.535.66-4.598-.064-.769-2.455-.362-9.491-.351-12.46l4.217-.073.487-3.258-4.706-.179-.045-5.196-4.484.798-.213 4.511-3.404.055-.002 3.28zM30.505 14.108c.736-1.046 1.474-1.329 1.843-2.68-3.806-4.475-14.038-3.255-14.095 8.56-.023 4.148 1.458 6.89 3.839 8.258 2.695 1.547 7.458 1.423 10.157-.162l-.752-2.482c-2.811-.438-8.14 2.915-8.342-6.045-.236-10.63 6.844-5.606 7.35-5.45M120.781 14.045c1.013-1.277 1.316-.844 1.789-2.617-2.012-2.758-6.506-3.114-9.808-1.05-6.222 3.886-8.254 22.898 9.814 17.935l-.862-2.997c-6.136.915-8.284.8-8.287-6.182 0-10.044 6.61-5.29 7.354-5.089M98.69 13.929c.63-2.976 2.56-5.01-1.945-4.644-2.659.218-3.547 1.51-4.763 3.337l-2.195-3.156-3.329 1.536c2.244 6.51 1.623 10.643 1.63 18.105l4.67-.176c.017-10.449-1.749-15.221 5.932-15.002" fill="#054064"/>
    <path fill="#054064" d="M101.726 29.142l4.575.027.002-19.617-4.575.07-.005 2.664z"/>
    <path d="M5.467 18.755c11.198-.758 5.526-10.081 1.366-5.183-1.136 1.34-1.366 3.108-1.366 5.183M38.496 18.742c3.247-.2 9.138-2.738 5.833-5.855-3.096-2.924-5.941 1.965-5.833 5.855" fill="#FEFEFE"/>
    <path d="M102.915 1.234c-.09.047-2.562.455-1.406 3.616.524 1.428 2.438 1.954 3.888 1.216 2.577-1.315 1.207-6.775-2.482-4.832" fill="#2B90CA"/>
    <path d="M2.672 38.088c.2.048.451.068.756.068 1.1 0 1.773-.513 1.773-1.45 0-.897-.661-1.333-1.667-1.333-.4 0-.705.031-.862.073v2.642zM1.76 34.81a11 11 0 0 1 1.753-.13c.902 0 1.563.2 1.98.563.39.323.622.818.622 1.421 0 .617-.19 1.1-.546 1.455-.482.492-1.271.744-2.162.744-.272 0-.524-.008-.734-.061v2.725H1.76V34.81zM12.69 38.703l-.692-1.959c-.159-.442-.263-.846-.367-1.237h-.022c-.104.402-.22.815-.356 1.228l-.694 1.968h2.131zm-2.319.685l-.733 2.137h-.946l2.402-6.797h1.103l2.412 6.797h-.975l-.756-2.137h-2.507zM19.164 41.526v-2.884l-2.235-3.913h1.039l.997 1.875c.272.515.482.928.703 1.401h.02c.2-.442.442-.886.716-1.401l1.017-1.875h1.036l-2.37 3.902v2.895h-.923zM31.886 38.54c-.05-.947-.115-2.086-.104-2.934h-.033c-.24.795-.535 1.644-.89 2.581l-1.247 3.298h-.694l-1.14-3.238c-.339-.955-.622-1.835-.819-2.641h-.022a88.099 88.099 0 0 1-.137 3.006l-.19 2.915h-.869l.491-6.799H27.4l1.205 3.29c.294.837.535 1.582.714 2.287h.03c.18-.685.432-1.432.743-2.288l1.263-3.289h1.162l.44 6.8h-.89l-.18-2.987zM40.788 38.338h-2.747v2.451h3.064v.736h-3.977v-6.797h3.817v.737h-2.904v2.148h2.747zM45.058 41.526V34.73h.997l2.268 3.438c.524.797.93 1.514 1.269 2.208l.02-.01c-.087-.908-.104-1.734-.104-2.793v-2.843h.857v6.797h-.922l-2.243-3.45c-.495-.754-.966-1.532-1.324-2.268l-.031.009c.053.86.075 1.675.075 2.805v2.904h-.862zM56.071 35.476h-2.15v-.747h5.236v.747h-2.162v6.05h-.924zM66.473 40.458c.412.24 1.006.442 1.636.442.935 0 1.479-.473 1.479-1.158 0-.635-.378-1-1.33-1.353-1.155-.391-1.869-.968-1.869-1.928 0-1.056.913-1.843 2.286-1.843.725 0 1.251.161 1.565.334l-.252.714a2.917 2.917 0 0 0-1.344-.32c-.964 0-1.33.552-1.33 1.016 0 .637.428.948 1.405 1.31 1.196.445 1.804 1 1.804 1.999 0 1.048-.807 1.954-2.476 1.954-.683 0-1.428-.19-1.803-.431l.23-.736zM76.112 41.526v-2.884l-2.235-3.913h1.039l.997 1.875c.272.515.482.928.703 1.401h.02c.2-.442.442-.886.716-1.401l1.017-1.875h1.036l-2.37 3.902v2.895h-.923zM82.721 40.458a3.35 3.35 0 0 0 1.636.442c.935 0 1.479-.473 1.479-1.158 0-.635-.378-1-1.331-1.353-1.154-.391-1.868-.968-1.868-1.928 0-1.056.913-1.843 2.286-1.843.725 0 1.25.161 1.565.334l-.252.714a2.917 2.917 0 0 0-1.344-.32c-.964 0-1.33.552-1.33 1.016 0 .637.428.948 1.405 1.31 1.196.445 1.804 1 1.804 1.999 0 1.048-.807 1.954-2.476 1.954-.683 0-1.428-.19-1.804-.431l.23-.736zM92.13 35.476h-2.15v-.747h5.236v.747h-2.162v6.05h-.924zM102.431 38.338h-2.747v2.451h3.063v.736h-3.976v-6.797h3.817v.737h-2.904v2.148h2.747zM112.659 38.54c-.051-.947-.115-2.086-.104-2.934h-.033a38.412 38.412 0 0 1-.891 2.581l-1.247 3.298h-.694l-1.14-3.238c-.339-.955-.622-1.835-.818-2.641h-.022a88.098 88.098 0 0 1-.138 3.006l-.19 2.915h-.868l.49-6.799h1.167l1.205 3.29c.294.837.535 1.582.714 2.287h.031c.18-.685.431-1.432.743-2.288l1.262-3.289h1.163l.44 6.8h-.891l-.18-2.987zM117.777 40.458a3.35 3.35 0 0 0 1.635.442c.935 0 1.48-.473 1.48-1.158 0-.635-.379-1-1.331-1.353-1.154-.391-1.868-.968-1.868-1.928 0-1.056.913-1.843 2.285-1.843.725 0 1.251.161 1.565.334l-.252.714a2.917 2.917 0 0 0-1.344-.32c-.963 0-1.33.552-1.33 1.016 0 .637.429.948 1.406 1.31 1.195.445 1.803 1 1.803 1.999 0 1.048-.807 1.954-2.475 1.954-.683 0-1.428-.19-1.804-.431l.23-.736z" fill="#054064"/>
  </g>
</svg>
