<svg width="140" height="59" xmlns="http://www.w3.org/2000/svg">
  <g fill="none" fill-rule="evenodd">
    <path d="M86.898 47.476l-1.28.396v2.622c0 1.066.175 1.708 1.555 1.708.25 0 .693-.12.975-.214v-.884c-.156.094-.36.183-.518.183-.565 0-.732-.13-.732-.945v-.67h1.19v-.946h-1.19v-1.25zM74.033 46.988c-.965 0-1.517.375-1.708.884-.05.137-.06.276-.06.427v3.781h1.219v-1.952h2.622v-1.097h-2.622v-.732c.062-.22.266-.366.58-.366h2.255v-.945h-2.286zM76.99 46.988v.945h1.22v-.945h-1.22zm1.22 1.586l-1.22.396v3.11h1.22v-3.506zM81.38 48.635c-.439.093-.907.392-1.189.518-.439.22-1 .214-1.25.152v2.775h1.19v-1.952c.056-.025.117-.065.182-.091.332-.12.752-.218 1.067-.244v-1.158zM83.423 48.635c-.972 0-1.769.378-1.769 1.036 0 .143.021.266.061.366.086.21.267.351.458.457.157.126.36.182.548.214.157.063.39.06.61.122.094.062.211.06.275.091.093.063.152.12.152.183 0 .157-.143.274-.488.274-.439 0-1.052-.117-1.555-.274v.823c.44.126 1.019.274 1.677.274 1.128 0 1.768-.374 1.768-1.158 0-.559-.52-.835-1.22-1.006-.125-.03-.261-.067-.395-.092-.125-.062-.213-.06-.275-.121-.094 0-.183-.09-.183-.153 0-.156.236-.274.519-.274.313 0 .81.12 1.25.213v-.823a8.063 8.063 0 0 0-1.433-.152zM97.569 48.635c-1.02 0-1.613.563-1.738 1.402-.019.115-.03.24-.03.366 0 1.097.608 1.799 1.768 1.799.062 0 .12 0 .183-.03.313-.031.603-.117.823-.306l.091-.03c.282.25.543.244.762.244h.244v-2.775c-.47 0-.786-.21-1.006-.335-.251-.094-.507-.273-.914-.335h-.183zm.183.945h.09c.284 0 .485.087.641.213l-.06 1.25c-.095.156-.297.244-.58.244h-.091c-.533-.032-.763-.414-.763-.884 0-.126.016-.255.061-.366.1-.248.333-.435.702-.457zM101.41 47.476l-1.22.396v2.622c0 1.066.148 1.708 1.464 1.708.345 0 .723-.12 1.067-.214v-.884c-.156.094-.361.183-.549.183-.596 0-.732-.13-.762-.945v-.67h1.25v-.946h-1.25v-1.25zM103.453 46.988v.945h1.189v-.945h-1.19zm1.189 1.586l-1.25.396v3.11h1.25v-3.506zM107.233 48.635c-1.267 0-1.882.563-2.012 1.402-.018.115-.03.24-.03.366 0 1.097.6 1.799 2.042 1.799 1.411 0 2.012-.702 2.012-1.8 0-.125-.012-.253-.03-.365-.13-.837-.742-1.402-1.982-1.402zm0 .945c.423 0 .662.191.762.457.04.108.061.239.061.366 0 .501-.228.884-.823.884-.627 0-.854-.383-.854-.884 0-.127.02-.256.061-.366.102-.267.348-.457.793-.457zM112.164 48.64c-.251 0-.754.16-1.13.285-.438.158-.721.377-1.348.377v2.787h1.302v-2.25c.277-.094.523-.228.708-.228.277 0 .528.095.582.422.006.045.012.107.012.149v1.907h1.187v-2.284c0-.659-.247-1.165-1.313-1.165zM115.739 48.635c-.992 0-1.632.563-1.768 1.402-.019.115-.03.24-.03.366 0 1.097.67 1.799 1.798 1.799.063 0 .12 0 .213-.03.283-.031.634-.117.854-.306l.03-.03c.282.25.574.244.793.244h.274v-2.775c-.5 0-.847-.21-1.067-.335-.22-.094-.507-.273-.884-.335h-.213zm.213.945h.061c.282 0 .453.087.67.213l-.06 1.25a.785.785 0 0 1-.61.244h-.06c-.565-.032-.763-.414-.763-.884 0-.126.02-.255.061-.366.093-.248.311-.435.701-.457zM119.804 46.653l-1.188.4v5.036h1.2l-.012-5.436zM121.848 46.984v5.105h2.318c1.254 0 1.85-.652 1.85-1.405 0-.228-.04-.458-.137-.65-.139-.285-.388-.51-.742-.64l-.148-.035.091-.057c.345-.22.503-.597.503-1.005a1.29 1.29 0 0 0-.08-.434c-.184-.504-.7-.879-1.61-.879h-2.045zm1.165 1.005h.81c.346 0 .595.147.595.491 0 .314-.249.48-.594.48h-.811v-.97zm0 1.907h1.096a.78.78 0 0 1 .469.137.572.572 0 0 1 .25.457c0 .407-.28.628-.719.628h-1.096v-1.222zM128.117 48.635c-1.075 0-1.672.563-1.8 1.402-.017.115-.03.24-.03.366 0 1.097.608 1.799 1.83 1.799.125 0 .27-.03.396-.061.22-.032.454-.118.58-.275l.06-.03c.283.25.572.244.854.244h.244V49.305c-.501 0-.817-.21-1.037-.335-.188-.063-.418-.211-.701-.274a1.776 1.776 0 0 0-.396-.061zm.213.945h.183c.189.031.362.12.488.213v1.25a.903.903 0 0 1-.488.244h-.183c-.565 0-.793-.383-.793-.884 0-.127.017-.256.061-.366.106-.267.33-.457.732-.457zM133.222 48.64c-.345 0-.814.16-1.222.285-.439.158-.686.377-1.313.377v2.787h1.29v-2.25c.252-.094.53-.228.686-.228.297 0 .553.092.616.4.002.005 0 .016 0 .022.006.043.012.104.012.149v1.907h1.188V49.805c0-.659-.253-1.165-1.257-1.165zM136.226 46.775l-1.189.366v4.939h1.19v-1.25h.212l.854 1.25h1.403l-1.128-1.525.06-.06c.252-.121.426-.281.55-.458.263-.373.259-.845.152-1.25h-1.25c.094.22.094.604 0 .823-.126.188-.29.337-.854.274v-3.11zM80.282 17.72c-5.486 0-8.018 2.745-8.018 6.068v17.316h5.61v-9.146h12.317V27.08H77.874v-3.292c.283-1.066 1.21-1.677 2.683-1.677h10.792v-4.39H80.282zm12.836 0v23.384h5.152v-14.39l.274-.06s.706 1.01 1.646 1.95l11.006 10.976c.94.972 2.245 1.524 3.72 1.524h1.707V17.721h-5.152l-.061 14.39-.214.06s-.736-.979-1.676-1.92L98.544 19.276c-.251-.25-.51-.514-.792-.702-.816-.564-1.86-.853-2.958-.853h-1.676zm26.706 0v23.384h10.853c5.83 0 8.69-2.92 8.69-6.494 0-2.54-1.353-4.818-4.269-5.853l-.488-.152.427-.336c1.535-1.097 2.287-2.727 2.287-4.481 0-3.323-2.502-6.067-8.018-6.067h-9.482zm5.366 4.39h3.872c1.756 0 2.774.874 2.774 2.348 0 1.442-1.018 2.348-2.774 2.348h-3.872V22.11zm0 8.964h5.244c2.131 0 3.384 1.176 3.384 2.805 0 1.692-1.253 2.805-3.384 2.805h-5.244v-5.61z" fill="#00989A"/>
    <path d="M2.224 31.464C5.449 44.066 16.878 53.407 30.5 53.407s25.083-9.341 28.277-21.943c.532-.063 1.096-.158 1.69-.22-1.315 15.36-14.215 27.46-29.967 27.46-15.72 0-28.652-12.1-29.999-27.46.626.062 1.158.157 1.723.22" fill="#00989A" fill-rule="nonzero"/>
    <path d="M90.202 46.94v5.135h1.132v-3.16l.06-.013s.155.222.361.428l2.417 2.41c.207.214.493.335.817.335h.375V46.94h-1.132l-.013 3.16-.047.014s-.162-.215-.368-.422l-2.41-2.41c-.055-.055-.112-.113-.174-.154a1.142 1.142 0 0 0-.65-.188h-.368z" fill="#00989A"/>
    <path d="M1.91 28.55C1.91 12.813 14.68.074 30.42.074c15.773 0 28.543 12.739 28.543 28.474 0 .973-.033 1.947-.142 2.909C55.58 44.088 44.116 53.42 30.42 53.42c-13.647 0-25.118-9.333-28.363-21.963a24.501 24.501 0 0 1-.148-2.909" fill="#FF9A00"/>
    <path d="M38.464 33.846v-2.351l.187-.188-.187-.188V28.8l1.347 1.348 2.54-2.476.658-.659a28.469 28.469 0 0 0-4.545-1.786V6.574c.846.187 1.692.407 2.507.658 1.223 1.192 2.32 2.476 3.417 3.824.313-.25.69-.47 1.097-.752 4.545 1.38 8.778 3.449 12.539 6.207.251.564.47 1.16.69 1.693a43.297 43.297 0 0 0-10.971-2.07c.375.753.814 1.473 1.128 2.258a40.83 40.83 0 0 1 11.003 3.792c.126.533.22 1.098.345 1.693-3.041-.72-6.113-1.034-9.341-1.034h-.126c.22.69.44 1.41.659 2.131a41.482 41.482 0 0 1 9.121 2.697v1.221c-1.473-.187-2.978-.218-4.514-.218-2.946 0-5.862.25-8.683.877a53.18 53.18 0 0 0-2.79-1.787l-5.706 5.737-.375.345zM28.15 35.978l-1.348-1.317a27.142 27.142 0 0 0-3.573-.877v-5.048l.439.408c1.253-.094 2.476-.032 3.73.125.439 1.411.752 2.978.972 4.545l3.856 3.92 6.238-6.24v2.352l-5.361 5.36.564 14.044c-1.066.126-2.1.158-3.135.158-1.034 0-2.1-.032-3.134-.158l.282-5.924.094-2.257-4.545-4.546v-2.32l4.67 4.609.251-6.834zM38.464 6.574a36.576 36.576 0 0 0-7.932-.847c-2.507 0-4.92.25-7.303.721v11.348a34.002 34.002 0 0 1 8.464-1.065c.97 0 1.912.062 2.915.156.25.345.596.72.878 1.097-4.326 0-8.433.847-12.257 2.351v5.016a28.628 28.628 0 0 1 6.927-2.57l.376.375 7.932 7.963V28.8l-4.202-4.2-.313-.345c1.537.187 3.041.533 4.515.972V6.574zm-15.235 27.21a28.043 28.043 0 0 0-4.89-.503l4.89 4.922v2.32l-7.21-7.178h-.283c-2.132.094-4.232.439-6.207.908-.218-.47-.438-.908-.657-1.41a28.26 28.26 0 0 1 4.67-1.975l-1.662-1.662c-.47-.094-1.034-.156-1.535-.218a31.96 31.96 0 0 0-1.756-.22c-1.16-.094-2.351-.094-3.573-.094-1.537 0-3.01.03-4.515.218v-1.221c4.138-1.756 8.652-2.853 13.386-3.198l4.984 5.016c.815-.126 1.661-.22 2.477-.283l-6.05-6.112a55.55 55.55 0 0 0-5.11-.251c-3.229 0-6.332.313-9.342 1.034.094-.595.22-1.16.314-1.693 4.953-2.539 10.47-4.138 16.3-4.451l1.537 1.473 2.006 2.101c.752-.345 1.473-.69 2.226-.972v5.016c-.721.376-1.443.783-2.164 1.222l2.164 2.163v5.048zm0-27.336a38.119 38.119 0 0 0-9.687 3.355l.878.877c-4.107 1.317-7.963 3.354-11.38 5.831-.282.564-.501 1.16-.72 1.693 4.357-1.411 9.027-2.195 13.855-2.07 1.317 0 2.633.094 3.918.22l1.85 1.818c.44-.126.878-.251 1.286-.376V6.448z" fill="#000"/>
  </g>
</svg>
