<svg width="183" height="49" xmlns="http://www.w3.org/2000/svg" xmlns:xlink="http://www.w3.org/1999/xlink">
  <defs>
    <path d="M2.753.153c.038.19.028.385-.025.572a1.337 1.337 0 0 1-.605.78.888.888 0 0 1-.235.092H.665a4.608 4.608 0 0 0-.457-.019V.356C.238.288.268.219.3.153h2.453z" id="a"/>
    <path d="M.17.223c.221.007.644.016.99 0a5.73 5.73 0 0 1 .263-.006c.421 0 .85.051 1.092.224.244.175.413.415.498.676v.774a1.16 1.16 0 0 1-.164.314H.872C.69 1.946.548 1.568.447 1.219A4.853 4.853 0 0 0 .17.517V.223z" id="c"/>
    <path d="M2.252 1.872a1.22 1.22 0 0 1-.514.193 1.34 1.34 0 0 1-.956-.244C.49 1.61.28 1.083.142.608A3.723 3.723 0 0 0 .027.28V.06h2.224v1.812z" id="e"/>
    <path d="M.877.219a1.178 1.178 0 0 0-.469.158C.268.47.15.587.058.716v1.47c.121.156.277.275.452.352h1.03c.078-.033.155-.075.23-.124.298-.2.526-.72.68-1.19.056-.176.128-.37.194-.543V.22H.877z" id="g"/>
    <path d="M2.627 1.577c-.024.06-.05.12-.077.18H.153a1.216 1.216 0 0 1-.004-.57 1.34 1.34 0 0 1 .565-.81C.807.315.926.27 1.06.242h1.567v1.335z" id="i"/>
  </defs>
  <g fill="none" fill-rule="evenodd">
    <path d="M30.76 17.589h-6.41c-.546 0-1.05.291-1.323.764l-3.206 5.55a1.528 1.528 0 0 0 0 1.528l3.206 5.552c.273.472.777.763 1.322.763h6.41c.546 0 1.05-.29 1.323-.763l3.205-5.552a1.528 1.528 0 0 0 0-1.527l-3.205-5.551a1.527 1.527 0 0 0-1.322-.764M14.443 1.249c.164.411-.091.9-.57 1.09-.48.191-1 .013-1.165-.399-.164-.411.092-.9.57-1.09.48-.191 1-.013 1.165.399" fill="#90B6B7"/>
    <path d="M13.671.888a.946.946 0 0 0-.35.068c-.42.167-.647.59-.506.942a.633.633 0 0 0 .394.36.895.895 0 0 0 .621-.025c.42-.167.647-.59.507-.942-.102-.255-.368-.403-.666-.403m-.19 1.643c-.12 0-.235-.02-.345-.057a.856.856 0 0 1-.534-.491c-.187-.47.097-1.026.634-1.24.537-.213 1.126-.006 1.313.463.188.47-.097 1.025-.634 1.24a1.17 1.17 0 0 1-.435.085" fill="#000"/>
    <path d="M12.942 1.619s.271-.738 1.056-.498c0 0-.744.102-1.056.498" fill="#FFF"/>
    <path d="M16.01 3.534c-.324-.3-.872-.239-1.222.14-.351.377-.373.928-.048 1.23.324.3.872.238 1.223-.14.35-.378.372-.928.047-1.23" fill="#90B6B7"/>
    <path d="M15.506 3.458c-.22 0-.456.1-.635.293-.307.331-.331.81-.053 1.068a.631.631 0 0 0 .51.155.893.893 0 0 0 .55-.288c.308-.33.332-.81.055-1.068a.619.619 0 0 0-.427-.16m-.264 1.75a.842.842 0 0 1-.58-.221c-.37-.344-.352-.968.042-1.392.393-.423 1.014-.488 1.384-.145.37.344.352.969-.041 1.392a1.122 1.122 0 0 1-.805.366M12.642 3.64l-.742.862 1.083-.365z" fill="#000"/>
    <path d="M12.691 3.97s.284-.583.46-1.046c.178-.462.432-.97.74-1.155.308-.184.658-.233.973-.163.316.07.598.258.771.548.174.29.206.628.117.939a1.336 1.336 0 0 1-.605.779c-.308.184-.876.167-1.367.103-.491-.063-1.089-.004-1.089-.004" fill="#F6AF21"/>
    <path d="M15.578 2.314s-.86-.752-1.608-.077c-.712.642-1.014 1.683-1.014 1.683s-.058-.027-.045-.065c.013-.038.375-1.412.375-1.412l.754-.683.942-.06.596.614z" fill="#FFF"/>
    <g transform="translate(13.024 2.368)">
      <mask id="b" fill="#fff">
        <use xlink:href="#a"/>
      </mask>
      <path d="M2.703.153S2.058 1.59.208 1.493c0 0 1.508.246 1.967-.02.46-.264.677-.505.678-.862.002-.356-.15-.458-.15-.458" fill="#231F20" opacity=".35" mask="url(#b)"/>
    </g>
    <path d="M15.585 3.491c-.915-.482-1.467-1.784-1.49-1.839l.14-.059c.006.013.555 1.307 1.422 1.763l-.072.135zM15.091 3.993c-.905-.63-1.565-1.878-1.593-1.93l.135-.071c.007.013.67 1.266 1.546 1.876l-.088.125zM14.4 4.161c-.496-.25-1.215-1.372-1.246-1.42l.13-.082c.006.012.726 1.134 1.185 1.366l-.069.136z" fill="#231F20"/>
    <path d="M13.567 3.705c.085.005.167.013.245.023.56.072 1.001.052 1.207-.07.245-.147.42-.375.493-.634a.936.936 0 0 0-.092-.742.936.936 0 0 0-.61-.432 1.088 1.088 0 0 0-.79.134c-.206.122-.433.502-.635 1.03-.03.079-.064.163-.102.253l-.063.148c-.042.098-.085.194-.125.283.159-.004.318-.002.472.007zm-1.1.156c.073-.15.184-.389.294-.644l.06-.142a8.52 8.52 0 0 0 .097-.24c.241-.629.511-1.081.845-1.28a1.588 1.588 0 0 1 1.155-.193c.391.086.727.321.932.664.205.343.252.75.143 1.135a1.586 1.586 0 0 1-.718.926c-.334.2-.86.223-1.527.136a3.134 3.134 0 0 0-.211-.019 5.652 5.652 0 0 0-.821.015l-.444.044.194-.402z" fill="#000" fill-rule="nonzero"/>
    <path d="M16.947 2.752c-.683-.453-1.053-.154-1.056-.152l-.072-.219c.017-.014.43-.36 1.186.14l-.058.23z" fill="#000"/>
    <path d="M17.22 2.308a.254.254 0 1 0-.177.477.254.254 0 0 0 .177-.477M15.508 1.861l-.11-.116.055.058-.057-.057c.004-.003.345-.282.329-1.02l.17-.002c.018.816-.37 1.124-.387 1.137" fill="#000"/>
    <path d="M16.023.563a.254.254 0 1 1-.509-.006.254.254 0 0 1 .51.006" fill="#000"/>
    <path d="M52.282 19.602c-.312.315-.862.276-1.228-.088-.366-.363-.41-.912-.098-1.226.311-.315.861-.276 1.227.088.366.363.41.912.099 1.226" fill="#90B6B7"/>
    <path d="M51.487 18.19c-.17 0-.331.058-.45.178a.631.631 0 0 0-.172.506.895.895 0 0 0 .27.56c.158.155.357.25.561.264a.635.635 0 0 0 .504-.176c.267-.27.223-.747-.098-1.065a.888.888 0 0 0-.615-.267m.265 1.74l-.072-.003a1.127 1.127 0 0 1-.707-.331 1.126 1.126 0 0 1-.337-.704.856.856 0 0 1 .238-.685c.356-.359.98-.32 1.39.087.41.407.455 1.03.1 1.39h-.001a.846.846 0 0 1-.611.245" fill="#000"/>
    <path d="M51.344 18.374s.784-.046.877.77c0 0-.39-.642-.877-.77" fill="#FFF"/>
    <path d="M50.81 21.952c.147-.418-.128-.896-.614-1.067-.487-.17-1 .03-1.147.447-.147.418.128.895.615 1.066.486.171 1-.029 1.147-.446" fill="#90B6B7"/>
    <path d="M49.842 20.939c-.313 0-.59.162-.685.431-.126.358.119.77.545.92.21.074.43.074.62-.001a.63.63 0 0 0 .38-.376.632.632 0 0 0-.06-.53.895.895 0 0 0-.484-.39.946.946 0 0 0-.316-.054m.175 1.635c-.13 0-.263-.022-.391-.067-.545-.192-.853-.736-.685-1.213.167-.476.748-.708 1.293-.517.26.092.476.266.606.491.133.231.16.487.079.721a.857.857 0 0 1-.513.514 1.075 1.075 0 0 1-.389.071M49.37 18.904l-1.086-.337.766.849z" fill="#000"/>
    <path d="M49.087 19.082s.648.027 1.143.005 1.062.008 1.354.217c.292.21.476.51.538.828.062.317.002.65-.195.925a1.188 1.188 0 0 1-.814.482 1.338 1.338 0 0 1-.956-.244c-.292-.21-.503-.737-.64-1.213-.138-.476-.43-1-.43-1" fill="#F6AF21"/>
    <g transform="translate(49.07 18.863)">
      <mask id="d" fill="#fff">
        <use xlink:href="#c"/>
      </mask>
      <path d="M2.688 2.205S3.035 1.117 2.118.7C1.245.303.17.44.17.44S.17.377.21.373C.251.37 1.655.155 1.655.155l.928.419.43.84-.325.79z" fill="#FFF" mask="url(#d)"/>
    </g>
    <g transform="translate(49.375 19.474)">
      <mask id="f" fill="#fff">
        <use xlink:href="#e"/>
      </mask>
      <path d="M2.252 1.813S.676 1.795.028.06c0 0 .376 1.48.802 1.796.427.315.734.419 1.062.278.327-.14.36-.32.36-.32" fill="#231F20" opacity=".353" mask="url(#f)"/>
    </g>
    <path d="M50.833 21.556l-.152-.011c.077-1.032 1.05-2.057 1.092-2.1l.11.105c-.01.01-.977 1.03-1.05 2.006M50.173 21.322l-.15-.03c.218-1.082 1.098-2.185 1.135-2.232l.12.096c-.01.011-.895 1.12-1.105 2.166M49.746 20.734l-.152-.01c.032-.554.773-1.661.805-1.708l.127.085c-.008.012-.75 1.12-.78 1.633" fill="#231F20"/>
    <path d="M49.566 19.496a4.863 4.863 0 0 1 .19.516c.158.543.352.94.546 1.08.233.166.51.235.777.199a.938.938 0 0 0 .645-.38.937.937 0 0 0 .153-.732 1.087 1.087 0 0 0-.439-.672c-.194-.139-.632-.196-1.197-.17a16.01 16.01 0 0 1-.743.006l.068.153zm-.469-.664l.207.007a16.93 16.93 0 0 0 .915-.002c.673-.03 1.195.037 1.51.264.337.241.562.593.638.983.077.392-.004.794-.237 1.119-.233.324-.587.53-.984.584a1.588 1.588 0 0 1-1.135-.29c-.316-.226-.548-.7-.735-1.346a4.372 4.372 0 0 0-.169-.457 5.857 5.857 0 0 0-.239-.49l-.216-.39.445.018z" fill="#000" fill-rule="nonzero"/>
    <path d="M52.086 22.422c-.017-.738-.34-1.004-.344-1.006l.098-.12c.016.012.384.306.402 1.122l-.156.004z" fill="#000"/>
    <path d="M52.418 22.571a.254.254 0 1 0-.508.028.254.254 0 0 0 .508-.028M52.508 21.038a.658.658 0 0 1-.368-.094l.066-.203c.004.002.382.25 1.052-.203l.063.205c-.342.231-.615.295-.813.295" fill="#000"/>
    <path d="M53.54 20.778a.255.255 0 1 1-.196-.47.255.255 0 0 1 .196.47" fill="#000"/>
    <path d="M21.295 47.79c-.185-.403.045-.903.514-1.118.469-.215.998-.063 1.183.34.185.402-.046.902-.514 1.117-.47.215-.999.063-1.183-.34" fill="#90B6B7"/>
    <path d="M22.248 46.689a.943.943 0 0 0-.391.087c-.41.188-.616.622-.458.966a.633.633 0 0 0 .412.34.902.902 0 0 0 .619-.057.897.897 0 0 0 .446-.432.632.632 0 0 0 .012-.534c-.109-.236-.36-.37-.64-.37m-.209 1.653c-.099 0-.197-.014-.29-.04a.855.855 0 0 1-.558-.464c-.211-.46.045-1.03.57-1.27.525-.242 1.124-.064 1.335.396.104.225.1.483-.012.724-.109.237-.307.43-.558.545a1.17 1.17 0 0 1-.487.109" fill="#000"/>
    <path d="M22.775 47.344s-.234.75-1.03.55c0 0 .738-.139 1.03-.55" fill="#FFF"/>
    <path d="M19.614 45.586c.339.285.883.195 1.214-.2.331-.395.325-.946-.015-1.231-.34-.285-.883-.195-1.214.2-.331.396-.325.947.015 1.231" fill="#90B6B7"/>
    <path d="M19.687 45.498a.635.635 0 0 0 .518.13.897.897 0 0 0 .535-.316c.29-.346.29-.826 0-1.07-.29-.243-.763-.159-1.053.187-.29.346-.29.826 0 1.07m.396.368a.835.835 0 0 1-.543-.193c-.387-.325-.4-.95-.03-1.392.372-.443.99-.54 1.377-.215.387.325.4.95.029 1.392a1.126 1.126 0 0 1-.673.395.978.978 0 0 1-.16.013M22.973 45.31l.697-.897-1.064.418z" fill="#000"/>
    <path d="M22.907 44.983s-.254.597-.408 1.068c-.153.471-.381.992-.68 1.191-.298.2-.644.266-.963.212a1.186 1.186 0 0 1-.798-.508 1.185 1.185 0 0 1-.164-.932c.072-.315.266-.61.565-.809.298-.199.866-.21 1.36-.172.494.038 1.088-.05 1.088-.05" fill="#F6AF21"/>
    <g transform="translate(20.05 44.828)">
      <mask id="h" fill="#fff">
        <use xlink:href="#g"/>
      </mask>
      <path d="M.057 1.955s.896.708 1.61-.004c.678-.677.927-1.732.927-1.732s.06.024.049.062c-.011.04-.304 1.429-.304 1.429l-.718.721-.938.107-.626-.583z" fill="#FFF" mask="url(#h)"/>
    </g>
    <g transform="translate(19.745 44.828)">
      <mask id="j" fill="#fff">
        <use xlink:href="#i"/>
      </mask>
      <path d="M.203 1.756S.775.286 2.627.291c0 0-1.518-.17-1.963.119-.446.288-.65.54-.634.895.016.357.173.451.173.451" fill="#231F20" opacity=".35" mask="url(#j)"/>
    </g>
    <path d="M21.484 47.435c-.006-.013-.62-1.277-1.508-1.689l.064-.138c.939.435 1.556 1.707 1.582 1.761l-.138.066zM22.066 47.007c-.007-.013-.734-1.232-1.639-1.796l.081-.13c.936.585 1.66 1.797 1.69 1.848l-.132.078zM22.382 46.322c-.008-.01-.784-1.095-1.254-1.304l.063-.14c.507.226 1.282 1.31 1.315 1.356l-.124.088z" fill="#231F20"/>
    <path d="M22.907 44.983s-.254.597-.408 1.068c-.153.471-.381.992-.68 1.191-.298.2-.644.266-.963.212a1.186 1.186 0 0 1-.798-.508 1.185 1.185 0 0 1-.164-.932c.072-.315.266-.61.565-.809.298-.199.866-.21 1.36-.172.494.038 1.088-.05 1.088-.05z" stroke="#000" stroke-width=".5"/>
    <path d="M19.37 47.055c-.182 0-.413-.052-.693-.212l.05-.236c.697.4 1.057.068 1.06.065l.078.215c-.01.01-.177.168-.495.168" fill="#000"/>
    <path d="M18.468 46.872a.255.255 0 1 0 .153-.485.255.255 0 0 0-.153.485M19.924 48.385c-.07-.814.343-1.14.36-1.153l.132.11-.066-.055.066.055c-.003.003-.365.296-.301 1.032l-.19.01z" fill="#000"/>
    <path d="M19.75 48.554a.255.255 0 1 1 .51-.019.255.255 0 0 1-.51.02" fill="#000"/>
    <path d="M42.365 37.78c1.105 4.989.659 8.495-1.225 9.618-1.883 1.123-5.18-.15-9.044-3.494-1.276-1.105-2.574-2.395-3.868-3.837a67.59 67.59 0 0 0 4.647-6.404c2.865-.185 5.555-.518 8.003-.976a43.375 43.375 0 0 1 1.487 5.093m-14.557 1.812a66.544 66.544 0 0 1-4.566-5.873 82.977 82.977 0 0 0 8.87-.01 66.346 66.346 0 0 1-4.304 5.883m-7.577-10.546a80.32 80.32 0 0 1-2.355-4.237 80.282 80.282 0 0 1 4.762-8.554 80.136 80.136 0 0 1 9.725-.01 80.24 80.24 0 0 1 4.926 8.27 80.615 80.615 0 0 1-4.762 8.554 80.617 80.617 0 0 1-9.725.009 80.444 80.444 0 0 1-2.57-4.032m-5.385 3.106a66.763 66.763 0 0 1 2.7-6.651 81.523 81.523 0 0 0 4.48 7.527 66.77 66.77 0 0 1-7.18-.876m-.623-.117c-1.977-.38-3.82-.846-5.48-1.395-4.85-1.606-7.633-3.785-7.633-5.978 0-2.194 2.782-4.372 7.633-5.978 1.569-.52 3.3-.966 5.155-1.335a67.263 67.263 0 0 0 3.292 7.468 68.208 68.208 0 0 0-2.967 7.218m7.655-15.729a82.885 82.885 0 0 0-4.354 7.817 66.129 66.129 0 0 1-3.018-6.888c2.3-.43 4.78-.743 7.372-.929m5.478-6.574a66.479 66.479 0 0 1 4.565 5.873 82.96 82.96 0 0 0-8.87.01 66.25 66.25 0 0 1 4.305-5.883m4.155-4.44c2.926-2.69 5.546-4.119 7.468-4.119.549 0 1.04.116 1.466.353 1.917 1.066 2.47 4.556 1.516 9.577-.327 1.717-.815 3.554-1.443 5.467a68.201 68.201 0 0 0-7.823-.92 67.534 67.534 0 0 0-4.944-6.393c1.253-1.485 2.514-2.819 3.76-3.965M37.62 23.82a81.45 81.45 0 0 0-4.486-7.524c2.52.176 4.935.47 7.185.876a66.753 66.753 0 0 1-2.699 6.648m3.039 8.27c-2.3.43-4.78.742-7.371.928a81.434 81.434 0 0 0 4.351-7.82 66.203 66.203 0 0 1 3.02 6.891m14.007-7.426c0-.955-.412-1.87-1.177-2.73a3.332 3.332 0 0 1-.402.492c.63.73.968 1.483.968 2.238 0 2.193-2.782 4.372-7.633 5.978a43.337 43.337 0 0 1-5.138 1.33c-.87-2.365-1.979-4.879-3.309-7.468a67.787 67.787 0 0 0 2.95-7.217c1.983.38 3.833.848 5.497 1.399.396.131.774.267 1.142.406.065-.204.148-.4.249-.586-1.914-.722-4.168-1.338-6.688-1.821.625-1.911 1.111-3.748 1.438-5.466 1.02-5.374.375-9.005-1.819-10.225-2.996-1.665-8.132 1.538-13.41 7.79a44.078 44.078 0 0 0-3.864-3.824c-2.568-2.222-4.876-3.55-6.774-3.93.075.213.128.436.157.668 1.738.431 3.873 1.695 6.217 3.724 1.276 1.105 2.574 2.395 3.867 3.836a67.695 67.695 0 0 0-4.647 6.404c-2.864.185-5.554.519-8.002.976a43.388 43.388 0 0 1-1.487-5.092c-.564-2.546-.721-4.702-.493-6.355a3.312 3.312 0 0 1-.577-.306c-.285 1.76-.134 4.051.473 6.793a43.843 43.843 0 0 0 1.479 5.077C5.73 18.333.5 21.253.5 24.662c0 3.458 5.38 6.412 13.525 7.976-2.589 7.875-2.625 14.014.396 15.694.532.295 1.129.437 1.783.437.764 0 1.605-.195 2.505-.569a3.329 3.329 0 0 1-.435-.505c-1.427.558-2.644.61-3.556.103-1.916-1.066-2.469-4.557-1.515-9.577.326-1.717.815-3.555 1.443-5.467 2.401.432 5.029.746 7.819.92 1.625 2.376 3.29 4.527 4.938 6.406a43.839 43.839 0 0 1-3.656 3.862c.122.18.226.372.311.575a43.288 43.288 0 0 0 3.765-3.962c4.425 4.93 8.695 7.862 11.723 7.861.708 0 1.349-.16 1.907-.493 2.926-1.745 2.755-7.726.046-15.356 7.942-1.58 13.166-4.498 13.166-7.905M85.19 32.591a15.257 15.257 0 0 1-3.93 1.53 18.06 18.06 0 0 1-4.176.489c-1.693 0-3.243-.275-4.65-.826-1.407-.55-2.625-1.326-3.655-2.325-1.03-.999-1.83-2.197-2.401-3.594-.571-1.396-.857-2.941-.857-4.634 0-1.713.3-3.268.903-4.665.601-1.396 1.432-2.59 2.493-3.579a11.522 11.522 0 0 1 3.701-2.31c1.407-.55 2.926-.825 4.558-.825 1.427 0 2.799.214 4.114.642 1.315.428 2.493 1.163 3.533 2.203l-1.927 2.018a7.385 7.385 0 0 0-2.677-1.835 8.475 8.475 0 0 0-3.227-.642c-1.244 0-2.396.224-3.456.673a8.494 8.494 0 0 0-2.769 1.866 8.438 8.438 0 0 0-1.835 2.844c-.439 1.102-.658 2.305-.658 3.61 0 1.285.22 2.477.658 3.579a8.602 8.602 0 0 0 1.835 2.86 8.222 8.222 0 0 0 2.83 1.881c1.1.449 2.314.673 3.64.673.876 0 1.794-.107 2.753-.321a10.965 10.965 0 0 0 2.63-.933v-6.638h-4.986v-2.386h7.556v10.645zM90.573 12.403h2.57v19.27h9.91v2.386h-12.48zM115.931 32.224c1.265 0 2.422-.234 3.472-.704a8.192 8.192 0 0 0 2.707-1.927 8.805 8.805 0 0 0 1.76-2.86 9.705 9.705 0 0 0 .626-3.502 9.71 9.71 0 0 0-.627-3.502 8.818 8.818 0 0 0-1.758-2.86 8.21 8.21 0 0 0-2.708-1.928c-1.05-.468-2.207-.703-3.472-.703-1.264 0-2.421.235-3.471.703a8.198 8.198 0 0 0-2.708 1.927 8.797 8.797 0 0 0-1.758 2.86 9.703 9.703 0 0 0-.627 3.503c0 1.244.209 2.412.627 3.502a8.785 8.785 0 0 0 1.758 2.86 8.18 8.18 0 0 0 2.708 1.927c1.05.47 2.207.704 3.471.704m0 2.386c-1.651 0-3.165-.286-4.542-.856a10.91 10.91 0 0 1-3.579-2.371c-1.01-1.01-1.795-2.213-2.355-3.61-.561-1.396-.841-2.91-.841-4.542 0-1.631.28-3.145.84-4.543.561-1.396 1.347-2.6 2.356-3.609a10.92 10.92 0 0 1 3.58-2.37c1.376-.571 2.89-.857 4.541-.857 1.652 0 3.166.286 4.543.856a10.913 10.913 0 0 1 3.579 2.371c1.01 1.01 1.794 2.213 2.355 3.61.56 1.397.841 2.91.841 4.542 0 1.632-.28 3.146-.84 4.542-.562 1.397-1.347 2.6-2.356 3.61a10.903 10.903 0 0 1-3.58 2.37c-1.376.571-2.89.857-4.542.857M133.948 31.673h4.344c.632 0 1.259-.066 1.881-.198a5.536 5.536 0 0 0 1.682-.643 3.56 3.56 0 0 0 1.209-1.162c.305-.48.458-1.066.458-1.759 0-.754-.148-1.387-.443-1.896a3.532 3.532 0 0 0-1.163-1.224 4.743 4.743 0 0 0-1.651-.643 9.895 9.895 0 0 0-1.912-.183h-4.405v7.708zm0-10.094h3.548c.612 0 1.209-.04 1.79-.122a4.597 4.597 0 0 0 1.575-.505 3.004 3.004 0 0 0 1.132-1.07c.285-.46.428-1.066.428-1.82 0-.674-.133-1.219-.397-1.637a2.91 2.91 0 0 0-1.056-.994 4.568 4.568 0 0 0-1.499-.505 10.514 10.514 0 0 0-1.697-.137h-3.824v6.79zm-2.57-9.176h6.608c.897 0 1.774.091 2.63.275a7.158 7.158 0 0 1 2.295.902 5.022 5.022 0 0 1 1.636 1.637c.418.673.627 1.509.627 2.508 0 1.265-.342 2.31-1.024 3.135-.684.826-1.606 1.413-2.769 1.759v.061a5.453 5.453 0 0 1 3.503 1.683c.438.47.78 1.014 1.024 1.636.245.623.367 1.29.367 2.004 0 1.203-.25 2.192-.75 2.967a5.583 5.583 0 0 1-1.957 1.85c-.806.46-1.713.78-2.722.964-1.01.183-2.014.275-3.013.275h-6.454V12.403zM150.65 12.403h13.611v2.386H153.22v6.79h10.308v2.386h-10.308v7.708h11.592v2.386H150.65zM168.788 12.403H182.4v2.386h-11.043v6.79h10.309v2.386h-10.309v7.708h11.593v2.386h-14.162z" fill="#000"/>
  </g>
</svg>
