<svg width="149" height="35" xmlns="http://www.w3.org/2000/svg">
  <g fill="none" fill-rule="evenodd">
    <path fill="#044990" d="M87.215 2.361H68.73v1.7H86.94zM86.424 7.231h-29.16v1.7h28.884zM85.633 12.101H45.128v1.701h40.229zM90.904.871c.044-.27.366-.588.683-.588h16.046c.271 0 .415.227.371.497l-1.321 8.137c-.044.271-.3.452-.57.452h-7.55a.377.377 0 0 0-.368.317l-.411 2.53c-.029.182.13.317.265.317h3.571c.181 0 .295.135.266.316l-1.337 8.227c-.036.226-.247.407-.427.407H96.46c-.18 0-.338.135-.375.361l-.433 2.667c-.03.18.084.316.22.316h7.82c.316 0 .46.226.423.453l-1.365 8.407a.614.614 0 0 1-.579.497H85.99c-.271 0-.453-.271-.402-.587L90.904.871zM109.88.916c.052-.316.33-.633.646-.633h16.273c.316 0 .505.226.461.497l-1.277 7.866c-.052.316-.367.587-.683.587h-7.323a.577.577 0 0 0-.578.498l-.44 2.712c-.037.225.069.406.386.406h3.435c.226 0 .46.226.424.452l-1.33 8.182c-.043.27-.306.497-.622.497h-3.39c-.226 0-.503.317-.548.588l-1.784 10.984c-.065.407-.329.632-.69.632h-7.865c-.226 0-.454-.271-.403-.587l5.309-32.68zM129.565 34.184a.534.534 0 0 1-.53-.633l3.832-23.595c.051-.316-.182-.542-.5-.542h-4.519c-.272 0-.53-.362-.485-.633l1.306-8.045c.044-.272.21-.453.48-.453h19.346c.318 0 .559.181.5.542l-1.292 7.956a.755.755 0 0 1-.735.633h-4.52c-.317 0-.58.226-.645.633l-3.826 23.55c-.051.316-.367.587-.728.587h-7.684z"/>
    <path d="M4.21 33.445a.375.375 0 0 1-.081.24.602.602 0 0 1-.281.17c-.132.046-.308.08-.527.103a8.505 8.505 0 0 1-.836.034c-.337 0-.615-.011-.834-.034a2.446 2.446 0 0 1-.528-.102.598.598 0 0 1-.28-.172.37.37 0 0 1-.083-.24V21.258c0-.09.028-.17.083-.24a.645.645 0 0 1 .28-.177c.132-.05.309-.09.528-.117a6.95 6.95 0 0 1 .834-.041c.338 0 .617.014.836.041.219.028.395.067.527.117a.65.65 0 0 1 .28.178.377.377 0 0 1 .083.24v12.187zm.262-16.35c0 .694-.142 1.172-.425 1.438-.283.264-.808.396-1.574.396-.776 0-1.3-.128-1.57-.383C.636 18.29.5 17.829.5 17.163c0-.693.14-1.175.418-1.445.278-.269.805-.404 1.581-.404.767 0 1.288.13 1.561.39.274.26.412.725.412 1.39zM19.315 33.445a.375.375 0 0 1-.082.24.601.601 0 0 1-.273.17c-.129.046-.304.08-.528.103-.224.023-.5.034-.829.034-.337 0-.618-.011-.842-.034a2.325 2.325 0 0 1-.527-.102.598.598 0 0 1-.274-.172.37.37 0 0 1-.082-.24v-6.97c0-.593-.043-1.058-.13-1.396a2.738 2.738 0 0 0-.377-.87 1.68 1.68 0 0 0-.636-.561 1.991 1.991 0 0 0-.91-.199c-.439 0-.882.16-1.33.48-.446.32-.912.784-1.395 1.397v8.12a.373.373 0 0 1-.083.24.607.607 0 0 1-.28.17c-.133.046-.31.08-.528.103-.219.023-.498.034-.835.034-.338 0-.616-.011-.836-.034a2.447 2.447 0 0 1-.527-.102.602.602 0 0 1-.28-.172.373.373 0 0 1-.083-.24V21.23c0-.09.023-.17.069-.24a.502.502 0 0 1 .246-.171 2.01 2.01 0 0 1 .459-.103c.187-.023.422-.034.706-.034.291 0 .533.011.725.034.192.023.34.058.445.103.104.046.18.103.226.171a.417.417 0 0 1 .068.24v1.41c.676-.73 1.363-1.278 2.061-1.643a4.66 4.66 0 0 1 2.185-.548c.83 0 1.53.137 2.101.411.57.274 1.032.646 1.384 1.117.35.47.604 1.02.76 1.649.155.63.232 1.388.232 2.274v7.545zM31.297 29.994c0 .693-.13 1.306-.39 1.835-.26.53-.628.972-1.102 1.328a4.977 4.977 0 0 1-1.685.801 7.938 7.938 0 0 1-2.108.268c-.457 0-.892-.035-1.308-.104a7.986 7.986 0 0 1-1.116-.26 5.784 5.784 0 0 1-.822-.321 2.045 2.045 0 0 1-.48-.309c-.1-.096-.177-.246-.232-.451-.055-.206-.082-.51-.082-.911 0-.265.009-.477.027-.636a1.66 1.66 0 0 1 .083-.385c.036-.095.081-.159.136-.19a.4.4 0 0 1 .206-.049c.1 0 .248.057.445.171.197.114.44.24.733.377a7.77 7.77 0 0 0 1.02.383c.388.119.828.179 1.321.179.31 0 .586-.032.829-.097.241-.064.452-.155.63-.273.178-.119.312-.27.404-.452.09-.183.137-.393.137-.63 0-.274-.085-.51-.254-.705a2.23 2.23 0 0 0-.671-.514 7.824 7.824 0 0 0-.945-.411 23.769 23.769 0 0 1-1.082-.424 9.933 9.933 0 0 1-1.081-.535 4.092 4.092 0 0 1-.946-.74 3.373 3.373 0 0 1-.67-1.053c-.17-.411-.253-.904-.253-1.48 0-.583.113-1.12.342-1.608.228-.488.556-.906.986-1.253.429-.347.952-.616 1.568-.808.615-.192 1.307-.288 2.074-.288.384 0 .755.028 1.116.082.36.055.687.123.98.206.292.082.538.171.739.267.2.096.344.178.431.246a.683.683 0 0 1 .185.206c.036.068.064.15.082.246.018.096.035.215.048.356.014.142.02.317.02.528 0 .246-.006.447-.02.602a1.595 1.595 0 0 1-.068.37c-.032.091-.076.152-.13.185a.369.369 0 0 1-.192.047c-.082 0-.21-.047-.384-.143a6.818 6.818 0 0 0-.65-.308 7.71 7.71 0 0 0-.904-.309 4.358 4.358 0 0 0-1.17-.144c-.31 0-.58.033-.809.096a1.547 1.547 0 0 0-.561.274 1.167 1.167 0 0 0-.438.932c0 .282.087.52.26.712.173.192.402.36.684.506a7.7 7.7 0 0 0 .966.411c.36.128.726.267 1.096.418.37.15.734.327 1.095.527.36.201.682.448.966.74.283.292.511.641.684 1.047.174.407.26.888.26 1.445M40.801 32.24c0 .401-.025.71-.075.923-.05.216-.117.366-.2.453a1.078 1.078 0 0 1-.362.232c-.16.07-.347.128-.561.179-.215.05-.448.089-.698.116-.252.027-.506.04-.76.04-.685 0-1.279-.086-1.78-.26a2.946 2.946 0 0 1-1.247-.8c-.329-.36-.57-.816-.726-1.363-.155-.547-.233-1.196-.233-1.944v-6.258h-1.465c-.173 0-.305-.108-.397-.321-.091-.216-.137-.574-.137-1.076 0-.265.011-.488.034-.671a1.6 1.6 0 0 1 .103-.431.51.51 0 0 1 .17-.226.426.426 0 0 1 .24-.069h1.452V18.04c0-.09.025-.173.076-.246a.564.564 0 0 1 .274-.185c.131-.05.31-.087.534-.11.223-.022.5-.034.828-.034.338 0 .618.012.842.034.224.023.4.06.528.11s.219.112.273.185a.4.4 0 0 1 .083.246v2.725h2.656c.091 0 .171.023.24.069a.508.508 0 0 1 .171.226c.045.105.08.248.103.43.022.184.034.407.034.672 0 .502-.046.86-.137 1.076-.091.213-.224.321-.397.321h-2.67v5.737c0 .667.104 1.167.315 1.5.21.334.584.5 1.122.5.183 0 .347-.016.493-.048.146-.032.276-.069.39-.11.115-.041.211-.077.288-.109a.565.565 0 0 1 .212-.048c.055 0 .108.016.158.048s.09.096.116.192c.028.096.053.226.076.39.022.164.034.374.034.63M50.044 28.255H48.73c-.557 0-1.032.041-1.425.123-.392.082-.711.206-.958.37a1.511 1.511 0 0 0-.54.596c-.115.232-.172.5-.172.8 0 .512.162.913.486 1.205.324.293.774.439 1.349.439.484 0 .929-.124 1.335-.37.406-.246.82-.607 1.24-1.082v-2.081zm3.383 5.23a.365.365 0 0 1-.138.302c-.09.073-.234.125-.43.157a5.809 5.809 0 0 1-.87.048c-.411 0-.71-.016-.897-.048-.187-.032-.32-.084-.398-.157a.395.395 0 0 1-.116-.301v-.973a5.536 5.536 0 0 1-1.718 1.26c-.644.301-1.358.452-2.144.452a6.01 6.01 0 0 1-1.786-.253 4.04 4.04 0 0 1-1.411-.753 3.387 3.387 0 0 1-.924-1.24c-.22-.493-.329-1.068-.329-1.725 0-.712.139-1.33.418-1.856.278-.524.694-.958 1.246-1.3.552-.343 1.24-.596 2.061-.76.822-.165 1.775-.247 2.862-.247h1.191v-.74c0-.382-.039-.718-.116-1.006a1.674 1.674 0 0 0-.384-.719 1.582 1.582 0 0 0-.712-.424c-.296-.091-.664-.137-1.102-.137-.575 0-1.09.063-1.54.192a8.825 8.825 0 0 0-1.199.424 12.29 12.29 0 0 0-.87.425c-.232.128-.422.192-.568.192a.409.409 0 0 1-.267-.096.701.701 0 0 1-.191-.274 1.906 1.906 0 0 1-.116-.439 3.704 3.704 0 0 1-.042-.575c0-.283.023-.506.069-.67.045-.165.132-.313.26-.446.128-.132.35-.278.671-.438.32-.16.693-.308 1.123-.445a10.31 10.31 0 0 1 1.403-.336 9.302 9.302 0 0 1 1.568-.13c.959 0 1.778.094 2.459.28.68.188 1.239.476 1.677.863.438.39.757.889.959 1.5.2.612.3 1.338.3 2.177v8.217zM68.53 33.445a.37.37 0 0 1-.081.24.598.598 0 0 1-.274.17c-.128.046-.304.08-.527.103a8.58 8.58 0 0 1-.829.034c-.338 0-.618-.011-.842-.034a2.325 2.325 0 0 1-.527-.102.6.6 0 0 1-.274-.172.373.373 0 0 1-.082-.24v-6.97c0-.593-.044-1.058-.13-1.396a2.768 2.768 0 0 0-.377-.87 1.683 1.683 0 0 0-.637-.561 1.986 1.986 0 0 0-.91-.199c-.438 0-.881.16-1.33.48-.446.32-.911.784-1.396 1.397v8.12a.373.373 0 0 1-.081.24.605.605 0 0 1-.281.17 2.44 2.44 0 0 1-.528.103 8.512 8.512 0 0 1-.835.034c-.338 0-.616-.011-.836-.034a2.453 2.453 0 0 1-.527-.102.605.605 0 0 1-.28-.172.373.373 0 0 1-.083-.24V21.23c0-.09.023-.17.069-.24a.506.506 0 0 1 .247-.171c.118-.045.271-.08.458-.103.187-.023.423-.034.706-.034.292 0 .534.011.725.034.192.023.34.058.445.103.106.046.18.103.227.171a.428.428 0 0 1 .068.24v1.41c.675-.73 1.363-1.278 2.061-1.643a4.652 4.652 0 0 1 2.184-.548c.83 0 1.531.137 2.102.411.57.274 1.031.646 1.383 1.117.351.47.605 1.02.76 1.649.155.63.233 1.388.233 2.274v7.545zM78.884 32.24c0 .401-.026.71-.076.923-.05.216-.116.366-.199.453a1.073 1.073 0 0 1-.363.232c-.16.07-.346.128-.561.179-.214.05-.447.089-.698.116-.252.027-.505.04-.76.04-.685 0-1.279-.086-1.78-.26a2.943 2.943 0 0 1-1.247-.8c-.328-.36-.57-.816-.726-1.363-.155-.547-.232-1.196-.232-1.944v-6.258h-1.465c-.174 0-.307-.108-.398-.321-.091-.216-.136-.574-.136-1.076 0-.265.011-.488.034-.671a1.62 1.62 0 0 1 .102-.431.51.51 0 0 1 .172-.226.424.424 0 0 1 .24-.069h1.45V18.04c0-.09.026-.173.076-.246a.564.564 0 0 1 .273-.185c.133-.05.311-.087.535-.11.224-.022.5-.034.829-.034.337 0 .618.012.842.034.224.023.399.06.527.11s.219.112.274.185a.402.402 0 0 1 .082.246v2.725h2.657c.09 0 .17.023.239.069a.511.511 0 0 1 .172.226c.045.105.08.248.102.43.023.184.035.407.035.672 0 .502-.046.86-.137 1.076-.092.213-.224.321-.398.321h-2.67v5.737c0 .667.104 1.167.315 1.5.21.334.584.5 1.123.5.183 0 .347-.016.493-.048.145-.032.276-.069.39-.11.114-.041.21-.077.287-.109a.565.565 0 0 1 .213-.048c.054 0 .107.016.157.048s.09.096.117.192c.028.096.052.226.075.39s.035.374.035.63" fill="#1D1D1B"/>
  </g>
</svg>
