<svg width="173" height="35" xmlns="http://www.w3.org/2000/svg">
  <g fill-rule="nonzero" fill="none">
    <path d="M36.103 12.42c.586 0 1.178.247 1.178.66v19.998c0 .441-.592.659-1.178.659v.448h5.791v-.448c-.586 0-1.177-.232-1.177-.66V13.08c0-.441.591-.66 1.177-.66v-.45h-5.79v.45zm73.581 9.913c0-1.38 1.545-2.119 3.17-2.119 2.602 0 4.112.431 4.608 2.204l.52.001-.045-2.301c-1.585-.643-3.333-.933-4.635-.933-4.473 0-6.303 2.315-6.303 4.11 0 5.174 8.864 3.955 8.864 7.744 0 1.128-.894 2.281-3.294 2.281-2.965 0-4.49-.923-5.186-2.89l-.4.067.18 2.76c1.424.64 3.333 1.09 4.961 1.09 4.838 0 6.99-2.248 6.99-4.367 0-5.046-9.43-3.887-9.43-7.647zm-29.596-2.46c.919 0 1.54.541 1.181 1.265h.002l-4.432 8.521-4.402-8.63c-.206-.672.387-1.156 1.205-1.156v-.459h-7.04v.459c.882 0 1.491.345 2.131 1.464l7.134 13.002 7.382-13.275c.594-.999 1.337-1.191 1.907-1.191v-.459h-5.068v.459zM63.664 33.078l-.002-6.696h.005v-3.02c0-2.76-2.964-4.315-6.006-4.315-2.6 0-4.954 1.46-5.848 2.206v-2.079l-.007.001c0-.27-.13-.34-.257-.34-1.898.688-2.743 1.02-4.633 1.672v.346c1.013.061 1.326.615 1.42 1.336v10.889c0 .484-.593.659-1.178.659v.448h5.805v-.448c-.585 0-1.177-.232-1.177-.66v-10.53h.027v-.052c.77-.746 2.394-1.616 4.1-1.616 3.573 0 4.304 1.895 4.304 3.604l-.006 8.607c0 .472-.594.647-1.174.647v.448h5.806v-.448c-.584 0-1.179-.16-1.179-.66zm39.342-7.519c0-4.639-4.182-6.489-7.63-6.489-6.214 0-9.182 4.107-9.238 7.522-.02 1.208.36 2.636 1.035 3.758a7.634 7.634 0 0 0 3.204 2.953c1.386.697 2.944 1.045 4.671 1.045 1.591 0 2.969-.195 4.14-.588 1.171-.393 2.359-1.085 3.563-2.072l-.024-1.159c-1.25.823-2.341 1.384-3.274 1.688-.932.3-2 .453-3.205.453-1.724 0-3.261-.542-4.53-1.712-1.299-1.203-1.814-3.126-1.864-4.523v-.876h13.152zm-8.12-5.36c2.235 0 4.385 1.16 4.385 4.199h-9.255c.326-2.16 1.908-4.199 4.87-4.199zm58.975 5.36c0-4.639-4.184-6.489-7.634-6.489-6.211 0-9.18 4.107-9.238 7.522-.02 1.208.362 2.636 1.037 3.758a7.635 7.635 0 0 0 3.2 2.953c1.39.697 2.947 1.045 4.676 1.045 1.586 0 2.965-.195 4.139-.588 1.168-.393 2.357-1.085 3.558-2.072l-.02-1.159c-1.248.823-2.34 1.384-3.272 1.688-.933.3-2.003.453-3.205.453-1.726 0-3.263-.542-4.531-1.712-1.3-1.203-1.814-3.126-1.867-4.523v-.876h13.157zm-8.122-5.36c2.232 0 4.384 1.16 4.384 4.199h-9.255c.325-2.16 1.908-4.199 4.871-4.199zm-13.735 12.85c-1.248.046-3.67-.309-3.67-3.221v-8.916h5.65v-1.303h-5.568v-2.884l-3.515-.002.002 2.897h-2.272l.02 1.292h2.257v8.835h-.002l.002.02v.092c0 2.974 2.379 4.503 5.606 4.489 1.12-.004 2.304-.4 3.027-.843a7.67 7.67 0 0 0 1.097-.77l-.074-.512c-.497.27-1.585.79-2.56.826zm34.293-12.864c2.499 0 4.814 1.37 5.699 3.033h.803v-2.769c-.038-.021-2.718-1.476-6.298-1.476-6.857 0-9.628 4.594-9.628 7.72 0 .641.095 1.297.283 1.947h-.02c.057.174.12.347.19.52.29.788.723 1.55 1.308 2.235a7.57 7.57 0 0 0 2.31 1.86c1.1.582 2.312.917 3.635 1.022.432.042.875.07 1.345.07 1.388 0 2.537-.248 3.478-.62l.041-.013c1.104-.386 2.223-1.062 3.356-2.029v-1.203c-.99.68-1.872 1.173-2.656 1.495a9.319 9.319 0 0 1-3.145.523c-4.296 0-6.404-3-6.404-6.222 0-2.806 1.733-6.093 5.703-6.093z" fill="#00214E"/>
    <path d="M14.47 11.98V.163H13.4v2.55c-5.097.213-9.293 3.425-10.366 7.674H5.78a8.443 8.443 0 0 1 7.62-6.233v7.824H.422v1.088h2.355c.31 5.02 4.904 9.038 10.622 9.275v2.54h1.07V13.068h7.883c-.24 3.68-2.873 6.713-6.363 7.585v1.522c4.99-.816 8.808-4.544 9.097-9.107h2.363v-1.088H14.47zm-1.07 8.908c-4.22-.265-7.604-3.624-7.877-7.821H13.4v7.82zm8.692-10.5h2.745c-.965-3.82-4.453-6.796-8.848-7.519v1.523c2.974.743 5.324 3.056 6.103 5.996z" fill="#6795D3"/>
  </g>
</svg>
