<svg width="102" height="33" xmlns="http://www.w3.org/2000/svg">
  <g fill="none" fill-rule="evenodd">
    <path d="M41.856 6.847c-.868-.726-2.084-1.09-3.648-1.09H32.03v9.66h6.178c1.564 0 2.78-.393 3.648-1.18.868-.786 1.303-2.033 1.303-3.74 0-1.706-.435-2.922-1.303-3.65m5.233 11.82c-1.921 1.602-4.664 2.403-8.228 2.403H32.03v11.797h-6.811V3.882A3.823 3.823 0 0 1 29.042.059h10.264c3.247 0 5.836.846 7.767 2.537 1.931 1.692 2.896 4.31 2.896 7.857 0 3.873-.96 6.61-2.88 8.213M58.17 20.47h8.403L62.428 7.56 58.17 20.47zM61.317.058h5.062l11.607 32.808h-7.434l-2.165-6.744H56.305l-2.223 6.744H46.91l10.806-30.27a3.824 3.824 0 0 1 3.6-2.538zM95.915.059h5.31L90.253 20.565v12.302h-6.855V20.565L72.045.06h8.08l6.811 14.29 5.501-12.055A3.823 3.823 0 0 1 95.915.06" fill="#231F20"/>
    <path fill="#7AA437" d="M.5 32.867h6.81V7.831H.5zM7.31 5.601H.5V.06h2.988a3.823 3.823 0 0 1 3.823 3.823v1.72z"/>
    <path fill="#231F20" d="M9.754 19.127h12.42v-6.01H9.754z"/>
  </g>
</svg>
