<svg width="106" height="82" xmlns="http://www.w3.org/2000/svg">
  <g fill-rule="nonzero" fill="none">
    <path d="M19.71 81.209v-5.4a3.203 3.203 0 0 0-3.382-3.418 3.33 3.33 0 0 0-3.024 1.53 3.158 3.158 0 0 0-2.843-1.53 2.843 2.843 0 0 0-2.52 1.277v-1.061H6.07v8.602h1.89v-4.733a2.016 2.016 0 0 1 2.105-2.286c1.242 0 1.872.81 1.872 2.268v4.787h1.89v-4.77a2.025 2.025 0 0 1 2.105-2.285c1.277 0 1.89.81 1.89 2.268v4.787l1.889-.036zm27.958-8.602H44.59v-2.61H42.7v2.61h-1.71v1.71h1.746v3.958c0 1.998.774 3.186 2.987 3.186a4.391 4.391 0 0 0 2.34-.666l-.54-1.602c-.502.3-1.072.467-1.656.486-.9 0-1.241-.576-1.241-1.44v-3.923h3.059l-.018-1.71zm15.962-.216c-.93-.028-1.8.456-2.267 1.26v-1.044h-1.854v8.602h1.872v-4.823c0-1.422.612-2.214 1.8-2.214.4-.005.797.068 1.17.216l.575-1.8a4.004 4.004 0 0 0-1.332-.233l.036.036zm-24.132.9a6.434 6.434 0 0 0-3.51-.9c-2.177 0-3.599 1.043-3.599 2.753 0 1.404 1.044 2.268 2.97 2.537l.9.126c1.025.144 1.511.414 1.511.9 0 .666-.684 1.044-1.962 1.044a4.58 4.58 0 0 1-2.861-.9l-.9 1.458a6.209 6.209 0 0 0 3.725 1.116c2.484 0 3.924-1.17 3.924-2.808 0-1.637-1.134-2.303-3.006-2.573l-.9-.126c-.81-.108-1.457-.27-1.457-.846s.612-1.008 1.637-1.008a5.543 5.543 0 0 1 2.7.738l.828-1.512zm50.128-.9c-.93-.028-1.8.456-2.268 1.26v-1.044h-1.853v8.602h1.871v-4.823c0-1.422.612-2.214 1.8-2.214.4-.005.798.068 1.17.216l.576-1.8a4.004 4.004 0 0 0-1.332-.233l.036.036zM65.51 76.89a4.346 4.346 0 0 0 4.589 4.499 4.499 4.499 0 0 0 3.095-1.026l-.9-1.512a3.78 3.78 0 0 1-2.249.774 2.762 2.762 0 0 1 0-5.507 3.78 3.78 0 0 1 2.25.774l.9-1.512a4.499 4.499 0 0 0-3.096-1.025 4.346 4.346 0 0 0-4.589 4.499v.036zm17.528 0v-4.283h-1.871v1.043a3.266 3.266 0 0 0-2.7-1.26 4.499 4.499 0 0 0 0 8.999 3.266 3.266 0 0 0 2.7-1.26v1.044h1.871V76.89zm-6.964 0a2.6 2.6 0 1 1 2.61 2.753 2.582 2.582 0 0 1-2.61-2.753zm-22.585-4.5a4.5 4.5 0 0 0 .126 8.999 5.228 5.228 0 0 0 3.572-1.17l-.9-1.386c-.71.57-1.59.887-2.501.9a2.384 2.384 0 0 1-2.574-2.106h6.389v-.72c0-2.699-1.674-4.498-4.085-4.498l-.027-.018zm0 1.674a2.133 2.133 0 0 1 2.177 2.088h-4.499a2.214 2.214 0 0 1 2.286-2.088h.036zm46.889 2.844V69.15h-1.8v4.5a3.266 3.266 0 0 0-2.7-1.26 4.499 4.499 0 0 0 0 8.998 3.266 3.266 0 0 0 2.7-1.26v1.044h1.8v-4.265zm3.122 3.05a.9.9 0 0 1 .342.063.9.9 0 0 1 .279.18.837.837 0 0 1-.279 1.386.846.846 0 0 1-.342.072.9.9 0 0 1-.81-.522.846.846 0 0 1 0-.666.9.9 0 0 1 .189-.27.9.9 0 0 1 .279-.18.9.9 0 0 1 .369-.063h-.027zm0 1.52a.639.639 0 0 0 .468-.197.666.666 0 0 0 0-.9.648.648 0 0 0-.729-.144.657.657 0 0 0-.216.144.666.666 0 0 0 0 .9c.062.061.135.11.216.144.09.039.189.057.288.054h-.027zm.054-1.07a.36.36 0 0 1 .234.072.225.225 0 0 1 .08.189c.003.06-.02.119-.062.162a.315.315 0 0 1-.19.08l.262.298h-.207l-.243-.297h-.081v.297h-.171v-.792l.378-.01zm-.198.153v.216h.198c.035.01.073.01.108 0a.09.09 0 0 0 0-.081.09.09 0 0 0 0-.081.189.189 0 0 0-.108 0l-.198-.054zm-9.898-3.653a2.6 2.6 0 1 1 2.61 2.753 2.582 2.582 0 0 1-2.61-2.753zm-63.193 0v-4.301h-1.872v1.043a3.266 3.266 0 0 0-2.7-1.26 4.499 4.499 0 1 0 0 8.999 3.266 3.266 0 0 0 2.7-1.26v1.044h1.872v-4.265zm-6.965 0a2.6 2.6 0 1 1 2.61 2.753 2.582 2.582 0 0 1-2.628-2.753h.018z" fill="#231F20"/>
    <path fill="#FF5F00" d="M38.877 7.056h28.344v50.938H38.877z"/>
    <path d="M40.676 32.53A32.339 32.339 0 0 1 53.05 7.055C39.767-3.382 20.695-1.862 9.235 10.548s-11.46 31.543 0 43.953c11.46 12.41 30.532 13.93 43.814 3.493a32.339 32.339 0 0 1-12.373-25.465z" fill="#EB001B"/>
    <path d="M105.462 32.53A32.393 32.393 0 0 1 53.05 57.993a32.393 32.393 0 0 0 0-50.938 32.393 32.393 0 0 1 52.413 25.464v.01zM102.367 52.595V51.55h.423v-.216h-1.07v.216h.458v1.044h.19zm2.079 0v-1.26h-.324l-.378.9-.378-.9h-.288v1.26h.234v-.945l.35.819h.244l.35-.819v.954l.19-.01z" fill="#F79E1B"/>
  </g>
</svg>
