<svg width="166" height="29" xmlns="http://www.w3.org/2000/svg">
  <g fill-rule="nonzero" fill="none">
    <path d="M165.092 10.586c-1-.66-2.383-1-3.906-1-2.423 0-3.987 1.16-3.987 3.064 0 1.563 1.163 2.524 3.305 2.825l.98.14c1.142.16 1.684.46 1.684 1 0 .742-.762 1.164-2.184 1.164-1.441 0-2.484-.461-3.186-1.001l-.982 1.622c1.14.842 2.584 1.242 4.147 1.242 2.764 0 4.366-1.302 4.366-3.125 0-1.683-1.261-2.565-3.344-2.866l-.98-.14c-.903-.12-1.624-.3-1.624-.942 0-.702.68-1.12 1.823-1.12 1.222 0 2.405.46 2.984.82l.902-1.683h.002zm-9.995 0c-1.001-.66-2.384-1-3.906-1-2.425 0-3.987 1.16-3.987 3.064 0 1.563 1.16 2.524 3.304 2.825l.981.14c1.142.16 1.683.46 1.683 1 0 .742-.761 1.164-2.183 1.164-1.442 0-2.484-.461-3.186-1.001l-.98 1.622c1.14.842 2.584 1.242 4.146 1.242 2.765 0 4.367-1.302 4.367-3.125 0-1.683-1.262-2.565-3.344-2.866l-.981-.14c-.902-.12-1.622-.3-1.622-.942 0-.702.68-1.12 1.823-1.12 1.222 0 2.405.46 2.985.82l.901-1.683h-.001zm-23.86 3.987c0 1.683-1.1 3.065-2.904 3.065-1.723 0-2.884-1.321-2.884-3.065 0-1.743 1.161-3.065 2.884-3.065 1.803 0 2.905 1.382 2.905 3.065zm-7.752 0v8.253h2.083v-4.628c.66.86 1.663 1.402 3.026 1.402 2.684 0 4.788-2.104 4.788-5.029s-2.104-5.027-4.788-5.027c-1.363 0-2.364.54-3.026 1.402V9.785h-2.083v4.788zm13.561.02c0-1.683 1.102-3.066 2.906-3.066 1.722 0 2.885 1.321 2.885 3.066 0 1.742-1.163 3.065-2.885 3.065-1.804 0-2.906-1.382-2.906-3.065zm7.753 0V9.805h-2.084v1.163c-.661-.863-1.664-1.403-3.024-1.403-2.684 0-4.788 2.103-4.788 5.028 0 2.925 2.102 5.029 4.788 5.029 1.362 0 2.363-.54 3.024-1.402v1.162h2.084V14.593zm-69.452 0c0-1.683 1.102-3.066 2.905-3.066 1.723 0 2.885 1.321 2.885 3.066 0 1.742-1.16 3.065-2.885 3.065-1.803 0-2.905-1.382-2.905-3.065zm7.752 0V9.805h-2.082v1.163c-.66-.863-1.663-1.403-3.026-1.403-2.684 0-4.788 2.103-4.788 5.028 0 2.925 2.104 5.029 4.788 5.029 1.363 0 2.363-.54 3.026-1.402v1.162h2.082V14.593zm25.843-3.165c1.342 0 2.203.843 2.424 2.324h-4.968c.22-1.382 1.062-2.324 2.544-2.324zm.04-1.863c-2.805 0-4.769 2.043-4.769 5.028 0 3.045 2.043 5.029 4.909 5.029 1.441 0 2.764-.36 3.925-1.343l-1.022-1.543c-.801.641-1.823 1.001-2.785 1.001-1.342 0-2.565-.62-2.865-2.343h7.112l.04-.801c-.02-2.985-1.864-5.028-4.548-5.028h.002zm-15.585 1.001c-1-.66-2.383-1-3.906-1-2.424 0-3.987 1.162-3.987 3.065 0 1.562 1.163 2.523 3.305 2.824l.98.14c1.142.16 1.684.461 1.684 1.001 0 .742-.761 1.163-2.183 1.163-1.442 0-2.484-.461-3.186-1.003l-.981 1.624c1.14.84 2.584 1.242 4.147 1.242 2.764 0 4.366-1.303 4.366-3.125 0-1.683-1.261-2.565-3.346-2.866l-.98-.14c-.902-.12-1.624-.3-1.624-.941 0-.702.68-1.122 1.823-1.122 1.222 0 2.405.461 2.984.821l.902-1.683h.002zm26.863-1c-1.202 0-1.984.56-2.524 1.402V9.805h-2.062v9.576h2.084v-5.37c0-1.582.68-2.464 2.043-2.464.421 0 .86.06 1.301.241l.641-1.963c-.46-.18-1.062-.261-1.483-.261v.001zm-17.77.24h-3.405V6.902h-2.104v2.906h-1.942v1.902h1.942v4.367c0 2.223.862 3.546 3.326 3.546.902 0 1.944-.281 2.605-.742l-.601-1.784c-.621.36-1.304.54-1.844.54-1.042 0-1.382-.64-1.382-1.602v-4.327h3.406V9.805v.002zm-31.128 9.576v-6.01c0-2.264-1.442-3.785-3.766-3.805-1.222-.02-2.484.36-3.366 1.703-.66-1.062-1.702-1.703-3.164-1.703-1.022 0-2.023.3-2.804 1.422V9.807h-2.083v9.575h2.102v-5.308c0-1.663.922-2.543 2.344-2.543 1.382 0 2.083.902 2.083 2.523v5.328h2.104v-5.308c0-1.663.96-2.543 2.343-2.543 1.422 0 2.104.902 2.104 2.523v5.328h2.105-.002z" fill="#000"/>
    <path fill="#FF5F00" d="M16.997 25.886h12.6V3.244h-12.6z"/>
    <path d="M17.798 14.564c0-4.594 2.151-8.685 5.5-11.322A14.34 14.34 0 0 0 14.4.164C6.448.164.002 6.612.002 14.564s6.446 14.4 14.398 14.4c3.359 0 6.45-1.15 8.899-3.078a14.376 14.376 0 0 1-5.5-11.322" fill="#EC001B"/>
    <path d="M46.596 14.564c0 7.952-6.448 14.4-14.398 14.4a14.34 14.34 0 0 1-8.9-3.078A14.376 14.376 0 0 0 28.8 14.564c0-4.594-2.151-8.685-5.501-11.322A14.34 14.34 0 0 1 32.198.164c7.952 0 14.398 6.448 14.398 14.4" fill="#F89E1B"/>
  </g>
</svg>
