<svg width="134" height="42" xmlns="http://www.w3.org/2000/svg">
  <g fill-rule="nonzero" fill="none">
    <path d="M11.943 28.352a9.545 9.545 0 0 0-2.181-1.027 7.736 7.736 0 0 0-2.38-.365 6.12 6.12 0 0 0-1.485.168 3.652 3.652 0 0 0-1.155.488c-.32.213-.57.468-.748.765a1.923 1.923 0 0 0-.267 1.004c0 .34.078.63.232.87.155.24.378.443.668.61.29.166.644.303 1.061.412.418.108.89.201 1.416.278l1.126.151c.657.093 1.3.236 1.926.43a5.846 5.846 0 0 1 1.677.812c.491.348.886.786 1.184 1.311.298.526.447 1.165.447 1.915 0 .828-.174 1.559-.523 2.193a4.84 4.84 0 0 1-1.415 1.601 6.535 6.535 0 0 1-2.072.987 9.075 9.075 0 0 1-2.5.337 11.922 11.922 0 0 1-3.464-.55 10.666 10.666 0 0 1-1.655-.68 7.06 7.06 0 0 1-1.416-.953l1.428-2.088a5.27 5.27 0 0 0 1.004.708 8.808 8.808 0 0 0 2.657.946c.483.089.962.134 1.433.134.534 0 1.031-.054 1.491-.163.461-.108.861-.267 1.202-.476.34-.209.609-.462.806-.76a1.77 1.77 0 0 0 .296-1.003c0-.635-.312-1.119-.934-1.451-.623-.333-1.53-.58-2.721-.743l-1.265-.174a9.9 9.9 0 0 1-1.77-.418 5.124 5.124 0 0 1-1.544-.818 3.95 3.95 0 0 1-1.09-1.323c-.275-.529-.413-1.173-.413-1.931 0-.813.169-1.534.506-2.165.336-.63.794-1.16 1.374-1.59.58-.43 1.26-.757 2.037-.98a8.913 8.913 0 0 1 2.49-.337c1.183 0 2.253.156 3.208.47.955.313 1.843.74 2.664 1.282l-1.335 2.123zm8.855 1.242c.773 0 1.483.142 2.13.423a4.765 4.765 0 0 1 1.659 1.196c.46.515.82 1.13 1.079 1.845.259.716.388 1.507.388 2.374a7.576 7.576 0 0 1-.047.905h-8.215c.077.503.22.932.429 1.287.208.357.46.649.754.877.295.228.623.397.987.504.364.109.742.163 1.137.163.558 0 1.116-.102 1.677-.307a5.438 5.438 0 0 0 1.538-.864l1.206 1.728c-.68.58-1.401.987-2.163 1.218a8.195 8.195 0 0 1-2.409.35c-.835 0-1.601-.14-2.297-.418a5.216 5.216 0 0 1-1.799-1.184 5.335 5.335 0 0 1-1.172-1.846c-.279-.72-.418-1.52-.418-2.402 0-.866.135-1.66.406-2.378.27-.72.65-1.337 1.137-1.851a5.064 5.064 0 0 1 1.747-1.196c.677-.282 1.426-.424 2.246-.424zm-.047 2.159c-.433 0-.818.065-1.155.196-.336.133-.627.32-.87.564a2.971 2.971 0 0 0-.597.87 4.125 4.125 0 0 0-.325 1.108h5.767c-.132-.866-.44-1.54-.928-2.019-.488-.48-1.118-.72-1.892-.72zm12.893-2.159c.836 0 1.613.149 2.332.447.72.298 1.327.74 1.823 1.329l-1.556 1.659a4.67 4.67 0 0 0-1.23-.853 3.381 3.381 0 0 0-1.438-.295c-.465 0-.899.086-1.3.26-.403.174-.751.418-1.045.731-.294.313-.524.69-.69 1.126-.166.438-.25.92-.25 1.445 0 .526.084 1.008.25 1.445.166.437.396.813.69 1.126.294.312.642.556 1.045.73.401.174.835.261 1.3.261.533 0 1.032-.11 1.496-.33.465-.22.875-.498 1.23-.83l1.498 1.671a4.917 4.917 0 0 1-1.834 1.329 5.948 5.948 0 0 1-2.32.447c-.883 0-1.684-.15-2.403-.447a5.492 5.492 0 0 1-1.845-1.23 5.46 5.46 0 0 1-1.184-1.852 6.305 6.305 0 0 1-.418-2.32c0-.835.14-1.61.418-2.321a5.45 5.45 0 0 1 1.184-1.85 5.476 5.476 0 0 1 1.845-1.231c.72-.298 1.52-.447 2.402-.447zm16.594 6.696c0 .881-.146 1.64-.44 2.274-.294.635-.682 1.154-1.16 1.556a4.65 4.65 0 0 1-1.649.887c-.619.19-1.253.285-1.903.285-.65 0-1.284-.095-1.903-.285a4.71 4.71 0 0 1-1.654-.887c-.484-.402-.87-.921-1.16-1.556-.291-.634-.436-1.393-.436-2.274v-6.406h2.437v6.186c0 .533.07.989.209 1.363.14.375.33.679.574.911.244.232.532.4.865.505a3.55 3.55 0 0 0 1.067.156c.38 0 .735-.052 1.069-.156.332-.105.62-.273.864-.505.244-.232.435-.536.574-.911.14-.374.21-.83.21-1.363v-6.186h2.436v6.406zm8.855-6.696c.371 0 .705.025 1.003.075.298.05.587.13.865.238l-.58 2.403a3.472 3.472 0 0 0-.893-.303 4.772 4.772 0 0 0-.952-.104 2.82 2.82 0 0 0-1.068.197 2.256 2.256 0 0 0-.835.58 2.74 2.74 0 0 0-.546.94 3.779 3.779 0 0 0-.197 1.266V41h-2.426V29.884h2.402v1.253a3.334 3.334 0 0 1 1.381-1.172c.55-.248 1.165-.371 1.846-.371zm8.147 0a5.27 5.27 0 0 1 2.13.423c.646.284 1.199.682 1.66 1.196.459.515.819 1.13 1.079 1.845.258.716.387 1.507.387 2.374a7.978 7.978 0 0 1-.046.905h-8.216c.077.503.22.932.43 1.287.208.357.46.649.753.877.294.228.622.397.987.504a3.95 3.95 0 0 0 1.136.163c.558 0 1.117-.102 1.678-.307a5.447 5.447 0 0 0 1.538-.864l1.206 1.728c-.68.58-1.402.987-2.164 1.218a8.193 8.193 0 0 1-2.408.35c-.835 0-1.602-.14-2.298-.418a5.213 5.213 0 0 1-1.798-1.184 5.331 5.331 0 0 1-1.172-1.846c-.28-.72-.418-1.52-.418-2.402 0-.866.135-1.66.406-2.378.27-.72.65-1.337 1.137-1.851a5.065 5.065 0 0 1 1.746-1.196c.678-.282 1.427-.424 2.247-.424zm-.047 2.159a3.16 3.16 0 0 0-1.155.196c-.336.133-.626.32-.87.564a2.967 2.967 0 0 0-.597.87 4.124 4.124 0 0 0-.325 1.108h5.768c-.132-.866-.441-1.54-.929-2.019-.488-.48-1.117-.72-1.892-.72zm15.771-7.3c.72 0 1.417.077 2.09.232.673.155 1.299.378 1.88.673.579.295 1.106.652 1.577 1.074.472.422.868.895 1.184 1.421l-2.193 1.462a5.333 5.333 0 0 0-1.909-1.717c-.779-.417-1.654-.626-2.629-.626a6.05 6.05 0 0 0-2.298.428 5.376 5.376 0 0 0-1.822 1.208 5.554 5.554 0 0 0-1.2 1.868c-.29.728-.436 1.528-.436 2.402 0 .875.145 1.676.436 2.403.29.727.69 1.35 1.2 1.868.51.52 1.118.92 1.822 1.206a6.03 6.03 0 0 0 2.298.43c.967 0 1.836-.204 2.605-.614.77-.41 1.41-.983 1.921-1.718l2.137 1.567c-.35.51-.756.966-1.225 1.369a7.644 7.644 0 0 1-1.556 1.033c-.569.286-1.18.505-1.833.656a9.07 9.07 0 0 1-2.049.226c-1.245 0-2.39-.21-3.434-.633a7.974 7.974 0 0 1-2.692-1.758 7.97 7.97 0 0 1-1.753-2.669c-.417-1.03-.627-2.15-.627-3.365 0-1.216.21-2.336.627-3.366a7.963 7.963 0 0 1 1.753-2.669 7.979 7.979 0 0 1 2.692-1.757c1.043-.423 2.189-.634 3.434-.634zm14.333 5.141c.858 0 1.653.149 2.384.447a5.812 5.812 0 0 1 1.897 1.23 5.627 5.627 0 0 1 1.254 1.85 5.89 5.89 0 0 1 .452 2.322c0 .836-.15 1.61-.452 2.32a5.636 5.636 0 0 1-1.254 1.852 5.824 5.824 0 0 1-1.897 1.23 6.254 6.254 0 0 1-2.384.447c-.86 0-1.655-.15-2.386-.447a5.752 5.752 0 0 1-1.89-1.23 5.675 5.675 0 0 1-1.249-1.852 5.88 5.88 0 0 1-.452-2.32c0-.835.15-1.61.452-2.321a5.669 5.669 0 0 1 1.248-1.85 5.743 5.743 0 0 1 1.891-1.231 6.257 6.257 0 0 1 2.386-.447zm0 2.287c-.497 0-.957.086-1.382.26a3.269 3.269 0 0 0-1.834 1.857 3.81 3.81 0 0 0-.267 1.445c0 .526.09 1.008.267 1.445.178.437.422.813.732 1.126.309.312.677.556 1.102.73.425.174.885.261 1.382.261.494 0 .954-.087 1.38-.26a3.352 3.352 0 0 0 1.108-.731c.314-.313.559-.689.738-1.126a3.81 3.81 0 0 0 .266-1.445c0-.526-.089-1.007-.266-1.445a3.384 3.384 0 0 0-.738-1.126 3.345 3.345 0 0 0-1.108-.73 3.61 3.61 0 0 0-1.38-.261zm13.287-2.287c.797 0 1.482.149 2.054.447a4.368 4.368 0 0 1 1.44 1.19V24.29h2.425v16.711h-2.425v-1.334c-.388.495-.868.89-1.44 1.184-.572.294-1.257.44-2.054.44a5.434 5.434 0 0 1-3.945-1.648 5.591 5.591 0 0 1-1.184-1.85 6.264 6.264 0 0 1-.43-2.35c0-.851.143-1.635.43-2.35a5.616 5.616 0 0 1 1.184-1.851 5.424 5.424 0 0 1 3.945-1.648zm.29 2.287c-.527 0-.996.094-1.41.283-.414.19-.763.446-1.05.766-.286.321-.507.698-.662 1.132a4.082 4.082 0 0 0-.232 1.381c0 .487.078.947.232 1.381.155.434.376.81.662 1.132.286.32.636.576 1.05.766.414.19.883.283 1.41.283.503 0 .959-.09 1.37-.272.41-.181.762-.432 1.056-.749.294-.316.521-.691.684-1.125.162-.433.244-.905.244-1.416a4 4 0 0 0-.244-1.416 3.376 3.376 0 0 0-.684-1.125 3.184 3.184 0 0 0-1.056-.749 3.357 3.357 0 0 0-1.37-.272zm13.706-2.287c.774 0 1.483.142 2.129.423a4.76 4.76 0 0 1 1.66 1.196c.46.515.819 1.13 1.079 1.845.26.716.388 1.507.388 2.374a8.01 8.01 0 0 1-.046.905h-8.216c.077.503.22.932.43 1.287.208.357.46.649.754.877.294.228.622.397.986.504a3.95 3.95 0 0 0 1.137.163c.558 0 1.117-.102 1.677-.307a5.458 5.458 0 0 0 1.538-.864l1.207 1.728c-.682.58-1.403.987-2.165 1.218a8.18 8.18 0 0 1-2.407.35c-.836 0-1.602-.14-2.298-.418a5.21 5.21 0 0 1-1.8-1.184 5.347 5.347 0 0 1-1.17-1.846c-.28-.72-.419-1.52-.419-2.402 0-.866.135-1.66.406-2.378.271-.72.65-1.337 1.138-1.851a5.064 5.064 0 0 1 1.746-1.196c.678-.282 1.426-.424 2.246-.424zm6.415 11.407v-.558h.226v-.115h-.574v.115h.225V41h.123zm1.115 0v-.674h-.175l-.203.464-.203-.464h-.176V41h.125v-.508l.19.438h.129l.189-.44v.51h.124zm-7.576-9.248a3.16 3.16 0 0 0-1.156.196c-.336.133-.626.32-.87.564a2.97 2.97 0 0 0-.597.87 4.1 4.1 0 0 0-.325 1.108h5.767c-.132-.866-.44-1.54-.928-2.019-.487-.48-1.118-.72-1.891-.72z" fill="#F79E1B"/>
    <path d="M19.929 18.078h-2.72V4.21l-4.924 12.217H9.421L4.497 4.344v13.734h-2.72V1.226h4.177l4.9 12.037 4.898-12.037h4.177v16.852zm14.323 0h-2.516v-1.384a4.443 4.443 0 0 1-1.492 1.227c-.594.306-1.304.458-2.13.458a5.62 5.62 0 0 1-4.093-1.71 5.82 5.82 0 0 1-1.228-1.92c-.297-.742-.445-1.554-.445-2.437 0-.883.148-1.695.445-2.437a5.838 5.838 0 0 1 1.228-1.92 5.627 5.627 0 0 1 1.83-1.259 5.659 5.659 0 0 1 2.263-.451c.826 0 1.536.155 2.13.464.594.309 1.091.72 1.492 1.233V6.546h2.516v11.532zm-5.838-9.461c-.546 0-1.033.098-1.462.294-.43.198-.792.463-1.09.795a3.52 3.52 0 0 0-.685 1.174c-.161.45-.241.927-.241 1.432 0 .506.08.983.24 1.432.16.45.39.842.687 1.174.297.333.66.598 1.09.795.428.196.915.295 1.461.295.522 0 .995-.095 1.42-.283.426-.189.791-.447 1.096-.777.305-.329.542-.718.71-1.167.169-.45.253-.94.253-1.469 0-.53-.084-1.02-.252-1.469a3.519 3.519 0 0 0-.71-1.168 3.31 3.31 0 0 0-1.096-.776 3.474 3.474 0 0 0-1.42-.282zm17.394.818a7.357 7.357 0 0 0-1.504-.65 8.95 8.95 0 0 0-.994-.24 5.876 5.876 0 0 0-1.065-.096c-.69 0-1.226.126-1.607.379-.381.252-.572.584-.572.993 0 .2.05.369.15.505.101.137.235.25.403.338.17.088.37.158.602.21.233.053.482.098.747.138l1.191.181c1.26.185 2.243.551 2.95 1.101.706.55 1.059 1.319 1.059 2.306 0 .553-.119 1.061-.355 1.522a3.44 3.44 0 0 1-1.023 1.192c-.446.333-.995.591-1.65.777-.653.184-1.394.275-2.22.275-.297 0-.642-.017-1.035-.053a8.667 8.667 0 0 1-1.252-.216 9.083 9.083 0 0 1-1.348-.452 6.205 6.205 0 0 1-1.312-.758l1.167-1.89c.209.16.435.31.68.45.245.141.522.266.83.374.31.108.651.195 1.024.259a7.54 7.54 0 0 0 1.27.096c.867 0 1.52-.126 1.962-.379.441-.252.662-.596.662-1.03 0-.328-.16-.598-.481-.812-.322-.212-.827-.367-1.517-.463l-1.204-.156c-1.284-.177-2.257-.551-2.919-1.126-.662-.573-.993-1.326-.993-2.257 0-.57.11-1.084.331-1.54.22-.458.538-.845.95-1.162.414-.317.914-.562 1.5-.734.586-.173 1.248-.259 1.986-.259.907 0 1.761.106 2.564.32.803.211 1.505.51 2.106.896l-1.083 1.961zm11.94-.602h-4.417v5.02a3 3 0 0 0 .144.987c.096.272.227.496.392.668.164.173.357.3.577.38.22.08.46.12.717.12.393 0 .792-.076 1.197-.23.406-.152.78-.336 1.126-.553l.998 2.01a7.903 7.903 0 0 1-1.57.807c-.582.225-1.238.337-1.968.337-1.308 0-2.326-.362-3.052-1.089-.726-.726-1.089-1.855-1.089-3.389V8.833h-2.3V6.547h2.3V3.056h2.528v3.49h4.417v2.287zm7.74-2.588c.802 0 1.54.147 2.21.44.67.293 1.243.706 1.72 1.24.478.534.85 1.172 1.12 1.913.269.743.404 1.564.404 2.462a9.84 9.84 0 0 1-.048.939H62.37c.08.522.228.967.445 1.337.216.368.478.671.782.908.305.237.646.412 1.023.524.378.113.77.168 1.18.168.578 0 1.157-.106 1.74-.319a5.6 5.6 0 0 0 1.595-.896l1.252 1.793c-.706.602-1.455 1.023-2.246 1.264a8.53 8.53 0 0 1-2.497.361c-.867 0-1.661-.145-2.383-.433a5.396 5.396 0 0 1-1.866-1.228 5.541 5.541 0 0 1-1.216-1.914c-.289-.746-.433-1.577-.433-2.491 0-.9.14-1.722.42-2.468a5.653 5.653 0 0 1 1.18-1.92 5.244 5.244 0 0 1 1.812-1.24c.702-.293 1.479-.44 2.329-.44zm-.048 2.24c-.45 0-.848.068-1.198.204-.349.137-.65.33-.902.584-.253.253-.46.553-.62.903-.161.349-.273.732-.338 1.15h5.983c-.136-.9-.457-1.598-.963-2.095-.505-.498-1.16-.746-1.962-.746zm14.216-2.24c.386 0 .732.026 1.04.079.31.052.61.134.897.246l-.601 2.492a3.587 3.587 0 0 0-.927-.313 4.98 4.98 0 0 0-.987-.107c-.401 0-.77.067-1.108.204a2.335 2.335 0 0 0-.866.602c-.24.265-.43.59-.566.975a3.922 3.922 0 0 0-.204 1.312v6.343h-2.516V6.547h2.492v1.3a3.47 3.47 0 0 1 1.432-1.216c.57-.257 1.207-.386 1.914-.386zm8.606 0c.867 0 1.674.155 2.42.464a4.868 4.868 0 0 1 1.889 1.378L90.958 9.81a4.841 4.841 0 0 0-1.274-.885 3.528 3.528 0 0 0-1.494-.308c-.48 0-.93.09-1.348.271-.417.18-.779.433-1.084.76a3.513 3.513 0 0 0-.715 1.166 4.156 4.156 0 0 0-.259 1.5c0 .545.085 1.044.259 1.498.172.452.411.842.715 1.167.305.325.667.578 1.084.758.418.182.867.271 1.348.271.554 0 1.07-.114 1.552-.342a4.97 4.97 0 0 0 1.277-.862l1.552 1.734a5.086 5.086 0 0 1-1.9 1.378 6.18 6.18 0 0 1-2.409.464c-.914 0-1.745-.155-2.49-.464a5.672 5.672 0 0 1-1.915-1.275 5.668 5.668 0 0 1-1.227-1.92 6.542 6.542 0 0 1-.434-2.408c0-.867.145-1.669.434-2.408a5.67 5.67 0 0 1 1.227-1.92 5.675 5.675 0 0 1 1.914-1.275c.746-.309 1.577-.464 2.491-.464zm17.72 11.833h-2.517v-1.384a4.446 4.446 0 0 1-1.492 1.227c-.594.306-1.304.458-2.13.458-.812 0-1.566-.15-2.264-.451a5.625 5.625 0 0 1-1.83-1.259 5.813 5.813 0 0 1-1.227-1.92 6.515 6.515 0 0 1-.446-2.437c0-.883.15-1.695.446-2.437a5.824 5.824 0 0 1 1.228-1.92 5.632 5.632 0 0 1 1.83-1.259 5.658 5.658 0 0 1 2.262-.451c.827 0 1.537.155 2.131.464.594.309 1.091.72 1.492 1.233V6.546h2.516v11.532zm-5.84-9.461c-.545 0-1.032.098-1.462.294-.429.198-.791.463-1.088.795a3.537 3.537 0 0 0-.687 1.174c-.16.45-.24.927-.24 1.432 0 .506.08.983.24 1.432.16.45.39.842.687 1.174.297.333.66.598 1.088.795.43.196.917.295 1.463.295.521 0 .995-.095 1.42-.283.426-.189.79-.447 1.096-.777.305-.329.541-.718.71-1.167.17-.45.253-.94.253-1.469 0-.53-.083-1.02-.253-1.469a3.515 3.515 0 0 0-.71-1.168 3.31 3.31 0 0 0-1.095-.776 3.48 3.48 0 0 0-1.421-.282zm15.384-2.372c.386 0 .733.026 1.042.079.309.052.608.134.896.246l-.602 2.492a3.573 3.573 0 0 0-.925-.313 4.998 4.998 0 0 0-.989-.107c-.401 0-.77.067-1.106.204a2.33 2.33 0 0 0-.867.602c-.24.265-.43.59-.566.975a3.915 3.915 0 0 0-.205 1.312v6.343h-2.515V6.547h2.492v1.3a3.465 3.465 0 0 1 1.432-1.216c.57-.257 1.208-.386 1.913-.386zm8.258 0c.827 0 1.537.155 2.131.464.594.309 1.09.72 1.493 1.233V.744h2.515v17.334h-2.515v-1.384a4.448 4.448 0 0 1-1.493 1.227c-.594.306-1.304.458-2.13.458-.812 0-1.566-.15-2.264-.451a5.623 5.623 0 0 1-1.829-1.259 5.832 5.832 0 0 1-1.228-1.92 6.52 6.52 0 0 1-.446-2.437c0-.883.15-1.695.446-2.437a5.843 5.843 0 0 1 1.228-1.92 5.63 5.63 0 0 1 1.83-1.259 5.661 5.661 0 0 1 2.262-.451zm9.077 10.767a.756.756 0 0 1 .688.448c.039.09.058.184.058.285a.724.724 0 0 1-.219.517.762.762 0 0 1-.823.157.745.745 0 0 1-.397-.39.694.694 0 0 1-.058-.284c0-.1.02-.196.058-.285a.748.748 0 0 1 .397-.39.753.753 0 0 1 .296-.058zm0 1.305a.554.554 0 0 0 .4-.168.559.559 0 0 0 .166-.404.565.565 0 0 0-.566-.57.568.568 0 0 0-.53.793.574.574 0 0 0 .53.349zm.043-.915a.31.31 0 0 1 .203.058c.047.04.07.092.07.159a.184.184 0 0 1-.056.14.27.27 0 0 1-.161.067l.223.257h-.175l-.206-.256h-.067v.256h-.146v-.681h.315zm-.168.127v.182h.167a.161.161 0 0 0 .09-.023c.024-.015.036-.038.036-.069a.075.075 0 0 0-.035-.067.166.166 0 0 0-.091-.023h-.167zm-8.651-8.912a3.48 3.48 0 0 0-1.462.294c-.43.198-.792.463-1.09.795a3.54 3.54 0 0 0-.686 1.174c-.16.45-.24.927-.24 1.432 0 .506.08.983.24 1.432.16.45.39.842.686 1.174.298.333.66.598 1.09.795.429.196.916.295 1.462.295.521 0 .995-.095 1.421-.283.425-.189.79-.447 1.095-.777a3.5 3.5 0 0 0 .71-1.167c.17-.45.254-.94.254-1.469 0-.53-.084-1.02-.254-1.469a3.506 3.506 0 0 0-.71-1.168 3.312 3.312 0 0 0-1.095-.776 3.481 3.481 0 0 0-1.421-.282z" fill="#EB001B"/>
  </g>
</svg>
