<svg width="137" height="49" xmlns="http://www.w3.org/2000/svg">
  <defs>
    <linearGradient x1="110.652%" y1="134.908%" x2="11.732%" y2="28.6%" id="a">
      <stop stop-color="#A1ACB3" offset="25%"/>
      <stop stop-color="#B8C0C5" offset="65%"/>
      <stop stop-color="#D0D5D9" offset="100%"/>
    </linearGradient>
    <linearGradient x1="-.002%" y1="50%" x2="99.999%" y2="50%" id="b">
      <stop stop-color="#A1ACB3" offset="16.48%"/>
      <stop stop-color="#A8B2B9" offset="38.87%"/>
      <stop stop-color="#BEC5CA" offset="75.45%"/>
      <stop stop-color="#D0D5D9" offset="100%"/>
    </linearGradient>
    <linearGradient x1="28.533%" y1="-16.243%" x2="84.07%" y2="80.566%" id="c">
      <stop stop-color="#B71F36" offset="0%"/>
      <stop stop-color="#B11F35" offset="16%"/>
      <stop stop-color="#A11D31" offset="39.37%"/>
      <stop stop-color="#87182A" offset="67.26%"/>
      <stop stop-color="#660E1F" offset="98.42%"/>
      <stop stop-color="#640E1F" offset="100%"/>
    </linearGradient>
    <linearGradient x1="129.92%" y1="28.149%" x2="-30.35%" y2="72.054%" id="d">
      <stop stop-color="#991A30" offset="10%"/>
      <stop stop-color="#C31F3F" offset="90%"/>
    </linearGradient>
  </defs>
  <g fill-rule="nonzero" fill="none">
    <path d="M82.369 18.627c-.649.313-1.478.491-2.324.491-1.677 0-3.121-1.141-3.121-2.898 0-1.902 1.23-3.046 2.907-3.046.877 0 1.677.13 2.458.585V10.7c-.868-.387-1.867-.564-2.99-.564-3.795 0-6.621 2.203-6.621 6.02 0 3.792 2.826 5.998 6.621 5.998 1 0 2.117-.161 3.07-.454v-3.072zM110.366 17.3c.24 1.31 1.122 2.098 3.037 2.098.983 0 2.333-.2 3.468-.72v2.745c-1.265.51-2.698.73-4.165.73-3.749 0-6.471-2.23-6.471-6.022 0-3.793 2.285-5.996 5.813-5.996 4.208 0 5.651 3.019 5.651 6.436v.729h-7.333zm3.584-2.25c0-1.318-.559-2.31-1.902-2.31-1.214 0-1.696.992-1.767 2.31h3.669zM122.926 17.3c.242 1.31 1.125 2.098 3.041 2.098.979 0 2.328-.2 3.462-.72v2.745c-1.26.51-2.702.73-4.162.73-3.748 0-6.47-2.23-6.47-6.022 0-3.793 2.283-5.996 5.815-5.996 4.2 0 5.65 3.019 5.65 6.436v.729h-7.336zm3.582-2.25c0-1.318-.55-2.31-1.896-2.31-1.214 0-1.696.992-1.77 2.31h3.666zM72.118 21.889L69.876 5.164h-5.179l-2.476 11.26-2.295-11.26h-5.202l-2.43 16.725h4.047l1.34-10.476 2.28 10.476h4.37l2.494-10.476 1.27 10.476zM103.67 9.638c0-1.225.331-2 1.47-2.14.49-.062.98.002 1.286.058V4.63c-.483-.088-1.09-.194-1.842-.194-3.28 0-4.952 1.483-4.952 5.203v.772h-1.976v3.021h1.976v8.458h4.039v-8.457h2.446V10.41h-2.446v-.772zM98.602 21.889h-4.475l-.846-3.55h-4.916l-.91 3.55h-4.279L88.11 5.164h5.623l4.869 16.725zm-9.416-6.76h3.326l-1.606-6.712-1.72 6.712zM61.307 30.666a8.181 8.181 0 0 0-3.212-.678c-1.088 0-2.49.474-2.49 2.193 0 2.74 6.923 1.583 6.923 6.879 0 3.46-2.737 4.773-5.927 4.773-1.719 0-2.487-.227-4.049-.61l.293-2.85c1.088.588 2.331.972 3.575.972 1.199 0 2.806-.611 2.806-2.036 0-3.008-6.923-1.765-6.923-6.991 0-3.53 2.736-4.818 5.52-4.818 1.356 0 2.625.18 3.779.565l-.295 2.601zM65.25 27.77h9.321v2.488h-6.153v3.892h5.634v2.488h-5.634v4.434h6.2v2.489H65.25V27.77zM88.93 43.336c-1.152.27-2.398.497-3.595.497-5.115 0-8.667-2.557-8.667-7.896 0-5.407 3.302-8.437 8.667-8.437 1.038 0 2.418.202 3.573.654l-.227 2.671c-1.199-.678-2.285-.837-3.417-.837-3.256 0-5.294 2.488-5.294 5.723 0 3.213 1.994 5.634 5.365 5.634 1.242 0 2.712-.273 3.46-.659l.136 2.65zM91.069 27.77h3.167v9.117c0 2.694.86 4.458 3.28 4.458 2.421 0 3.28-1.764 3.28-4.458V27.77h3.167v10.09c0 4.233-2.399 5.973-6.447 5.973-4.049 0-6.447-1.74-6.447-5.973V27.77zM107.02 27.77h3.414c3.393 0 7.447-.112 7.447 4.275 0 1.855-1.245 3.394-3.256 3.666v.046c.86.067 1.357.927 1.671 1.628l2.535 6.176h-3.525l-1.913-4.932c-.451-1.176-.854-1.63-2.19-1.63h-1.018v6.562h-3.166v-15.79zm3.52 6.741h1.041c1.56 0 3.355-.226 3.355-2.194 0-1.901-1.773-2.06-3.355-2.06h-1.04v4.254zM121.063 27.77h9.32v2.488h-6.152v3.892h5.634v2.488h-5.634v4.434h6.198v2.489h-9.365V27.77zM132.786 28.06h-.65v-.356h1.684v.356h-.648v1.755h-.386V28.06zm1.532-.355h.598l.553 1.426.542-1.426h.6v2.11h-.386v-1.613h-.01l-.594 1.614h-.315l-.593-1.614h-.01v1.614h-.385v-2.111z" fill="#000"/>
    <path d="M23.99 48.889C2.838 39.256.458 18.642.458 9.144c0-3.521.337-5.53.381-5.872.939-.276 12.007-3.1 23.151-3.1 11.146 0 22.214 2.824 23.154 3.1.043.342.38 2.35.38 5.872 0 9.498-2.38 30.112-23.534 39.745z" fill="#FFF"/>
    <path d="M23.99 48.889c21.154-9.632 23.534-30.247 23.534-39.745 0-3.521-.337-5.53-.38-5.872l-1.936 1.702c.08.8.186 2.244.182 4.17-.01 9.172-2.39 28.427-21.4 37.385v2.36z" fill="#6D7A81"/>
    <path d="M23.99 2.133c-9.784 0-19.394 2.239-21.217 2.677L.84 3.108c.939-.276 12.007-3.1 23.151-3.1 11.146 0 22.214 2.824 23.154 3.1L45.208 4.81c-1.82-.438-11.433-2.677-21.218-2.677z" fill="url(#a)" transform="translate(0 .164)"/>
    <path d="M23.99 46.366C4.983 37.406 2.602 18.152 2.59 8.98c-.002-1.926.105-3.37.184-4.17L.84 3.108C.795 3.45.459 5.458.459 8.98c0 9.498 2.38 30.112 23.532 39.744v-2.358z" fill="url(#b)" transform="translate(0 .164)"/>
    <path d="M24.024 41.826s13.679-5.737 16.28-22.658c0 0 1.193-4.556.668-11.352 0 0-10.799.882-16.016.838C19.74 8.61 7.84 8.228 7.075 7.816c0 0-3.28 23.608 16.95 34.01z" fill="url(#c)" transform="translate(0 .164)"/>
    <path d="M23.99 40.7c-2.192-.98-15.785-7.481-15.785-28.253 0-1.028.033-2.091.102-3.19L6.527 7.48a55.907 55.907 0 0 0-.114 3.592c0 22.85 14.743 30.185 17.577 31.41v-1.783z" fill="#A41D33"/>
    <path d="M23.99 10.063c-8.805 0-14.884-.716-15.683-.805L6.527 7.48c.453.048 7.44.894 17.463.894 10.025 0 17.011-.846 17.464-.894l-1.78 1.778c-.797.09-6.876.805-15.684.805z" fill="#7D1320"/>
    <path d="M23.99 40.535c2.195-.98 15.786-7.48 15.786-28.252 0-1.028-.03-2.092-.1-3.19l1.779-1.777c.078 1.238.114 2.435.114 3.592 0 22.85-14.745 30.185-17.579 31.41v-1.783z" fill="url(#d)" transform="translate(0 .164)"/>
    <path fill="#FFF" d="M20.913 11.283l5.83 18.393h-5.196l-2.252-10.269-1.574 10.27h-4.478l2.933-18.394zM32.063 11.283H27.4l-2.715 8.059 2.513 7.873 1.593-7.808 1.493 10.27h4.457z"/>
  </g>
</svg>
