<svg width="156" height="42" xmlns="http://www.w3.org/2000/svg">
  <g fill-rule="nonzero" fill="none">
    <path d="M20.956.654C9.726.654.62 9.76.62 20.99a20.3 20.3 0 0 0 1.036 6.424h6.082v-17.11l13.22 13.218 13.218-13.219v17.111h6.083a20.3 20.3 0 0 0 1.036-6.424C41.294 9.76 32.186.654 20.956.654" fill="#F60"/>
    <path d="M12.148 20.792v10.767h-8.57c3.57 5.857 10.018 9.768 17.378 9.768 7.36 0 13.808-3.911 17.377-9.768h-8.569V20.792l-8.808 8.809-8.808-8.809zM150.687 26.78c-1.075 1.107-2.379 1.659-3.912 1.659a5.528 5.528 0 0 1-3.6-1.281c-1.348-1.09-2.02-2.576-2.02-4.455 0-1.683.535-3.073 1.607-4.164 1.067-1.095 2.386-1.64 3.959-1.64 1.552 0 2.872.56 3.955 1.679 1.087 1.119 1.63 2.486 1.63 4.105 0 1.623-.539 2.986-1.619 4.097m2.258-10.436c-1.726-1.737-3.79-2.607-6.193-2.607a8.695 8.695 0 0 0-4.435 1.193 8.681 8.681 0 0 0-3.239 3.238c-.784 1.363-1.178 2.857-1.178 4.48 0 2.422.843 4.514 2.53 6.276 1.685 1.764 3.801 2.643 6.345 2.643 2.431 0 4.5-.855 6.205-2.573 1.706-1.714 2.557-3.813 2.557-6.291 0-2.498-.863-4.617-2.592-6.36M131.729 20.282c-.41.285-.603.426-1.687.426h-4.263V17.06h4.131c.828 0 .975.062 1.314.19.339.124.608.331.81.616.203.286.302.624.302 1.013 0 .654-.202 1.12-.607 1.402zm.512 3.358c1.13-.406 1.977-1.001 2.539-1.786.563-.79.84-1.767.84-2.94 0-1.113-.252-2.08-.761-2.895s-1.183-1.398-2.018-1.75c-.835-.351-2.237-.529-4.21-.529h-6.243v17.823h3.391v-7.547h2.96l4.011 7.547h3.71l-4.219-7.923zM107.188 13.737h11.555v3.32h-8.185v3.648h8.185v3.262h-8.185v4.259h8.185v3.333h-11.555zM89.284 13.737h3.246l7.646 11.727V13.737h3.391v17.822h-3.259l-7.633-11.69v11.69h-3.391V13.737zM81.769 26.78c-1.075 1.107-2.38 1.659-3.912 1.659a5.528 5.528 0 0 1-3.6-1.281c-1.348-1.09-2.02-2.576-2.02-4.455 0-1.683.535-3.073 1.606-4.164 1.068-1.095 2.387-1.64 3.96-1.64 1.552 0 2.871.56 3.954 1.679 1.088 1.119 1.631 2.486 1.631 4.105 0 1.623-.539 2.986-1.62 4.097m2.259-10.436c-1.726-1.737-3.79-2.607-6.193-2.607a8.695 8.695 0 0 0-4.436 1.193 8.681 8.681 0 0 0-3.238 3.238c-.785 1.363-1.178 2.857-1.178 4.48 0 2.422.843 4.514 2.53 6.276 1.685 1.764 3.8 2.643 6.345 2.643 2.43 0 4.5-.855 6.205-2.573 1.706-1.714 2.557-3.813 2.557-6.291 0-2.498-.863-4.617-2.592-6.36M49.827 13.736h3.32l4.118 12.431 4.181-12.43h3.271l3.003 17.822H64.45l-1.915-11.256-3.792 11.256h-2.99L52.01 20.303l-1.952 11.256H46.75z" fill="#4C4C4C"/>
  </g>
</svg>
