<svg width="112" height="33" xmlns="http://www.w3.org/2000/svg">
  <g fill="none" fill-rule="evenodd">
    <path d="M15.372 9.572v13.475H11.68V12.72c0-2.056-.278-3.49-.829-4.308-.55-.81-1.512-1.219-2.885-1.219a4.32 4.32 0 0 0-2.107.524c-.638.35-1.368.968-2.19 1.856v13.475H0V4.49h3.67V6.93C5.542 5.06 7.37 4.126 9.16 4.126c2.352 0 4.174 1.115 5.467 3.349 1.962-2.259 4.014-3.39 6.15-3.39 1.805 0 3.288.658 4.449 1.978 1.164 1.317 1.747 3.328 1.747 6.032v10.952h-3.673V12.054c0-1.547-.317-2.73-.948-3.551-.63-.82-1.54-1.23-2.724-1.23-1.52 0-2.938.766-4.255 2.3M41.541 4.489h4.12l-13.15 28.02h-4.099l6.3-13.446L27.546 4.49h4.184l5.013 10.482z" fill="#58585B"/>
    <path d="M53.781 7.676c-.996 0-1.843.335-2.54 1.008-.7.672-1.05 1.48-1.05 2.421 0 .955.343 1.744 1.029 2.371.686.624 1.554.939 2.603.939 1.035 0 1.898-.32 2.59-.96.694-.638 1.04-1.434 1.04-2.389 0-.968-.35-1.776-1.048-2.421-.7-.645-1.575-.969-2.624-.969m-.867 16.239c-1.237 0-2.25.261-3.037.787-.785.523-1.18 1.196-1.18 2.017 0 1.91 1.722 2.865 5.165 2.865 1.627 0 2.887-.241 3.782-.719.895-.477 1.343-1.152 1.343-2.024 0-.86-.567-1.565-1.696-2.107-1.13-.549-2.59-.82-4.377-.82m-6.032-13.01c0-1.977.723-3.542 2.169-4.69 1.446-1.152 3.42-1.726 5.921-1.726h7.646v2.864h-3.753c.725.742 1.23 1.414 1.513 2.018.282.606.424 1.299.424 2.08 0 .966-.277 1.918-.828 2.852-.551.937-1.26 1.65-2.128 2.149-.868.498-2.29.895-4.267 1.19-1.384.203-2.077.68-2.077 1.433 0 .43.26.785.776 1.06.519.276 1.455.56 2.814.857 2.274.498 3.736.885 4.388 1.17a5.66 5.66 0 0 1 1.765 1.21c.888.888 1.331 2.003 1.331 3.348 0 1.76-.782 3.168-2.35 4.217-1.567 1.049-3.66 1.572-6.284 1.572-2.649 0-4.763-.528-6.344-1.584-1.58-1.056-2.37-2.47-2.37-4.246 0-2.513 1.553-4.134 4.66-4.861-1.237-.794-1.856-1.58-1.856-2.36 0-.592.266-1.129.796-1.613.533-.484 1.249-.843 2.149-1.07-2.73-1.21-4.095-3.167-4.095-5.87M73.097 19.376V13.87l-2.46.948c-1.252.496-2.135.998-2.654 1.501-.519.507-.776 1.134-.776 1.887 0 .766.246 1.393.735 1.877.49.485 1.127.726 1.907.726 1.17 0 2.252-.478 3.248-1.433m3.61-7.484v7.888c0 .631.216.948.645.948.445 0 1.138-.33 2.08-.989v2.24c-.836.537-1.504.904-2.009 1.1a4.386 4.386 0 0 1-1.584.291c-1.572 0-2.501-.617-2.784-1.855-1.558 1.21-3.22 1.816-4.98 1.816-1.292 0-2.369-.427-3.23-1.283-.86-.852-1.29-1.926-1.29-3.216 0-1.17.42-2.215 1.26-3.137.84-.92 2.034-1.65 3.581-2.19l4.7-1.613v-.987c0-2.233-1.115-3.349-3.348-3.349-2.004 0-3.955 1.035-5.85 3.105V6.647c1.425-1.68 3.477-2.522 6.153-2.522 2.004 0 3.61.525 4.82 1.574.404.338.766.785 1.09 1.34.324.56.528 1.118.615 1.676.087.56.131 1.618.131 3.177M79.663 7.434l6.9-6.778V4.49h5.868v3.308h-5.869v9.082c0 2.123.881 3.183 2.642 3.183 1.317 0 2.71-.436 4.177-1.31v3.429c-1.414.794-2.954 1.189-4.62 1.189-1.682 0-3.08-.492-4.196-1.472a4.14 4.14 0 0 1-.867-.998c-.23-.37-.42-.854-.576-1.453-.154-.597-.232-1.737-.232-3.42v-8.23h-3.227v-.363zM98.455 11.892h9.339c-.094-1.466-.53-2.596-1.31-3.39-.781-.792-1.83-1.189-3.147-1.189-1.318 0-2.397.397-3.239 1.19-.84.793-1.389 1.923-1.643 3.39zm12.97 2.199h-13.05c.093 1.774.688 3.188 1.785 4.237 1.095 1.049 2.511 1.572 4.246 1.572 2.42 0 4.652-.753 6.698-2.258v3.59c-1.13.752-2.25 1.291-3.36 1.613-1.11.323-2.41.484-3.902.484-2.046 0-3.7-.422-4.963-1.27-1.264-.846-2.277-1.99-3.036-3.419-.76-1.434-1.14-3.09-1.14-4.974 0-2.823.8-5.118 2.4-6.888 1.6-1.767 3.679-2.653 6.234-2.653 2.46 0 4.425.86 5.889 2.582 1.467 1.722 2.199 4.028 2.199 6.92v.464z" fill="#EC1D24"/>
  </g>
</svg>
