<svg width="126" height="53" xmlns="http://www.w3.org/2000/svg">
  <g fill="none" fill-rule="evenodd">
    <path d="M74.9 28.925h-4.878v-1.636H74.1v-1.827h-4.078V23.9H74.9v-1.827h-7.277v8.68H74.9v-1.828zm1.76 1.828h4.478c3.038 0 4.518-1.295 4.518-4.34 0-3.121-1.52-4.34-4.518-4.34H76.66v8.68zm2.4-1.828V23.9h1.878c1.16 0 2.079.535 2.079 2.514 0 1.978-.919 2.51-2.08 2.51H79.06zm15.872-4.529c0-1.637-1.04-2.323-3.118-2.323h-4.919v8.68h5.12c2.158 0 3.198-.61 3.198-2.36 0-1.486-.879-2.055-1.96-2.208.96-.114 1.68-.8 1.68-1.789zm-5.637-.496h2c.838 0 .998.343.998.8s-.16.762-.998.762h-2V23.9zm2.279 3.389c.76 0 1 .38 1 .836 0 .459-.16.8-1 .8h-2.279v-1.636h2.279zm-28.109-5.216v5.255l-3.64-5.255h-2.878v8.68h2.4v-5.216l3.637 5.216h2.88v-8.68h-2.399zm62.137 0h-3.039l-3.078 3.503v-3.503h-2.4v8.68h2.4v-3.96l3.277 3.96h3.08l-3.84-4.645 3.6-4.035zm-26.71 0l-3.4 8.68h2.4l.68-1.714h3.878l.68 1.714h2.52l-3.44-8.68h-3.318zm1.558 2.21h.121l1.2 3.006h-2.52l1.2-3.007zm12.477-2.21v5.255l-3.639-5.255h-2.88v8.68h2.4v-5.216l3.639 5.216h2.878v-8.68h-2.398z" fill="#00643C"/>
    <path fill="#FFF" d="M14.336.11L.4 9.474v33.501l13.938 9.337 11.687-7.867 11.748 7.866 13.931-9.337V9.446L37.772.114 26.024 7.976z"/>
    <path d="M14.548 33.846l9.325 6.41-9.325 6.412V33.846zm34.97-23.314L37.861 2.664l-11.657 7.868-11.656-7.868L2.6 10.532v31.182l11.948 7.868 11.656-7.868 11.657 7.868 11.657-7.868V10.532zM37.861 21.315V5.578l9.035 6.12v28.268L4.93 11.989l9.617-6.41L37.86 21.314z" fill="#00643C"/>
  </g>
</svg>
