<svg width="123" height="66" xmlns="http://www.w3.org/2000/svg">
  <g fill="none" fill-rule="evenodd">
    <path d="M22.77 10.096c-10.442 0-18.938 8.496-18.938 18.94 0 10.442 8.496 18.938 18.938 18.938h78.94c10.441 0 18.938-8.496 18.938-18.939s-8.497-18.939-18.939-18.939H22.77z" fill="#FEFEFE"/>
    <path d="M22.77 10.096c-10.442 0-18.938 8.496-18.938 18.94 0 10.442 8.496 18.938 18.938 18.938h78.94c10.441 0 18.938-8.496 18.938-18.939s-8.497-18.939-18.939-18.939H22.77zm78.94 39.492H22.77c-11.332 0-20.551-9.22-20.551-20.553 0-11.332 9.22-20.552 20.551-20.552h78.94c11.332 0 20.551 9.22 20.551 20.552 0 11.332-9.22 20.553-20.552 20.553z" fill="#C6C7C9"/>
    <path d="M92.24 25.931a2.847 2.847 0 1 1 0-5.694 2.847 2.847 0 0 1 0 5.694m0-8.397a5.55 5.55 0 1 0 .003 11.101 5.55 5.55 0 0 0-.003-11.101M66.787 25.931a2.846 2.846 0 1 1 .002-5.693 2.846 2.846 0 0 1-.002 5.693m0-8.397a5.55 5.55 0 1 0 .003 11.1 5.55 5.55 0 0 0-.003-11.1" fill="#231F20"/>
    <path d="M86.334 26.087c-.351.102-.888.202-1.092.202-.949 0-1.156-.327-1.156-1.235v-5.127h2.27v-2.142h-2.27v-3.03h-2.553l-.536 3.03h-1.779v.001h-.144c-1.455.007-2.552.894-3.255 2.284l-.888-2.285H73.1v10.649h3.128V23.8c0-2.335 1.38-3.827 3.015-3.873h1.712v5.294c0 2.492 1.277 3.419 3.357 3.419a7.497 7.497 0 0 0 2.39-.39l-.37-2.163zM101.581 21.154v7.28H98.54v-10.65h1.846l.618 1.627" fill="#231F20"/>
    <path d="M100.99 19.421c.926-1.073 2.19-1.885 3.673-1.885 2.535 0 3.577 2.02 3.577 3.894v7.004h-3.132V21.52c0-.913-.76-1.409-1.584-1.409-.878 0-1.442.503-1.937 1.04M49.033 13.93h3.487l4.788 9.12v-9.12h2.888v14.506h-3.16l-5.114-10.028v10.028h-2.889z" fill="#231F20"/>
    <path fill="#A6A8AB" d="M117.48 8.483v.52h-.76v2.555h-.592V9.003h-.746v-.52zM117.906 11.558V8.484h.803l.533 2.013.542-2.013h.81v3.074h-.489V9.153h-.013l-.622 2.405h-.434l-.627-2.405h-.014v2.405zM48.163 41.29l.724-1.126a4.31 4.31 0 0 0 2.546.838c1.046 0 1.692-.474 1.692-1.297 0-.946-.816-1.197-2.157-1.663-1.202-.423-2.384-1.03-2.384-2.732 0-1.596 1.258-2.466 2.951-2.466 1.126 0 1.955.222 2.623.616l-.579 1.197a4.318 4.318 0 0 0-2.016-.489c-.944 0-1.51.356-1.51 1.104 0 .879.656 1.102 1.89 1.508 1.286.417 2.701 1.011 2.701 2.898 0 1.597-1.141 2.65-3.189 2.65-1.519 0-2.635-.525-3.292-1.038M57.39 32.99h5.482v1.274H58.95v2.516h3.097v1.246H58.95v2.908h4.16v1.272h-5.72zM65.341 37.606c0-2.69 1.288-4.76 3.859-4.76 1.15 0 2.06.365 2.701 1.111l-.91 1.053c-.55-.539-1.016-.803-1.766-.803-1.509 0-2.206 1.235-2.206 3.516 0 2.141.736 3.226 2.22 3.226.824 0 1.403-.433 1.91-.97l.92 1.023c-.669.789-1.505 1.325-2.844 1.325-2.65 0-3.884-2.02-3.884-4.721M74.61 38.679v-5.69h1.571v5.944c0 1.267.314 2.096 1.651 2.096 1.325 0 1.654-.83 1.654-2.096V32.99h1.587v5.689c0 2.284-.879 3.648-3.253 3.648-2.335 0-3.21-1.364-3.21-3.648M87.15 37.095c1.17 0 1.77-.38 1.77-1.445 0-1.023-.612-1.388-1.677-1.388H85.76v2.833h1.39zm3.542 5.113h-1.705l-1.77-3.91h-1.456v3.91h-1.56V32.99h3.006c1.862 0 3.315.667 3.315 2.687 0 1.378-.826 2.07-1.746 2.399l1.916 4.132zM93.361 32.99h5.482v1.274H94.92v2.516h3.093v1.246H94.92v2.908h4.158v1.272H93.36zM103.924 40.934c2.151 0 2.887-.993 2.887-3.37 0-2.084-.577-3.302-2.693-3.302h-.838v6.672h.644zm-2.211-7.944h2.301c3.005 0 4.449 1.626 4.449 4.575 0 3.004-1.47 4.643-4.37 4.643h-2.38V32.99z"/>
    <path d="M22.676 13.875a15.074 15.074 0 0 0-10.721 4.441 15.066 15.066 0 0 0-4.44 10.72c0 4.046 1.577 7.853 4.44 10.72a15.081 15.081 0 0 0 10.72 4.44 15.082 15.082 0 0 0 10.722-4.443 15.085 15.085 0 0 0 4.438-10.718 15.087 15.087 0 0 0-4.44-10.72 15.078 15.078 0 0 0-10.72-4.44m0 37.336C10.45 51.21.5 41.26.5 29.035.5 16.81 10.45 6.861 22.676 6.861c12.225 0 22.172 9.948 22.174 22.174-.002 12.226-9.95 22.176-22.174 22.176M46.831 5.175h1.729v-1.73H46.83zM46.831 1.733h1.729V0H46.83zM41.966 6.85h1.615V5.163h-1.615z" fill="#FEC10E"/>
    <path fill="#231F20" d="M38.765 10.092h1.629V8.478h-1.629zM43.58 8.478h1.811V6.85h-1.81zM37.144 8.478h1.621V6.93h-1.621zM41.966 10.092h1.615V8.478h-1.615zM45.12 3.446h1.71V1.732h-1.71zM41.966 5.162h3.154V3.446h-3.154zM40.394 8.478h1.572V5.163h-1.572zM40.394 10.092v1.627h-1.629v-1.627h-2.701v1.172h-1.448v1.446h1.617v1.612h-1.617V12.71h-1.719v2.528h-1.625v1.613h-1.078v1.62h-1.186c-1.331 1.98-4.67 8.156-5.678 10.67-3.639-5.063-6.463-7.07-8.687-7.795-1.2-.361-2.645.946-.653 3.002 4.577 5.033 6.018 9.2 7.41 12.525.736 1.753 4.035 2.026 4.698.24 1.408-3.772 3.45-8.011 5.87-11.493v-1.804h1.29v-1.627h1.358v-1.885h1.622v-1.818h-1.64v-1.652h1.64v1.652h1.604l-.003-1.635h1.286v-1.974h1.448V13.52h1.393v-3.427h-1.572z"/>
    <path d="M13.356 61.47v-.019c0-1.023-.692-1.695-1.515-1.695s-1.546.682-1.546 1.695v.02c0 1.023.723 1.697 1.546 1.697.832 0 1.515-.653 1.515-1.697zm-4.244-2.658h1.214v.884c.391-.552.943-.994 1.796-.994 1.254 0 2.468.994 2.468 2.75v.019c0 1.756-1.204 2.749-2.468 2.749-.873 0-1.425-.441-1.796-.933v2.43H9.112v-6.905zM20.015 61.491v-.02c0-.933-.673-1.705-1.626-1.705-.974 0-1.595.762-1.595 1.685v.02c0 .923.672 1.706 1.615 1.706.983 0 1.606-.772 1.606-1.686m-4.436 0v-.02c0-1.514 1.205-2.77 2.83-2.77s2.82 1.235 2.82 2.75v.02c0 1.506-1.204 2.76-2.84 2.76-1.616 0-2.81-1.234-2.81-2.74M21.814 58.812h1.245l1.063 3.634 1.174-3.653h1.034l1.183 3.653 1.084-3.634h1.214l-1.735 5.339H26.99l-1.183-3.623-1.195 3.623h-1.082zM34.358 61.09c-.08-.782-.542-1.394-1.345-1.394-.742 0-1.263.572-1.374 1.394h2.719zm-3.924.392v-.02c0-1.516 1.075-2.76 2.59-2.76 1.685 0 2.538 1.324 2.538 2.85 0 .11-.01.22-.02.341H31.65c.13.862.742 1.344 1.525 1.344.592 0 1.014-.22 1.435-.631l.712.631c-.502.602-1.194.994-2.167.994-1.535 0-2.72-1.115-2.72-2.75zM36.826 58.812h1.215v1.194c.33-.792.942-1.333 1.875-1.294v1.284h-.07c-1.063 0-1.805.693-1.805 2.098v2.017h-1.215v-5.299zM44.545 61.09c-.08-.782-.542-1.394-1.345-1.394-.743 0-1.264.572-1.373 1.394h2.718zm-3.924.392v-.02c0-1.516 1.075-2.76 2.59-2.76 1.685 0 2.538 1.324 2.538 2.85 0 .11-.01.22-.02.341h-3.893c.13.862.742 1.344 1.525 1.344.592 0 1.014-.22 1.435-.631l.712.631c-.502.602-1.194.994-2.167.994-1.535 0-2.72-1.115-2.72-2.75zM51.019 61.47v-.019c0-1.023-.723-1.695-1.536-1.695-.832 0-1.524.642-1.524 1.695v.02c0 1.023.702 1.697 1.524 1.697.813 0 1.536-.683 1.536-1.697m-4.285 0v-.02c0-1.755 1.194-2.749 2.458-2.749.873 0 1.425.442 1.806.933v-2.85h1.215v7.326h-1.215v-.884c-.391.552-.943.993-1.806.993-1.244 0-2.458-.993-2.458-2.75M60.978 61.47v-.019c0-1.023-.693-1.695-1.515-1.695-.824 0-1.546.682-1.546 1.695v.02c0 1.023.722 1.697 1.546 1.697.832 0 1.515-.653 1.515-1.697m-3.03 1.816v.824h-1.215v-7.326h1.214v2.911c.391-.552.943-.994 1.796-.994 1.254 0 2.469.994 2.469 2.75v.019c0 1.756-1.205 2.749-2.469 2.749-.872 0-1.424-.441-1.796-.933M63.039 65.424l.41-.902c.221.12.462.2.713.2.342 0 .552-.15.752-.611l-2.207-5.299h1.294l1.506 3.933 1.374-3.933h1.264l-2.107 5.449c-.42 1.083-.893 1.485-1.746 1.485-.51 0-.882-.12-1.253-.322" fill="#A6A8AB"/>
    <path fill="#A30046" d="M71.733 57.087h1.364l2.118 5.398 2.106-5.398h1.335l-2.92 7.073h-1.082zM82.828 61.09c-.08-.782-.542-1.394-1.344-1.394-.743 0-1.264.572-1.375 1.394h2.719zm-3.923.392v-.02c0-1.516 1.074-2.76 2.59-2.76 1.685 0 2.537 1.324 2.537 2.85 0 .11-.01.22-.02.341H80.12c.131.862.743 1.344 1.525 1.344.593 0 1.014-.22 1.435-.631l.713.631c-.503.602-1.194.994-2.168.994-1.535 0-2.72-1.115-2.72-2.75zM85.297 58.812h1.214v1.194c.33-.792.943-1.333 1.877-1.294v1.284h-.07c-1.065 0-1.807.693-1.807 2.098v2.017h-1.214v-5.299zM89.43 64.11h1.214v-5.298H89.43v5.298zM89.38 58h1.304v-1.153H89.38V58zM91.903 63.088l.743-.884c.673.582 1.345.912 2.217.912.764 0 1.245-.35 1.245-.882v-.02c0-.501-.281-.773-1.585-1.073-1.495-.361-2.338-.802-2.338-2.097v-.021c0-1.204 1.002-2.037 2.398-2.037 1.023 0 1.836.311 2.548.884l-.662.932c-.632-.472-1.265-.722-1.907-.722-.722 0-1.143.371-1.143.833v.02c0 .542.32.783 1.666 1.104 1.485.361 2.257.892 2.257 2.057v.019c0 1.315-1.034 2.097-2.51 2.097a4.33 4.33 0 0 1-2.929-1.122M98.731 64.11h1.214v-5.298H98.73v5.298zM98.681 58h1.304v-1.153h-1.304V58zM105.496 61.21v-.02c0-.872-.712-1.465-1.556-1.465-.842 0-1.504.582-1.504 1.456v.02c0 .873.672 1.464 1.504 1.464.844 0 1.556-.601 1.556-1.455m-4.023 3.894l.451-.913c.562.35 1.165.561 1.887.561 1.084 0 1.675-.56 1.675-1.625v-.41c-.441.57-.993.972-1.866.972-1.244 0-2.408-.923-2.408-2.479v-.02c0-1.565 1.174-2.488 2.408-2.488.893 0 1.445.412 1.856.903v-.793h1.214v4.214c0 .894-.23 1.555-.672 1.997-.482.482-1.224.713-2.177.713-.873 0-1.686-.22-2.368-.632M108.25 58.812h1.214v.823c.342-.5.832-.933 1.655-.933 1.195 0 1.887.803 1.887 2.036v3.373h-1.215V61.1c0-.823-.41-1.294-1.133-1.294-.703 0-1.194.492-1.194 1.314v2.99h-1.214v-5.298z"/>
  </g>
</svg>
