<svg width="165" height="57" xmlns="http://www.w3.org/2000/svg">
  <defs>
    <radialGradient cx="37.784%" cy="41.06%" fx="37.784%" fy="41.06%" r="105.865%" gradientTransform="matrix(0 .9446 -1 0 .788 .054)" id="a">
      <stop stop-color="#CFD0D2" offset="0%"/>
      <stop stop-color="#656668" offset="100%"/>
    </radialGradient>
    <radialGradient cx="27.838%" cy="55.11%" fx="27.838%" fy="55.11%" r="74.939%" gradientTransform="matrix(0 .99669 -1 0 .83 .274)" id="b">
      <stop stop-color="#1EA8E8" offset="0%"/>
      <stop stop-color="#0053A9" offset="100%"/>
    </radialGradient>
  </defs>
  <g fill="none" fill-rule="evenodd">
    <path d="M164.738 24.016c0 2.169-.678 4.203-2.168 5.692-1.491 1.627-3.388 2.304-5.557 2.304-1.084 0-2.304-.135-3.524-.54v7.588h-2.982V15.615l2.304 1.084a13.625 13.625 0 0 1 4.202-.679c2.304 0 4.202.814 5.557 2.304 1.49 1.49 2.168 3.388 2.168 5.692m-2.982.136c0-1.084-.27-2.169-.813-3.117-.677-.812-1.356-1.491-2.303-1.897a5.602 5.602 0 0 0-2.169-.407c-1.084 0-2.033.135-2.982.542v9.216a6.297 6.297 0 0 0 3.118.814c1.49 0 2.71-.408 3.659-1.356.949-.948 1.49-2.304 1.49-3.795M136.819 24.016c0 2.304-.814 4.203-2.303 5.828-1.491 1.49-3.389 2.168-5.694 2.168-2.303 0-4.201-.677-5.826-2.304-1.492-1.49-2.304-3.388-2.304-5.692 0-2.304.812-4.201 2.304-5.692 1.625-1.49 3.523-2.304 5.826-2.304 2.305 0 4.203.814 5.694 2.304 1.49 1.49 2.303 3.388 2.303 5.692m-2.982 0c0-1.49-.541-2.71-1.49-3.793-.95-1.085-2.17-1.492-3.525-1.492-1.49 0-2.71.407-3.658 1.492-.949 1.084-1.356 2.304-1.356 3.793 0 1.491.407 2.847 1.356 3.795.949 1.084 2.169 1.626 3.658 1.626 1.356 0 2.575-.542 3.524-1.626.95-1.084 1.49-2.304 1.49-3.795M149.017 16.97l-1.49 2.574a3.688 3.688 0 0 0-2.305-.812c-1.627 0-2.712.676-3.388 2.031v10.978h-2.982V16.02l2.169 1.355h.135c1.219-1.084 2.574-1.49 4.202-1.49 1.49 0 2.71.27 3.659 1.085M120.149 30.657c-1.898.95-3.794 1.355-5.828 1.355-2.44 0-4.337-.676-5.962-2.168-1.492-1.491-2.304-3.253-2.304-5.692 0-1.761.54-3.253 1.355-4.608.812-1.356 2.033-2.304 3.658-2.98.949-.409 2.033-.544 3.119-.544 1.625 0 3.522.406 5.556 1.355l-1.085 2.44c-1.898-.812-3.253-1.085-4.337-1.085-1.626 0-2.846.543-3.795 1.492-.813 1.085-1.355 2.304-1.355 3.93 0 1.627.542 2.847 1.492 3.796.812.947 2.168 1.355 3.793 1.355 1.085 0 2.576-.271 4.473-.95M105.783 16.834L98.6 31.335c-1.084 2.44-2.575 4.065-4.337 5.15-1.084.678-2.168 1.084-3.388 1.22L89.79 35.4c1.897-.405 3.523-1.22 4.608-2.575.677-.676 1.355-1.897 2.168-3.522.271-.407.407-.68.407-.815l-6.1-11.654 2.44-1.355 5.15 9.893 4.88-9.893M89.79 32.284l-2.44-.813c-1.626.27-3.116.542-4.607.542-1.22 0-2.304-.542-3.253-1.491-.949-1.085-1.355-2.168-1.355-3.388 0-2.033.95-3.524 2.71-4.474 1.356-.676 3.389-.947 5.964-.947v-1.085c0-1.49-.814-2.304-2.44-2.304-1.762 0-3.253.542-4.608 1.491l-1.22-2.304c1.763-1.084 3.795-1.627 6.236-1.627 2.032 0 3.522.814 4.472 2.17.27.541.541 1.355.541 2.168v12.062zm-2.981-8.132c-3.795-.135-5.693.949-5.693 2.982 0 .677.136 1.22.543 1.626.406.542.948.677 1.626.677.813 0 1.762 0 2.846-.27.271-.136.542-.136.678-.271v-4.744zM76.916 15.207c0 2.847-1.356 4.744-4.067 5.828-.948.408-2.304.542-3.795.542h-3.388v10.165h-3.118V8.837h6.777c2.576 0 4.608.678 5.828 1.898 1.22 1.084 1.763 2.575 1.763 4.472m-3.119 0c0-1.762-.812-2.846-2.574-3.524a9.441 9.441 0 0 0-2.17-.27h-3.387v7.589h3.253c1.626 0 2.982-.407 3.794-1.084.679-.678 1.084-1.627 1.084-2.71M63.904 46.514l-.406 2.304h-.949l1.084-5.692v-1.354l.949-.272c0 .136 0 .272.136.677.135-.136.27-.271.677-.405.271-.136.542-.272.813-.272.544 0 1.085.272 1.491.541.271.272.407.815.407 1.491 0 .949-.271 1.762-.813 2.441-.541.676-1.22.948-2.169.948-.27 0-.406 0-.678-.136-.27 0-.406-.136-.542-.271zm.136-.678c.135 0 .27.137.406.272h.543c.677 0 1.22-.135 1.626-.678.271-.406.542-1.085.542-1.762 0-.542-.135-.812-.405-1.083-.137-.137-.544-.272-.95-.272-.136 0-.407.135-.678.272-.27.135-.406.27-.542.405l-.542 2.846zm9.488-3.93l-.543 3.118c-.136.136-.136.27-.136.406 0 .543.136.948.271 1.355h-.948c0-.136-.136-.271-.136-.541-.135.27-.406.405-.678.541-.406.136-.677.136-1.084.136-.542 0-.948-.136-1.22-.407a2.286 2.286 0 0 1-.406-1.354c0-.95.27-1.763.813-2.575.679-.679 1.355-1.085 2.304-1.085.813 0 1.49.136 1.763.406zm-.95.542c-.135-.135-.406-.135-.948-.135-.543 0-.95.272-1.356.813a3.33 3.33 0 0 0-.677 2.034c0 .676.406.948.948.948.407 0 .678-.135.949-.407.271-.407.542-.812.678-1.356l.406-1.897zm1.22 6.37v-.949c.678 0 1.084 0 1.355-.27.271-.135.407-.406.542-.814-.406 0-.813-.407-.948-1.355l-.678-3.794h1.084l.542 3.794c.136.27.271.543.407.543l2.033-4.337h.949l-2.575 5.828c-.272.405-.543.813-.95 1.084-.406.134-.948.27-1.761.27zm11.384-2.033h.95l.677-3.388v-.541c0-.815-.407-1.356-1.491-1.356-.271 0-.542.136-.813.272-.407.134-.542.27-.678.405-.27-.405-.813-.677-1.49-.677-.407 0-.678.136-.95.272-.406 0-.542.27-.677.405 0-.136-.136-.405-.136-.677l-.948.136c.135.27.135.541.135.949v.405l-.677 3.795h.948l.678-3.795.542-.542c.271-.135.407-.135.542-.135.678 0 .949.272.949.677v.136l-.678 3.659h1.084l.678-3.795c0-.134.271-.405.407-.542.27-.135.542-.135.677-.135.678 0 .95.272.95.813 0 .135 0 .27-.136.406l-.543 3.253zm3.524-2.44v.407c0 .542.136.813.407 1.084.135.137.542.272.948.272.408 0 .814-.135 1.22-.407l-.135.948c-.542.136-.949.272-1.356.272-1.355 0-2.033-.813-2.033-2.304 0-.813.272-1.627.814-2.169.542-.676 1.355-.948 2.168-.948.542 0 .949.136 1.22.406.406.135.542.542.542.95 0 .54-.271.948-.813 1.22-.407.405-1.084.54-1.762.54-.407 0-.813-.135-1.22-.27zm.136-.677c.27.136.542.136.948.136.543 0 .95 0 1.22-.136.407-.271.542-.407.542-.812 0-.408-.27-.543-.813-.543-.949 0-1.49.407-1.897 1.355zm7.454 3.117l.542-2.98c0-.273.135-.544.135-.68 0-.54-.406-.812-.948-.812-.271 0-.407 0-.678.135-.271.137-.542.272-.678.542l-.677 3.795h-.949l.678-3.93V41.637l.813-.136c.135.541.135.813.135.813.407-.541 1.085-.813 1.762-.813.949 0 1.491.541 1.491 1.49v.678l-.676 3.117h-.95zm3.524-4.472h-.678l.271-.677h.542l.271-1.084 1.084-.408-.406 1.492h1.49l-.135.677h-1.49l-.543 2.576c0 .27-.135.405-.135.54 0 .407.27.68.813.68.27 0 .542 0 .812-.136v.812c-.27.136-.812.136-1.354.136-.407 0-.678-.136-.949-.407-.136-.136-.271-.541-.271-.813v-.407l.678-2.981zm5.827 4.2l.407-.812c.135 0 .406.135.678.272.135.135.406.135.542.135.27 0 .542 0 .813-.135.135-.272.27-.408.27-.679 0-.134-.135-.27-.135-.405a1.852 1.852 0 0 0-.542-.408l-.813-.271a1.84 1.84 0 0 1-.407-.542c-.135-.136-.135-.271-.135-.542 0-.541.135-.813.542-1.22.407-.27.813-.406 1.355-.406.407 0 .95.136 1.491.406l-.406.814c-.407-.272-.678-.407-1.085-.407-.27 0-.406 0-.677.135-.135.137-.271.272-.271.542 0 .136.136.271.136.407.135.135.27.135.541.27l.678.409c.271.134.407.27.542.405.136.271.136.408.136.679 0 .54-.136.948-.543 1.218-.406.407-.948.543-1.626.543-.542 0-1.084-.136-1.49-.407zm5.557-2.168v.407c0 .542.136.813.407 1.084.27.137.542.272.948.272.407 0 .813-.135 1.22-.407l-.135.948c-.543.136-.95.272-1.356.272-1.355 0-2.033-.813-2.033-2.304 0-.813.271-1.627.813-2.169.543-.676 1.356-.948 2.169-.948.542 0 .95.136 1.355.406.271.135.407.542.407.95 0 .54-.271.948-.678 1.22-.542.405-1.084.54-1.897.54-.407 0-.813-.135-1.22-.27zm.271-.677c.136.136.542.136.813.136.542 0 .949 0 1.22-.136.407-.271.542-.407.542-.812 0-.408-.271-.543-.813-.543-.813 0-1.49.407-1.762 1.355zm7.86-1.083c-.135-.272-.406-.272-.678-.272-.405 0-.677.135-.948.407-.406.406-.542.677-.542 1.084l-.542 2.981h-.949l.814-5.149h.948l-.135.812c.542-.676 1.084-.948 1.762-.948.135 0 .27 0 .542.136l-.271.949zm2.44 4.336h-.27l-1.627-5.285h1.085l.948 3.524 2.033-3.524h1.084l-3.253 5.285zm4.88-7.319c.135 0 .27 0 .406.135.135.136.271.272.271.543 0 .136-.136.272-.271.407-.136.135-.271.135-.407.135-.27 0-.406 0-.542-.135-.135-.135-.135-.27-.135-.407 0-.271 0-.407.135-.543.136-.135.271-.135.542-.135zm-1.492 7.183l.678-4.337h-.678l.27-.812h1.628l-.949 5.149h-.949zm7.047-5.013l-.27.813c-.136-.137-.542-.272-.949-.272-.542 0-1.084.272-1.49.677-.272.542-.543 1.086-.543 1.762 0 .408.136.813.407.949.27.272.542.407.813.407.542 0 .95-.135 1.355-.407l-.135.948c-.407.136-.813.272-1.355.272-.678 0-1.221-.136-1.491-.543-.407-.405-.542-.813-.542-1.49 0-.948.27-1.762.812-2.44.543-.542 1.22-.948 2.17-.948.406 0 .812.136 1.218.272zm1.627 2.573c-.135.136-.135.272-.135.407 0 .542.135.813.406 1.084.271.137.543.272 1.085.272.27 0 .677-.135 1.084-.407v.948c-.542.136-1.084.272-1.49.272-1.356 0-2.034-.813-2.034-2.304 0-.813.271-1.627.813-2.169.678-.676 1.356-.948 2.169-.948.542 0 .948.136 1.355.406.271.135.407.542.407.95 0 .54-.271.948-.678 1.22-.542.405-1.084.54-1.897.54-.406 0-.814-.135-1.085-.27zm.136-.677c.27.136.543.136.813.136.542 0 .949 0 1.355-.136.271-.271.407-.407.407-.812 0-.408-.271-.543-.813-.543-.813 0-1.491.407-1.762 1.355zm3.795 2.846l.406-.813c.136 0 .407.135.678.272.134.135.407.135.542.135.271 0 .542 0 .813-.135.136-.272.271-.408.271-.679 0-.134-.135-.27-.135-.405a1.852 1.852 0 0 0-.542-.408l-.678-.271a1.05 1.05 0 0 1-.542-.542c-.136-.136-.136-.271-.136-.542 0-.541.136-.813.541-1.22.408-.27.815-.406 1.357-.406.406 0 .95.136 1.49.406l-.406.814c-.407-.272-.678-.407-1.084-.407-.271 0-.407 0-.678.135-.135.137-.271.272-.271.542 0 .136.136.271.136.407.135.135.27.135.542.27l.677.409c.271.134.407.27.544.405.134.271.134.408.134.679 0 .54-.134.948-.542 1.218-.407.407-.949.543-1.626.543-.543 0-1.085-.136-1.491-.407z" fill="#626365"/>
    <path d="M24.133 26.478C35.219 18.965 41.376 9.063 43.462 5.259A28.113 28.113 0 0 1 54.376 18.37c-2.438 3.265-10.77 13.374-24.44 19.287a2.263 2.263 0 0 0-1.463-.577c-1.722-2.676-3.186-5.506-4.429-8.365.165-.387.257-.812.257-1.258 0-.344-.068-.669-.168-.98zm-1.76-1.962c-3.122-8.607-4.41-16.9-4.922-21.431A27.933 27.933 0 0 1 28.402.863c4.77 0 9.258 1.195 13.19 3.297-1.746 3.28-7.593 13.137-18.418 20.873a3.16 3.16 0 0 0-.802-.517zm8.313 14.612C43.4 33.993 51.72 25.118 55.23 20.788a28.001 28.001 0 0 1 1.193 8.096c0 9.184-4.418 17.336-11.245 22.446-.206.025-.412.051-.617.072-5.794-2.503-10.37-6.548-13.985-11.31.08-.232.133-.476.133-.736 0-.078-.015-.152-.023-.228zm-14.294 4.965c7.8 5.598 17.135 9.645 27.109 8.39a27.88 27.88 0 0 1-15.1 4.423c-10.482 0-19.615-5.762-24.42-14.286 3.373.396 6.603.493 9.672.322a2.008 2.008 0 0 0 1.89 1.345c.305 0 .59-.073.849-.194zM5.193 31.105a104.835 104.835 0 0 1-4.616-5.488c.941-8.104 5.339-15.15 11.683-19.63.796 4.672 2.498 12.28 5.956 20.063-.21.427-.338.9-.338 1.407 0 .298.054.583.13.856a53.253 53.253 0 0 1-10.093 4.364 2.27 2.27 0 0 0-2.178-1.645c-.188 0-.369.03-.544.073zm-1.736 2.207c0 .186.029.365.071.539-.853.19-1.723.361-2.608.513a28.115 28.115 0 0 1-.54-5.48c0-.035.003-.069.003-.103a104.12 104.12 0 0 0 3.226 3.73c-.094.25-.152.519-.152.801zm10.005 8.552a55.31 55.31 0 0 1-9.902-.019 27.846 27.846 0 0 1-2.436-6.56 55.543 55.543 0 0 0 2.916-.464c.418.47 1.019.77 1.697.77.238 0 .463-.046.679-.114a82.944 82.944 0 0 0 7.046 6.387z" fill="#7F9ACE"/>
    <path d="M18.216 26.05c-.21.426-.337.9-.337 1.407 0 .299.054.583.13.857a53.264 53.264 0 0 1-10.093 4.362 2.273 2.273 0 0 0-2.18-1.644c-.187 0-.368.03-.543.072a103.808 103.808 0 0 1-2.38-2.738c.16-8.032 4.015-15.154 9.94-19.738.937 4.64 2.596 10.97 5.463 17.421zM15.543 40.26c-.236 0-.46.049-.67.123a84.03 84.03 0 0 1-6.97-6.395c.005-.02.012-.039.018-.058a53.022 53.022 0 0 0 10.859-4.25 3.2 3.2 0 0 0 1.667.922c1.592 2.953 3.463 5.85 5.661 8.541a53.109 53.109 0 0 1-8.775 2.227 2.006 2.006 0 0 0-1.79-1.11zm27.81 11.236c-9.452.55-18.267-3.52-25.66-8.935a52.964 52.964 0 0 0 8.837-1.948 2.273 2.273 0 0 0 1.758 1.008c4.006 4.233 8.954 7.762 15.066 9.875z" fill="url(#a)"/>
    <path d="M2.968 31.795c.213.238.422.475.641.717a2.26 2.26 0 0 0-.152.8c0 .187.029.365.071.538-.077.018-.157.033-.234.05a25.489 25.489 0 0 1-.326-2.105zm10.494 10.07a54.655 54.655 0 0 1-7.03.167 25.452 25.452 0 0 1-2.913-7.123c.172-.031.35-.056.52-.088.419.47 1.02.77 1.698.77.238 0 .463-.046.679-.114a82.944 82.944 0 0 0 7.046 6.387zm10.67-15.387c9.425-6.387 15.285-14.5 18.113-19.127A25.672 25.672 0 0 1 52.62 20.58c-3.679 4.38-11.349 12.174-22.684 17.078a2.263 2.263 0 0 0-1.463-.577c-1.722-2.676-3.186-5.506-4.429-8.365.165-.387.257-.812.257-1.258 0-.344-.068-.669-.168-.98zm6.554 12.65c10.8-4.361 18.432-11.424 22.637-16.106a25.68 25.68 0 0 1 .682 5.862c0 8.99-4.638 16.893-11.648 21.462-4.766-2.514-8.638-6.113-11.78-10.253.08-.233.132-.477.132-.737 0-.078-.015-.152-.023-.228zm-14.294 4.965c6.326 4.542 13.665 8.059 21.534 8.556a25.505 25.505 0 0 1-9.524 1.838c-8.968 0-16.854-4.614-21.427-11.594 2.298.148 4.53.169 6.678.049a2.008 2.008 0 0 0 1.89 1.345c.305 0 .59-.073.849-.194zm5.98-19.577c-2.61-7.198-3.94-14.177-4.603-18.92A25.492 25.492 0 0 1 28.402 3.28c4.336 0 8.417 1.082 11.996 2.984-2.605 4.352-8.177 12.303-17.224 18.768a3.16 3.16 0 0 0-.802-.517z" fill="url(#b)"/>
  </g>
</svg>
