<svg width="142" height="38" xmlns="http://www.w3.org/2000/svg">
  <g fill-rule="nonzero" fill="none">
    <path d="M139.463 15.676c-.836.504-1.721.92-2.642 1.24a12.507 12.507 0 0 1-3.125.78c-.456.075-.917.139-1.392.186h-.015c-4.38.376-8.122-.567-10.26-2.58-.021-.013-.034-.039-.056-.054 0 .08 0 .156-.012.242.01.897.343 1.76.94 2.43 1.736 1.992 5.075 3.08 8.956 3.14 2.585.017 4.944-.47 6.75-1.338a7.154 7.154 0 0 0 2.258-1.646c.61-.66.958-1.52.983-2.42a3.5 3.5 0 0 0-.395-1.617 8.856 8.856 0 0 1-1.99 1.637zm-7.633-2.753c-4.094.314-7.62-.451-9.812-2.198a3.81 3.81 0 0 0 .932 2.206c1.734 1.995 5.077 3.076 8.954 3.14 2.589.017 4.947-.47 6.75-1.34a7.026 7.026 0 0 0 2.26-1.646 3.734 3.734 0 0 0 .977-2.413c0-.702-.21-1.388-.6-1.97-.563.75-2.976 3.727-9.461 4.22zm.117-1.843c2.589.015 4.946-.468 6.748-1.342a7.022 7.022 0 0 0 2.264-1.646 3.544 3.544 0 0 0 .04-4.848c-1.737-1.996-5.074-3.076-8.956-3.138-2.586-.019-4.944.466-6.746 1.336a7.146 7.146 0 0 0-2.263 1.646 3.548 3.548 0 0 0-.041 4.854c1.731 1.99 5.074 3.072 8.954 3.136v.002zm-7.556-7.532c.943-1.153 3.875-2.281 7.302-2.217 2.291.015 4.347.504 5.735 1.214.581.267 1.102.65 1.53 1.124a1.33 1.33 0 0 1-.015 1.948c-.938 1.152-3.873 2.276-7.304 2.216-2.291-.017-4.345-.506-5.739-1.222a4.89 4.89 0 0 1-1.53-1.125 1.52 1.52 0 0 1-.417-.983c.025-.36.181-.7.438-.955zM35.596 13.647c-.919-1.057-2.22-1.586-3.9-1.588h-7.677l-.573 2.907h7.676a2.279 2.279 0 0 1 1.892.84c.452.586.614 1.346.44 2.065l-.109.496-.038.344H26.19a7.118 7.118 0 0 0-4.57 1.644 6.926 6.926 0 0 0-2.541 4.168l-.075.306c-.358 1.68-.084 3.07.82 4.168.905 1.099 2.2 1.647 3.882 1.644h10.047l2.723-12.915c.335-1.66.041-3.02-.88-4.079zm-4.174 14.089h-7.103a2.392 2.392 0 0 1-1.924-.84c-.472-.56-.619-1.249-.44-2.065l.076-.306a3.39 3.39 0 0 1 1.283-2.065 3.572 3.572 0 0 1 2.274-.842h7.073l-1.24 6.118zM52.86 12.059L49.61 27.697h-7.33a2.39 2.39 0 0 1-1.924-.842c-.472-.56-.617-1.248-.438-2.065l2.619-12.729h-2.935l-2.638 12.731c-.358 1.683-.077 3.073.842 4.169.92 1.095 2.22 1.644 3.9 1.646h7.378l-.229 1.068a3.634 3.634 0 0 1-1.319 2.044 3.48 3.48 0 0 1-2.238.855H35.252l-.624 2.911h10.046a6.99 6.99 0 0 0 4.513-1.682 7.22 7.22 0 0 0 2.599-4.13l4.061-19.614h-2.986z" fill="#ED1C24"/>
    <path d="M83.757 30.643H73.71c-1.683 0-2.976-.548-3.88-1.644-.903-1.096-1.177-2.485-.822-4.168l.077-.306a6.921 6.921 0 0 1 2.522-4.168 7.116 7.116 0 0 1 4.57-1.644h7.11l.038-.344.115-.496a2.443 2.443 0 0 0-.44-2.065 2.28 2.28 0 0 0-1.894-.84h-8.261l.572-2.907h8.275c1.681 0 2.98.53 3.899 1.589.917 1.058 1.21 2.412.88 4.06l-2.714 12.933zm-2.332-2.905l1.222-6.118h-7.073a3.57 3.57 0 0 0-2.274.843 3.4 3.4 0 0 0-1.283 2.064l-.074.306c-.18.815-.034 1.503.438 2.065a2.392 2.392 0 0 0 1.924.84h7.12zM103.041 25.673a5.806 5.806 0 0 1-2.565 3.786 7.614 7.614 0 0 1-4.36 1.26h-9.94l.607-2.906h9.942c1.962 0 3.084-.713 3.364-2.138l.16-.682c.306-1.425-.523-2.137-2.485-2.137h-4.472c-1.657 0-2.931-.42-3.822-1.261-1.019-.918-1.363-2.18-1.032-3.784l.154-.688a5.797 5.797 0 0 1 2.565-3.786 7.625 7.625 0 0 1 4.358-1.26h9.978l-.575 2.906h-9.982c-1.964 0-3.098.713-3.403 2.138l-.152.688c-.285 1.425.557 2.138 2.525 2.138h4.471c1.656 0 2.93.42 3.824 1.26.998.919 1.33 2.18.994 3.786l-.154.68zM116.476 30.604h-4.664c-1.683 0-2.983-.548-3.9-1.646-.915-1.097-1.196-2.486-.841-4.168l2.064-9.978h-1.831l.64-2.992h1.837l1.377-6.652h2.992l-1.376 6.652h6.198l-.64 2.992h-6.2l-2.065 9.978c-.177.815-.038 1.497.428 2.065a2.33 2.33 0 0 0 1.913.842h4.643l-.575 2.907z" fill="#231F20"/>
    <path d="M22.23 13.752a6.883 6.883 0 0 1-2.543 4.061c-1.37 1.106-2.859 1.66-4.468 1.66H5.2l-2.3 11.17H0L5.235 5.459h12.934c1.607 0 2.858.552 3.751 1.658.894 1.106 1.179 2.46.855 4.062l-.545 2.573zm-2.903 0l.528-2.565c.176-.804.037-1.483-.414-2.037a2.302 2.302 0 0 0-1.88-.83H7.536L5.8 16.615h10.017a3.444 3.444 0 0 0 2.225-.83 3.55 3.55 0 0 0 1.29-2.032h-.006z" fill="#ED1C24"/>
    <path d="M78.66 8.094H66.478a3.848 3.848 0 0 0-3.604 2.914l-1.137 5.557h7.6l-.613 2.952h-7.57L58.8 30.671h-2.95l4.062-19.666a7.434 7.434 0 0 1 7.171-5.829h12.184l-.607 2.918z" fill="#231F20"/>
  </g>
</svg>
