<svg width="156" height="55" xmlns="http://www.w3.org/2000/svg">
  <defs>
    <linearGradient x1="0%" y1="50%" y2="50%" id="a">
      <stop stop-color="#90BD23" offset="0%"/>
      <stop stop-color="#6FA42E" offset="100%"/>
    </linearGradient>
  </defs>
  <g fill="none" fill-rule="evenodd">
    <path d="M155.45 10.194l-.573 1.51-.574-1.51h-.565v2.04h.372v-1.599l.029.005.61 1.593h.247l.603-1.593.04-.01v1.603h.077v-2.039h-.266zm-3.781 0v.352h.625v1.687h.37v-1.687h.624v-.352h-1.62zM94.305 22.191c0 4.97 3.044 8.198 8.322 8.198 2.078 0 3.975-.433 5.62-1.337v-7.607h-6.739l.435 2.33h3.322v3.977c-.621.312-1.523.527-2.485.527-1.118 0-2.234-.312-3.072-.779-1.43-.804-2.144-2.479-2.144-5.117 0-1.527.248-2.797.684-3.853.62-1.492 2.081-2.268 4.19-2.268 1.679 0 2.761.468 4.009 1.276l1.487-1.804c-1.674-1.21-3.445-1.738-5.525-1.738-5.183 0-8.104 3.26-8.104 8.195zm21.857-8.01h3.445l6.086 15.991h-3.26l-1.585-4.16h-6.235l-1.585 4.16h-3.076l6.21-15.99zm1.616 2.392l-2.424 7.173h4.84l-2.416-7.173zm-47.25-2.391h3.442l6.086 15.99h-3.262l-1.581-4.16H68.97l-1.583 4.16h-3.071l6.212-15.99zm1.612 2.391l-2.425 7.173h4.844l-2.419-7.173zm66.933-2.36v15.96h10.71v-2.454h-7.7V23h5.839v-2.296h-5.871v-4.13h7.046l.406-2.36h-10.43zm-14.931 0h12.911l-.4 2.36h-4.816v13.6h-2.948v-13.6h-4.747v-2.36zm-34.063 0h3.449l-6.022 9.5v6.46h-3.074v-6.46l-5.929-9.5h3.63l2.954 5.276c.523.967.991 2.208.991 2.208s.464-1.274.991-2.208l3.01-5.276zm-37.995 0h4.841c2.983 0 3.82.245 4.816.778 1.612.869 2.576 2.264 2.576 4.036 0 1.737-.807 3.01-1.925 3.818-1.243.93-2.484 1.333-4.657 1.333h-2.7v5.994h-2.951v-15.96zm2.951 2.33v5.371h2.637c1.987 0 3.353-.654 3.353-2.702 0-2.328-1.801-2.669-3.82-2.669h-2.17zM29.098 23.572L19.5 31.394l-9.596 7.82h-.031L.304 31.468v15.573l7.825 6.354.225.183a2.3 2.3 0 0 0 1.227.48h.497c.451-.043.889-.205 1.235-.487L35.742 33.68c2.443-1.99 2.889-3.318 2.894-6.466l.022-11.43-9.56 7.789z" fill="#2B3182"/>
    <path fill="url(#a)" d="M.304 15.875l9.502 7.697 9.6-7.819L9.743 7.93.304.29z"/>
  </g>
</svg>
