<svg width="138" height="34" xmlns="http://www.w3.org/2000/svg">
  <g fill-rule="nonzero" fill="none">
    <path d="M51.46 7.743h-7.613c-.521 0-.964.379-1.046.893l-3.079 19.522a.634.634 0 0 0 .628.733h3.635c.52 0 .964-.379 1.045-.894l.83-5.266c.08-.515.525-.894 1.045-.894h2.41c5.015 0 7.909-2.426 8.665-7.235.34-2.104.014-3.757-.97-4.915-1.083-1.271-3.002-1.944-5.55-1.944zm.878 7.13c-.416 2.732-2.503 2.732-4.522 2.732h-1.149l.806-5.102a.634.634 0 0 1 .627-.535h.527c1.375 0 2.671 0 3.342.783.4.468.522 1.163.37 2.122zM74.217 14.785H70.57a.635.635 0 0 0-.627.536l-.16 1.02-.256-.37c-.79-1.146-2.55-1.529-4.306-1.529-4.028 0-7.47 3.052-8.14 7.332-.348 2.135.148 4.177 1.359 5.6 1.11 1.31 2.7 1.855 4.592 1.855 3.246 0 5.046-2.087 5.046-2.087l-.163 1.013a.634.634 0 0 0 .626.735h3.284c.522 0 .963-.379 1.045-.894l1.97-12.478a.632.632 0 0 0-.624-.733zm-5.082 7.096c-.352 2.083-2.005 3.48-4.113 3.48-1.059 0-1.905-.339-2.448-.982-.539-.64-.744-1.549-.572-2.562.328-2.065 2.01-3.508 4.085-3.508 1.036 0 1.877.344 2.431.993.556.655.776 1.57.617 2.579zM93.633 14.785H89.97c-.35 0-.678.174-.876.464l-5.053 7.443-2.142-7.152a1.061 1.061 0 0 0-1.015-.755h-3.6a.635.635 0 0 0-.602.84l4.035 11.842-3.794 5.355a.634.634 0 0 0 .518 1.002H81.1c.347 0 .672-.169.87-.454l12.184-17.588a.634.634 0 0 0-.52-.997z" fill="#253B80"/>
    <path d="M105.763 7.743h-7.615c-.52 0-.962.379-1.044.893l-3.079 19.522a.633.633 0 0 0 .626.733h3.907a.74.74 0 0 0 .73-.626l.874-5.534c.08-.515.525-.894 1.044-.894h2.41c5.015 0 7.909-2.426 8.666-7.235.341-2.104.013-3.757-.972-4.915-1.081-1.271-3-1.944-5.547-1.944zm.878 7.13c-.415 2.732-2.502 2.732-4.522 2.732h-1.147l.807-5.102a.632.632 0 0 1 .625-.535h.527c1.373 0 2.671 0 3.342.783.4.468.52 1.163.368 2.122zM128.519 14.785h-3.644a.631.631 0 0 0-.625.536l-.162 1.02-.256-.37c-.789-1.146-2.548-1.529-4.305-1.529-4.028 0-7.468 3.052-8.138 7.332-.347 2.135.146 4.177 1.357 5.6 1.113 1.31 2.7 1.855 4.592 1.855 3.246 0 5.046-2.087 5.046-2.087l-.163 1.013a.635.635 0 0 0 .628.735h3.283c.52 0 .963-.379 1.044-.894l1.972-12.478a.636.636 0 0 0-.63-.733zm-5.082 7.096c-.35 2.083-2.005 3.48-4.113 3.48-1.057 0-1.905-.339-2.448-.982-.539-.64-.742-1.549-.572-2.562.33-2.065 2.009-3.508 4.085-3.508 1.035 0 1.877.344 2.431.993.558.655.778 1.57.617 2.579zM132.817 8.279l-3.125 19.88a.633.633 0 0 0 .626.732h3.141c.522 0 .965-.379 1.045-.894l3.082-19.521a.634.634 0 0 0-.626-.734h-3.518a.636.636 0 0 0-.625.537z" fill="#179BD7"/>
    <path d="M8.106 32.684l.582-3.698-1.296-.03H1.199L5.502 1.668a.351.351 0 0 1 .35-.298h10.442c3.466 0 5.859.721 7.108 2.145.585.668.958 1.366 1.138 2.134.19.806.193 1.77.008 2.944l-.013.085v.753l.585.332c.494.261.885.56 1.186.903.5.572.825 1.297.962 2.158.141.885.094 1.938-.137 3.13-.267 1.372-.7 2.566-1.283 3.543a7.288 7.288 0 0 1-2.031 2.227c-.775.55-1.696.967-2.736 1.234-1.009.263-2.159.396-3.42.396h-.813c-.58 0-1.145.209-1.588.584a2.46 2.46 0 0 0-.829 1.478l-.06.333-1.03 6.518-.046.24c-.012.075-.034.113-.065.138a.172.172 0 0 1-.107.04H8.106z" fill="#253B80"/>
    <path d="M25.675 8.765c-.031.2-.067.403-.107.612-1.377 7.07-6.088 9.513-12.105 9.513h-3.064c-.735 0-1.355.534-1.47 1.26L7.36 30.097l-.444 2.82a.784.784 0 0 0 .774.906h5.433c.644 0 1.19-.467 1.292-1.102l.053-.276 1.023-6.492.066-.356c.1-.637.648-1.105 1.291-1.105h.813c5.264 0 9.385-2.137 10.59-8.322.503-2.584.242-4.741-1.089-6.258a5.195 5.195 0 0 0-1.487-1.147z" fill="#179BD7"/>
    <path d="M24.234 8.19a10.861 10.861 0 0 0-1.339-.297 17.014 17.014 0 0 0-2.7-.197H12.01A1.305 1.305 0 0 0 10.72 8.8L8.98 19.829l-.05.322a1.488 1.488 0 0 1 1.47-1.26h3.064c6.017 0 10.728-2.444 12.105-9.513.041-.209.076-.413.107-.612a7.34 7.34 0 0 0-1.132-.477c-.1-.034-.204-.066-.309-.097z" fill="#222D65"/>
    <path d="M10.72 8.8a1.301 1.301 0 0 1 1.29-1.102h8.184c.97 0 1.875.063 2.701.197a10.861 10.861 0 0 1 1.649.393 7.45 7.45 0 0 1 1.132.477c.41-2.613-.003-4.391-1.416-6.002C22.703.989 19.892.23 16.295.23H5.853c-.735 0-1.361.535-1.475 1.261L.028 29.06a.897.897 0 0 0 .886 1.037H7.36L8.98 19.828 10.72 8.801z" fill="#253B80"/>
  </g>
</svg>
