<svg width="111" height="56" xmlns="http://www.w3.org/2000/svg">
  <defs>
    <linearGradient x1="50%" y1="0%" x2="50%" y2="100%" id="a">
      <stop stop-color="#B6D000" offset="0%"/>
      <stop stop-color="#2AA000" offset="98.069%"/>
    </linearGradient>
  </defs>
  <g fill="none" fill-rule="evenodd">
    <path d="M110.005 12.159l-4.889-.002a.965.965 0 0 1-.965-.966l.002-4.949c0-.533.432-.966.966-.966l4.888.002c.533 0 .966.433.966.966l-.002 4.95a.965.965 0 0 1-.966.965M103.49 5.277l-3.32-.001a.656.656 0 0 1-.655-.656V1.258c.001-.362.295-.655.657-.655l3.32.001c.362 0 .656.294.656.656l-.001 3.361a.656.656 0 0 1-.656.656" fill="#B5D000"/>
    <path d="M5.951 14.365c-3.8 0-5.494 1.694-5.494 5.494v24.404c0 1.468.471 1.939 1.939 1.939h.48c1.468 0 1.94-.471 1.94-1.939V34.77h8.245c7.32 0 10.73-3.243 10.73-10.202 0-6.96-3.41-10.202-10.73-10.202h-7.11zm-1.135 6.07c0-1.423.529-1.952 1.952-1.952h6.293c4.036 0 6.372.996 6.372 6.084 0 3.976-1.015 6.131-6.372 6.131H4.816V20.435zm89.671-6.064c-2.972 0-4.077.49-4.077 3.197v6.336l-.002.04v1.388c-.001.048-.004.094-.004.143v8.852c0 1.08-.209 1.942-.639 2.61-.81 1.25-2.414 1.817-4.981 1.82-2.567-.003-4.17-.57-4.981-1.818-.43-.67-.64-1.53-.64-2.612v-8.852c0-.05-.003-.095-.003-.143v-1.388l-.002-.04v-6.336c0-2.707-1.105-3.197-4.078-3.197h-.935c-2.973 0-4.078.49-4.078 3.197v16.759c0 2.695.608 4.978 1.783 6.818 2.268 3.565 6.663 5.464 12.91 5.464h.047c6.248 0 10.642-1.899 12.911-5.464 1.175-1.84 1.783-4.123 1.783-6.818V17.568c0-2.707-1.106-3.197-4.078-3.197h-.936zm-66.791 7.48c-1.187.257-1.683.583-1.683 1.931v.384c0 .529.079.895.247 1.153.195.3.51.452.935.452.208 0 .449-.036.736-.107.677-.17 2.842-.52 5.21-.52 4.253 0 5.987 1.179 5.987 4.067v2.577h-5.363c-6.894 0-10.105 2.325-10.105 7.32 0 4.843 3.316 7.51 9.337 7.51 7.155 0 10.346-2.434 10.346-7.895V29.21c0-5.281-3.4-7.848-10.394-7.848-2.818 0-4.584.353-5.253.487zm.178 17.256c0-2.787 1.665-3.874 5.94-3.874h5.314v3.346c0 2.727-1.01 4.306-6.18 4.306-3.414 0-5.074-1.236-5.074-3.778zm37.165-17.04c-1.435 0-1.998.442-2.315 1.819l-3.987 16.572c-.498 2.037-1.197 2.41-2.394 2.41-1.465 0-2.051-.35-2.635-2.417l-4.516-16.573c-.374-1.389-.925-1.812-2.36-1.812h-.385c-.58 0-1.156.054-1.452.44-.297.387-.196.964-.044 1.532l4.563 16.716c.856 3.2 1.874 5.847 5.676 5.847.71 0 1.367-.098 1.913-.282-1.154 3.626-2.327 5.226-5.786 5.581-.702.059-1.158.16-1.412.5-.264.354-.204.86-.11 1.312l.095.429c.206.991.558 1.605 1.671 1.605.117 0 .243-.006.378-.017 5.165-.338 7.933-3.12 9.552-9.6l5.527-22.103c.13-.568.21-1.145-.093-1.526-.304-.381-.878-.434-1.454-.434h-.432z" fill="url(#a)"/>
    <path d="M102.846 21.418l-6.582-.002a1.3 1.3 0 0 1-1.3-1.3l.003-6.664a1.3 1.3 0 0 1 1.3-1.3l6.583.003a1.3 1.3 0 0 1 1.299 1.3l-.002 6.664a1.3 1.3 0 0 1-1.3 1.3" fill="#B5D000" style="mix-blend-mode:multiply"/>
  </g>
</svg>
