<svg width="118" height="48" xmlns="http://www.w3.org/2000/svg">
  <g fill-rule="nonzero" fill="none">
    <path fill="#0D6B71" d="M72.676 30.278L16.42 47.962 0 3.35 59.061.029z"/>
    <path d="M23.118 21.422c0-1.668-1.236-2.502-3.695-2.502h-.89v5.133h.819c1.222 0 2.156-.216 2.803-.633.633-.431.963-1.092.963-1.998m7.016-.086c0 1.135-.244 2.127-.762 2.99-.503.863-1.207 1.582-2.113 2.157-.906.575-1.998 1.006-3.278 1.294-1.28.287-2.689.43-4.256.43h-1.15v5.752h-7.289v-19.18h8.569c3.206 0 5.722.547 7.548 1.625 1.826 1.093 2.731 2.732 2.731 4.932M48.206 33.93c-1.121.216-2.4.316-3.824.316-2.027 0-3.824-.23-5.42-.69-1.582-.46-2.933-1.121-4.026-1.97a8.33 8.33 0 0 1-2.516-3.105c-.575-1.222-.862-2.588-.862-4.083 0-1.48.302-2.832.92-4.054a9.204 9.204 0 0 1 2.588-3.135c1.107-.862 2.43-1.538 3.982-2.012 1.539-.475 3.235-.705 5.075-.705 1.424 0 2.746.043 3.897.288 1.164.258 1.178.287 2.113.618l-.014 5.147a12.462 12.462 0 0 0-2.43-1.02c-.892-.274-1.855-.403-2.89-.403-1.653 0-2.99.46-4.026 1.365-1.035.906-1.552 2.2-1.552 3.897 0 .877.158 1.639.489 2.286.33.66.762 1.207 1.308 1.639a5.667 5.667 0 0 0 1.926.977c.734.23 1.524.33 2.387.33.877 0 1.725-.085 2.574-.272.833-.187 1.725-.46 2.674-.805l.014 4.802c-1.165.33-1.265.373-2.387.589M53.583 14.78h7.347v19.165h-7.347zM61.72 8.784c0 1.294-.43 2.3-1.279 3.034-.848.733-1.912 1.107-3.177 1.107-1.25 0-2.315-.36-3.177-1.107-.863-.733-1.28-1.754-1.28-3.034 0-1.322.431-2.343 1.28-3.076.848-.734 1.912-1.107 3.177-1.107 1.25 0 2.315.373 3.177 1.107.849.733 1.28 1.754 1.28 3.076" fill="#FFF"/>
    <path d="M91.942 15.973c0 2.573-.705 4.543-2.128 5.938-1.424 1.394-3.408 2.084-5.967 2.084h-4.974V8.612h5.334c2.473 0 4.385.632 5.722 1.898 1.337 1.265 2.013 3.076 2.013 5.463zm-4.328.144c0-1.41-.273-2.459-.834-3.134-.56-.676-1.409-1.021-2.545-1.021h-1.207v8.626h.92c1.265 0 2.185-.374 2.775-1.107.604-.733.891-1.855.891-3.364zM104.766 19.323c0 .949-.244 1.797-.733 2.545-.49.747-1.18 1.322-2.1 1.725-.905.417-1.983.618-3.205.618-1.021 0-1.884-.072-2.574-.216a9.509 9.509 0 0 1-2.17-.747v-3.71c.79.403 1.624.72 2.472.95.863.23 1.639.344 2.358.344.618 0 1.064-.1 1.351-.316.288-.216.432-.489.432-.82a.885.885 0 0 0-.173-.546c-.115-.158-.302-.316-.56-.474-.26-.158-.935-.489-2.042-.992-1.007-.46-1.754-.906-2.257-1.323a4.095 4.095 0 0 1-1.122-1.48c-.244-.561-.36-1.208-.36-1.97 0-1.424.518-2.53 1.553-3.321 1.036-.791 2.445-1.194 4.256-1.194 1.596 0 3.22.374 4.874 1.107l-1.28 3.206c-1.437-.661-2.688-.992-3.723-.992-.547 0-.935.101-1.18.288-.244.187-.373.431-.373.704 0 .302.158.575.474.805.317.245 1.165.676 2.545 1.309 1.323.604 2.243 1.236 2.76 1.926.518.676.777 1.539.777 2.574zM117.202 19.323c0 .949-.244 1.797-.733 2.545-.489.747-1.179 1.322-2.1 1.725-.905.417-1.983.618-3.205.618-1.021 0-1.884-.072-2.574-.216a9.509 9.509 0 0 1-2.17-.747v-3.71c.79.403 1.624.72 2.472.95.863.23 1.64.344 2.358.344.618 0 1.064-.1 1.351-.316.288-.216.432-.489.432-.82a.885.885 0 0 0-.173-.546c-.115-.158-.302-.316-.56-.474-.26-.158-.935-.489-2.042-.992-1.006-.46-1.754-.906-2.257-1.323a4.095 4.095 0 0 1-1.122-1.48c-.244-.561-.359-1.208-.359-1.97 0-1.424.518-2.53 1.553-3.321 1.035-.791 2.444-1.194 4.255-1.194 1.596 0 3.22.374 4.874 1.107l-1.28 3.206c-1.437-.661-2.688-.992-3.723-.992-.546 0-.935.101-1.179.288-.244.187-.374.431-.374.704 0 .302.158.575.475.805.316.245 1.164.676 2.544 1.309 1.323.604 2.243 1.236 2.76 1.926.533.676.777 1.539.777 2.574zM81.058 27.388c-.374 0-.661.144-.863.417-.2.273-.301.676-.301 1.165 0 1.035.388 1.553 1.164 1.553.33 0 .719-.087 1.193-.245v.834a3.327 3.327 0 0 1-1.28.244c-.675 0-1.192-.2-1.552-.618-.36-.417-.532-1.006-.532-1.768 0-.489.086-.906.259-1.28.172-.36.431-.647.762-.834.33-.2.719-.287 1.164-.287.46 0 .906.115 1.366.33l-.316.806a3.433 3.433 0 0 0-.532-.216c-.187-.072-.36-.1-.532-.1zM87.47 28.955c0 .777-.187 1.366-.575 1.783-.388.417-.934.618-1.639.618-.719 0-1.265-.2-1.639-.618-.388-.417-.575-1.006-.575-1.783 0-.776.187-1.365.575-1.782.388-.403.935-.618 1.654-.618.718 0 1.265.2 1.639.618.373.417.56 1.006.56 1.782zm-3.407 0c0 .518.1.92.302 1.18.201.258.489.402.891.402.791 0 1.18-.518 1.18-1.567 0-1.05-.389-1.582-1.18-1.582-.388 0-.69.13-.891.403-.201.244-.302.647-.302 1.164zM90.418 31.285l-1.122-3.652h-.029c.044.747.058 1.236.058 1.495v2.171h-.877v-4.658h1.351l1.107 3.565h.015l1.164-3.565h1.352v4.658h-.92v-2.214-.36c0-.129.014-.503.043-1.078h-.029L91.323 31.3h-.905v-.014zM97.822 28.078c0 .504-.158.892-.475 1.15-.316.26-.762.403-1.337.403h-.431v1.654h-.978v-4.659h1.496c.56 0 .992.115 1.294.36.273.244.43.618.43 1.092zm-2.243.748h.33c.303 0 .533-.057.676-.187a.652.652 0 0 0 .23-.517c0-.23-.057-.403-.186-.518-.13-.115-.331-.172-.59-.172h-.446v1.394h-.014zM98.699 31.285v-4.659h.992v3.853h1.898v.82h-2.89zM102.394 31.285v-4.659h.992v4.659zM107.411 31.285l-.345-1.107h-1.696l-.345 1.107h-1.064l1.639-4.687h1.208l1.653 4.687h-1.05zm-.575-1.941c-.316-1.007-.489-1.582-.532-1.711a2.161 2.161 0 0 1-.086-.317c-.072.274-.273.95-.604 2.013h1.222v.015zM113.19 31.285h-1.25l-2.027-3.523h-.029c.043.618.058 1.064.058 1.337v2.2h-.877v-4.658h1.25l2.028 3.493h.028a31.398 31.398 0 0 1-.043-1.28v-2.213h.892v4.644h-.03zM116.167 31.285h-.992v-3.84h-1.265v-.819h3.522v.82h-1.265z" fill="#0D6B71"/>
  </g>
</svg>
