<svg width="195" height="38" xmlns="http://www.w3.org/2000/svg">
  <g fill="none" fill-rule="evenodd">
    <path d="M47.973 24.684a2.29 2.29 0 0 1-1.145.313c-.368 0-.679-.055-.934-.164a3.037 3.037 0 0 1-.71-.43 2.8 2.8 0 0 1-.483-.53 2.293 2.293 0 0 1-.313-.595v-6.184a4.04 4.04 0 0 1 .955-.822c.367-.23.813-.345 1.336-.345.545 0 1.012.127 1.4.382.39.254.704.587.945.997.24.403.417.877.53 1.422.113.544.17 1.078.17 1.602 0 .714-.067 1.361-.202 1.94a4.792 4.792 0 0 1-.625 1.528 2.66 2.66 0 0 1-.924.886zm1.258-9.52a3.876 3.876 0 0 0-1.788-.415c-.537 0-1.079.142-1.623.425-.545.283-1 .636-1.369 1.06l-.084-.02v-1.178l-.149-.127-3.564.233v.7c.212.014.431.044.658.09.226.046.403.112.53.196.17.12.308.28.414.478.106.198.159.403.159.615V28.35c0 .24-.043.45-.127.626a.719.719 0 0 1-.446.372 2.95 2.95 0 0 1-.552.105c-.205.022-.417.04-.636.054v.7h5.845v-.7a5.25 5.25 0 0 1-.78-.101 4.726 4.726 0 0 1-.726-.186.861.861 0 0 1-.456-.373 1.25 1.25 0 0 1-.149-.638v-3.147h.085c.255.19.583.357.986.498.403.142.92.212 1.55.212.65 0 1.265-.13 1.845-.392a5.142 5.142 0 0 0 1.58-1.124 5.553 5.553 0 0 0 1.093-1.746c.276-.682.414-1.437.414-2.264 0-.842-.115-1.59-.345-2.244a5.454 5.454 0 0 0-.97-1.724 4.397 4.397 0 0 0-1.395-1.114zM55.59 19.046c.043-1.1.31-1.959.801-2.575.492-.618 1.109-.926 1.851-.926.446 0 .81.102 1.093.307.283.205.506.469.668.793.15.303.257.68.324 1.132.067.451.1.874.1 1.269H55.59zm6.44 3.532c-.425.768-.865 1.3-1.321 1.595-.456.295-1 .442-1.628.442-.616 0-1.146-.118-1.592-.356a2.954 2.954 0 0 1-1.082-.973 4.485 4.485 0 0 1-.62-1.478 8.227 8.227 0 0 1-.197-1.871h6.927v-.7c0-.63-.079-1.213-.238-1.75a3.943 3.943 0 0 0-.727-1.4 3.494 3.494 0 0 0-1.326-.987c-.544-.24-1.199-.361-1.962-.361-.743 0-1.413.154-2.01.461a4.59 4.59 0 0 0-1.502 1.215 5.632 5.632 0 0 0-.95 1.766 6.342 6.342 0 0 0-.323 2c0 .757.101 1.474.303 2.153.201.68.507 1.273.917 1.783.41.509.932.912 1.565 1.209.633.297 1.37.445 2.212.445.955 0 1.8-.247 2.535-.742.736-.495 1.323-1.16 1.761-1.994l-.742-.457zM70.124 23.371a3.867 3.867 0 0 1-.966.867 2.404 2.404 0 0 1-1.326.367c-.474 0-.864-.138-1.172-.415-.308-.276-.461-.709-.461-1.297 0-.453.102-.845.307-1.175a2.87 2.87 0 0 1 .838-.856c.39-.255.81-.467 1.263-.638.452-.17.98-.343 1.58-.52l-.063 3.667zm3.766 1.255c-.24 0-.476-.004-.706-.01-.23-.008-.398-.043-.504-.107a1.16 1.16 0 0 1-.44-.414c-.096-.162-.143-.382-.143-.657 0-.927.01-1.78.032-2.562.02-.782.031-1.678.031-2.69 0-.707-.093-1.285-.28-1.734a2.447 2.447 0 0 0-.823-1.066 2.853 2.853 0 0 0-1.204-.525 8.696 8.696 0 0 0-1.554-.122 4.54 4.54 0 0 0-1.326.207 4.883 4.883 0 0 0-1.156.504 3.46 3.46 0 0 0-.897.795c-.23.297-.345.608-.345.934 0 .311.084.592.25.843.166.251.426.377.78.377.396 0 .705-.103.928-.308.223-.205.334-.431.334-.679 0-.233-.034-.488-.1-.764a2.898 2.898 0 0 1-.102-.626c.113-.12.31-.235.59-.344.279-.11.58-.165.906-.165.474 0 .84.098 1.098.292.258.195.458.423.6.684.127.234.21.481.249.743.038.261.058.438.058.53v1.05c-.34.184-.995.439-1.968.764a66.43 66.43 0 0 0-1.936.669 6.104 6.104 0 0 0-.817.397c-.29.167-.523.356-.7.568a2.583 2.583 0 0 0-.509.86c-.113.317-.17.678-.17 1.081 0 .778.253 1.408.759 1.889.505.48 1.15.72 1.936.72.742 0 1.377-.134 1.904-.402.527-.269 1.02-.658 1.48-1.167h.064c.091.495.302.872.63 1.13.33.258.77.387 1.321.387.319 0 .603-.037.854-.112.251-.074.543-.17.876-.291v-.68zM82.132 25.04a5.481 5.481 0 0 0 1.846-1.984l-.678-.446c-.395.668-.824 1.17-1.287 1.504-.462.334-1.036.501-1.72.501-.947 0-1.712-.415-2.294-1.246-.583-.831-.874-1.904-.874-3.22 0-.834.081-1.552.243-2.153.163-.601.374-1.079.635-1.433.29-.388.587-.655.894-.8.307-.145.63-.218.969-.218.289 0 .559.037.809.111.25.074.44.22.566.439-.014.155-.064.4-.148.735-.085.335-.128.66-.128.978 0 .26.115.497.345.708.23.212.553.318.97.318.39 0 .669-.136.839-.409.17-.272.254-.585.254-.939 0-.848-.321-1.518-.965-2.01-.644-.491-1.478-.737-2.503-.737-.743 0-1.43.154-2.059.461a4.677 4.677 0 0 0-1.57 1.215 5.688 5.688 0 0 0-1.002 1.745 6.062 6.062 0 0 0-.345 2.063c0 1.69.428 3.038 1.284 4.042.855 1.004 2.04 1.506 3.554 1.506.813 0 1.601-.244 2.365-.731M96.178 24.796a3.204 3.204 0 0 1-.518-.07 3.509 3.509 0 0 1-.444-.143c-.206-.084-.354-.203-.443-.355-.09-.152-.133-.352-.133-.6v-5.441c0-1.11-.252-1.961-.755-2.552-.503-.59-1.222-.886-2.157-.886-.453 0-.862.057-1.227.17a3.996 3.996 0 0 0-.951.425 5.078 5.078 0 0 0-.755.567c-.191.18-.404.387-.637.62h-.043V9.234l-.148-.159-3.872.233v.68c.198.014.458.04.78.08.321.038.546.103.673.195.177.12.32.301.43.542.11.24.164.481.164.722v12.187c0 .255-.049.462-.147.62a.782.782 0 0 1-.443.335c-.12.036-.267.062-.442.08-.176.018-.344.033-.506.048v.7h5.124v-.7a3.991 3.991 0 0 1-.546-.075 2.322 2.322 0 0 1-.483-.159.922.922 0 0 1-.44-.36c-.096-.156-.144-.354-.144-.595v-6.015c.071-.12.17-.268.298-.445.128-.177.312-.354.553-.53.248-.17.53-.313.845-.43a2.931 2.931 0 0 1 1.027-.175c.503 0 .93.201 1.28.604.351.404.527.976.527 1.719v5.378c0 .255-.048.462-.143.621a.762.762 0 0 1-.44.334c-.128.043-.29.071-.488.085-.198.014-.379.028-.541.043v.7h5.145v-.7" fill="#EF682F" fill-rule="nonzero"/>
    <path d="M16.644 28.993c.005.144-.21.133-.283 0-.527-1.949-1.618-3.686-2.046-5.815-1.134-5.643 1.217-12.055 1.98-13.35 1.65-2.802 5.14-3.968 9.113-2.805 1.165.342 2.341 1.045 3.23 1.724 3.348 2.553 5.141 9.512 3.447 15.077-2.165 7.11-9.463 17.133-19.6 12.708-5.716-2.494-8.692-6.463-10.986-12.385C-.952 17.815.675 4.632 11.26 5.655c1.073.104 2.348.827 2.872 1.459.222-2.68 3.53-5.854 6.538-6.229.438.224.654.487.925.869.566 1.154.182 2.22-.762 2.615-1.748.8-3.245.757-4.147 2.116-.918 1.382-.52 3.892-1.831 4.846-2.01 1.324-3.339-1.473-4.093-2.261-4.023-.384-7.96 4.915-6.047 12.81 1.399 5.768 6.906 13.15 13.047 12.498 6.513-.691 9.969-5.2 11.847-10.877 1.776-5.37.058-11.759-3.446-13.908-.688-.423-4.192-2.103-7.472.374-1.8 1.36-3.872 7.824-3.012 13.17.283 1.762.86 3.885.966 5.856" fill="#EF682F"/>
    <path d="M109.586 24.684a2.29 2.29 0 0 1-1.145.313c-.368 0-.68-.055-.933-.164a3.031 3.031 0 0 1-.711-.43 2.782 2.782 0 0 1-.483-.53 2.294 2.294 0 0 1-.313-.595v-6.184c.269-.318.587-.592.955-.822.367-.23.813-.345 1.336-.345.545 0 1.012.127 1.4.382.39.254.704.587.945.997.24.403.417.877.53 1.422.113.544.17 1.078.17 1.602 0 .714-.067 1.361-.202 1.94a4.792 4.792 0 0 1-.625 1.528 2.66 2.66 0 0 1-.924.886zm1.258-9.52a3.877 3.877 0 0 0-1.788-.415c-.537 0-1.079.142-1.623.425-.544.283-1 .636-1.368 1.06l-.085-.02v-1.178l-.149-.127-3.564.233v.7c.212.014.431.044.658.09.226.046.403.112.53.196.17.12.308.28.414.478.106.198.159.403.159.615V28.35c0 .24-.043.45-.127.626a.718.718 0 0 1-.446.372c-.163.049-.347.084-.552.105-.205.022-.417.04-.636.054v.7h5.845v-.7a5.244 5.244 0 0 1-.78-.101 4.726 4.726 0 0 1-.726-.186.861.861 0 0 1-.456-.373 1.25 1.25 0 0 1-.149-.638v-3.147h.085c.255.19.583.357.986.498.403.142.92.212 1.55.212.65 0 1.265-.13 1.845-.392a5.138 5.138 0 0 0 1.58-1.124 5.544 5.544 0 0 0 1.093-1.746c.276-.682.414-1.437.414-2.264 0-.842-.115-1.59-.344-2.244a5.455 5.455 0 0 0-.971-1.724 4.393 4.393 0 0 0-1.395-1.114zM121.235 23.371a3.867 3.867 0 0 1-.966.867 2.405 2.405 0 0 1-1.326.367c-.474 0-.864-.138-1.172-.415-.308-.276-.462-.709-.462-1.297 0-.453.103-.845.308-1.175.205-.33.484-.615.838-.856.389-.255.81-.467 1.263-.638.452-.17.979-.343 1.58-.52l-.063 3.667zM125 24.626c-.241 0-.476-.004-.706-.01-.23-.008-.398-.043-.504-.107a1.16 1.16 0 0 1-.44-.414c-.096-.162-.143-.382-.143-.657 0-.927.01-1.78.031-2.562.021-.782.032-1.678.032-2.69 0-.707-.093-1.285-.28-1.734a2.449 2.449 0 0 0-.823-1.066 2.857 2.857 0 0 0-1.204-.525 8.696 8.696 0 0 0-1.554-.122 4.54 4.54 0 0 0-1.326.207 4.883 4.883 0 0 0-1.156.504 3.455 3.455 0 0 0-.897.795c-.23.297-.345.608-.345.934 0 .311.083.592.25.843.166.251.426.377.78.377.395 0 .705-.103.928-.308.222-.205.334-.431.334-.679 0-.233-.034-.488-.101-.764a2.898 2.898 0 0 1-.1-.626c.112-.12.308-.235.588-.344.28-.11.582-.165.907-.165.474 0 .84.098 1.098.292.258.195.458.423.6.684.127.234.21.481.249.743.038.261.058.438.058.53v1.05c-.34.184-.996.439-1.968.764-.973.326-1.618.548-1.936.669a6.123 6.123 0 0 0-.817.397c-.29.167-.523.356-.7.568a2.583 2.583 0 0 0-.51.86c-.112.317-.169.678-.169 1.081 0 .778.253 1.408.759 1.889.505.48 1.15.72 1.936.72.742 0 1.377-.134 1.904-.402.527-.269 1.02-.658 1.48-1.167h.063c.092.495.303.872.632 1.13.328.258.769.387 1.32.387.318 0 .603-.037.854-.112.251-.074.543-.17.876-.291v-.68zM125.717 29.813c.314.262.747.393 1.299.393.283 0 .557-.052.822-.154.266-.103.56-.302.886-.6.332-.318.674-.754 1.024-1.31.35-.555.747-1.327 1.193-2.317.34-.757.836-1.938 1.49-3.544a289.68 289.68 0 0 1 2.244-5.336c.17-.382.428-.677.775-.885.346-.209.626-.33.838-.366v-.658h-3.885v.679c.29.035.596.132.918.291.321.16.482.33.482.514 0 .17-.046.373-.138.61a93.602 93.602 0 0 1-1.365 3.424 861.4 861.4 0 0 0-.993 2.347c-.303-.79-.73-1.846-1.28-3.163-.55-1.318-.959-2.327-1.227-3.027a4.538 4.538 0 0 1-.111-.307.8.8 0 0 1-.048-.212c0-.106.148-.2.446-.28.297-.082.551-.126.763-.134v-.742h-4.775v.7c.318.05.636.164.955.345.318.18.544.433.679.758a528.03 528.03 0 0 1 3.532 8.6c-.22.608-.576 1.313-1.067 2.118-.492.804-.914 1.302-1.267 1.492-.071-.119-.166-.27-.287-.452a2.73 2.73 0 0 0-.34-.432 1.635 1.635 0 0 0-.434-.326 1.255 1.255 0 0 0-.583-.126.925.925 0 0 0-.727.334c-.194.223-.292.51-.292.864 0 .34.158.64.473.902M154.63 24.796a4.344 4.344 0 0 1-.536-.07c-.16-.031-.32-.079-.483-.143a.825.825 0 0 1-.435-.366 1.294 1.294 0 0 1-.127-.61v-5.314c0-1.203-.258-2.094-.773-2.674-.516-.58-1.215-.87-2.097-.87a4.07 4.07 0 0 0-1.213.17 3.51 3.51 0 0 0-.948.446 5.553 5.553 0 0 0-.768.6l-.672.651a3.112 3.112 0 0 0-1.05-1.32c-.489-.364-1.072-.547-1.75-.547a4.11 4.11 0 0 0-1.205.17c-.371.113-.68.255-.928.425-.22.148-.456.343-.711.583-.254.24-.47.45-.647.626h-.074v-1.496l-.149-.148-3.5.233v.7c.212.014.417.048.615.1.198.054.364.123.498.207.184.128.327.281.43.461.103.18.154.384.154.61v6.495c0 .254-.048.46-.143.62a.763.763 0 0 1-.44.333c-.128.043-.278.071-.451.085-.174.014-.342.028-.504.043v.7h5.081v-.7a3.515 3.515 0 0 1-.52-.075 2.169 2.169 0 0 1-.456-.159.931.931 0 0 1-.446-.371 1.144 1.144 0 0 1-.148-.605v-5.994c.07-.099.177-.245.32-.44.14-.194.315-.37.52-.525.255-.19.535-.341.84-.45.305-.11.631-.165.978-.165.504 0 .924.2 1.26.6.337.399.506.966.506 1.702v5.4c0 .254-.048.461-.144.62a.763.763 0 0 1-.44.334c-.127.043-.267.071-.419.085l-.472.043v.7h4.986v-.7a3.157 3.157 0 0 1-.514-.07 3.481 3.481 0 0 1-.44-.143.824.824 0 0 1-.436-.366c-.085-.159-.127-.362-.127-.61v-6.036c.07-.12.175-.27.313-.45s.31-.349.515-.505c.254-.19.533-.339.837-.445.305-.106.63-.16.976-.16.502 0 .922.2 1.257.6.336.4.504.967.504 1.703v5.4c0 .254-.047.461-.143.62a.762.762 0 0 1-.44.334 1.9 1.9 0 0 1-.44.085l-.494.043v.7h5.092v-.7M157.982 19.046c.042-1.1.309-1.959.8-2.575.492-.618 1.11-.926 1.852-.926.445 0 .81.102 1.092.307.283.205.506.469.669.793.148.303.256.68.323 1.132.067.451.1.874.1 1.269h-4.836zm6.439 3.532c-.424.768-.865 1.3-1.32 1.595-.457.295-1 .442-1.63.442-.614 0-1.145-.118-1.59-.356a2.954 2.954 0 0 1-1.082-.973 4.48 4.48 0 0 1-.621-1.478 8.227 8.227 0 0 1-.196-1.871h6.927v-.7c0-.63-.08-1.213-.239-1.75a3.947 3.947 0 0 0-.726-1.4 3.494 3.494 0 0 0-1.326-.987c-.545-.24-1.2-.361-1.963-.361-.743 0-1.413.154-2.01.461a4.594 4.594 0 0 0-1.502 1.215 5.644 5.644 0 0 0-.949 1.766 6.35 6.35 0 0 0-.323 2c0 .757.1 1.474.302 2.153.202.68.507 1.273.918 1.783.41.509.931.912 1.564 1.209.633.297 1.37.445 2.212.445.955 0 1.8-.247 2.536-.742.735-.495 1.322-1.16 1.76-1.994l-.742-.457zM177.925 24.796a3.442 3.442 0 0 1-.514-.064 2.773 2.773 0 0 1-.44-.149c-.206-.084-.35-.203-.435-.355-.085-.152-.128-.352-.128-.6v-5.441c0-1.04-.242-1.873-.726-2.499-.485-.626-1.23-.939-2.233-.939-.453 0-.86.057-1.22.17-.361.113-.672.255-.934.425a5.53 5.53 0 0 0-.721.578c-.255.237-.467.44-.637.61h-.053v-1.475l-.148-.148-3.48.233v.7c.212.014.41.04.594.08.184.038.343.1.477.185.184.127.328.292.43.493.103.201.154.422.154.662v6.453c0 .254-.048.46-.143.62a.762.762 0 0 1-.44.333c-.128.043-.278.071-.451.085-.174.014-.342.028-.504.043v.7h5.124v-.7a4.318 4.318 0 0 1-.536-.075 2.077 2.077 0 0 1-.483-.159.953.953 0 0 1-.445-.36c-.1-.156-.149-.354-.149-.595v-6.015c.064-.113.165-.263.303-.45.138-.188.324-.363.559-.526.24-.17.517-.312.829-.429a2.92 2.92 0 0 1 1.031-.175c.503 0 .93.201 1.282.604.35.404.526.976.526 1.719v5.378c0 .255-.048.462-.143.621a.763.763 0 0 1-.44.334c-.128.043-.289.071-.483.085a36.75 36.75 0 0 0-.536.043v.7h5.113v-.7M185.67 24.265c-.142.05-.384.09-.727.122a9.175 9.175 0 0 1-.78.048c-.382 0-.686-.053-.912-.16a1.09 1.09 0 0 1-.51-.466 2.039 2.039 0 0 1-.228-.77c-.031-.292-.047-.659-.047-1.097v-5.845h2.98v-1.019h-3.001v-3.256h-1.931v3.256h-1.931v1.019h1.888v7.086c0 .806.179 1.43.536 1.872.357.442.974.663 1.851.663.594 0 1.096-.065 1.507-.196.41-.13.845-.292 1.304-.482v-.775M192.591 19.714a10.282 10.282 0 0 0-1.32-.52 25.657 25.657 0 0 1-1.194-.419 4.106 4.106 0 0 1-.8-.397 1.464 1.464 0 0 1-.494-.541c-.11-.213-.165-.478-.165-.796 0-.413.167-.766.499-1.058.332-.292.789-.438 1.369-.438.707 0 1.306.236 1.797.709.492.472.812 1.084.96 1.837h.733l-.16-3.363h-.763l-.244.552c-.269-.149-.617-.276-1.045-.382a5.223 5.223 0 0 0-1.257-.16c-1.068 0-1.92.298-2.557.892-.636.594-.955 1.32-.955 2.175 0 .488.1.912.298 1.273.197.36.452.664.763.912.29.233.638.437 1.045.61.407.173.776.31 1.109.408.417.128.795.257 1.135.388.34.13.626.277.86.44.225.163.397.352.514.567.116.216.175.472.175.77 0 .576-.184 1.019-.552 1.328-.368.31-.89.464-1.57.464-.481 0-.914-.106-1.3-.319a3.683 3.683 0 0 1-.991-.788 4.638 4.638 0 0 1-.669-1 4.063 4.063 0 0 1-.36-.969h-.733l.107 3.638h.795l.213-.69c.219.185.585.386 1.097.606.513.219 1.074.328 1.682.328 1.152 0 2.091-.307 2.816-.922.725-.616 1.088-1.408 1.088-2.377 0-.48-.078-.887-.234-1.22a2.673 2.673 0 0 0-.668-.88c-.269-.24-.61-.46-1.024-.658" fill="#797A7C" fill-rule="nonzero"/>
  </g>
</svg>
