<svg width="162" height="47" xmlns="http://www.w3.org/2000/svg">
  <defs>
    <linearGradient x1="28.201%" y1="15.347%" x2="103.372%" y2="84.653%" id="a">
      <stop stop-color="#00AAE4" offset="0%"/>
      <stop stop-color="#006097" offset="100%"/>
    </linearGradient>
  </defs>
  <g fill-rule="nonzero" fill="none">
    <path d="M58.934 17.725c-.427-.142-1.328-.237-2.23-.237-2.706 0-5.6 2.192-5.6 4.897v12.902h-6.171v-23.02h5.933v2.326c1.376-1.709 3.892-2.8 6.692-2.8.7.004 1.399.068 2.089.19l-.713 5.742zM65.911.164c2.231 0 4.035 1.709 4.035 3.94 0 2.23-1.804 3.939-4.035 3.939-2.23 0-4.034-1.709-4.034-3.94 0-2.23 1.803-3.939 4.034-3.939zm3.085 35.123h-6.17v-23.02h6.17v23.02zM87.223 11.791a10.535 10.535 0 0 0-6.74 2.328v-1.852H74.55v34.41h6.17V33.673a9.707 9.707 0 0 0 6.171 2.089c3.418 0 6.692-1.52 8.733-3.893 1.804-2.089 2.894-4.935 2.894-8.068 0-6.788-5.03-12.01-11.294-12.01zm-.75 18.37c-3.833 0-6.352-2.646-6.352-6.34 0-3.695 2.519-6.34 6.352-6.34 3.271 0 5.924 2.84 5.924 6.34s-2.653 6.34-5.924 6.34zM135.966 35.287h-6.17v-33.7h6.17v33.7zM161.121 31.632c-2.23 2.658-5.885 4.13-9.445 4.13-6.882 0-12.055-4.747-12.055-11.961 0-6.408 4.366-12.009 11.201-12.009 6.36 0 10.87 5.364 10.87 11.771.003.589-.045 1.176-.143 1.756H145.6c.332 3.228 2.943 5.459 6.218 5.459 2.61 0 4.699-1.472 5.79-2.658l3.512 3.512zm-5.743-10.822c-.19-2.04-2.04-4.034-4.556-4.034-2.563 0-4.651 1.946-4.936 4.034h9.492zM114.846 11.791a10.535 10.535 0 0 0-6.739 2.328v-1.852h-5.934v34.41h6.17V33.673a9.707 9.707 0 0 0 6.171 2.089c3.418 0 6.692-1.52 8.733-3.893 1.804-2.089 2.894-4.935 2.894-8.068 0-6.788-5.03-12.01-11.295-12.01zm-.75 18.37c-3.832 0-6.351-2.646-6.351-6.34 0-3.695 2.519-6.34 6.351-6.34 3.272 0 5.925 2.84 5.925 6.34s-2.653 6.34-5.925 6.34z" fill="#434C54"/>
    <path d="M32.213 26.9c-1.393-.804-2.962-1.037-4.516-1.092-1.304-.045-3.249-.88-3.249-3.252 0-1.768 1.433-3.19 3.25-3.253 1.554-.054 3.122-.288 4.515-1.092a8.23 8.23 0 1 0-12.344-7.127c0 1.595.567 3.062 1.29 4.423.61 1.145.917 3.269-1.17 4.474-1.553.896-3.49.329-4.459-1.22-.817-1.309-1.804-2.534-3.186-3.332a8.23 8.23 0 1 0 0 14.253c1.382-.797 2.369-2.022 3.186-3.33.67-1.074 2.346-2.442 4.459-1.222 1.55.896 2.03 2.858 1.17 4.475-.724 1.36-1.29 2.828-1.29 4.422A8.23 8.23 0 1 0 32.213 26.9z" fill="url(#a)"/>
  </g>
</svg>
