<svg width="134" height="37" xmlns="http://www.w3.org/2000/svg">
  <g fill="none" fill-rule="evenodd">
    <path d="M90.066 15.225c1.167 0 2.258-.083 3.273-.248 1.015-.165 1.904-.493 2.664-.987.761-.497 1.357-1.213 1.788-2.152.432-.937.647-2.169.647-3.69 0-2.157-.596-3.76-1.788-4.815-1.193-1.051-3.184-1.578-5.974-1.578h-5.633v13.47h5.023zm-5.023 12.483h-1.788V.156h7.952c1.75 0 3.216.209 4.396.627 1.18.42 2.124.99 2.835 1.713a6.065 6.065 0 0 1 1.502 2.55c.292.976.438 2.011.438 3.101 0 1.624-.247 2.988-.74 4.09-.496 1.104-1.194 1.998-2.095 2.684-.9.685-1.985 1.174-3.253 1.465-1.269.291-2.689.438-4.261.438h-4.986v10.884zM113.508 18.118a15.3 15.3 0 0 0-1.369-.096 59.41 59.41 0 0 0-1.6-.02c-.964 0-1.883.065-2.76.193-.874.126-1.641.36-2.302.702a3.97 3.97 0 0 0-1.56 1.428c-.38.608-.57 1.407-.57 2.396 0 .533.057 1.03.173 1.484.114.46.321.863.625 1.22.306.354.711.634 1.22.836.508.203 1.166.304 1.977.304a8.351 8.351 0 0 0 3.501-.761c1.118-.507 2.004-1.166 2.665-1.978v-5.708zm1.863 6.849c0 .533.071.932.211 1.199.138.266.462.4.97.4.279 0 .671-.077 1.18-.23l.151 1.218c-.378.204-.716.33-1.007.381-.293.05-.64.077-1.046.077-.838 0-1.428-.26-1.77-.78-.342-.519-.49-1.072-.438-1.657-.737.737-1.668 1.352-2.797 1.848-1.13.493-2.38.74-3.748.74-1.244 0-2.238-.19-2.988-.573-.747-.38-1.327-.838-1.73-1.372a4.274 4.274 0 0 1-.801-1.719 7.977 7.977 0 0 1-.19-1.604c0-1.374.285-2.486.856-3.34a5.925 5.925 0 0 1 2.208-1.986c.9-.47 1.916-.782 3.043-.935a25.232 25.232 0 0 1 3.368-.229c.46 0 .901.007 1.332.019.432.013.863.035 1.296.058v-1.696c0-.928-.07-1.724-.211-2.389-.14-.664-.38-1.205-.723-1.619-.341-.412-.81-.713-1.408-.902-.597-.188-1.35-.283-2.265-.283-1.622 0-2.796.295-3.52.886-.722.589-1.186 1.487-1.389 2.691l-1.788-.305c.304-1.8 1.034-3.063 2.19-3.785 1.154-.723 2.707-1.085 4.66-1.085 1.141 0 2.112.115 2.91.342.8.229 1.453.597 1.963 1.103.505.509.879 1.175 1.12 1.999.24.825.361 1.833.361 3.024v10.504z" fill="#6B7069"/>
    <path d="M116.896 8.376h1.978l6.05 16.782h.038l6.203-16.782h1.98a949.778 949.778 0 0 0-2.152 5.556c-.747 1.953-1.503 3.925-2.263 5.918-.762 1.99-1.515 3.963-2.265 5.918a785.219 785.219 0 0 1-2.149 5.555c-.382.939-.774 1.718-1.18 2.34-.407.621-.844 1.124-1.314 1.505-.468.379-.975.645-1.52.797a6.425 6.425 0 0 1-1.734.23 7.142 7.142 0 0 1-1.901-.243 21.94 21.94 0 0 1-1.408-.428l.38-1.538c.28.127.71.26 1.293.4.585.139 1.168.21 1.75.21.407 0 .794-.058 1.162-.171a3.03 3.03 0 0 0 1.065-.611c.344-.293.665-.692.97-1.2.305-.509.609-1.156.914-1.944l1.105-2.935-7.002-19.359z" fill="#6B7069"/>
    <path d="M59.02 16.213c0-3.4 2.576-5.044 5.356-5.044 2.777 0 5.282 1.671 5.282 5.044H59.02zm4.862-8.645c-5.66 0-9.366 3.885-9.366 10.292 0 7.953 5.668 10.234 9.717 10.234 5.128 0 8.052-3.447 8.052-3.447l-2.61-2.615c-1.382 1.244-2.988 1.987-5.378 1.987-3.155 0-5.283-1.847-5.283-4.372h14.063s2.456-12.079-9.195-12.079zM12.09 15.87c-1.798-.225-7.01-.022-7.01-2.398 0-1.407 2.183-2.165 4.199-2.165 3.219 0 5.34 1.288 5.957 1.715l2.703-2.705c-.802-.646-3.78-2.748-8.66-2.748C4.83 7.569.833 9.893.833 13.62c0 5.72 6.902 5.718 9.782 6 1.746.17 3.342.29 3.342 2.001 0 1.592-2.44 2.478-4.325 2.478-3.075 0-4.92-1.01-6.723-2.632L0 24.38c2.67 2.577 6.05 3.712 9.383 3.712 5.157 0 8.93-2.276 8.93-6.857 0-3.036-2.041-4.844-6.221-5.366M31.48 20.522c0 3.8-2.708 3.597-5.13 3.597-2.446 0-4.01-.653-4.01-2.356 0-1.589 1.271-2.116 3.905-2.116h5.234v.875zM26.951 7.569c-4.486 0-7.393 2.284-7.934 2.745l2.718 2.72c.543-.43 2.388-1.704 5.25-1.704 3.438 0 4.463 1.37 4.463 2.92v1.93l-6.126.004c-2.263 0-6.719.57-6.719 5.554 0 3.662 2.101 6.357 7.114 6.357 2.517 0 4.418-.816 5.731-2.388v1.987h4.448v-13.15c0-4.596-2.82-6.975-8.945-6.975zM49.624 17.82c0 1.532-.026 2.667-.15 3.245-.273 1.276-1.724 2.954-4.356 2.954-.66 0-4.038-.378-4.416-3.304-.077-.587-.135-1.363-.135-2.895 0-2.279.094-3.003.212-3.582.233-1.147 1.733-2.835 4.34-2.835 3.19 0 4.216 2.175 4.365 3.015.104.582.14 1.87.14 3.402zm0-9.83v2.207c-1.514-1.76-3.321-2.628-5.79-2.628-4.215 0-6.386 2.364-7.121 4.88-.272.936-.367 2.723-.367 5.363 0 2.487.024 4.749.888 6.49 1.21 2.433 4.147 3.793 6.6 3.793 2.377 0 4.394-.922 5.79-2.52v1.234c0 1.451-.498 2.404-1.426 3.158-.93.756-2.098 1.218-3.717 1.218-1.47 0-2.877-.8-3.68-1.36l-2.988 2.989c1.938 1.57 4.253 2.64 6.753 2.661 2.649.022 4.78-.78 6.65-2.249 1.788-1.406 2.914-4.05 2.914-6.854V7.99h-4.506z" fill="#62BB46"/>
  </g>
</svg>
