<svg width="104" height="55" xmlns="http://www.w3.org/2000/svg" xmlns:xlink="http://www.w3.org/1999/xlink">
  <defs>
    <path id="a" d="M0 53.879h42.214V.16H0z"/>
    <path id="c" d="M0 53.964h103.171V.246H0z"/>
  </defs>
  <g transform="translate(0 .156)" fill="none" fill-rule="evenodd">
    <g transform="translate(0 .085)">
      <mask id="b" fill="#fff">
        <use xlink:href="#a"/>
      </mask>
      <path d="M10.156 36.848c.33 2.326.976 4.065 1.94 5.216 1.764 2.096 4.785 3.143 9.065 3.143 2.563 0 4.644-.276 6.243-.829 3.034-1.058 4.55-3.028 4.55-5.907 0-1.68-.743-2.982-2.228-3.903-1.487-.898-3.844-1.693-7.07-2.384l-5.513-1.209c-5.418-1.197-9.14-2.498-11.167-3.903C2.544 24.722.83 21.049.83 16.052c0-4.56 1.678-8.348 5.035-11.366C9.222 1.67 14.153.161 20.657.161c5.432 0 10.066 1.422 13.901 4.266 3.835 2.845 5.846 6.973 6.033 12.385H30.365c-.189-3.063-1.558-5.24-4.108-6.53-1.7-.851-3.813-1.278-6.34-1.278-2.81 0-5.052.553-6.728 1.658-1.677 1.106-2.515 2.65-2.515 4.63 0 1.82.827 3.178 2.48 4.076 1.062.599 3.317 1.301 6.764 2.107l8.936 2.107c3.917.922 6.852 2.154 8.807 3.697 3.035 2.395 4.553 5.861 4.553 10.398 0 4.652-1.798 8.515-5.395 11.59-3.596 3.074-8.677 4.612-15.24 4.612-6.705 0-11.977-1.515-15.818-4.543C1.92 46.308 0 42.145 0 36.848h10.155z" fill="#000" mask="url(#b)"/>
    </g>
    <path d="M58.417 7.033a6.203 6.203 0 1 1-12.406 0 6.203 6.203 0 0 1 12.406 0" fill="#FEC72F"/>
    <path d="M97.086 31.557H50.5a6.085 6.085 0 0 1 0-12.17h46.586a6.085 6.085 0 1 1 0 12.17" fill="#000"/>
    <path fill="#319DCE" d="M63.259 44.64H58.48v-9.55H47.163v18.704h16.096zM79.883 14.551c.253.408.486.844.703 1.302h12.33c-.763-2.457-1.945-4.768-3.55-6.933-2.426-3.242-5.595-5.471-9.51-6.687-2.298-.715-5.177-1.096-8.637-1.144h-6.913v9.153h4.942c5.308 0 8.853 1.437 10.635 4.31M81.442 35.09a19.693 19.693 0 0 1-.669 1.862c-2.135 5.035-5.88 7.594-11.233 7.684v9.158h1.68c8.434 0 14.673-3.277 18.714-9.833 1.617-2.64 2.792-5.599 3.532-8.871H81.442z"/>
    <mask id="d" fill="#fff">
      <use xlink:href="#c"/>
    </mask>
    <path fill="#FFF" mask="url(#d)" d="M50.751 28.22h1.036V22.3h-1.036zM53.312 23.934h.896v.63l.016.016c.144-.237.332-.424.564-.56.232-.134.488-.202.77-.202.47 0 .84.121 1.111.365.27.243.406.607.406 1.094v2.942h-.945v-2.694c-.01-.337-.082-.581-.215-.733-.133-.152-.34-.228-.622-.228-.16 0-.304.029-.43.087a.931.931 0 0 0-.324.24 1.13 1.13 0 0 0-.207.36c-.05.139-.075.285-.075.44v2.528h-.945v-4.285zM59.172 26.843c.028.277.133.47.315.58.182.111.4.166.655.166.088 0 .19-.007.303-.02.113-.014.22-.04.319-.08a.6.6 0 0 0 .244-.17.408.408 0 0 0 .087-.294.418.418 0 0 0-.132-.298.916.916 0 0 0-.32-.186 3.094 3.094 0 0 0-.443-.12 21.4 21.4 0 0 1-.506-.108 4.693 4.693 0 0 1-.51-.141 1.629 1.629 0 0 1-.439-.224 1.033 1.033 0 0 1-.31-.36 1.153 1.153 0 0 1-.117-.543c0-.232.057-.427.17-.585a1.3 1.3 0 0 1 .432-.381 1.88 1.88 0 0 1 .58-.203c.212-.039.416-.058.609-.058.22 0 .432.023.634.07.202.047.384.123.547.228.163.105.298.242.406.41.108.17.176.372.203.61h-.986c-.044-.227-.148-.379-.31-.456a1.293 1.293 0 0 0-.56-.116c-.067 0-.145.005-.237.016a1.111 1.111 0 0 0-.257.063.542.542 0 0 0-.203.132.317.317 0 0 0-.083.228c0 .116.04.21.12.282a.95.95 0 0 0 .316.178c.13.047.277.087.443.12l.514.108c.171.039.34.086.506.141.165.055.313.13.443.224s.235.212.315.356c.08.144.12.32.12.53 0 .255-.058.47-.174.647-.116.177-.267.32-.452.431-.185.11-.39.19-.617.24a3.13 3.13 0 0 1-1.422-.016 1.75 1.75 0 0 1-.597-.278 1.341 1.341 0 0 1-.397-.464 1.483 1.483 0 0 1-.154-.659h.945zM62.72 23.934h.713v-.78l.945-.505v1.285h.853v.704h-.853v2.288c0 .1.004.185.012.257a.442.442 0 0 0 .058.182c.03.05.076.087.137.112.06.025.143.038.248.038.067 0 .133-.002.2-.005a.992.992 0 0 0 .198-.029v.73l-.306.033c-.1.01-.202.017-.307.017-.249 0-.449-.024-.601-.07a.8.8 0 0 1-.356-.208.713.713 0 0 1-.175-.344 2.609 2.609 0 0 1-.053-.472v-2.529h-.713v-.704zM68.945 26.072c-.144.094-.32.15-.53.17-.21.02-.42.049-.63.087-.1.017-.197.04-.29.07a.88.88 0 0 0-.25.125.547.547 0 0 0-.17.207.706.706 0 0 0-.062.311c0 .105.03.194.092.265.06.072.133.129.22.17.085.042.179.07.281.087a1.53 1.53 0 0 0 .617-.016 1.13 1.13 0 0 0 .345-.141.908.908 0 0 0 .27-.253.642.642 0 0 0 .107-.377v-.705zm.945 1.194a.5.5 0 0 0 .045.249c.03.05.09.074.178.074h.1a.604.604 0 0 0 .132-.016v.654a2.876 2.876 0 0 1-.29.075 1.687 1.687 0 0 1-.306.033.91.91 0 0 1-.481-.116c-.127-.077-.21-.212-.249-.406a1.671 1.671 0 0 1-.692.398 2.724 2.724 0 0 1-.792.124c-.193 0-.378-.026-.555-.079a1.452 1.452 0 0 1-.468-.231 1.113 1.113 0 0 1-.323-.39 1.202 1.202 0 0 1-.12-.552c0-.265.048-.48.145-.646.096-.166.223-.296.38-.39.158-.094.335-.161.531-.202.196-.042.394-.074.593-.096.171-.033.334-.057.49-.07.154-.014.29-.038.41-.07a.627.627 0 0 0 .281-.154c.07-.07.104-.173.104-.31a.486.486 0 0 0-.087-.3.588.588 0 0 0-.216-.177.928.928 0 0 0-.286-.083 2.258 2.258 0 0 0-.298-.021c-.265 0-.484.055-.655.166-.171.11-.268.281-.29.513h-.945c.017-.276.083-.505.199-.688.116-.182.264-.328.443-.439.18-.11.383-.187.61-.232a3.64 3.64 0 0 1 .696-.066c.21 0 .417.022.622.066.204.045.388.116.55.215.164.1.295.229.394.386.1.157.15.35.15.576v2.205zM71.299 23.934h.895v.63l.016.016c.144-.237.332-.424.564-.56.232-.134.489-.202.77-.202.47 0 .84.121 1.112.365.27.243.406.607.406 1.094v2.942h-.945v-2.694c-.011-.337-.083-.581-.216-.733-.132-.152-.34-.228-.621-.228-.16 0-.304.029-.431.087a.931.931 0 0 0-.324.24 1.13 1.13 0 0 0-.207.36c-.05.139-.074.285-.074.44v2.528h-.945v-4.285zM76.015 23.934h.713v-.78l.945-.505v1.285h.853v.704h-.853v2.288c0 .1.004.185.012.257a.442.442 0 0 0 .058.182c.03.05.076.087.137.112.06.025.143.038.248.038.067 0 .133-.002.2-.005a.992.992 0 0 0 .198-.029v.73l-.306.033c-.1.01-.202.017-.307.017-.249 0-.449-.024-.601-.07a.8.8 0 0 1-.356-.208.713.713 0 0 1-.175-.344 2.609 2.609 0 0 1-.053-.472v-2.529h-.713v-.704zM82.422 22.3h4.26v.896h-3.224v1.55h2.984v.845h-2.984v1.733h3.282v.895h-4.318zM88.033 22.3h4.086v.896h-3.05v1.55h2.678v.845h-2.678v2.628h-1.036zM92.775 22.3h4.79v.896h-1.881v5.023h-1.036v-5.023h-1.873z"/>
  </g>
</svg>
