<svg width="184" height="39" xmlns="http://www.w3.org/2000/svg">
  <g fill="#3B77BC" fill-rule="nonzero">
    <path d="M50.386 26.091l2.051-2.82c1.41 1.538 3.59 2.82 6.41 2.82 2.95 0 4.103-1.41 4.103-2.82 0-4.231-11.795-1.667-11.795-9.103 0-3.333 2.949-6.026 7.436-6.026 3.077 0 5.77 1.026 7.564 2.82l-2.051 2.693c-1.667-1.666-3.718-2.307-5.898-2.307-2.05 0-3.461 1.025-3.461 2.564 0 3.846 11.795 1.41 11.795 8.974 0 3.334-2.436 6.282-7.82 6.282-3.719.257-6.54-1.154-8.334-3.077M79.745 29.04v-9.23c0-2.309-1.154-3.078-2.948-3.078-1.667 0-3.077 1.026-3.718 1.923v10.257h-3.206V14.296h3.206v1.923c1.025-1.153 2.948-2.307 5.256-2.307 3.205 0 4.744 1.666 4.744 4.743V29.04h-3.334zM96.028 29.04v-1.667c-1.154 1.283-2.82 1.924-4.744 1.924-2.436 0-5.128-1.667-5.128-4.872 0-3.462 2.692-4.872 5.128-4.872 2.051 0 3.718.64 4.744 1.923v-2.18c0-1.666-1.41-2.692-3.462-2.692-1.667 0-3.077.641-4.359 1.923l-1.282-2.18c1.667-1.666 3.846-2.435 6.154-2.435 3.333 0 6.154 1.41 6.154 5.256v9.872h-3.205zm0-3.333v-2.308c-.77-1.026-2.18-1.538-3.462-1.538-1.795 0-3.205 1.025-3.205 2.692 0 1.667 1.41 2.692 3.205 2.692 1.41-.128 2.82-.64 3.462-1.538zM106.669 26.989v7.692h-3.205V14.296h3.205v2.052c1.154-1.41 2.82-2.436 4.744-2.436 3.846 0 6.538 2.82 6.538 7.692s-2.692 7.693-6.538 7.693c-1.924.128-3.59-.77-4.744-2.308m7.949-5.385c0-2.82-1.667-4.872-4.231-4.872-1.539 0-3.077.898-3.718 1.923v5.77c.641 1.154 2.308 2.051 3.718 2.051 2.564 0 4.23-1.923 4.23-4.872M119.874 26.091l2.052-2.82c1.41 1.538 3.59 2.82 6.41 2.82 2.949 0 4.103-1.41 4.103-2.82 0-4.231-11.795-1.667-11.795-9.103 0-3.333 2.948-6.026 7.436-6.026 3.077 0 5.769 1.026 7.564 2.82l-2.052 2.693c-1.666-1.666-3.718-2.307-5.897-2.307-2.051 0-3.462 1.025-3.462 2.564 0 3.846 11.795 1.41 11.795 8.974 0 3.334-2.436 6.282-7.82 6.282-3.846.257-6.539-1.154-8.334-3.077M138.336 21.604c0-4.487 3.077-7.692 7.564-7.692 2.95 0 4.616 1.282 5.642 2.564l-2.052 1.923c-.769-1.154-1.923-1.667-3.333-1.667-2.693 0-4.487 2.052-4.487 4.872s1.794 4.872 4.487 4.872c1.41 0 2.564-.641 3.333-1.795l2.052 1.923c-1.026 1.41-2.693 2.564-5.642 2.564-4.487.257-7.564-3.077-7.564-7.564M163.465 29.04v-1.667c-1.154 1.283-2.82 1.924-4.744 1.924-2.436 0-5.128-1.667-5.128-4.872 0-3.462 2.692-4.872 5.128-4.872 2.051 0 3.718.64 4.744 1.923v-2.18c0-1.666-1.41-2.692-3.462-2.692-1.666 0-3.077.641-4.359 1.923l-1.282-2.18c1.667-1.666 3.846-2.435 6.154-2.435 3.333 0 6.154 1.41 6.154 5.256v9.872h-3.205zm0-3.333v-2.308c-.77-1.026-2.18-1.538-3.462-1.538-1.795 0-3.205 1.025-3.205 2.692 0 1.667 1.41 2.692 3.205 2.692 1.282-.128 2.693-.64 3.462-1.538zM180.773 29.04v-9.23c0-2.309-1.154-3.078-2.949-3.078-1.667 0-3.077 1.026-3.718 1.923v10.257h-3.333V14.296h3.205v1.923c1.026-1.153 2.949-2.307 5.256-2.307 3.206 0 4.744 1.666 4.744 4.743V29.04h-3.205zM18.975.578A18.932 18.932 0 0 0 0 19.553a18.932 18.932 0 0 0 18.975 18.974A18.932 18.932 0 0 0 37.95 19.553 18.932 18.932 0 0 0 18.975.578m0 36.667c-9.744 0-17.693-7.948-17.693-17.692S9.232 1.86 18.975 1.86c9.744 0 17.693 7.949 17.693 17.693 0 9.744-7.95 17.692-17.693 17.692"/>
    <path d="M16.539 11.348H12.18c-.641 0-1.282.512-1.282 1.282v4.359c0 .64.513 1.282 1.282 1.282h4.359c.641 0 1.282-.513 1.282-1.282v-4.36c-.128-.769-.64-1.281-1.282-1.281M25.898 11.348H21.54c-.64 0-1.282.512-1.282 1.282v4.359c0 .64.513 1.282 1.282 1.282h4.36c.64 0 1.281-.513 1.281-1.282v-4.36c0-.769-.513-1.281-1.282-1.281M16.539 20.707H12.18c-.641 0-1.282.512-1.282 1.282v4.487c0 .641.513 1.282 1.282 1.282h4.359c.641 0 1.282-.513 1.282-1.282v-4.36c-.128-.768-.64-1.41-1.282-1.41"/>
  </g>
</svg>
