<svg width="177" height="37" xmlns="http://www.w3.org/2000/svg">
  <path d="M119.463 18.957c-.238.286-1.022 1.142-2.283 1.142-1.285 0-2.069-1.023-2.069-3.496 0-2.592.856-3.543 2.188-3.543 1.07 0 1.854.594 2.164.832v5.065zm-20.084.57c-.215.167-.927.88-1.998.88-.785 0-1.522-.332-1.522-1.569 0-1.522 1.094-1.902 3.52-2.069v2.759zm-11.037-.57c-.237.286-1.022 1.142-2.283 1.142-1.283 0-2.069-1.023-2.069-3.496 0-2.592.857-3.543 2.189-3.543 1.07 0 1.854.594 2.163.832v5.065zm-24.711.57c-.214.167-.927.88-1.998.88-.785 0-1.522-.332-1.522-1.569 0-1.522 1.094-1.902 3.52-2.069v2.759zm84.857 0c-.212.167-.926.88-1.997.88-.784 0-1.522-.332-1.522-1.569 0-1.522 1.094-1.902 3.52-2.069v2.759zm-10.972-1.973c0 1.165-.476 1.879-1.19 2.235-.665.31-1.45.333-2.734.333H132.5v-4.97h1.522c1.402 0 1.901.071 2.401.333.69.357 1.094 1.023 1.094 2.07zm-.19-6.896c0 1.807-.857 2.473-3.615 2.473h-1.212v-4.66h1.522c1.426 0 1.949.071 2.473.38.546.333.832 1.023.832 1.807zm-14.986 11.58V5.499l-2.877.428v6.135c-.785-.642-1.665-1.379-3.187-1.379-2.664 0-4.185 2.211-4.185 5.993 0 3.685 1.736 5.802 4.328 5.802 1.855 0 3.02-1.332 3.234-1.594l.19 1.356h2.497zm-10.624-8.988v-2.568c-2.425.024-3.733 1.688-4.137 2.116l-.214-1.878h-2.473v11.319h2.877v-7.443c.452-.428 1.522-1.522 3.947-1.546zm-9.58 8.989v-7.086c0-2.497-.071-4.471-3.661-4.471-2.14 0-4.185.904-4.399.999l.5 1.64c.261-.07 1.664-.475 2.924-.475 1.664 0 1.879.594 1.879 1.902v.595c-2.569.142-6.278.07-6.278 3.614 0 2.402 1.38 3.52 3.14 3.52 1.783 0 3.019-1.237 3.28-1.522l.214 1.284h2.402zm-10.916 0V5.499l-2.878.427v6.135c-.784-.642-1.664-1.379-3.185-1.379-2.664 0-4.186 2.211-4.186 5.993 0 3.685 1.736 5.802 4.327 5.802 1.856 0 3.021-1.332 3.235-1.594l.19 1.356h2.497zm-12.475 0v-7.372c0-1.83-.095-4.185-3.21-4.185-1.641 0-3.187 1.165-3.9 1.736l-.214-1.498h-2.473v11.319h2.877v-8.156c.452-.286 1.57-1.023 2.616-1.023 1.283 0 1.426.903 1.426 2.33v6.849h2.878zm-12.356 0v-7.086c0-2.497-.072-4.471-3.662-4.471-2.14 0-4.185.904-4.399.999l.5 1.64c.261-.07 1.664-.475 2.924-.475 1.665 0 1.879.594 1.879 1.902v.595c-2.569.142-6.278.07-6.278 3.614 0 2.402 1.38 3.52 3.14 3.52 1.783 0 3.019-1.237 3.28-1.522l.214 1.284h2.402zm-9.688-.57l-.595-1.642c-.166.048-.975.357-1.88.357-1.188 0-1.26-.76-1.26-1.689v-5.85h3.115l.286-1.925h-3.4V7.329l-2.473.428-.405 3.163-1.901.357v1.569h1.901v5.469c0 1.546.048 2.759.88 3.496.475.428 1.213.69 2.283.69 1.903 0 3.186-.714 3.449-.833zm-8.68-4.186c0-2.71-1.688-3.662-4.042-4.423-2.116-.666-3.424-1.046-3.424-2.45 0-1.521 1.284-2.163 2.734-2.163 1.76 0 3.234.523 3.59.642l.667-1.998c-.523-.261-2.402-.927-4.447-.927-3.4 0-5.493 1.736-5.493 4.66 0 4.495 4.828 4.186 6.706 5.613.5.38.737.832.737 1.474 0 1.332-1.165 2.283-2.996 2.283-1.997 0-3.4-.785-3.638-.904l-1 1.95c.12.119 1.927 1.213 4.805 1.213 3.709 0 5.802-1.855 5.802-4.97zm128.44 4.764l-4.757-5.92 4.448-5.399h-3.044l-4.066 5.042V5.507l-2.877.428v16.312h2.877v-5.326l4.113 5.326h3.306zm-12.873 0v-7.371c0-1.831-.095-4.186-3.21-4.186-1.64 0-3.186 1.166-3.9 1.736l-.214-1.498h-2.473v11.32h2.878V14.09c.451-.285 1.569-1.023 2.615-1.023 1.284 0 1.427.904 1.427 2.33v6.85h2.877zm-12.34-.01V15.15c0-2.497-.072-4.47-3.663-4.47-2.14 0-4.185.903-4.399.998l.5 1.64c.261-.07 1.664-.475 2.925-.475 1.665 0 1.877.595 1.877 1.903v.594c-2.567.143-6.277.071-6.277 3.614 0 2.402 1.38 3.52 3.14 3.52 1.782 0 3.019-1.237 3.28-1.522l.214 1.284h2.403zm-10.664-4.305c0-2.402-1.308-3.614-3.662-3.852 2.187-.357 3.305-1.641 3.305-3.757 0-3.9-3.377-3.948-6.278-3.948h-4.4v15.861h3.9c2.783 0 3.615-.095 4.566-.476 1.64-.642 2.569-1.95 2.569-3.828zM3.814 12.194l10.255 20.51-.731-.332c-5.224-2.524-8.984-6.734-9.616-12.61-.173-1.613-.083-4.565.093-7.568zm23.625 7.441c-.471 4.392-2.578 7.78-5.698 10.282l-4.294-8.4c-.34-.664-.877-1.103-.877-1.103 1.338.421 2.923 1.45 5.492 1.45 2.457 0 4.546-1.456 5.377-2.229zM7.734 4.435c2.199-.309 4.899-.569 7.834-.569 4.741 0 8.869.678 11.211 1.137l.129 1.337c-1.363.744-3.17 1.593-5.754 1.458-3.352-.176-5.2-1.903-7.998-2.05a8.745 8.745 0 0 0-2.96.351L7.668 4.444l.065-.012v.003zm13.08 29.61l-7.875-15.47c.851-.56 1.839-.89 2.933-.89 2.227 0 3.83 1.497 6.19 1.497 1.42 0 3.914-1.093 5.442-2.336l-.038-1.948a166.74 166.74 0 0 0-.363-6.111c-1.383.766-3.24 1.707-5.949 1.565-3.352-.175-5.281-2.044-8.08-2.19-1.764-.093-3.525.265-4.954 1.079l-.01-1.537a.768.768 0 0 0-.3-.621l-3.077-2.32a.407.407 0 0 0-.229-.068.385.385 0 0 0-.385.386v3.854a.76.76 0 0 0 .317.613l1.249.926L18.39 35.29c-.917.414-1.862.779-2.826 1.095C8.097 33.931 1.75 28.59.834 20.071c-.385-3.592.375-12.565.697-16.036.076-.833.583-1.532 1.382-1.7C5.102 1.88 9.92.967 15.563.967c5.647 0 10.463.913 12.651 1.37.8.167 1.307.866 1.384 1.699.322 3.47 1.081 12.444.695 16.036-.69 6.423-4.466 11.04-9.483 13.974h.005z" fill="#003895" fill-rule="evenodd"/>
</svg>
