<svg width="170" height="33" xmlns="http://www.w3.org/2000/svg">
  <g fill="none" fill-rule="evenodd">
    <path d="M42.447 16.552c.613.519.942 1.289.942 2.215 0 1.964-1.54 3.175-3.864 3.175-1.682 0-2.781-.425-3.834-1.479l.816-.817c.928.93 1.793 1.226 3.049 1.226 1.634 0 2.64-.769 2.64-2.073 0-.58-.173-1.085-.535-1.398-.36-.314-.644-.407-1.46-.536l-1.304-.204c-.881-.14-1.572-.424-2.058-.848-.567-.502-.85-1.194-.85-2.09 0-1.9 1.367-3.157 3.582-3.157 1.432 0 2.373.36 3.331 1.224l-.769.772c-.69-.63-1.43-.96-2.608-.96-1.493 0-2.357.833-2.357 2.075 0 .55.157.988.502 1.288.346.3.928.519 1.509.614l1.225.189c1.053.155 1.57.376 2.043.784zM58.486 18.062c0 1.697-1.083 2.812-2.717 2.812-1.635 0-2.703-1.115-2.703-2.812v-7.403h-1.194v7.495c0 2.233 1.636 3.787 3.897 3.787 2.262 0 3.912-1.554 3.912-3.787V10.66h-1.195v7.403zM76.506 13.771c0-1.932-1.367-3.112-3.316-3.112h-4.288v11.188h1.194v-4.965h2.687l2.545 4.965h1.399l-2.657-5.075c1.446-.298 2.436-1.366 2.436-3zm-6.41 2.059v-4.102h2.985c1.304 0 2.231.692 2.231 2.06 0 1.365-.927 2.042-2.23 2.042h-2.986zM85.35 21.847h6.945v-1.069h-5.751V16.74h4.902v-1.068h-4.902v-3.944h5.75v-1.07H85.35zM106.716 16.552c-.473-.408-.991-.629-2.043-.784l-1.225-.189c-.582-.095-1.163-.314-1.509-.614-.346-.3-.503-.739-.503-1.288 0-1.242.865-2.076 2.357-2.076 1.18 0 1.916.331 2.607.96l.771-.77c-.958-.865-1.901-1.225-3.332-1.225-2.215 0-3.58 1.256-3.58 3.157 0 .896.282 1.588.846 2.09.488.424 1.18.708 2.06.848l1.304.204c.817.129 1.1.222 1.462.536.36.313.534.817.534 1.398 0 1.304-1.006 2.073-2.64 2.073-1.258 0-2.122-.296-3.048-1.226l-.818.817c1.052 1.054 2.153 1.479 3.834 1.479 2.325 0 3.866-1.211 3.866-3.175 0-.926-.33-1.696-.943-2.215M124.388 19.679l-2.464-9.02h-1.07l-2.467 9.02-2.184-9.02h-1.273l2.86 11.189h1.116l2.483-8.957 2.48 8.957h1.117l2.86-11.19h-1.272zM135.857 21.848h1.194v-11.19h-1.194zM150.592 10.659h-4.163v11.189h1.193v-4.605h2.97c2.042 0 3.456-1.287 3.456-3.299s-1.414-3.285-3.456-3.285m-.11 5.515h-2.86V11.73h2.86c1.398 0 2.372.737 2.372 2.214 0 1.476-.974 2.23-2.372 2.23M169.412 11.73v-1.07h-6.945v11.187h6.945v-1.07h-5.75V16.74h4.901v-1.068h-4.901v-3.943z" fill="#041C2C"/>
    <path d="M12.927 32.22a11.367 11.367 0 0 1-6.415-1.966 11.481 11.481 0 0 1-1.692-1.402L.808 24.839a1.276 1.276 0 0 1 1.802-1.806l4.016 4.017a8.843 8.843 0 0 0 6.3 2.62 8.847 8.847 0 0 0 6.285-2.604 8.849 8.849 0 0 0 2.604-6.285 8.838 8.838 0 0 0-2.516-6.195l-5.17-5.17a3.777 3.777 0 0 0-2.693-1.118 3.782 3.782 0 0 0-2.69 1.114 3.78 3.78 0 0 0-1.113 2.69c0 1.017.397 1.973 1.118 2.692h.001l5.097 5.097a1.277 1.277 0 0 1-1.805 1.804L6.949 16.6a6.326 6.326 0 0 1-1.868-4.499 6.323 6.323 0 0 1 1.861-4.494 6.312 6.312 0 0 1 2.02-1.36 6.29 6.29 0 0 1 2.474-.501 6.334 6.334 0 0 1 4.5 1.868l5.18 5.18.006.006a11.399 11.399 0 0 1 3.244 7.981 11.37 11.37 0 0 1-1.954 6.398 11.497 11.497 0 0 1-5.032 4.142c-1.412.598-2.91.9-4.453.9" fill="#FF8200"/>
    <path d="M12.93 27.132a6.34 6.34 0 0 1-4.5-1.87l-5.18-5.179-.005-.005a11.381 11.381 0 0 1-2.374-3.6A11.363 11.363 0 0 1 0 12.096a11.385 11.385 0 0 1 3.35-8.09 11.413 11.413 0 0 1 3.636-2.451 11.393 11.393 0 0 1 4.453-.899 11.372 11.372 0 0 1 6.415 1.966c.605.413 1.175.884 1.692 1.403l4.013 4.013a1.277 1.277 0 0 1-1.804 1.805L17.74 5.827a8.857 8.857 0 0 0-6.301-2.619 8.858 8.858 0 0 0-6.285 2.603A8.893 8.893 0 0 0 3.25 8.636a8.834 8.834 0 0 0-.697 3.46c0 1.18.227 2.325.675 3.404a8.877 8.877 0 0 0 1.84 2.792l5.17 5.17c.719.72 1.675 1.118 2.693 1.118a3.778 3.778 0 0 0 2.69-1.114 3.78 3.78 0 0 0 1.113-2.689 3.78 3.78 0 0 0-1.118-2.694l-5.097-5.097a1.276 1.276 0 1 1 1.805-1.804l5.094 5.094a6.335 6.335 0 0 1 1.868 4.501 6.314 6.314 0 0 1-1.862 4.493 6.327 6.327 0 0 1-2.02 1.361c-.784.332-1.615.5-2.473.5" fill="#FF8200"/>
  </g>
</svg>
