<svg width="192" height="47" xmlns="http://www.w3.org/2000/svg">
  <g fill="none" fill-rule="evenodd">
    <path d="M82.34 16.42c-1.04-.552-2.444-.943-4.124-.943-3.947 0-6.318 1.853-7.285 2.601l1.421-8.389h-5.584L62.88 32.646h5.584l2.12-12.519c1.399-1.074 3.108-1.984 4.955-1.984.965 0 1.797.292 2.344.78 1.023.91.833 2.276.568 3.837l-1.674 9.886h5.585l1.867-11.024c.247-1.463.638-3.772-1.89-5.202zm14.793-1.139c-6.382 0-8.546 2.862-9.74 4.456l1.334.552c.988-.877 2.77-2.47 6.34-2.47 1.594 0 3.916.421 4.626 2.178.278.694.27 1.435.2 2.165h.12l-.877 5.17h-.096l-.328 1.931c-1.184.553-2.639 1.204-4.612 1.204-2.813 0-3.604-1.528-3.362-2.959.359-2.114 2.712-3.122 5.19-3.122a9.49 9.49 0 0 1 2.012.211l.41-2.415a15.92 15.92 0 0 0-3.457-.364c-4.997 0-9.432 2.146-10.082 5.982-.507 2.99 1.868 5.332 6.234 5.332 3.989 0 6.363-1.625 7.415-2.373l-.319 1.887h5.414l1.703-10.05c.258-1.526.59-3.737-1.227-5.397-1.054-.974-3.245-1.918-6.898-1.918zm48.974 15.933c-.419 0-2.098 0-2.859-1.463-.326-.552-.463-1.235-.225-2.634l1.284-7.586h6.102l.6-3.534h-6.103l.766-4.52h-5.585l-.766 4.52h-5.876l-5.098 8.291-.895 1.562c-.312-.879-.329-1.04-.617-1.821l-2.92-8.032h-1.848l-7.248 9.82c-.156-.812-.207-1.008-.373-1.756l-2.162-8.064h-5.838l5.138 16.777h2.056l7.31-9.687 4.028 9.687h2.015l8.64-13.243h3.089l-1.398 8.27c-.248 1.462-.287 2.927 1.069 4.097 1.422 1.267 3.632 1.365 4.639 1.365 2.771 0 4.41-.748 5.768-1.334l-.496-1.04c-.698.163-1.315.325-2.197.325zm11.54-9.006c-.075.11-.235.461-.42 1.55-.074.425-.112.743-.13.987h14.9c.266-1.822.747-4.912-1.837-7.252-2.263-2.016-5.584-2.244-7.43-2.244-7.6 0-12.302 3.967-13.129 8.845-.864 5.104 2.51 9.233 10.236 9.233 7.389 0 9.69-3.413 10.921-5.234l-1.298-.52c-1.718 1.462-3.53 2.99-7.434 2.99-5.691 0-6.453-3.374-6.556-5.111-.026-.068-.122-.414.066-1.57.194-1.177.442-1.63.491-1.712.905-1.91 2.114-4.19 6.114-4.19 4.198 0 4.198 2.731 4.196 4.227h-8.69zm-99.386-10.73h-5.583L49.913 27.8c-.248 1.462-.286 2.927 1.07 4.097 1.423 1.268 3.631 1.365 4.639 1.365 2.77 0 4.409-.748 5.768-1.333l-.496-1.04c-.7.163-1.314.324-2.195.324-.421 0-2.1 0-2.86-1.462-.326-.553-.463-1.236-.226-2.635l1.285-7.587h4.519l.595-3.51h-4.52l.77-4.543z" fill="#004FA3" fill-rule="nonzero"/>
    <path d="M21.847.164C10.057.164.5 9.721.5 21.51c0 11.788 9.557 21.344 21.347 21.344 11.79 0 21.347-9.556 21.347-21.344C43.194 9.72 33.637.164 21.847.164zm0 38.447c-9.447 0-17.105-7.657-17.105-17.102 0-9.446 7.658-17.103 17.105-17.103 9.448 0 17.106 7.657 17.106 17.103 0 9.445-7.658 17.102-17.106 17.102zm2.066-27.516h-5.585l-2.763 16.323c-.248 1.462-.287 2.926 1.07 4.097 1.421 1.269 3.631 1.365 4.638 1.365 2.772 0 4.41-.747 5.768-1.332l-.495-1.041c-.699.163-1.315.327-2.196.327-.42 0-2.1 0-2.86-1.465-.325-.553-.462-1.236-.225-2.633l1.284-7.588h4.519l.595-3.51h-4.52l.77-4.543z" fill="#ED174C" fill-rule="nonzero"/>
    <path d="M174.854 13.036h-1.402v3.62h-1.162v-3.62h-1.401v-.87h3.964v.87zm5.405 3.62h-1.161v-3.009l-.828 1.952h-.796l-.83-1.952v3.009h-1.093v-4.49h1.348l1.007 2.254 1.001-2.255h1.352v4.49zM186.597 36.583h-1.051v2.715h-.871v-2.715h-1.052v-.653h2.974v.653zm4.498 2.715h-.87v-2.257l-.621 1.465h-.597l-.62-1.465v2.257h-.82V35.93h1.009l.755 1.69.75-1.69h1.014v3.368z" fill="#004FA3" fill-rule="nonzero"/>
    <path d="M105.607 37.594c-.488 0-.934.337-.983.733a.605.605 0 0 0 .198.525c.15.14.365.22.604.22.487 0 .92-.338.972-.745.049-.396-.314-.733-.79-.733zm-1.67 7.206h1.583l.622-5.075h-1.581l-.625 5.075zm5.527-6.453h-1.582l-.17 1.378h-.963l-.099.794h.965l-.344 2.805c-.055.445-.05.892.346 1.248.417.386 1.044.417 1.328.417.787 0 1.243-.229 1.622-.408l-.153-.316c-.195.05-.368.098-.619.098-.118 0-.595 0-.825-.445-.099-.168-.144-.377-.092-.804l.32-2.595h1.391l.098-.794h-1.393l.17-1.378zm2.5-.545l-1.024 2.804.466.09 2.284-2.894h-1.726zm3.04 2.468c1.201 0 1.437.515 1.521.693l.429-.098c-.024-.199-.06-.496-.377-.803-.342-.328-.932-.555-1.74-.555-1.774 0-2.669.892-2.768 1.705-.113.922.768 1.21.996 1.278.264.09.53.138.799.19.756.138 1.132.267 1.27.595.026.088.04.167.03.245-.004.03-.06.497-.749.676a2.2 2.2 0 0 1-.604.07c-.665 0-1.213-.188-1.512-.467-.15-.14-.204-.279-.26-.406l-.425.078c.005.24.031.607.394.953.234.218.796.585 1.986.585 1.749 0 2.695-.823 2.803-1.705a1.235 1.235 0 0 0-.347-1.051c-.309-.298-.758-.406-1.084-.477-.22-.049-.44-.088-.661-.128-.521-.12-1.053-.248-.997-.704.04-.327.429-.674 1.296-.674zm16.32-1.923h-1.581l-.17 1.378h-.964l-.097.794h.965l-.347 2.805c-.054.445-.049.892.347 1.248.418.386 1.044.417 1.33.417.785 0 1.241-.229 1.62-.408l-.152-.316c-.197.05-.369.098-.618.098-.118 0-.595 0-.827-.445-.098-.168-.143-.377-.09-.804l.319-2.595h1.392l.097-.794h-1.392l.168-1.378zm3.567 2.012l.077-.634h-1.592l-.624 5.075h1.593l.483-3.935c.292-.15.674-.346 1.257-.346.44 0 .735.116 1.017.236l.142-1.15a3.42 3.42 0 0 0-.448-.028c-1.083 0-1.636.525-1.905.782zm6.278 3.232c-.372.317-.808.565-1.32.565-.785 0-1.038-.457-.956-1.12l.406-3.312h-1.594l-.43 3.499c-.057.456-.214 1.735 1.845 1.735 1.095 0 1.63-.475 1.976-.782l-.077.624h1.594l.625-5.076h-1.595l-.474 3.867zm5.781-3.32c1.201 0 1.436.514 1.521.692l.427-.098c-.022-.199-.057-.496-.377-.803-.34-.328-.93-.555-1.74-.555-1.772 0-2.667.892-2.767 1.705-.113.922.768 1.21.997 1.278.264.09.53.138.799.19.756.138 1.132.267 1.27.595.025.088.04.167.03.245-.003.03-.061.497-.75.676-.208.059-.412.07-.602.07-.667 0-1.215-.188-1.515-.467-.148-.14-.203-.279-.258-.406l-.428.078c.007.24.034.607.396.953.235.218.796.585 1.987.585 1.748 0 2.694-.823 2.803-1.705a1.235 1.235 0 0 0-.348-1.051c-.308-.298-.759-.406-1.084-.477-.22-.049-.44-.088-.66-.128-.522-.12-1.055-.248-.998-.704.04-.327.429-.674 1.297-.674zm5.192-1.924h-1.583l-.17 1.378h-.963l-.098.794h.964l-.344 2.805c-.054.445-.05.892.346 1.248.417.386 1.044.417 1.329.417.786 0 1.242-.229 1.622-.408l-.153-.316c-.196.05-.37.098-.619.098-.118 0-.595 0-.825-.445-.099-.168-.145-.377-.091-.804l.318-2.595h1.392l.097-.794h-1.392l.17-1.378zm6.847 0h-1.583l-.169 1.378h-.964l-.098.794h.964l-.344 2.805c-.054.445-.05.892.346 1.248.417.386 1.044.417 1.33.417.785 0 1.24-.229 1.618-.408l-.15-.316c-.196.05-.37.098-.619.098-.118 0-.595 0-.825-.445-.099-.168-.145-.377-.091-.804l.318-2.595h1.392l.097-.794h-1.392l.17-1.378zm6.768 1.506a2.416 2.416 0 0 0-1.179-.287c-1.118 0-1.77.566-2.037.793l.315-2.557h-1.583l-.858 6.998h1.58l.47-3.815c.385-.328.86-.607 1.383-.607a.99.99 0 0 1 .673.239c.299.277.261.693.201 1.168l-.37 3.015h1.582l.412-3.36c.056-.446.143-1.15-.589-1.587zm3.13-2.26c-.49 0-.934.338-.984.734a.608.608 0 0 0 .198.525.88.88 0 0 0 .603.22c.488 0 .923-.338.972-.745.048-.396-.315-.733-.79-.733zm-1.672 7.207h1.583l.623-5.075h-1.583l-.623 5.075zm7.067-5.223c-1.154 0-1.742.515-2.086.813l.082-.665h-1.583l-.624 5.075h1.583l.462-3.776c.306-.259.744-.625 1.398-.625.572 0 .831.307.89.595.04.168.018.347-.002.515l-.404 3.291h1.593l.422-3.429c.051-.427.077-.932-.326-1.329-.287-.278-.775-.465-1.405-.465zm7.437.148l-.067.545c-.219-.259-.633-.763-1.738-.763-1.5 0-2.755 1.02-2.948 2.597-.204 1.655.99 2.498 2.19 2.498.655 0 1.315-.239 1.733-.536.116-.078.223-.167.33-.267-.064.616-.146 1.29-.79 1.775-.197.148-.675.455-1.482.455-.668 0-1.151-.228-1.429-.485-.105-.11-.197-.238-.34-.437l-.397.149c.042.239.103.605.456.932.396.366 1.148.625 2.09.625.986 0 1.914-.277 2.464-.693.786-.595.897-1.398.99-2.054l.532-4.341h-1.594zm-.43 3.498c-.238.199-.713.576-1.403.576-.738 0-1.37-.555-1.23-1.695.14-1.15.827-1.805 1.708-1.805.725 0 1 .388 1.203.673l-.277 2.25zm-58.416-3.716c-1.81 0-2.393.871-2.714 1.358l.384.169c.27-.269.759-.755 1.77-.755.453 0 1.115.13 1.335.664.1.248.092.515.07.774-.46-.12-.829-.218-1.412-.218-1.416 0-2.65.654-2.793 1.824-.113.912.585 1.626 1.821 1.626a3.177 3.177 0 0 0 2.076-.724l-.069.575h1.534l.376-3.064c.057-.464.127-1.14-.404-1.644-.309-.298-.94-.585-1.974-.585zm.595 4.262c-.33.168-.735.367-1.295.367-.796 0-1.037-.466-.983-.901.08-.645.735-.953 1.437-.953.403 0 .703.089 1 .19l-.159 1.297z" fill="#004FA3"/>
  </g>
</svg>
