<svg width="190" height="26" xmlns="http://www.w3.org/2000/svg">
  <g fill="none" fill-rule="evenodd">
    <path d="M122.544 25.32c-3.936 0-6.957-1.3-9.908-3.934l1.194-1.371c2.707 2.495 5.201 3.654 8.82 3.654 3.69 0 6.22-2.073 6.22-4.883v-.07c0-2.6-1.372-4.112-6.958-5.236-5.904-1.194-8.292-3.198-8.292-6.922v-.07c0-3.655 3.338-6.466 7.906-6.466 3.583 0 5.938.984 8.432 2.987l-1.16 1.44c-2.318-2.003-4.638-2.776-7.343-2.776-3.62 0-6.008 2.074-6.008 4.638v.07c0 2.601 1.335 4.182 7.168 5.376 5.692 1.16 8.08 3.198 8.08 6.782v.07c0 3.97-3.408 6.712-8.15 6.712M148.341 15.166c-.244-3.62-2.317-6.956-6.429-6.956-3.549 0-6.29 2.986-6.606 6.956h13.035zm-6.007 8.609c2.776 0 4.674-1.23 6.15-2.812l1.194 1.056c-1.827 1.967-3.971 3.372-7.415 3.372-4.708 0-8.785-3.76-8.785-9.347v-.07c0-5.2 3.655-9.346 8.504-9.346 5.026 0 8.222 4.075 8.222 9.381v.07c0 .247 0 .352-.036.633h-14.862c.317 4.462 3.514 7.063 7.028 7.063zM167.034 24.97V14.322c0-3.69-2.074-6.114-5.693-6.114-3.513 0-6.219 2.67-6.219 6.395v10.365h-1.721V7.05h1.721v3.338c1.194-2.108 3.198-3.759 6.465-3.759 4.534 0 7.168 3.092 7.168 7.379v10.962h-1.721M188.15 15.974c0-4.603-3.583-7.695-7.308-7.695-3.902 0-7.027 2.846-7.027 7.66v.07c0 4.709 3.266 7.73 7.027 7.73 3.725 0 7.307-3.127 7.307-7.695v-.07zm-.107 8.995v-4.006c-1.544 2.355-3.828 4.428-7.378 4.428-4.322 0-8.712-3.479-8.712-9.312v-.07c0-5.833 4.39-9.382 8.712-9.382 3.584 0 5.903 2.039 7.378 4.288V.374h1.724v24.595h-1.724zM43.893 5.363v19.606h-5.411V5.363h-7.484V.373h20.38v4.99z" fill="#262D3F"/>
    <path d="M63.29 15.588c0-2.776-2.003-5.2-4.954-5.2-3.058 0-4.884 2.354-4.884 5.13v.07c0 2.776 2.002 5.2 4.954 5.2 3.056 0 4.884-2.354 4.884-5.13v-.07zm-4.954 9.803c-5.833 0-10.156-4.321-10.156-9.733v-.07c0-5.412 4.358-9.803 10.226-9.803 5.832 0 10.154 4.321 10.154 9.732v.07c0 5.412-4.357 9.804-10.224 9.804zM95.56 17.38c-.914-.422-2.11-.703-3.41-.703-2.283 0-3.689.914-3.689 2.6v.07c0 1.441 1.195 2.284 2.917 2.284 2.495 0 4.181-1.37 4.181-3.303v-.948zm-.107 7.59v-2.038c-1.3 1.44-3.091 2.389-5.691 2.389-3.55 0-6.465-2.038-6.465-5.762v-.07c0-4.112 3.127-6.01 7.59-6.01 1.896 0 3.266.317 4.602.773v-.316c0-2.213-1.37-3.443-4.04-3.443-2.039 0-3.48.387-5.201 1.019l-1.335-4.076c2.073-.913 4.111-1.511 7.308-1.511 5.833 0 8.398 3.022 8.398 8.117v10.927h-5.166zM103.815 24.97h5.342V.374h-5.342zM81.699 19.913a5.438 5.438 0 0 1-2.629.664c-1.195 0-1.722-.597-1.722-1.827v-8.047h4.35V6.136h-4.35V1.322h-5.34v4.814h-2.25v4.567h2.25v8.926c0 4.357 2.213 5.656 5.48 5.656 1.79 0 3.087-.42 4.21-1.085v-4.287" fill="#262D3F"/>
    <path fill="#3FA2DA" d="M18.446 18.82l-6.148-6.148L0 24.968h24.595z"/>
    <path fill="#3575A5" d="M18.447 18.82l6.147 6.148V12.672zM4.92 17.592L0 12.672v12.296l6.15-6.148z"/>
    <path fill="#262D3F" d="M12.298.374L0 12.672l6.148 6.148 6.15-6.148 6.149 6.148 6.148-6.148z"/>
  </g>
</svg>
