<svg width="138" height="58" xmlns="http://www.w3.org/2000/svg" xmlns:xlink="http://www.w3.org/1999/xlink">
  <defs>
    <linearGradient x1="50%" y1="0%" x2="50%" y2="100%" id="a">
      <stop stop-color="#A8448B" offset="0%"/>
      <stop stop-color="#305CA9" offset="100%"/>
    </linearGradient>
    <linearGradient x1="50%" y1="0%" x2="50%" y2="100%" id="b">
      <stop stop-color="#D8377D" offset="0%"/>
      <stop stop-color="#0685C8" offset="100%"/>
    </linearGradient>
    <linearGradient x1="50%" y1="0%" x2="50%" y2="100%" id="c">
      <stop stop-color="#AF4088" offset="0%"/>
      <stop stop-color="#3C5BA7" offset="100%"/>
    </linearGradient>
    <linearGradient x1="50%" y1="0%" x2="50%" y2="100%" id="d">
      <stop stop-color="#C5167A" offset="0%"/>
      <stop stop-color="#992E81" offset="100%"/>
    </linearGradient>
    <linearGradient x1="50%" y1="0%" x2="50%" y2="100%" id="e">
      <stop stop-color="#B93D86" offset="0%"/>
      <stop stop-color="#6771B0" offset="100%"/>
    </linearGradient>
    <linearGradient x1="50%" y1="0%" x2="50%" y2="74.207%" id="f">
      <stop stop-color="#DF007C" offset="0%"/>
      <stop stop-color="#67558A" offset="100%"/>
    </linearGradient>
    <linearGradient x1="50%" y1="0%" x2="50%" y2="100%" id="g">
      <stop stop-color="#B83C86" offset="0%"/>
      <stop stop-color="#1967B2" offset="100%"/>
    </linearGradient>
    <linearGradient x1="100%" y1="8.051%" x2="0%" y2="59.462%" id="h">
      <stop stop-color="#D9267D" offset="0%"/>
      <stop stop-color="#8B4E92" offset="100%"/>
    </linearGradient>
    <linearGradient x1="50%" y1="0%" x2="50%" y2="100%" id="i">
      <stop stop-color="#C10F78" offset="0%"/>
      <stop stop-color="#734686" offset="100%"/>
    </linearGradient>
    <linearGradient x1="50%" y1="0%" x2="77.085%" y2="78.941%" id="j">
      <stop stop-color="#CF2B7D" offset="0%"/>
      <stop stop-color="#8A4E92" offset="100%"/>
    </linearGradient>
    <path d="M32.175 15.122s-5.105 9.247-6.534 13.69c-.171.954-.704 1.009-.704 1.009-.93.093-1.37-1.606-1.454-2.403-.228-2.26.647-5.574.647-5.574l.104-.278c-.014-.133-.162-.25-.292-.24-.265.03-.505.322-.505.322C9.392 35.426 6.922 36.214 5.061 36.404c-3.588.363-4.648-4.768-4.862-6.893C-.92 18.478 11.83 1.207 12.31.621c0 0 .372-.306 1.038-.376 1.061-.107 3.574.849 3.844 3.507-.317.836-1.911 2.34-3.33 4.232-3.186 4.348-9.35 15.046-9.632 21.52.038.399.104 1.062 1.169.956 2.924-.298 15.183-7.85 22.478-19.335 0 0 1.128-2.125 4.861-2.371 1.86-.188 2.553.007 2.62.672.11 1.064-2.03 3.834-3.182 5.696" id="l"/>
    <filter x="-32.6%" y="-26.3%" width="182.3%" height="180.1%" filterUnits="objectBoundingBox" id="k">
      <feOffset dx="3" dy="5" in="SourceAlpha" result="shadowOffsetOuter1"/>
      <feGaussianBlur stdDeviation="4" in="shadowOffsetOuter1" result="shadowBlurOuter1"/>
      <feColorMatrix values="0 0 0 0 0 0 0 0 0 0 0 0 0 0 0 0 0 0 0.26355865 0" in="shadowBlurOuter1"/>
    </filter>
  </defs>
  <g fill="none" fill-rule="evenodd">
    <path d="M19.201 1.526L32.68 53.325h77.671c4.518 0 16.597-16.552 17.11-21.11.131-1.153-8.937-28.616-8.951-30.43-10.126 0-91.414-.26-99.308-.26v.001z" fill="url(#a)" transform="translate(0 -.162)"/>
    <path d="M134.967 1.493H81.52c.568.036 1.095.076 1.57.132 13.013 1.465 20.459 9.93 24.401 16.742l1.755 3.47c1.273 2.579 1.778 4.092 2.278 5.654-5.048 14.897-15.502 24.212-28.715 25.561-.463.05-.982.086-1.543.11h53.007s3.338.36 3.338-2.976V4.352c0-2.705-2.072-2.86-2.548-2.86l-.096.001" fill="#004F94"/>
    <path d="M23.54.444c-6.43 0-13.197.713-20.123 2.118-1.02.206-1.719 1.085-1.837 2.286C1 10.762-.289 25.14.302 30.936c1.234 12.084 9.757 22.053 23.385 26.671 1.422-.461 2.816-.923 5.173-2.087l3.172-1.606c6.232-3.607 13.974-10.822 15.316-22.73.65-5.766-.48-20.171-.995-26.098-.104-1.187-.815-2.091-1.814-2.302C37.466 1.264 30.55.48 23.99.444h-.45z" fill="#FEFEFE"/>
    <path d="M23.597 1.704c-5.866 0-12.04.652-18.357 1.936-.932.186-1.57.989-1.678 2.085-.53 5.395-1.704 18.513-1.165 23.802 1.125 11.023 8.901 20.12 21.334 24.331 1.299-.418 2.572-.84 4.72-1.9l2.894-1.467c5.686-3.292 12.749-9.872 13.973-20.74.594-5.26-.438-18.403-.907-23.809-.093-1.084-.744-1.908-1.655-2.1-6.452-1.388-12.765-2.1-18.751-2.138h-.408z" fill="url(#b)" transform="translate(0 -.162)"/>
    <path d="M23.597 1.545c-5.865 0-12.04.649-18.358 1.932-.932.188-1.57.99-1.676 2.086-.53 5.395-1.706 18.512-1.167 23.801 1.127 11.023 8.902 20.12 21.335 24.332 1.298-.419 2.57-.84 4.719-1.901l2.895-1.467c5.685-3.29 12.75-9.873 13.973-20.737.595-5.262-.438-18.404-.908-23.811-.095-1.083-.744-1.909-1.656-2.1-6.451-1.387-12.762-2.101-18.749-2.135h-.408z" stroke="#FEFEFE" stroke-width=".372"/>
    <path d="M4.2 27.058c.015.88.052 1.667.122 2.324.516 5.042 2.575 9.761 5.961 13.648 3.342 3.833 7.987 6.887 13.47 8.844.026-.009.055-.017.082-.029-6.107-9.298-8.892-19.055-9.909-27.885A72.028 72.028 0 0 1 4.2 27.058" fill="url(#c)" transform="translate(0 -.162)"/>
    <path d="M5.623 5.588h-.009c-.02.016-.103.125-.129.375-.456 4.658-1.395 15.11-1.285 21.095a72.028 72.028 0 0 0 9.726-3.098c-.869-7.537-.449-14.401.295-19.728-2.82.312-5.694.764-8.598 1.356" fill="url(#d)" transform="translate(0 -.162)"/>
    <path d="M13.926 23.96c1.017 8.83 3.802 18.587 9.91 27.885.963-.322 2.061-.735 3.75-1.56l2.837-1.442a28.643 28.643 0 0 0 4.945-3.631c-8.829-4.27-13.226-14.225-15.379-24.065a59.169 59.169 0 0 1-6.063 2.813" fill="url(#e)" transform="translate(0 -.162)"/>
    <path d="M14.221 4.232c-.744 5.327-1.164 12.191-.295 19.728a59.169 59.169 0 0 0 6.063-2.813c-1.376-6.307-1.835-12.566-1.945-17.262a86.956 86.956 0 0 0-3.823.347" fill="url(#f)" transform="translate(0 -.162)"/>
    <path d="M19.989 21.147c2.153 9.84 6.55 19.794 15.379 24.065a26.94 26.94 0 0 0 3.11-3.375c2.754-3.578 4.41-7.698 4.925-12.249.13-1.152.175-2.738.16-4.549-6.971-2.354-11.81-6.022-15.144-9.804-2.523 2.362-5.455 4.312-8.43 5.912" fill="url(#g)" transform="translate(0 -.162)"/>
    <path d="M28.419 15.235c3.334 3.782 8.173 7.45 15.145 9.804-.04-6.394-.795-15.626-1.077-18.875-.024-.256-.12-.37-.14-.383a97.225 97.225 0 0 0-7.157-1.26c-1.164 4.262-3.655 7.8-6.771 10.714" fill="url(#h)" transform="translate(0 -.162)"/>
    <path d="M18.044 3.885c.11 4.696.569 10.955 1.945 17.262 2.975-1.6 5.907-3.55 8.43-5.912-3.778-4.28-5.64-8.704-6.52-11.52a84.207 84.207 0 0 0-3.855.17" fill="url(#i)" transform="translate(0 -.162)"/>
    <path d="M21.899 3.714c.88 2.817 2.742 7.241 6.52 11.52 3.116-2.914 5.607-6.45 6.77-10.713a84.521 84.521 0 0 0-11.194-.826l-.395-.001c-.565 0-1.132.007-1.701.02" fill="url(#j)" transform="translate(0 -.162)"/>
    <g transform="translate(7.168 5.434)">
      <use fill="#000" filter="url(#k)" xlink:href="#l"/>
      <use fill="#F3F4F4" xlink:href="#l"/>
    </g>
    <path d="M68.713 31.657c0 .076-.028.166-.202.218a9.027 9.027 0 0 1-2.925.454c-3.148 0-4.077-1.663-4.077-4.798s.929-4.787 4.077-4.787c1.45 0 2.378.28 2.925.453.174.053.202.142.202.204 0 .039-.013.079-.013.09l-.113.57c-.026.118-.09.154-.18.154-.037 0-.087 0-.124-.011-.587-.154-1.524-.393-2.582-.393-2.333 0-2.878 1.13-2.878 3.706 0 2.579.545 3.734 2.878 3.734 1.058 0 1.995-.216 2.582-.367a.433.433 0 0 1 .124-.027c.09 0 .154.053.18.166l.113.558c0 .014.013.04.013.076M72.515 25.957c-1.815 0-1.895 1.06-1.895 2.755 0 1.683.08 2.744 1.895 2.744 1.83 0 1.908-1.06 1.908-2.744 0-1.696-.079-2.755-1.908-2.755m0 6.457c-2.85 0-3.2-1.667-3.2-3.702 0-2.043.35-3.711 3.2-3.711 2.866 0 3.201 1.668 3.201 3.711 0 2.035-.335 3.702-3.2 3.702M79.497 32.413c-2.327 0-3.015-.943-3.015-2.742v-4.277c0-.125.085-.18.19-.202l.875-.19h.038c.11 0 .15.093.15.19v4.586c0 1.166.416 1.692 1.762 1.692 1.599 0 1.762-.78 1.762-1.72l-.013-4.344c0-.137.066-.191.186-.203l.862-.202h.053c.11 0 .15.08.15.191v4.463c0 1.412-.323 2.758-3 2.758M89.423 32.237h-.835c-.133 0-.215-.082-.215-.201v-4.923c0-.863-.322-1.157-1.194-1.157-1.147 0-2.315.337-2.315.337v5.743c0 .119-.068.2-.201.2h-.834c-.137 0-.217-.081-.217-.2v-5.637c0-.523.08-.754.781-.982.7-.225 1.992-.417 2.85-.417 1.615 0 2.383.483 2.383 1.967v5.069c0 .119-.07.2-.203.2M94.56 31.983c0 .079-.052.136-.12.16a5.11 5.11 0 0 1-1.656.258c-1.37 0-2.044-.582-2.044-1.928V23.2c0-.134.069-.175.188-.202l.876-.2h.04c.108 0 .15.08.15.187v2.193h2.18c.104 0 .186.078.186.2v.58c0 .106-.082.188-.202.188h-2.163v4.4c0 .698.36.886 1.06.886.418 0 .915-.108 1.186-.16.013 0 .026-.017.037-.017.07 0 .136.056.15.137l.133.563v.029zM56.667 32.496c-3.012 0-3.966-1.321-3.966-3.648v-5.631c0-.12.082-.158.172-.174l.978-.158h.027c.105 0 .145.094.145.174v5.882c0 1.56.478 2.457 2.657 2.457 1.797 0 2.629-.635 2.629-2.246v-5.935c0-.12.067-.158.17-.174l.98-.158h.028c.105 0 .142.094.142.174v5.722c0 2.012-.566 3.715-3.962 3.715M55.058 35.849v.879h.472c.348 0 .513-.138.513-.438 0-.302-.165-.441-.513-.441h-.472zm1.051 2.26a.07.07 0 0 1-.063-.038l-.655-.94h-.333v.921c0 .037-.018.056-.051.056h-.344c-.035 0-.053-.019-.053-.056V35.49c0-.037.018-.057.053-.057h.867c.613 0 .972.318.972.854 0 .41-.228.691-.62.796l.684.958c.026.041.008.067-.034.067h-.423zM60.805 37.697h1.2c.039 0 .056.018.056.053v.302c0 .038-.017.056-.056.056h-1.6c-.034 0-.053-.018-.053-.056V35.49c0-.036.019-.056.053-.056h1.549c.037 0 .055.02.055.056v.304c0 .033-.018.052-.055.052h-1.149v.7h1.051c.037 0 .056.018.056.055v.3c0 .037-.019.056-.056.056h-1.05v.74zM66.406 38.108c-.033 0-.053-.014-.06-.048l-.707-2.562c-.01-.037.007-.065.049-.065h.367c.033 0 .053.012.059.049l.31 1.243c.065.254.128.568.18.844h.011c.06-.28.15-.632.228-.909l.323-1.14c.007-.034.026-.048.06-.048h.366c.034 0 .053.014.06.047l.325 1.141c.08.277.165.63.224.91h.011c.05-.277.117-.591.181-.845l.31-1.243c.007-.037.027-.049.056-.049h.371c.037 0 .059.028.049.065l-.708 2.562c-.008.034-.026.048-.06.048h-.392c-.03 0-.053-.014-.06-.048l-.349-1.179a7.725 7.725 0 0 1-.193-.837H67.4c-.04.235-.107.545-.19.837l-.352 1.179c-.007.034-.03.048-.06.048h-.393zM73.296 37.09h.77l-.377-1.162h-.016l-.377 1.163zm-.74 1.019c-.041 0-.057-.023-.045-.064l.897-2.567c.012-.029.03-.045.06-.045h.426c.03 0 .049.016.06.045l.898 2.567c.011.04-.007.064-.045.064h-.367c-.03 0-.056-.015-.063-.045l-.183-.565h-1.025l-.184.565c-.011.03-.033.045-.063.045h-.367zM78.994 35.849v.879h.471c.349 0 .514-.138.514-.438 0-.302-.165-.441-.514-.441h-.471zm1.05 2.26a.07.07 0 0 1-.062-.038l-.656-.94h-.332v.921c0 .037-.019.056-.052.056h-.344c-.034 0-.053-.019-.053-.056V35.49c0-.037.019-.057.053-.057h.867c.614 0 .972.318.972.854 0 .41-.227.691-.62.796l.685.958c.026.041.007.067-.034.067h-.423zM84.74 37.686h.528c.359 0 .542-.177.542-.55v-.718c0-.385-.183-.569-.542-.569h-.527v1.837zm-.4.423c-.034 0-.052-.02-.052-.056v-2.564c0-.037.018-.056.053-.056h.927c.621 0 1.01.334 1.01.988v.711c0 .647-.389.977-1.01.977h-.927zM91 38.153c-.374 0-.651-.119-.955-.358-.026-.027-.03-.049-.01-.079l.186-.262c.019-.026.045-.03.075-.012.244.177.467.277.722.286.274 0 .542-.117.542-.372 0-.27-.28-.337-.605-.403-.393-.083-.91-.262-.91-.82 0-.519.46-.744 1-.744.322 0 .575.09.88.296.028.018.032.048.014.074l-.18.258c-.018.03-.048.03-.078.012a1.288 1.288 0 0 0-.67-.217c-.322 0-.509.128-.509.328 0 .24.24.304.568.379.439.097.955.24.955.83 0 .562-.48.804-1.025.804" fill="#FEFEFE"/>
  </g>
</svg>
