<svg width="104" height="52" xmlns="http://www.w3.org/2000/svg">
  <g fill="#1A1F71" fill-rule="nonzero">
    <path d="M6.209 18.356L.755 1.603h2.337l2.616 8.238c.724 2.282 1.336 4.285 1.781 6.29h.056c.445-1.949 1.169-4.064 1.892-6.235l2.839-8.293h2.337l-6.01 16.753H6.208zM15.782 12.735c.056 2.95 1.948 4.174 4.119 4.174 1.558 0 2.504-.278 3.34-.612l.389 1.558c-.78.334-2.115.724-4.007.724-3.73 0-5.9-2.449-5.9-6.067C13.723 8.895 15.838 6 19.344 6c3.952 0 4.954 3.451 4.954 5.677 0 .446-.056.78-.056 1.002l-8.46.056zm6.4-1.558c.056-1.392-.556-3.563-3.06-3.563-2.227 0-3.173 2.06-3.34 3.563h6.4zM26.023 10.063c0-1.391 0-2.616-.111-3.729h1.892l.056 2.338h.111c.557-1.614 1.893-2.616 3.34-2.616.222 0 .445 0 .612.056V8.17c-.223-.056-.445-.056-.724-.056-1.558 0-2.616 1.17-2.95 2.783a5.515 5.515 0 0 0-.11 1.002v6.4h-2.171v-8.237h.055zM35.708 2.94c0 .723-.501 1.335-1.392 1.335-.779 0-1.336-.612-1.336-1.336 0-.78.557-1.391 1.392-1.391.78 0 1.336.612 1.336 1.391zm-2.45 3.394h2.171v12.022h-2.17V6.334zM38.324 18.356V8.004h-1.67v-1.67h1.67v-.556c0-1.67.39-3.228 1.391-4.23.835-.78 1.892-1.113 2.95-1.113a5.5 5.5 0 0 1 1.892.333l-.278 1.67c-.334-.167-.78-.278-1.391-.278-1.837 0-2.338 1.614-2.338 3.506v.668h2.894v1.67H40.55v10.352h-2.226zM47.952 2.94c.056.723-.5 1.335-1.391 1.335-.78 0-1.336-.612-1.336-1.336 0-.78.557-1.391 1.392-1.391.834 0 1.335.612 1.335 1.391zm-2.449 3.394h2.171v12.022h-2.17V6.334zM51.57 12.735c.056 2.95 1.948 4.174 4.119 4.174 1.558 0 2.504-.278 3.34-.612l.389 1.558c-.78.334-2.115.724-4.007.724-3.73 0-5.9-2.449-5.9-6.067C49.51 8.895 51.626 6 55.132 6c3.952 0 4.954 3.451 4.954 5.677 0 .446-.056.78-.056 1.002l-8.46.056zm6.4-1.558c0-1.392-.556-3.563-3.06-3.563-2.227 0-3.173 2.06-3.34 3.563h6.4zM72.22.713V15.24c0 1.057 0 2.282.11 3.116h-1.947l-.112-2.115h-.055c-.668 1.336-2.115 2.338-4.12 2.338-2.893 0-5.12-2.449-5.12-6.122 0-4.008 2.45-6.457 5.4-6.457 1.836 0 3.06.89 3.617 1.837h.056V.713h2.17zm-2.171 10.52c0-.28 0-.669-.112-.947-.334-1.391-1.503-2.56-3.172-2.56-2.282 0-3.618 2.003-3.618 4.675 0 2.449 1.169 4.453 3.562 4.453 1.447 0 2.783-.947 3.228-2.616.056-.279.112-.613.112-.946v-2.06zM80.29 18.356c.055-.834.11-2.059.11-3.116V.713h2.172v7.57h.055c.78-1.336 2.17-2.227 4.119-2.227 3.005 0 5.12 2.505 5.065 6.122 0 4.286-2.727 6.457-5.399 6.457-1.725 0-3.117-.668-4.007-2.282h-.056l-.111 2.003H80.29zm2.282-4.842c0 .278.055.557.11.78.446 1.502 1.67 2.56 3.285 2.56 2.282 0 3.673-1.893 3.673-4.62 0-2.393-1.224-4.453-3.562-4.453-1.503 0-2.894 1.002-3.34 2.672a3.873 3.873 0 0 0-.11.89v2.171h-.056zM94.204 6.334l2.616 7.124c.278.78.557 1.726.78 2.45h.055c.222-.724.445-1.67.78-2.505l2.392-7.069h2.338l-3.284 8.572c-1.558 4.118-2.616 6.233-4.119 7.513-1.057.947-2.115 1.336-2.671 1.392l-.557-1.837a5.03 5.03 0 0 0 1.893-1.057c.612-.446 1.335-1.336 1.836-2.45.112-.222.167-.389.167-.5 0-.112-.055-.279-.167-.557L91.811 6.334h2.393zM37.043 26.538L30.42 43.291 27.75 29.043c-.334-1.614-1.559-2.505-2.95-2.505H13.945l-.167.724c2.227.5 4.731 1.28 6.29 2.115.946.5 1.224.946 1.503 2.17l5.064 19.648h6.79l10.353-24.657h-6.735zM46.505 26.538l-5.287 24.657h6.4l5.232-24.657zM61.255 33.384c0-.89.89-1.837 2.727-2.06.89-.11 3.45-.222 6.29 1.114l1.112-5.232c-1.558-.557-3.506-1.113-5.955-1.113-6.29 0-10.742 3.34-10.798 8.182-.055 3.562 3.173 5.51 5.566 6.678 2.505 1.225 3.34 1.948 3.284 3.062 0 1.67-2.004 2.393-3.785 2.393-3.228.056-5.065-.89-6.567-1.558l-1.17 5.398c1.504.668 4.23 1.28 7.07 1.28 6.678 0 11.075-3.283 11.075-8.46.112-6.4-8.905-6.79-8.85-9.684M79.677 42.456l3.396-9.239 1.892 9.24h-5.288zm2.45-15.918a2.942 2.942 0 0 0-2.728 1.781l-9.573 22.82h6.679l1.336-3.674h8.181l.78 3.674h5.9L87.58 26.482h-5.455v.056z"/>
  </g>
</svg>
