<svg width="89" height="30" xmlns="http://www.w3.org/2000/svg">
  <g fill="#1A1F71" fill-rule="nonzero">
    <path d="M39.003 28.811h-7.117l4.452-27.526h7.117zM64.805 1.958C63.4 1.4 61.175.786 58.42.786c-7.029 0-11.978 3.748-12.009 9.106-.058 3.954 3.544 6.15 6.238 7.468 2.754 1.347 3.69 2.226 3.69 3.427-.028 1.844-2.225 2.694-4.274 2.694-2.842 0-4.365-.438-6.679-1.464l-.937-.44-.996 6.18c1.67.76 4.745 1.435 7.938 1.464 7.468 0 12.33-3.69 12.388-9.4.028-3.134-1.874-5.535-5.974-7.497-2.49-1.26-4.014-2.109-4.014-3.397.029-1.172 1.29-2.372 4.1-2.372 2.313-.058 4.013.498 5.3 1.054l.645.293.968-5.944zM74.264 19.06c.586-1.582 2.842-7.702 2.842-7.702-.03.059.585-1.61.936-2.636l.498 2.372s1.348 6.59 1.64 7.965h-5.916zM83.05 1.284h-5.505c-1.698 0-2.988.497-3.72 2.284L63.252 28.81h7.469s1.23-3.398 1.493-4.13h9.139c.204.967.849 4.13.849 4.13h6.59L83.05 1.285zM8.41 4.864C6.22 3.584 3.723 2.555.93 1.84l.117-.556h11.451c1.553.058 2.812.555 3.222 2.314l2.488 12.647.001.002.762 3.807 6.97-18.77h7.526L22.28 28.782h-7.527L8.41 4.864z"/>
  </g>
</svg>
