<svg width="109" height="52" xmlns="http://www.w3.org/2000/svg">
  <path d="M.5 26.87C.557 14.122 10.465 3.59 23.187 2.755l56.2-.056a24.17 24.17 0 1 1 .084 48.321H23.187C10.477 50.132.593 39.61.5 26.87zm42.67-9.058a9.128 9.128 0 1 0 9.148 9.1 9.149 9.149 0 0 0-9.148-9.128v.028zm0 14.995a5.888 5.888 0 1 1 5.901-5.888 5.902 5.902 0 0 1-5.901 5.888zM80.32 17.784a9.128 9.128 0 1 0 9.149 9.128 9.149 9.149 0 0 0-9.149-9.128zm0 15.023a5.888 5.888 0 1 1 5.881-5.895A5.895 5.895 0 0 1 80.3 32.8l.021.007zM69.64 30.66c-1.198-1.046-2.418.209-2.418.209a5.895 5.895 0 1 1 .126-7.776c.64.566 1.603.566 2.243 0 1.108-.983.105-2.25.105-2.25a9.135 9.135 0 1 0-.056 12.172s1.15-1.394 0-2.362v.007zm-49.47-2.467v6.257a1.616 1.616 0 0 0 3.233 0v-9.413-.314a3.484 3.484 0 0 0-.99-2.438l-5.19-5.407a1.616 1.616 0 0 0-2.328 2.243l2.787 2.87L19 23.387c.13.119.252.247.362.384.428.523.695 1.16.767 1.832v.606l.042 1.986zm8.166-1.979V26v-.39a3.484 3.484 0 0 1 .731-1.805c.111-.136.232-.264.363-.383l1.317-1.393 2.787-2.871a1.616 1.616 0 0 0-2.286-2.278l-5.184 5.365a3.484 3.484 0 0 0-.99 2.438v9.741a1.616 1.616 0 0 0 3.234 0V28.201l.028-1.986zm75.905-17a4.515 4.515 0 1 1 4.515-4.516 4.522 4.522 0 0 1-4.515 4.515zm0-8.543a4.027 4.027 0 1 0 4.028 4.027A4.034 4.034 0 0 0 104.24.637v.035zm1.045 5.88a.077.077 0 0 1-.076-.055l-.774-1.582h-.857v1.547c0 .042 0 .056-.055.056h-.39c-.042 0-.056 0-.056-.056V2.706c0-.041 0-.055.055-.055h1.394c.321-.015.636.095.878.306.214.213.326.507.306.808.016.485-.3.919-.766 1.053l.822 1.61a.042.042 0 0 1 0 .069l-.48.056zm-.794-2.09c.453 0 .697-.237.697-.64 0-.405-.265-.642-.697-.642h-.906v1.192l.906.09z" fill="#23A0DB" fill-rule="evenodd"/>
</svg>
