<svg width="184" height="45" xmlns="http://www.w3.org/2000/svg">
  <path d="M27.232 7.743c.05-.049.095-.099.143-.15l.237-.288c.526-.678.853-1.52.853-2.445a4.01 4.01 0 0 0-4.01-4.01 3.99 3.99 0 0 0-2.792 1.14L.769 24.683A3.977 3.977 0 0 0 0 27.027a4.01 4.01 0 0 0 4.01 4.01h19.945a4.01 4.01 0 0 0 0-8.02H13.61s-.768-.156-.077-.846L27.232 7.743zM18.963.824H4.3v.01a4.018 4.018 0 0 0 .003 8.033c.029 0 .056-.009.086-.01h7.371L18.963.825zm22.794.687s-7.997.068-9.773 4.306c0 0-.548 2.665-.343 4.442 0 0 3.898-2.898 9.022-3.007 6.425-.137 5.81 5.332 5.81 5.332S28.43 10.533 28.43 23.314c0 0-.001 8.339 9.841 8.339 0 0 5.468-.48 8.065-4.923v4.17s8.134.821 8.134-6.15V9.917c-.001 0-.41-8.407-12.713-8.407zm-1.142 24.212c-4.2.147-4.291-4.247-4.291-4.247s-.574-3.193 5.07-3.747c0 0 5.128-.657 5.17.444.001 0 .695 7.317-5.948 7.55zm34.303-23.93s-7.6.148-9.23 5.037V1.816S56.96.94 56.96 7.969s.082 36.44.082 36.44 8.638.825 8.638-6.377V27.42s2.855 4.568 8.351 4.568c6.3 0 12.849-4.301 12.849-16.232.001-14.137-11.963-13.962-11.963-13.962zm-4.066 23.195c-2.493 0-5.535-3.228-5.535-8.876s2.97-8.143 6.342-8.143c0 0 6.565.294 6.565 7.959s-4.53 9.06-7.372 9.06zm35.366-23.195s-7.6.148-9.232 5.037V1.816S88.26.94 88.26 7.969s.08 36.44.08 36.44 8.64.825 8.64-6.377V27.42s2.854 4.568 8.35 4.568c6.301 0 12.85-4.301 12.85-16.232 0-14.137-11.962-13.962-11.962-13.962zm-4.065 23.195c-2.495 0-5.537-3.228-5.537-8.876s2.969-8.143 6.343-8.143c0 0 6.565.294 6.565 7.959s-4.532 9.06-7.372 9.06zm38.245-21.234a14.256 14.256 0 0 0-6.552-1.602c-8.041 0-14.558 6.643-14.558 14.838s6.517 14.837 14.558 14.837c.424 0 .844-.022 1.26-.058 1.066-.139 3.235-.537 5.382-1.59a14.607 14.607 0 0 0 3.42-2.5 8.848 8.848 0 0 0 2.13-4.153h-1.234s-2.283 2.337-9.292 2.337c-7.01 0-7.989-7.01-7.989-7.01h19.067c.188-2.18.542-11.32-6.192-15.1zm-1.608 10.373h-11.302s.29-6.522 5.941-6.522c5.65 0 5.36 6.522 5.36 6.522zM157.4 17.56c0-5.648 2.609-8.08 5.983-8.08 0 0 1.523.079 3.102 1.004V1.8c-1.051.05-7.576.538-9.073 5.03V1.815s-8.73-.875-8.73 6.155c0 7.028.032 23.193.032 23.193s8.691.599 8.691-6.602c0-6.283-.005-6.911-.005-7zm15.21-15.268h-2.222v-.78h5.371v.78h-2.222v6.544h-.926V2.292zm4.402-.78h1.106l1.418 3.93.526 1.496h.043l.515-1.496 1.405-3.93h1.096v7.324h-.883v-4.03c0-.648.078-1.52.123-2.167h-.045l-.58 1.63-1.407 3.83h-.536l-1.406-3.83-.582-1.63h-.043c.043.647.111 1.518.111 2.166v4.031h-.86V1.511h-.001z" fill="#3D80C0" fill-rule="nonzero"/>
</svg>
